%TF.GenerationSoftware,KiCad,Pcbnew,9.0.7*%
%TF.CreationDate,2026-03-07T10:35:43-05:00*%
%TF.ProjectId,RP2040_Count,52503230-3430-45f4-936f-756e742e6b69,v1*%
%TF.SameCoordinates,Original*%
%TF.FileFunction,Copper,L1,Top*%
%TF.FilePolarity,Positive*%
%FSLAX46Y46*%
G04 Gerber Fmt 4.6, Leading zero omitted, Abs format (unit mm)*
G04 Created by KiCad (PCBNEW 9.0.7) date 2026-03-07 10:35:43*
%MOMM*%
%LPD*%
G01*
G04 APERTURE LIST*
G04 Aperture macros list*
%AMRoundRect*
0 Rectangle with rounded corners*
0 $1 Rounding radius*
0 $2 $3 $4 $5 $6 $7 $8 $9 X,Y pos of 4 corners*
0 Add a 4 corners polygon primitive as box body*
4,1,4,$2,$3,$4,$5,$6,$7,$8,$9,$2,$3,0*
0 Add four circle primitives for the rounded corners*
1,1,$1+$1,$2,$3*
1,1,$1+$1,$4,$5*
1,1,$1+$1,$6,$7*
1,1,$1+$1,$8,$9*
0 Add four rect primitives between the rounded corners*
20,1,$1+$1,$2,$3,$4,$5,0*
20,1,$1+$1,$4,$5,$6,$7,0*
20,1,$1+$1,$6,$7,$8,$9,0*
20,1,$1+$1,$8,$9,$2,$3,0*%
G04 Aperture macros list end*
%TA.AperFunction,SMDPad,CuDef*%
%ADD10RoundRect,0.249999X1.425001X-0.450001X1.425001X0.450001X-1.425001X0.450001X-1.425001X-0.450001X0*%
%TD*%
%TA.AperFunction,ComponentPad*%
%ADD11RoundRect,0.250000X-1.550000X0.650000X-1.550000X-0.650000X1.550000X-0.650000X1.550000X0.650000X0*%
%TD*%
%TA.AperFunction,ComponentPad*%
%ADD12O,3.600000X1.800000*%
%TD*%
%TA.AperFunction,SMDPad,CuDef*%
%ADD13RoundRect,0.237500X0.250000X0.237500X-0.250000X0.237500X-0.250000X-0.237500X0.250000X-0.237500X0*%
%TD*%
%TA.AperFunction,SMDPad,CuDef*%
%ADD14RoundRect,0.237500X-0.300000X-0.237500X0.300000X-0.237500X0.300000X0.237500X-0.300000X0.237500X0*%
%TD*%
%TA.AperFunction,SMDPad,CuDef*%
%ADD15R,0.700000X0.510000*%
%TD*%
%TA.AperFunction,SMDPad,CuDef*%
%ADD16RoundRect,0.150000X0.150000X-0.825000X0.150000X0.825000X-0.150000X0.825000X-0.150000X-0.825000X0*%
%TD*%
%TA.AperFunction,SMDPad,CuDef*%
%ADD17RoundRect,0.250000X0.475000X-0.337500X0.475000X0.337500X-0.475000X0.337500X-0.475000X-0.337500X0*%
%TD*%
%TA.AperFunction,ComponentPad*%
%ADD18R,1.600000X1.600000*%
%TD*%
%TA.AperFunction,SMDPad,CuDef*%
%ADD19R,1.700000X3.030000*%
%TD*%
%TA.AperFunction,ComponentPad*%
%ADD20C,1.600000*%
%TD*%
%TA.AperFunction,SMDPad,CuDef*%
%ADD21RoundRect,0.237500X-0.250000X-0.237500X0.250000X-0.237500X0.250000X0.237500X-0.250000X0.237500X0*%
%TD*%
%TA.AperFunction,SMDPad,CuDef*%
%ADD22R,2.000000X1.500000*%
%TD*%
%TA.AperFunction,SMDPad,CuDef*%
%ADD23R,2.000000X3.800000*%
%TD*%
%TA.AperFunction,SMDPad,CuDef*%
%ADD24RoundRect,0.237500X0.300000X0.237500X-0.300000X0.237500X-0.300000X-0.237500X0.300000X-0.237500X0*%
%TD*%
%TA.AperFunction,ComponentPad*%
%ADD25RoundRect,0.291667X-1.508333X0.758333X-1.508333X-0.758333X1.508333X-0.758333X1.508333X0.758333X0*%
%TD*%
%TA.AperFunction,ComponentPad*%
%ADD26O,3.600000X2.100000*%
%TD*%
%TA.AperFunction,ComponentPad*%
%ADD27R,2.500000X1.700000*%
%TD*%
%TA.AperFunction,ComponentPad*%
%ADD28O,2.500000X1.700000*%
%TD*%
%TA.AperFunction,ComponentPad*%
%ADD29C,2.000000*%
%TD*%
%TA.AperFunction,ViaPad*%
%ADD30C,0.800000*%
%TD*%
%TA.AperFunction,Conductor*%
%ADD31C,0.500000*%
%TD*%
%TA.AperFunction,Conductor*%
%ADD32C,1.000000*%
%TD*%
%TA.AperFunction,Conductor*%
%ADD33C,0.400000*%
%TD*%
G04 APERTURE END LIST*
D10*
%TO.P,R2,1*%
%TO.N,VIN1*%
X112200000Y-91800000D03*
%TO.P,R2,2*%
%TO.N,VOUT1*%
X112200000Y-85700000D03*
%TD*%
D11*
%TO.P,TB1,1,P1*%
%TO.N,VIN1*%
X105357500Y-92112500D03*
D12*
%TO.P,TB1,2,P2*%
%TO.N,GND*%
X105357500Y-95922500D03*
%TD*%
D13*
%TO.P,R3,1*%
%TO.N,Net-(U4-A0)*%
X116912500Y-97300000D03*
%TO.P,R3,2*%
%TO.N,GND*%
X115087500Y-97300000D03*
%TD*%
D14*
%TO.P,C6,1*%
%TO.N,GND*%
X148375000Y-97800000D03*
%TO.P,C6,2*%
%TO.N,+5V*%
X150100000Y-97800000D03*
%TD*%
%TO.P,C1,1*%
%TO.N,+5V*%
X116137500Y-86400000D03*
%TO.P,C1,2*%
%TO.N,GND*%
X117862500Y-86400000D03*
%TD*%
D15*
%TO.P,U1,1*%
%TO.N,GND*%
X118260000Y-84675000D03*
%TO.P,U1,2*%
%TO.N,OUT1*%
X118260000Y-83725000D03*
%TO.P,U1,3,GND*%
%TO.N,GND*%
X118260000Y-82775000D03*
%TO.P,U1,4*%
%TO.N,Net-(R1-Pad2)*%
X115940000Y-82775000D03*
%TO.P,U1,5,VCC*%
%TO.N,+5V*%
X115940000Y-84675000D03*
%TD*%
D16*
%TO.P,U4,1,A1*%
%TO.N,Net-(U4-A1)*%
X115645000Y-95145000D03*
%TO.P,U4,2,A0*%
%TO.N,Net-(U4-A0)*%
X116915000Y-95145000D03*
%TO.P,U4,3,SDA*%
%TO.N,I2C_SDA*%
X118185000Y-95145000D03*
%TO.P,U4,4,SCL*%
%TO.N,I2C_SCL*%
X119455000Y-95145000D03*
%TO.P,U4,5,VS*%
%TO.N,+3.3V*%
X119455000Y-90195000D03*
%TO.P,U4,6,GND*%
%TO.N,GND*%
X118185000Y-90195000D03*
%TO.P,U4,7,IN-*%
%TO.N,VOUT1*%
X116915000Y-90195000D03*
%TO.P,U4,8,IN+*%
%TO.N,VIN1*%
X115645000Y-90195000D03*
%TD*%
D17*
%TO.P,C4,1*%
%TO.N,+5V*%
X122725000Y-78162500D03*
%TO.P,C4,2*%
%TO.N,GND*%
X122725000Y-76087500D03*
%TD*%
D18*
%TO.P,U2,1,PA02_A0_D0*%
%TO.N,unconnected-(U2-PA02_A0_D0-Pad1)*%
X150100000Y-79260000D03*
D19*
X150100001Y-78595000D03*
D20*
%TO.P,U2,2,PA4_A1_D1*%
%TO.N,unconnected-(U2-PA4_A1_D1-Pad2)*%
X147560000Y-79260000D03*
D19*
X147560000Y-78595000D03*
D20*
%TO.P,U2,3,PA10_A2_D2*%
%TO.N,SW1*%
X145020000Y-79260000D03*
D19*
X145020000Y-78595000D03*
D20*
%TO.P,U2,4,PA11_A3_D3*%
%TO.N,SW2*%
X142480000Y-79260000D03*
D19*
X142480000Y-78595000D03*
D20*
%TO.P,U2,5,PA8_A4_D4_SDA*%
%TO.N,I2C_SDA*%
X139940000Y-79260000D03*
D19*
X139940000Y-78595000D03*
D20*
%TO.P,U2,6,PA9_A5_D5_SCL*%
%TO.N,I2C_SCL*%
X137400000Y-79260000D03*
D19*
X137400000Y-78595000D03*
D20*
%TO.P,U2,7,PB08_A6_D6_TX*%
%TO.N,OUT1*%
X134860000Y-79260000D03*
D19*
X134860000Y-78595000D03*
%TO.P,U2,8,PB09_A7_D7_RX*%
%TO.N,CS*%
X134860000Y-95165000D03*
D20*
X134860000Y-94500000D03*
D19*
%TO.P,U2,9,PA7_A8_D8_SCK*%
%TO.N,CLK*%
X137400000Y-95165000D03*
D20*
X137400000Y-94500000D03*
D19*
%TO.P,U2,10,PA5_A9_D9_MISO*%
%TO.N,DO*%
X139940000Y-95165000D03*
D20*
X139940000Y-94500000D03*
D19*
%TO.P,U2,11,PA6_A10_D10_MOSI*%
%TO.N,DI*%
X142480000Y-95165000D03*
D20*
X142480000Y-94500000D03*
D19*
%TO.P,U2,12,3V3*%
%TO.N,+3.3V*%
X145020000Y-95165000D03*
D20*
X145020000Y-94500000D03*
D19*
%TO.P,U2,13,GND*%
%TO.N,GND*%
X147560000Y-95165000D03*
D20*
X147560000Y-94500000D03*
%TO.P,U2,14,5V*%
%TO.N,+5V*%
X150100000Y-94500000D03*
D19*
X150100000Y-95165000D03*
%TD*%
D21*
%TO.P,R1,1*%
%TO.N,/DOUT1*%
X111712500Y-82575000D03*
%TO.P,R1,2*%
%TO.N,Net-(R1-Pad2)*%
X113537500Y-82575000D03*
%TD*%
D22*
%TO.P,U3,1,GND*%
%TO.N,GND*%
X113450000Y-75900000D03*
%TO.P,U3,2,VO*%
%TO.N,+5V*%
X113450000Y-78200000D03*
D23*
X119750000Y-78200000D03*
D22*
%TO.P,U3,3,VI*%
%TO.N,VIN1*%
X113450000Y-80500000D03*
%TD*%
D24*
%TO.P,C5,1*%
%TO.N,+3.3V*%
X120185000Y-87990000D03*
%TO.P,C5,2*%
%TO.N,GND*%
X118460000Y-87990000D03*
%TD*%
D17*
%TO.P,C3,1*%
%TO.N,VIN1*%
X111150000Y-78662500D03*
%TO.P,C3,2*%
%TO.N,GND*%
X111150000Y-76587500D03*
%TD*%
D13*
%TO.P,R4,1*%
%TO.N,Net-(U4-A1)*%
X113922500Y-95490000D03*
%TO.P,R4,2*%
%TO.N,GND*%
X112097500Y-95490000D03*
%TD*%
D25*
%TO.P,J2,1,Pin_1*%
%TO.N,GND*%
X105357500Y-77680000D03*
D12*
%TO.P,J2,2,Pin_2*%
%TO.N,/DOUT1*%
X105357500Y-81340000D03*
D26*
%TO.P,J2,3,Pin_3*%
%TO.N,VOUT1*%
X105357500Y-85000000D03*
%TD*%
D27*
%TO.P,J3,1,Pin_1*%
%TO.N,I2C_SDA*%
X130700000Y-90625000D03*
D28*
%TO.P,J3,2,Pin_2*%
%TO.N,I2C_SCL*%
X130700000Y-88125000D03*
%TO.P,J3,3,Pin_3*%
%TO.N,+3.3V*%
X130700000Y-85525000D03*
%TO.P,J3,4,Pin_4*%
%TO.N,GND*%
X130700000Y-83025000D03*
%TD*%
D29*
%TO.P,SW1,1,1*%
%TO.N,SW1*%
X127000000Y-86750000D03*
X127000000Y-80250000D03*
%TO.P,SW1,2,2*%
%TO.N,GND*%
X122500000Y-86750000D03*
X122500000Y-80250000D03*
%TD*%
%TO.P,SW2,1,1*%
%TO.N,SW2*%
X127000000Y-96375000D03*
X127000000Y-89875000D03*
%TO.P,SW2,2,2*%
%TO.N,GND*%
X122500000Y-96375000D03*
X122500000Y-89875000D03*
%TD*%
D30*
%TO.N,GND*%
X132450000Y-95810000D03*
X117750000Y-76875000D03*
X119035000Y-86297900D03*
X117400000Y-92700000D03*
X108000000Y-99000000D03*
X123340000Y-74390000D03*
X115900000Y-99000000D03*
X135575000Y-87800000D03*
X133375000Y-84025000D03*
X152200000Y-74400000D03*
X133525000Y-92575000D03*
X150700000Y-81900000D03*
X151900000Y-99200000D03*
X119475000Y-81000000D03*
X115550000Y-76875000D03*
X147050000Y-81900000D03*
X116650000Y-75875000D03*
X122340000Y-74390000D03*
X109750000Y-75325000D03*
X101000000Y-94500000D03*
X121250000Y-74450000D03*
X117750000Y-75875000D03*
X117875000Y-79500000D03*
X150600000Y-92600000D03*
X113700000Y-97300000D03*
X114200000Y-74200000D03*
X133025000Y-90725000D03*
X148400000Y-99100000D03*
X136075000Y-92525000D03*
X146290000Y-74175000D03*
X131310000Y-74310000D03*
X145300000Y-98900000D03*
X119500000Y-92600000D03*
X116600000Y-74200000D03*
X140250000Y-83500000D03*
X135253021Y-81850000D03*
X141000000Y-99000000D03*
X115550000Y-75875000D03*
X112000000Y-74200000D03*
X130120000Y-95930000D03*
X110700000Y-95500000D03*
X148450000Y-91175000D03*
X139145743Y-74175000D03*
X109650000Y-76675000D03*
X147000000Y-97900000D03*
X147650000Y-92625000D03*
X144850000Y-85150000D03*
X112100000Y-97100000D03*
X120775000Y-81000000D03*
X116300000Y-92700000D03*
X138050000Y-88525000D03*
X121000000Y-99000000D03*
X140350000Y-90225000D03*
X124675000Y-76025000D03*
X112080000Y-98970000D03*
X113100000Y-74200000D03*
X142625000Y-81900000D03*
X116875000Y-81000000D03*
X130160000Y-93130000D03*
X135000000Y-99000000D03*
X111300000Y-75250000D03*
X148400000Y-89450000D03*
X117875000Y-81000000D03*
X115400000Y-74200000D03*
X144700000Y-90000000D03*
X101000000Y-99000000D03*
X148075000Y-85125000D03*
X124380000Y-80240000D03*
X150700000Y-86600000D03*
X124340000Y-74390000D03*
X127000000Y-99000000D03*
X116650000Y-76875000D03*
X116875000Y-79500000D03*
X118400000Y-92700000D03*
%TO.N,VIN1*%
X112700000Y-90500000D03*
X113700000Y-90500000D03*
X111700000Y-93500000D03*
X114700000Y-92500000D03*
X114700000Y-89500000D03*
X110700000Y-93500000D03*
X112700000Y-89500000D03*
X110700000Y-90500000D03*
X111700000Y-89500000D03*
X112700000Y-93500000D03*
X109700000Y-89500000D03*
X113700000Y-89500000D03*
X113700000Y-93500000D03*
X109700000Y-93500000D03*
X114700000Y-93500000D03*
X110700000Y-89500000D03*
X114700000Y-91500000D03*
X114700000Y-90500000D03*
X109700000Y-91500000D03*
X109700000Y-90500000D03*
X111700000Y-90500000D03*
X109700000Y-92500000D03*
%TO.N,+3.3V*%
X147950000Y-87650000D03*
%TO.N,VOUT1*%
X114700000Y-86000000D03*
X114700000Y-85000000D03*
X111700000Y-84000000D03*
X110700000Y-84000000D03*
X114700000Y-84000000D03*
X114700000Y-87000000D03*
X109700000Y-85000000D03*
X111700000Y-88000000D03*
X113700000Y-84000000D03*
X109700000Y-86000000D03*
X110700000Y-88000000D03*
X112700000Y-88000000D03*
X109700000Y-88000000D03*
X109700000Y-87000000D03*
X110700000Y-87000000D03*
X114700000Y-88000000D03*
X109700000Y-84000000D03*
X113700000Y-87000000D03*
X112700000Y-84000000D03*
X112700000Y-87000000D03*
X111700000Y-87000000D03*
X113700000Y-88000000D03*
%TO.N,SW2*%
X125375000Y-83025000D03*
%TO.N,DO*%
X137675000Y-91400000D03*
%TD*%
D31*
%TO.N,+5V*%
X116800000Y-82350000D02*
X115850000Y-81400000D01*
D32*
X122725000Y-78162500D02*
X129089708Y-78162500D01*
X150820001Y-75550000D02*
X152200000Y-76929999D01*
X152200000Y-76929999D02*
X152200000Y-95700000D01*
D31*
X115850000Y-81400000D02*
X115850000Y-78325000D01*
X115850000Y-78325000D02*
X115975000Y-78200000D01*
D32*
X115975000Y-78200000D02*
X113875000Y-78200000D01*
D31*
X116137500Y-84872500D02*
X115940000Y-84675000D01*
D32*
X152200000Y-95700000D02*
X150100000Y-97800000D01*
D31*
X115940000Y-84675000D02*
X116800000Y-83815000D01*
D32*
X150100000Y-94500000D02*
X150100000Y-97800000D01*
D31*
X116800000Y-83815000D02*
X116800000Y-82350000D01*
D32*
X122687500Y-78200000D02*
X115975000Y-78200000D01*
X122725000Y-78162500D02*
X122687500Y-78200000D01*
X131702208Y-75550000D02*
X150820001Y-75550000D01*
X129089708Y-78162500D02*
X131702208Y-75550000D01*
D31*
X116137500Y-86400000D02*
X116137500Y-84872500D01*
D33*
%TO.N,GND*%
X118110000Y-86152500D02*
X117862500Y-86400000D01*
X118185000Y-92485000D02*
X118400000Y-92700000D01*
X118260000Y-82775000D02*
X118260000Y-82540000D01*
X118260000Y-84675000D02*
X118285000Y-84700000D01*
D31*
X118185000Y-90195000D02*
X118185000Y-92485000D01*
D33*
X118062500Y-86400000D02*
X117862500Y-86400000D01*
X117862500Y-86400000D02*
X118932900Y-86400000D01*
X118932900Y-86400000D02*
X119035000Y-86297900D01*
X118285000Y-84700000D02*
X119800000Y-84700000D01*
X118110000Y-85850000D02*
X118110000Y-86152500D01*
X118260000Y-84675000D02*
X118260000Y-85700000D01*
D31*
X118185000Y-90195000D02*
X118185000Y-88352500D01*
D33*
X118260000Y-85700000D02*
X118110000Y-85850000D01*
X118200000Y-86537500D02*
X118062500Y-86400000D01*
D31*
X118200000Y-87662500D02*
X118200000Y-86537500D01*
X118185000Y-88352500D02*
X118537500Y-88000000D01*
D33*
X118260000Y-82540000D02*
X119800000Y-81000000D01*
D31*
X118537500Y-88000000D02*
X118200000Y-87662500D01*
D32*
%TO.N,VIN1*%
X105357500Y-91857500D02*
X102400000Y-88900000D01*
D31*
X115005000Y-90195000D02*
X114700000Y-90500000D01*
D32*
X103268406Y-79600000D02*
X108725000Y-79600000D01*
X102400000Y-80468406D02*
X103268406Y-79600000D01*
X113875000Y-80500000D02*
X111725000Y-80500000D01*
X111725000Y-80500000D02*
X111200000Y-79975000D01*
X102400000Y-88900000D02*
X102400000Y-80468406D01*
X111200000Y-79975000D02*
X111200000Y-78662500D01*
D31*
X115645000Y-90195000D02*
X115005000Y-90195000D01*
D32*
X109662500Y-78662500D02*
X111200000Y-78662500D01*
X105357500Y-92112500D02*
X105357500Y-91857500D01*
X108725000Y-79600000D02*
X109662500Y-78662500D01*
%TO.N,+3.3V*%
X127850000Y-84125000D02*
X129250000Y-85525000D01*
X145020000Y-93245000D02*
X142050000Y-90275000D01*
X120185000Y-87990000D02*
X120250000Y-87925000D01*
X130725000Y-85500000D02*
X139900000Y-85500000D01*
X119455000Y-89382500D02*
X119455000Y-90195000D01*
X120262500Y-88000000D02*
X120262500Y-88575000D01*
X142050000Y-90275000D02*
X142050000Y-87650000D01*
X120250000Y-87925000D02*
X120250000Y-86225000D01*
X139900000Y-85500000D02*
X142050000Y-87650000D01*
X145020000Y-94500000D02*
X145020000Y-93245000D01*
X120262500Y-88575000D02*
X119455000Y-89382500D01*
X142050000Y-87650000D02*
X145625000Y-87650000D01*
X130700000Y-85525000D02*
X130725000Y-85500000D01*
X122350000Y-84125000D02*
X127850000Y-84125000D01*
X120250000Y-86225000D02*
X122350000Y-84125000D01*
X129250000Y-85525000D02*
X130700000Y-85525000D01*
X145625000Y-87650000D02*
X147950000Y-87650000D01*
D33*
%TO.N,/DOUT1*%
X110477500Y-81340000D02*
X105357500Y-81340000D01*
X111712500Y-82575000D02*
X110477500Y-81340000D01*
D31*
%TO.N,VOUT1*%
X116800000Y-88300000D02*
X116915000Y-88415000D01*
X116800000Y-88000000D02*
X116800000Y-88300000D01*
X116915000Y-88415000D02*
X116915000Y-90195000D01*
X114700000Y-88000000D02*
X116800000Y-88000000D01*
D33*
%TO.N,I2C_SDA*%
X120500000Y-95250000D02*
X121275000Y-94475000D01*
X129775000Y-90625000D02*
X130700000Y-90625000D01*
X118185000Y-95985000D02*
X118925000Y-96725000D01*
X125925000Y-94475000D02*
X129775000Y-90625000D01*
X121275000Y-94475000D02*
X125925000Y-94475000D01*
X118925000Y-96725000D02*
X119850000Y-96725000D01*
X119850000Y-96725000D02*
X120500000Y-96075000D01*
X120500000Y-96075000D02*
X120500000Y-95250000D01*
X118185000Y-95145000D02*
X118185000Y-95985000D01*
%TO.N,I2C_SCL*%
X120725000Y-93875000D02*
X125676472Y-93875000D01*
X119455000Y-95145000D02*
X120725000Y-93875000D01*
X129850000Y-88125000D02*
X130700000Y-88125000D01*
X128750000Y-89225000D02*
X129850000Y-88125000D01*
X128750000Y-90801472D02*
X128750000Y-89225000D01*
X125676472Y-93875000D02*
X128750000Y-90801472D01*
%TO.N,Net-(R1-Pad2)*%
X113737500Y-82775000D02*
X113537500Y-82575000D01*
X115940000Y-82775000D02*
X113737500Y-82775000D01*
%TO.N,Net-(U4-A0)*%
X116915000Y-95145000D02*
X116915000Y-97297500D01*
X116915000Y-97297500D02*
X116912500Y-97300000D01*
%TO.N,Net-(U4-A1)*%
X115300000Y-95490000D02*
X115645000Y-95145000D01*
X113922500Y-95490000D02*
X115300000Y-95490000D01*
%TO.N,SW1*%
X127000000Y-80250000D02*
X128275000Y-80250000D01*
X128275000Y-80250000D02*
X131845000Y-76680000D01*
X131845000Y-76680000D02*
X143730000Y-76680000D01*
X143730000Y-76680000D02*
X145020000Y-77970000D01*
X145020000Y-77970000D02*
X145020000Y-79495000D01*
%TO.N,OUT1*%
X130241472Y-79260000D02*
X134860000Y-79260000D01*
X118260000Y-83725000D02*
X119085000Y-83725000D01*
X119085000Y-83725000D02*
X120780000Y-82030000D01*
X120780000Y-82030000D02*
X127471472Y-82030000D01*
X127471472Y-82030000D02*
X130241472Y-79260000D01*
%TO.N,SW2*%
X129625000Y-80725000D02*
X127325000Y-83025000D01*
X141015000Y-80725000D02*
X129625000Y-80725000D01*
X142480000Y-79260000D02*
X141015000Y-80725000D01*
X127325000Y-83025000D02*
X125375000Y-83025000D01*
%TO.N,DO*%
X137675000Y-92235000D02*
X137675000Y-91400000D01*
X139940000Y-94500000D02*
X137675000Y-92235000D01*
%TD*%
%TA.AperFunction,Conductor*%
%TO.N,VOUT1*%
G36*
X111210004Y-83506293D02*
G01*
X111312247Y-83540174D01*
X111413323Y-83550500D01*
X112011676Y-83550499D01*
X112011684Y-83550498D01*
X112011687Y-83550498D01*
X112067030Y-83544844D01*
X112112753Y-83540174D01*
X112214996Y-83506293D01*
X112253999Y-83500000D01*
X112996001Y-83500000D01*
X113035004Y-83506293D01*
X113137247Y-83540174D01*
X113238323Y-83550500D01*
X113836676Y-83550499D01*
X113836684Y-83550498D01*
X113836687Y-83550498D01*
X113892030Y-83544844D01*
X113937753Y-83540174D01*
X114039996Y-83506293D01*
X114078999Y-83500000D01*
X115076000Y-83500000D01*
X115143039Y-83519685D01*
X115188794Y-83572489D01*
X115200000Y-83624000D01*
X115200000Y-84064534D01*
X115180315Y-84131573D01*
X115175267Y-84138844D01*
X115146206Y-84177664D01*
X115146202Y-84177671D01*
X115095910Y-84312513D01*
X115095909Y-84312517D01*
X115089500Y-84372127D01*
X115089500Y-84372134D01*
X115089500Y-84372135D01*
X115089500Y-84977870D01*
X115089501Y-84977876D01*
X115095908Y-85037483D01*
X115146202Y-85172328D01*
X115146203Y-85172330D01*
X115175267Y-85211154D01*
X115199684Y-85276618D01*
X115200000Y-85285465D01*
X115200000Y-85755101D01*
X115181540Y-85820195D01*
X115164093Y-85848481D01*
X115164092Y-85848484D01*
X115109826Y-86012247D01*
X115109826Y-86012248D01*
X115109825Y-86012248D01*
X115099500Y-86113315D01*
X115099500Y-86686669D01*
X115099501Y-86686687D01*
X115109825Y-86787752D01*
X115164092Y-86951515D01*
X115164096Y-86951524D01*
X115181538Y-86979801D01*
X115200000Y-87044898D01*
X115200000Y-87600000D01*
X117298000Y-87600000D01*
X117365039Y-87619685D01*
X117410794Y-87672489D01*
X117422000Y-87724000D01*
X117422000Y-88276669D01*
X117422001Y-88276687D01*
X117433014Y-88384489D01*
X117432751Y-88384515D01*
X117434500Y-88401032D01*
X117434500Y-89087670D01*
X117429576Y-89122265D01*
X117387402Y-89267426D01*
X117387401Y-89267432D01*
X117384500Y-89304298D01*
X117384500Y-91085701D01*
X117387401Y-91122567D01*
X117387402Y-91122573D01*
X117421927Y-91241405D01*
X117421728Y-91311274D01*
X117383786Y-91369944D01*
X117320148Y-91398788D01*
X117302851Y-91400000D01*
X116781331Y-91400000D01*
X116714292Y-91380315D01*
X116668537Y-91327511D01*
X116657332Y-91275647D01*
X116657425Y-91243022D01*
X116657425Y-91242851D01*
X116657424Y-91242850D01*
X116657425Y-91242845D01*
X116657425Y-91242844D01*
X116637354Y-91100371D01*
X116624924Y-91057587D01*
X116620000Y-91022991D01*
X116620000Y-89367009D01*
X116624924Y-89332414D01*
X116633090Y-89304306D01*
X116634450Y-89299626D01*
X116643126Y-89265328D01*
X116646787Y-89248380D01*
X116653038Y-89213583D01*
X116653037Y-89069703D01*
X116643093Y-89000545D01*
X116602558Y-88862496D01*
X116524770Y-88741457D01*
X116524765Y-88741451D01*
X116479021Y-88688659D01*
X116479017Y-88688656D01*
X116479015Y-88688653D01*
X116442795Y-88657268D01*
X116405023Y-88598491D01*
X116400000Y-88563557D01*
X116400000Y-88500000D01*
X116077068Y-88500000D01*
X116059422Y-88498738D01*
X116029946Y-88494500D01*
X116029945Y-88494500D01*
X103524500Y-88494500D01*
X103457461Y-88474815D01*
X103411706Y-88422011D01*
X103400500Y-88370500D01*
X103400500Y-83624000D01*
X103420185Y-83556961D01*
X103472989Y-83511206D01*
X103524500Y-83500000D01*
X111171001Y-83500000D01*
X111210004Y-83506293D01*
G37*
%TD.AperFunction*%
%TD*%
%TA.AperFunction,Conductor*%
%TO.N,GND*%
G36*
X152943039Y-73619685D02*
G01*
X152988794Y-73672489D01*
X153000000Y-73724000D01*
X153000000Y-76298558D01*
X152980315Y-76365597D01*
X152927511Y-76411352D01*
X152858353Y-76421296D01*
X152794797Y-76392271D01*
X152788319Y-76386239D01*
X152705970Y-76303890D01*
X152705947Y-76303869D01*
X151330293Y-74928213D01*
X151330289Y-74928210D01*
X151199186Y-74840609D01*
X151199173Y-74840602D01*
X151053502Y-74780264D01*
X151053490Y-74780261D01*
X150898846Y-74749500D01*
X150898843Y-74749500D01*
X131781050Y-74749500D01*
X131623366Y-74749500D01*
X131623363Y-74749500D01*
X131468718Y-74780261D01*
X131468706Y-74780264D01*
X131323035Y-74840602D01*
X131323022Y-74840609D01*
X131191919Y-74928210D01*
X131191915Y-74928213D01*
X128794449Y-77325681D01*
X128733126Y-77359166D01*
X128706768Y-77362000D01*
X123542210Y-77362000D01*
X123480285Y-77343816D01*
X123479735Y-77344796D01*
X123475488Y-77342408D01*
X123475171Y-77342315D01*
X123467281Y-77336801D01*
X123465580Y-77335511D01*
X123466967Y-77333680D01*
X123426684Y-77292383D01*
X123412681Y-77223931D01*
X123437910Y-77158775D01*
X123494359Y-77117602D01*
X123497245Y-77116606D01*
X123519120Y-77109357D01*
X123519124Y-77109356D01*
X123668345Y-77017315D01*
X123792315Y-76893345D01*
X123884356Y-76744124D01*
X123884358Y-76744119D01*
X123939505Y-76577697D01*
X123939506Y-76577690D01*
X123949999Y-76474986D01*
X123950000Y-76474973D01*
X123950000Y-76437500D01*
X121500001Y-76437500D01*
X121500001Y-76474986D01*
X121510494Y-76577697D01*
X121565641Y-76744119D01*
X121565643Y-76744124D01*
X121657684Y-76893345D01*
X121781654Y-77017315D01*
X121930876Y-77109356D01*
X121952755Y-77116606D01*
X122010201Y-77156378D01*
X122037025Y-77220893D01*
X122024711Y-77289669D01*
X121983394Y-77334165D01*
X121984417Y-77335514D01*
X121977659Y-77340638D01*
X121977658Y-77340639D01*
X121933262Y-77374304D01*
X121867953Y-77399127D01*
X121858339Y-77399500D01*
X121174499Y-77399500D01*
X121107460Y-77379815D01*
X121061705Y-77327011D01*
X121050499Y-77275500D01*
X121050499Y-76255143D01*
X121050499Y-76255136D01*
X121050497Y-76255117D01*
X121047586Y-76230012D01*
X121047585Y-76230010D01*
X121047585Y-76230009D01*
X121002206Y-76127235D01*
X120922765Y-76047794D01*
X120922763Y-76047793D01*
X120819992Y-76002415D01*
X120794865Y-75999500D01*
X118705143Y-75999500D01*
X118705117Y-75999502D01*
X118680012Y-76002413D01*
X118680008Y-76002415D01*
X118577235Y-76047793D01*
X118497794Y-76127234D01*
X118452415Y-76230006D01*
X118452415Y-76230008D01*
X118449500Y-76255131D01*
X118449500Y-77275500D01*
X118429815Y-77342539D01*
X118377011Y-77388294D01*
X118325500Y-77399500D01*
X114836989Y-77399500D01*
X114769950Y-77379815D01*
X114724195Y-77327011D01*
X114723597Y-77325681D01*
X114702206Y-77277235D01*
X114622765Y-77197794D01*
X114583598Y-77180500D01*
X114519992Y-77152415D01*
X114494865Y-77149500D01*
X112405143Y-77149500D01*
X112405117Y-77149502D01*
X112380013Y-77152413D01*
X112365605Y-77158775D01*
X112282507Y-77195466D01*
X112213229Y-77204537D01*
X112150045Y-77174713D01*
X112113014Y-77115463D01*
X112113895Y-77045599D01*
X112116241Y-77038696D01*
X112118596Y-77032380D01*
X112118598Y-77032372D01*
X112124999Y-76972844D01*
X112125000Y-76972827D01*
X112125000Y-76965501D01*
X112144685Y-76898462D01*
X112197489Y-76852707D01*
X112266647Y-76842763D01*
X112317892Y-76862400D01*
X112352454Y-76885494D01*
X112352459Y-76885496D01*
X112425371Y-76899999D01*
X112425374Y-76900000D01*
X112700000Y-76900000D01*
X114200000Y-76900000D01*
X114474626Y-76900000D01*
X114474628Y-76899999D01*
X114547540Y-76885496D01*
X114547544Y-76885494D01*
X114630239Y-76830239D01*
X114685494Y-76747544D01*
X114685496Y-76747540D01*
X114699999Y-76674628D01*
X114700000Y-76674626D01*
X114700000Y-76650000D01*
X114200000Y-76650000D01*
X114200000Y-76900000D01*
X112700000Y-76900000D01*
X112700000Y-76650000D01*
X112194000Y-76650000D01*
X112126961Y-76630315D01*
X112081206Y-76577511D01*
X112070000Y-76526000D01*
X112070000Y-76012328D01*
X112069999Y-76012326D01*
X112068353Y-76007913D01*
X112068351Y-76007909D01*
X111982186Y-75892809D01*
X111867093Y-75806649D01*
X111737500Y-75758313D01*
X111737500Y-77416686D01*
X111867084Y-77368355D01*
X111867089Y-77368352D01*
X111951188Y-77305396D01*
X112016653Y-77280978D01*
X112084926Y-77295829D01*
X112134332Y-77345234D01*
X112149500Y-77404662D01*
X112149500Y-77782202D01*
X112129815Y-77849241D01*
X112077011Y-77894996D01*
X112007853Y-77904940D01*
X111950575Y-77881006D01*
X111897343Y-77840639D01*
X111756561Y-77785122D01*
X111710926Y-77779642D01*
X111668102Y-77774500D01*
X110631898Y-77774500D01*
X110568710Y-77782087D01*
X110543434Y-77785123D01*
X110402661Y-77840637D01*
X110395263Y-77844797D01*
X110393752Y-77842109D01*
X110342408Y-77861626D01*
X110332790Y-77862000D01*
X109583655Y-77862000D01*
X109488109Y-77881006D01*
X109470589Y-77884491D01*
X109429003Y-77892763D01*
X109429001Y-77892763D01*
X109429000Y-77892764D01*
X109428998Y-77892764D01*
X109283327Y-77953102D01*
X109283314Y-77953109D01*
X109159423Y-78035892D01*
X109152212Y-78040710D01*
X109152204Y-78040716D01*
X108429741Y-78763181D01*
X108368418Y-78796666D01*
X108342060Y-78799500D01*
X107752950Y-78799500D01*
X107685911Y-78779815D01*
X107640156Y-78727011D01*
X107630212Y-78657853D01*
X107635909Y-78634544D01*
X107642535Y-78615608D01*
X107642536Y-78615601D01*
X107657499Y-78482796D01*
X107657500Y-78482792D01*
X107657500Y-78430000D01*
X103057500Y-78430000D01*
X103057500Y-78482796D01*
X103072463Y-78615601D01*
X103072465Y-78615612D01*
X103094593Y-78678848D01*
X103098155Y-78748627D01*
X103063427Y-78809254D01*
X103025005Y-78834364D01*
X102889230Y-78890604D01*
X102889220Y-78890609D01*
X102758117Y-78978210D01*
X102758113Y-78978213D01*
X102092906Y-79643422D01*
X101889711Y-79846617D01*
X101851828Y-79884500D01*
X101778209Y-79958118D01*
X101690609Y-80089220D01*
X101690602Y-80089233D01*
X101630264Y-80234904D01*
X101630261Y-80234916D01*
X101599500Y-80389559D01*
X101599500Y-88978846D01*
X101630261Y-89133489D01*
X101630264Y-89133501D01*
X101690602Y-89279172D01*
X101690609Y-89279185D01*
X101778210Y-89410288D01*
X101778213Y-89410292D01*
X102558181Y-90190259D01*
X102591666Y-90251582D01*
X102594500Y-90277940D01*
X102594500Y-93876000D01*
X102594501Y-93876009D01*
X102606052Y-93983450D01*
X102606054Y-93983462D01*
X102617260Y-94034972D01*
X102651383Y-94137497D01*
X102651386Y-94137503D01*
X102729171Y-94258537D01*
X102729179Y-94258548D01*
X102774923Y-94311340D01*
X102774926Y-94311343D01*
X102774930Y-94311347D01*
X102883664Y-94405567D01*
X103014541Y-94465338D01*
X103081580Y-94485023D01*
X103081584Y-94485024D01*
X103224000Y-94505500D01*
X103224003Y-94505500D01*
X103644378Y-94505500D01*
X103711417Y-94525185D01*
X103757172Y-94577989D01*
X103767116Y-94647147D01*
X103738091Y-94710703D01*
X103717264Y-94729818D01*
X103545458Y-94854642D01*
X103389642Y-95010458D01*
X103389637Y-95010464D01*
X103271912Y-95172499D01*
X103271912Y-95172500D01*
X107443088Y-95172500D01*
X107443087Y-95172499D01*
X107325362Y-95010464D01*
X107325357Y-95010458D01*
X107169541Y-94854642D01*
X106997736Y-94729818D01*
X106955071Y-94674488D01*
X106949092Y-94604875D01*
X106981698Y-94543080D01*
X107042537Y-94508722D01*
X107070622Y-94505500D01*
X111252155Y-94505500D01*
X111319194Y-94525185D01*
X111364949Y-94577989D01*
X111374893Y-94647147D01*
X111345868Y-94710703D01*
X111339836Y-94717181D01*
X111265055Y-94791961D01*
X111265052Y-94791965D01*
X111174551Y-94938688D01*
X111174545Y-94938701D01*
X111120319Y-95102348D01*
X111120318Y-95102354D01*
X111116471Y-95139999D01*
X111116472Y-95140000D01*
X111973500Y-95140000D01*
X112040539Y-95159685D01*
X112086294Y-95212489D01*
X112097500Y-95264000D01*
X112097500Y-95490000D01*
X112323500Y-95490000D01*
X112390539Y-95509685D01*
X112436294Y-95562489D01*
X112447500Y-95614000D01*
X112447500Y-96459802D01*
X112497650Y-96454680D01*
X112497653Y-96454680D01*
X112661300Y-96400453D01*
X112661311Y-96400448D01*
X112808034Y-96309947D01*
X112808038Y-96309944D01*
X112929943Y-96188039D01*
X113021806Y-96039107D01*
X113073754Y-95992383D01*
X113142717Y-95981160D01*
X113206799Y-96009004D01*
X113226149Y-96029278D01*
X113288501Y-96111501D01*
X113389425Y-96188034D01*
X113406342Y-96200862D01*
X113543923Y-96255117D01*
X113601562Y-96262039D01*
X113630381Y-96265500D01*
X113630382Y-96265500D01*
X114214616Y-96265500D01*
X114214618Y-96265500D01*
X114289230Y-96256539D01*
X114358136Y-96268089D01*
X114409861Y-96315060D01*
X114427980Y-96382539D01*
X114406741Y-96449102D01*
X114380934Y-96476913D01*
X114376965Y-96480051D01*
X114255055Y-96601961D01*
X114255052Y-96601965D01*
X114164551Y-96748688D01*
X114164545Y-96748701D01*
X114110319Y-96912348D01*
X114110318Y-96912354D01*
X114106471Y-96949999D01*
X114106472Y-96950000D01*
X114737500Y-96950000D01*
X114737500Y-96330195D01*
X114737499Y-96330195D01*
X114687350Y-96335318D01*
X114640177Y-96350950D01*
X114570348Y-96353351D01*
X114510307Y-96317619D01*
X114479115Y-96255098D01*
X114486676Y-96185639D01*
X114526250Y-96134439D01*
X114556500Y-96111500D01*
X114611042Y-96039574D01*
X114667234Y-95998052D01*
X114709846Y-95990500D01*
X114936907Y-95990500D01*
X115003946Y-96010185D01*
X115049701Y-96062989D01*
X115053948Y-96073545D01*
X115085750Y-96164430D01*
X115092207Y-96182882D01*
X115172850Y-96292150D01*
X115282118Y-96372793D01*
X115354457Y-96398105D01*
X115411230Y-96438825D01*
X115436978Y-96503777D01*
X115437500Y-96515145D01*
X115437500Y-98269802D01*
X115487650Y-98264680D01*
X115487653Y-98264680D01*
X115651300Y-98210453D01*
X115651311Y-98210448D01*
X115749311Y-98150000D01*
X147596656Y-98150000D01*
X147642733Y-98273538D01*
X147726741Y-98385758D01*
X147838963Y-98469767D01*
X147838966Y-98469768D01*
X147970306Y-98518757D01*
X148024999Y-98524637D01*
X148025000Y-98524637D01*
X148025000Y-98150000D01*
X147596656Y-98150000D01*
X115749311Y-98150000D01*
X115798034Y-98119947D01*
X115798038Y-98119944D01*
X115919943Y-97998039D01*
X116011806Y-97849107D01*
X116063754Y-97802383D01*
X116132717Y-97791160D01*
X116196799Y-97819004D01*
X116216149Y-97839278D01*
X116278501Y-97921501D01*
X116379425Y-97998034D01*
X116396342Y-98010862D01*
X116533923Y-98065117D01*
X116591562Y-98072039D01*
X116620381Y-98075500D01*
X116620382Y-98075500D01*
X117204619Y-98075500D01*
X117226232Y-98072904D01*
X117291077Y-98065117D01*
X117428658Y-98010862D01*
X117546500Y-97921500D01*
X117635862Y-97803658D01*
X117690117Y-97666077D01*
X117700500Y-97579618D01*
X117700500Y-97020382D01*
X117690117Y-96933923D01*
X117635862Y-96796342D01*
X117635860Y-96796339D01*
X117546500Y-96678499D01*
X117464575Y-96616374D01*
X117423051Y-96560182D01*
X117415500Y-96517570D01*
X117415500Y-96294539D01*
X117435185Y-96227500D01*
X117439727Y-96220910D01*
X117443899Y-96215257D01*
X117450228Y-96206681D01*
X117505871Y-96164430D01*
X117575527Y-96158968D01*
X117637078Y-96192033D01*
X117649769Y-96206678D01*
X117712850Y-96292150D01*
X117792522Y-96350950D01*
X117822118Y-96372793D01*
X117822120Y-96372794D01*
X117861334Y-96386515D01*
X117908062Y-96415876D01*
X118617686Y-97125500D01*
X118731814Y-97191392D01*
X118859108Y-97225500D01*
X118859110Y-97225500D01*
X119915890Y-97225500D01*
X119915892Y-97225500D01*
X120043186Y-97191392D01*
X120157314Y-97125500D01*
X120799034Y-96483779D01*
X120860355Y-96450296D01*
X120930046Y-96455280D01*
X120985980Y-96497151D01*
X121010289Y-96561222D01*
X121015385Y-96622729D01*
X121015387Y-96622738D01*
X121076412Y-96863717D01*
X121176268Y-97091369D01*
X121220680Y-97159345D01*
X121950000Y-96430025D01*
X121950000Y-96447409D01*
X121987482Y-96587292D01*
X122059890Y-96712708D01*
X122162292Y-96815110D01*
X122287708Y-96887518D01*
X122427591Y-96925000D01*
X122444974Y-96925000D01*
X121714499Y-97655473D01*
X121714499Y-97655474D01*
X121895385Y-97753364D01*
X121895396Y-97753369D01*
X122130506Y-97834083D01*
X122375707Y-97875000D01*
X122624293Y-97875000D01*
X122869493Y-97834083D01*
X123104600Y-97753370D01*
X123104608Y-97753367D01*
X123285499Y-97655473D01*
X122555026Y-96925000D01*
X122572409Y-96925000D01*
X122712292Y-96887518D01*
X122837708Y-96815110D01*
X122940110Y-96712708D01*
X123012518Y-96587292D01*
X123050000Y-96447409D01*
X123050000Y-96430027D01*
X123779318Y-97159345D01*
X123779318Y-97159344D01*
X123823733Y-97091365D01*
X123823734Y-97091363D01*
X123923587Y-96863717D01*
X123984612Y-96622738D01*
X123984614Y-96622729D01*
X124005141Y-96375005D01*
X124005141Y-96374998D01*
X125694532Y-96374998D01*
X125694532Y-96375001D01*
X125714364Y-96601686D01*
X125714366Y-96601697D01*
X125773258Y-96821488D01*
X125773261Y-96821497D01*
X125869431Y-97027732D01*
X125869432Y-97027734D01*
X125999954Y-97214141D01*
X126160858Y-97375045D01*
X126160861Y-97375047D01*
X126347266Y-97505568D01*
X126553504Y-97601739D01*
X126773308Y-97660635D01*
X126935230Y-97674801D01*
X126999998Y-97680468D01*
X127000000Y-97680468D01*
X127000002Y-97680468D01*
X127056673Y-97675509D01*
X127226692Y-97660635D01*
X127446496Y-97601739D01*
X127652734Y-97505568D01*
X127839139Y-97375047D01*
X128000047Y-97214139D01*
X128130568Y-97027734D01*
X128226739Y-96821496D01*
X128285635Y-96601692D01*
X128305468Y-96375000D01*
X128305467Y-96374994D01*
X128295888Y-96265500D01*
X128285635Y-96148308D01*
X128226739Y-95928504D01*
X128130568Y-95722266D01*
X128000047Y-95535861D01*
X128000045Y-95535858D01*
X127839141Y-95374954D01*
X127652734Y-95244432D01*
X127652732Y-95244431D01*
X127446497Y-95148261D01*
X127446488Y-95148258D01*
X127226697Y-95089366D01*
X127226693Y-95089365D01*
X127226692Y-95089365D01*
X127226691Y-95089364D01*
X127226686Y-95089364D01*
X127000002Y-95069532D01*
X126999998Y-95069532D01*
X126773313Y-95089364D01*
X126773302Y-95089366D01*
X126553511Y-95148258D01*
X126553502Y-95148261D01*
X126347267Y-95244431D01*
X126347265Y-95244432D01*
X126160858Y-95374954D01*
X125999954Y-95535858D01*
X125869432Y-95722265D01*
X125869431Y-95722267D01*
X125773261Y-95928502D01*
X125773258Y-95928511D01*
X125714366Y-96148302D01*
X125714364Y-96148313D01*
X125694532Y-96374998D01*
X124005141Y-96374998D01*
X124005141Y-96374994D01*
X123984614Y-96127270D01*
X123984612Y-96127261D01*
X123923587Y-95886282D01*
X123823734Y-95658636D01*
X123823729Y-95658628D01*
X123779318Y-95590653D01*
X123050000Y-96319972D01*
X123050000Y-96302591D01*
X123012518Y-96162708D01*
X122940110Y-96037292D01*
X122837708Y-95934890D01*
X122712292Y-95862482D01*
X122572409Y-95825000D01*
X122555025Y-95825000D01*
X123293157Y-95086868D01*
X123298642Y-95048202D01*
X123344297Y-94995312D01*
X123411299Y-94975500D01*
X125990890Y-94975500D01*
X125990892Y-94975500D01*
X126118186Y-94941392D01*
X126232314Y-94875500D01*
X129297480Y-91810331D01*
X129358801Y-91776848D01*
X129399455Y-91774841D01*
X129405135Y-91775500D01*
X131994864Y-91775499D01*
X131994879Y-91775497D01*
X131994882Y-91775497D01*
X132019987Y-91772586D01*
X132019988Y-91772585D01*
X132019991Y-91772585D01*
X132122765Y-91727206D01*
X132202206Y-91647765D01*
X132247585Y-91544991D01*
X132250500Y-91519865D01*
X132250499Y-89730136D01*
X132248637Y-89714078D01*
X132247586Y-89705012D01*
X132247585Y-89705010D01*
X132247585Y-89705009D01*
X132202206Y-89602235D01*
X132122765Y-89522794D01*
X132101601Y-89513449D01*
X132019992Y-89477415D01*
X131994868Y-89474500D01*
X131452668Y-89474500D01*
X131385629Y-89454815D01*
X131339874Y-89402011D01*
X131329930Y-89332853D01*
X131358955Y-89269297D01*
X131414351Y-89232569D01*
X131541633Y-89191213D01*
X131541639Y-89191211D01*
X131702994Y-89108996D01*
X131849501Y-89002553D01*
X131977553Y-88874501D01*
X132083996Y-88727994D01*
X132166211Y-88566639D01*
X132222171Y-88394409D01*
X132241592Y-88271789D01*
X132250500Y-88215551D01*
X132250500Y-88034448D01*
X132226591Y-87883501D01*
X132222171Y-87855591D01*
X132180989Y-87728844D01*
X132166212Y-87683363D01*
X132166211Y-87683360D01*
X132118202Y-87589139D01*
X132083996Y-87522006D01*
X132040760Y-87462496D01*
X131977558Y-87375505D01*
X131977554Y-87375500D01*
X131849499Y-87247445D01*
X131849494Y-87247441D01*
X131702997Y-87141006D01*
X131702996Y-87141005D01*
X131702994Y-87141004D01*
X131621843Y-87099655D01*
X131541639Y-87058788D01*
X131541636Y-87058787D01*
X131369410Y-87002829D01*
X131190551Y-86974500D01*
X131190546Y-86974500D01*
X130209454Y-86974500D01*
X130209449Y-86974500D01*
X130030589Y-87002829D01*
X129858363Y-87058787D01*
X129858360Y-87058788D01*
X129697002Y-87141006D01*
X129550505Y-87247441D01*
X129550500Y-87247445D01*
X129422445Y-87375500D01*
X129422441Y-87375505D01*
X129316006Y-87522002D01*
X129233788Y-87683360D01*
X129233787Y-87683363D01*
X129177829Y-87855589D01*
X129149500Y-88034448D01*
X129149500Y-88066324D01*
X129129815Y-88133363D01*
X129113181Y-88154005D01*
X128349502Y-88917683D01*
X128349500Y-88917686D01*
X128283607Y-89031814D01*
X128273168Y-89070774D01*
X128236802Y-89130433D01*
X128173955Y-89160961D01*
X128104579Y-89152665D01*
X128051820Y-89109802D01*
X128000047Y-89035861D01*
X128000046Y-89035860D01*
X128000044Y-89035857D01*
X127839141Y-88874954D01*
X127652734Y-88744432D01*
X127652732Y-88744431D01*
X127446497Y-88648261D01*
X127446488Y-88648258D01*
X127226697Y-88589366D01*
X127226693Y-88589365D01*
X127226692Y-88589365D01*
X127226691Y-88589364D01*
X127226686Y-88589364D01*
X127000002Y-88569532D01*
X126999998Y-88569532D01*
X126773313Y-88589364D01*
X126773302Y-88589366D01*
X126553511Y-88648258D01*
X126553502Y-88648261D01*
X126347267Y-88744431D01*
X126347265Y-88744432D01*
X126160858Y-88874954D01*
X125999954Y-89035858D01*
X125869432Y-89222265D01*
X125869431Y-89222267D01*
X125773261Y-89428502D01*
X125773258Y-89428511D01*
X125714366Y-89648302D01*
X125714364Y-89648313D01*
X125694532Y-89874998D01*
X125694532Y-89875001D01*
X125714364Y-90101686D01*
X125714366Y-90101697D01*
X125773258Y-90321488D01*
X125773261Y-90321497D01*
X125869431Y-90527732D01*
X125869432Y-90527734D01*
X125999954Y-90714141D01*
X126160858Y-90875045D01*
X126160861Y-90875047D01*
X126347266Y-91005568D01*
X126553504Y-91101739D01*
X126773308Y-91160635D01*
X126935230Y-91174801D01*
X126999998Y-91180468D01*
X127000000Y-91180468D01*
X127000002Y-91180468D01*
X127056673Y-91175509D01*
X127226692Y-91160635D01*
X127403047Y-91113381D01*
X127472895Y-91115044D01*
X127530758Y-91154206D01*
X127558262Y-91218435D01*
X127546676Y-91287337D01*
X127522820Y-91320837D01*
X125505477Y-93338181D01*
X125444154Y-93371666D01*
X125417796Y-93374500D01*
X120659107Y-93374500D01*
X120565805Y-93399500D01*
X120565804Y-93399499D01*
X120531818Y-93408606D01*
X120531811Y-93408609D01*
X120417689Y-93474498D01*
X120417683Y-93474502D01*
X120324498Y-93567688D01*
X119983725Y-93908460D01*
X119922402Y-93941945D01*
X119852710Y-93936961D01*
X119822411Y-93920549D01*
X119817886Y-93917209D01*
X119817880Y-93917206D01*
X119689700Y-93872353D01*
X119659270Y-93869500D01*
X119659266Y-93869500D01*
X119250734Y-93869500D01*
X119250730Y-93869500D01*
X119220300Y-93872353D01*
X119220298Y-93872353D01*
X119092119Y-93917206D01*
X119092117Y-93917207D01*
X118982850Y-93997850D01*
X118919770Y-94083321D01*
X118864123Y-94125571D01*
X118794466Y-94131030D01*
X118732917Y-94097962D01*
X118720230Y-94083321D01*
X118684543Y-94034967D01*
X118657150Y-93997850D01*
X118547882Y-93917207D01*
X118547880Y-93917206D01*
X118419700Y-93872353D01*
X118389270Y-93869500D01*
X118389266Y-93869500D01*
X117980734Y-93869500D01*
X117980730Y-93869500D01*
X117950300Y-93872353D01*
X117950298Y-93872353D01*
X117822119Y-93917206D01*
X117822117Y-93917207D01*
X117712850Y-93997850D01*
X117649770Y-94083321D01*
X117594123Y-94125571D01*
X117524466Y-94131030D01*
X117462917Y-94097962D01*
X117450230Y-94083321D01*
X117414543Y-94034967D01*
X117387150Y-93997850D01*
X117277882Y-93917207D01*
X117277880Y-93917206D01*
X117149700Y-93872353D01*
X117119270Y-93869500D01*
X117119266Y-93869500D01*
X116710734Y-93869500D01*
X116710730Y-93869500D01*
X116680300Y-93872353D01*
X116680298Y-93872353D01*
X116552119Y-93917206D01*
X116552117Y-93917207D01*
X116442850Y-93997850D01*
X116379770Y-94083321D01*
X116324123Y-94125571D01*
X116254466Y-94131030D01*
X116192917Y-94097962D01*
X116180230Y-94083321D01*
X116144543Y-94034967D01*
X116117150Y-93997850D01*
X116007882Y-93917207D01*
X116007880Y-93917206D01*
X115879700Y-93872353D01*
X115849270Y-93869500D01*
X115849266Y-93869500D01*
X115819631Y-93869500D01*
X115752592Y-93849815D01*
X115706837Y-93797011D01*
X115696893Y-93727854D01*
X115696938Y-93727539D01*
X115705500Y-93667990D01*
X115705500Y-92029500D01*
X115725185Y-91962461D01*
X115777989Y-91916706D01*
X115829500Y-91905500D01*
X116032855Y-91905500D01*
X116044629Y-91905088D01*
X116068185Y-91904264D01*
X116085482Y-91903052D01*
X116120665Y-91899345D01*
X116258831Y-91859202D01*
X116322469Y-91830358D01*
X116337644Y-91820666D01*
X116404736Y-91801169D01*
X116455901Y-91812374D01*
X116571872Y-91865338D01*
X116638911Y-91885023D01*
X116638915Y-91885024D01*
X116781331Y-91905500D01*
X116781334Y-91905500D01*
X117302855Y-91905500D01*
X117314629Y-91905088D01*
X117338185Y-91904264D01*
X117355482Y-91903052D01*
X117390665Y-91899345D01*
X117528831Y-91859202D01*
X117592469Y-91830358D01*
X117607644Y-91820667D01*
X117713724Y-91752921D01*
X117713726Y-91752919D01*
X117765581Y-91693418D01*
X117824466Y-91655812D01*
X117881651Y-91655811D01*
X117885000Y-91653296D01*
X117885000Y-91528616D01*
X117896351Y-91476786D01*
X117906344Y-91455071D01*
X117927226Y-91312714D01*
X117927395Y-91253364D01*
X117927425Y-91243022D01*
X117927425Y-91242851D01*
X117927424Y-91242850D01*
X117927425Y-91242845D01*
X117927425Y-91242844D01*
X117907354Y-91100371D01*
X117899770Y-91074269D01*
X117894924Y-91057587D01*
X117890000Y-91022991D01*
X117890000Y-89367008D01*
X117894924Y-89332412D01*
X117915003Y-89263301D01*
X117921620Y-89232569D01*
X117930032Y-89193496D01*
X117934956Y-89158901D01*
X117940000Y-89087670D01*
X117940000Y-88714000D01*
X117959685Y-88646961D01*
X118012489Y-88601206D01*
X118064000Y-88590000D01*
X118110000Y-88590000D01*
X118110000Y-88114000D01*
X118129685Y-88046961D01*
X118182489Y-88001206D01*
X118234000Y-87990000D01*
X118686000Y-87990000D01*
X118753039Y-88009685D01*
X118798794Y-88062489D01*
X118810000Y-88114000D01*
X118810000Y-88869333D01*
X118790315Y-88936372D01*
X118789103Y-88938223D01*
X118745608Y-89003317D01*
X118745606Y-89003321D01*
X118739338Y-89018451D01*
X118695501Y-89072854D01*
X118629207Y-89094921D01*
X118624778Y-89095000D01*
X118485000Y-89095000D01*
X118485000Y-91653295D01*
X118595198Y-91621281D01*
X118736552Y-91537685D01*
X118736561Y-91537678D01*
X118852678Y-91421561D01*
X118852681Y-91421557D01*
X118855028Y-91417589D01*
X118906094Y-91369901D01*
X118974835Y-91357393D01*
X119035396Y-91380931D01*
X119092118Y-91422793D01*
X119134845Y-91437744D01*
X119220299Y-91467646D01*
X119250730Y-91470500D01*
X119250734Y-91470500D01*
X119659270Y-91470500D01*
X119689699Y-91467646D01*
X119689701Y-91467646D01*
X119753790Y-91445219D01*
X119817882Y-91422793D01*
X119927150Y-91342150D01*
X120007793Y-91232882D01*
X120034879Y-91155474D01*
X120052646Y-91104701D01*
X120052646Y-91104699D01*
X120055500Y-91074269D01*
X120055500Y-90774765D01*
X120075185Y-90707726D01*
X120076398Y-90705874D01*
X120107489Y-90659344D01*
X120164394Y-90574179D01*
X120224737Y-90428497D01*
X120255500Y-90273842D01*
X120255500Y-89765440D01*
X120275185Y-89698401D01*
X120291819Y-89677759D01*
X120884288Y-89085290D01*
X120884290Y-89085287D01*
X120893988Y-89070774D01*
X120971894Y-88954179D01*
X121021510Y-88834394D01*
X121032237Y-88808498D01*
X121063000Y-88653843D01*
X121063000Y-88496158D01*
X121063000Y-87921158D01*
X121052883Y-87870296D01*
X121050500Y-87846104D01*
X121050500Y-87654220D01*
X121070185Y-87587181D01*
X121122989Y-87541426D01*
X121187293Y-87530882D01*
X121220681Y-87534344D01*
X121950000Y-86805025D01*
X121950000Y-86822409D01*
X121987482Y-86962292D01*
X122059890Y-87087708D01*
X122162292Y-87190110D01*
X122287708Y-87262518D01*
X122427591Y-87300000D01*
X122444974Y-87300000D01*
X121714499Y-88030473D01*
X121714499Y-88030474D01*
X121895385Y-88128364D01*
X121895396Y-88128369D01*
X122090121Y-88195219D01*
X122147136Y-88235605D01*
X122173267Y-88300404D01*
X122160215Y-88369044D01*
X122112127Y-88419732D01*
X122090121Y-88429781D01*
X121895400Y-88496629D01*
X121895386Y-88496635D01*
X121714498Y-88594525D01*
X122444974Y-89325000D01*
X122427591Y-89325000D01*
X122287708Y-89362482D01*
X122162292Y-89434890D01*
X122059890Y-89537292D01*
X121987482Y-89662708D01*
X121950000Y-89802591D01*
X121950000Y-89819974D01*
X121220679Y-89090653D01*
X121176267Y-89158632D01*
X121076412Y-89386282D01*
X121015387Y-89627261D01*
X121015385Y-89627270D01*
X120994859Y-89874994D01*
X120994859Y-89875005D01*
X121015385Y-90122729D01*
X121015387Y-90122738D01*
X121076412Y-90363717D01*
X121176268Y-90591369D01*
X121220680Y-90659345D01*
X121950000Y-89930025D01*
X121950000Y-89947409D01*
X121987482Y-90087292D01*
X122059890Y-90212708D01*
X122162292Y-90315110D01*
X122287708Y-90387518D01*
X122427591Y-90425000D01*
X122444974Y-90425000D01*
X121714499Y-91155473D01*
X121714499Y-91155474D01*
X121895385Y-91253364D01*
X121895396Y-91253369D01*
X122130506Y-91334083D01*
X122375707Y-91375000D01*
X122624293Y-91375000D01*
X122869493Y-91334083D01*
X123104600Y-91253370D01*
X123104608Y-91253367D01*
X123285499Y-91155473D01*
X122555026Y-90425000D01*
X122572409Y-90425000D01*
X122712292Y-90387518D01*
X122837708Y-90315110D01*
X122940110Y-90212708D01*
X123012518Y-90087292D01*
X123050000Y-89947409D01*
X123050000Y-89930027D01*
X123779318Y-90659345D01*
X123779318Y-90659344D01*
X123823733Y-90591365D01*
X123823734Y-90591363D01*
X123923587Y-90363717D01*
X123984612Y-90122738D01*
X123984614Y-90122729D01*
X124005141Y-89875005D01*
X124005141Y-89874994D01*
X123984614Y-89627270D01*
X123984612Y-89627261D01*
X123923587Y-89386282D01*
X123823734Y-89158636D01*
X123823729Y-89158628D01*
X123779318Y-89090653D01*
X123050000Y-89819972D01*
X123050000Y-89802591D01*
X123012518Y-89662708D01*
X122940110Y-89537292D01*
X122837708Y-89434890D01*
X122712292Y-89362482D01*
X122572409Y-89325000D01*
X122555027Y-89325000D01*
X123285500Y-88594525D01*
X123104614Y-88496635D01*
X123104603Y-88496630D01*
X122909879Y-88429781D01*
X122852864Y-88389395D01*
X122826733Y-88324596D01*
X122839785Y-88255956D01*
X122887873Y-88205268D01*
X122909879Y-88195219D01*
X123104600Y-88128370D01*
X123104608Y-88128367D01*
X123285499Y-88030473D01*
X122555026Y-87300000D01*
X122572409Y-87300000D01*
X122712292Y-87262518D01*
X122837708Y-87190110D01*
X122940110Y-87087708D01*
X123012518Y-86962292D01*
X123050000Y-86822409D01*
X123050000Y-86805027D01*
X123779318Y-87534345D01*
X123779318Y-87534344D01*
X123823733Y-87466365D01*
X123823734Y-87466363D01*
X123923587Y-87238717D01*
X123984612Y-86997738D01*
X123984614Y-86997729D01*
X124005141Y-86750000D01*
X124005141Y-86749998D01*
X125694532Y-86749998D01*
X125694532Y-86750000D01*
X125714364Y-86976686D01*
X125714366Y-86976697D01*
X125773258Y-87196488D01*
X125773261Y-87196497D01*
X125869431Y-87402732D01*
X125869432Y-87402734D01*
X125999954Y-87589141D01*
X126160858Y-87750045D01*
X126160861Y-87750047D01*
X126347266Y-87880568D01*
X126553504Y-87976739D01*
X126773308Y-88035635D01*
X126935230Y-88049801D01*
X126999998Y-88055468D01*
X127000000Y-88055468D01*
X127000002Y-88055468D01*
X127056673Y-88050509D01*
X127226692Y-88035635D01*
X127446496Y-87976739D01*
X127652734Y-87880568D01*
X127839139Y-87750047D01*
X128000047Y-87589139D01*
X128130568Y-87402734D01*
X128226739Y-87196496D01*
X128285635Y-86976692D01*
X128305468Y-86750000D01*
X128305467Y-86749994D01*
X128296472Y-86647171D01*
X128285635Y-86523308D01*
X128226739Y-86303504D01*
X128130568Y-86097266D01*
X128032839Y-85957693D01*
X128000045Y-85910858D01*
X127839141Y-85749954D01*
X127652734Y-85619432D01*
X127652732Y-85619431D01*
X127446497Y-85523261D01*
X127446488Y-85523258D01*
X127226697Y-85464366D01*
X127226693Y-85464365D01*
X127226692Y-85464365D01*
X127226691Y-85464364D01*
X127226686Y-85464364D01*
X127000002Y-85444532D01*
X126999998Y-85444532D01*
X126773313Y-85464364D01*
X126773302Y-85464366D01*
X126553511Y-85523258D01*
X126553502Y-85523261D01*
X126347267Y-85619431D01*
X126347265Y-85619432D01*
X126160858Y-85749954D01*
X125999954Y-85910858D01*
X125869432Y-86097265D01*
X125869431Y-86097267D01*
X125773261Y-86303502D01*
X125773258Y-86303511D01*
X125714366Y-86523302D01*
X125714364Y-86523313D01*
X125694532Y-86749998D01*
X124005141Y-86749998D01*
X124005141Y-86749994D01*
X123984614Y-86502270D01*
X123984612Y-86502261D01*
X123923587Y-86261282D01*
X123823734Y-86033636D01*
X123823729Y-86033628D01*
X123779318Y-85965653D01*
X123050000Y-86694972D01*
X123050000Y-86677591D01*
X123012518Y-86537708D01*
X122940110Y-86412292D01*
X122837708Y-86309890D01*
X122712292Y-86237482D01*
X122572409Y-86200000D01*
X122555025Y-86200000D01*
X123285500Y-85469525D01*
X123104614Y-85371635D01*
X123104603Y-85371630D01*
X122869493Y-85290916D01*
X122632902Y-85251436D01*
X122570017Y-85220985D01*
X122533577Y-85161370D01*
X122535153Y-85091518D01*
X122565627Y-85041450D01*
X122645261Y-84961816D01*
X122706583Y-84928334D01*
X122732940Y-84925500D01*
X127467060Y-84925500D01*
X127534099Y-84945185D01*
X127554740Y-84961818D01*
X128628211Y-86035289D01*
X128690187Y-86097265D01*
X128739712Y-86146790D01*
X128870814Y-86234390D01*
X128870827Y-86234397D01*
X129016498Y-86294735D01*
X129016503Y-86294737D01*
X129144438Y-86320185D01*
X129171153Y-86325499D01*
X129171156Y-86325500D01*
X129171158Y-86325500D01*
X129422084Y-86325500D01*
X129489123Y-86345185D01*
X129509765Y-86361819D01*
X129550500Y-86402554D01*
X129550505Y-86402558D01*
X129678287Y-86495396D01*
X129697006Y-86508996D01*
X129802484Y-86562740D01*
X129858360Y-86591211D01*
X129858363Y-86591212D01*
X129944476Y-86619191D01*
X130030591Y-86647171D01*
X130113429Y-86660291D01*
X130209449Y-86675500D01*
X130209454Y-86675500D01*
X131190551Y-86675500D01*
X131277259Y-86661765D01*
X131369409Y-86647171D01*
X131541639Y-86591211D01*
X131702994Y-86508996D01*
X131849501Y-86402553D01*
X131915235Y-86336819D01*
X131976558Y-86303334D01*
X132002916Y-86300500D01*
X139517060Y-86300500D01*
X139584099Y-86320185D01*
X139604741Y-86336819D01*
X141213181Y-87945259D01*
X141246666Y-88006582D01*
X141249500Y-88032940D01*
X141249500Y-90353846D01*
X141280261Y-90508489D01*
X141280264Y-90508501D01*
X141340602Y-90654172D01*
X141340609Y-90654185D01*
X141428210Y-90785288D01*
X141428213Y-90785292D01*
X143931294Y-93288371D01*
X143964779Y-93349694D01*
X143959795Y-93419386D01*
X143931298Y-93463729D01*
X143917796Y-93477232D01*
X143917794Y-93477234D01*
X143872415Y-93580006D01*
X143869967Y-93589007D01*
X143866934Y-93588181D01*
X143845885Y-93637801D01*
X143788156Y-93677159D01*
X143718312Y-93679058D01*
X143658529Y-93642895D01*
X143631882Y-93588510D01*
X143630035Y-93589013D01*
X143627585Y-93580013D01*
X143627585Y-93580009D01*
X143582206Y-93477235D01*
X143502765Y-93397794D01*
X143502763Y-93397793D01*
X143399992Y-93352415D01*
X143374865Y-93349500D01*
X141585143Y-93349500D01*
X141585117Y-93349502D01*
X141560012Y-93352413D01*
X141560008Y-93352415D01*
X141457235Y-93397793D01*
X141377794Y-93477234D01*
X141332415Y-93580006D01*
X141329967Y-93589007D01*
X141326934Y-93588181D01*
X141305885Y-93637801D01*
X141248156Y-93677159D01*
X141178312Y-93679058D01*
X141118529Y-93642895D01*
X141091882Y-93588510D01*
X141090035Y-93589013D01*
X141087585Y-93580013D01*
X141087585Y-93580009D01*
X141042206Y-93477235D01*
X140962765Y-93397794D01*
X140962763Y-93397793D01*
X140859992Y-93352415D01*
X140834868Y-93349500D01*
X140834865Y-93349500D01*
X139548676Y-93349500D01*
X139481637Y-93329815D01*
X139460995Y-93313181D01*
X138211819Y-92064005D01*
X138178334Y-92002682D01*
X138175500Y-91976324D01*
X138175500Y-91946204D01*
X138195185Y-91879165D01*
X138198985Y-91874146D01*
X138198922Y-91874103D01*
X138242939Y-91810333D01*
X138299818Y-91727930D01*
X138360140Y-91568872D01*
X138380645Y-91400000D01*
X138360140Y-91231128D01*
X138299818Y-91072070D01*
X138203183Y-90932071D01*
X138075852Y-90819266D01*
X138075849Y-90819263D01*
X137925226Y-90740210D01*
X137760056Y-90699500D01*
X137589944Y-90699500D01*
X137424773Y-90740210D01*
X137274150Y-90819263D01*
X137146816Y-90932072D01*
X137050182Y-91072068D01*
X136989860Y-91231125D01*
X136989859Y-91231130D01*
X136969355Y-91400000D01*
X136989859Y-91568869D01*
X136989860Y-91568874D01*
X137050182Y-91727931D01*
X137151078Y-91874103D01*
X137148807Y-91875670D01*
X137173034Y-91927190D01*
X137174500Y-91946204D01*
X137174500Y-92300891D01*
X137208608Y-92428187D01*
X137241554Y-92485250D01*
X137274500Y-92542314D01*
X137274502Y-92542316D01*
X137870005Y-93137819D01*
X137903490Y-93199142D01*
X137898506Y-93268834D01*
X137856634Y-93324767D01*
X137791170Y-93349184D01*
X137782324Y-93349500D01*
X136505143Y-93349500D01*
X136505117Y-93349502D01*
X136480012Y-93352413D01*
X136480008Y-93352415D01*
X136377235Y-93397793D01*
X136297794Y-93477234D01*
X136252415Y-93580006D01*
X136249967Y-93589007D01*
X136246934Y-93588181D01*
X136225885Y-93637801D01*
X136168156Y-93677159D01*
X136098312Y-93679058D01*
X136038529Y-93642895D01*
X136011882Y-93588510D01*
X136010035Y-93589013D01*
X136007585Y-93580013D01*
X136007585Y-93580009D01*
X135962206Y-93477235D01*
X135882765Y-93397794D01*
X135882763Y-93397793D01*
X135779992Y-93352415D01*
X135754865Y-93349500D01*
X133965143Y-93349500D01*
X133965117Y-93349502D01*
X133940012Y-93352413D01*
X133940008Y-93352415D01*
X133837235Y-93397793D01*
X133757794Y-93477234D01*
X133712415Y-93580006D01*
X133712415Y-93580008D01*
X133709500Y-93605131D01*
X133709500Y-96724856D01*
X133709502Y-96724882D01*
X133712413Y-96749987D01*
X133712415Y-96749991D01*
X133757793Y-96852764D01*
X133757794Y-96852765D01*
X133837235Y-96932206D01*
X133940009Y-96977585D01*
X133965135Y-96980500D01*
X135754864Y-96980499D01*
X135754879Y-96980497D01*
X135754882Y-96980497D01*
X135779987Y-96977586D01*
X135779988Y-96977585D01*
X135779991Y-96977585D01*
X135882765Y-96932206D01*
X135962206Y-96852765D01*
X136007585Y-96749991D01*
X136007585Y-96749988D01*
X136010033Y-96740993D01*
X136013071Y-96741819D01*
X136034082Y-96692237D01*
X136091795Y-96652856D01*
X136161639Y-96650928D01*
X136221436Y-96687067D01*
X136248126Y-96741487D01*
X136249965Y-96740987D01*
X136252415Y-96749991D01*
X136297793Y-96852764D01*
X136297794Y-96852765D01*
X136377235Y-96932206D01*
X136480009Y-96977585D01*
X136505135Y-96980500D01*
X138294864Y-96980499D01*
X138294879Y-96980497D01*
X138294882Y-96980497D01*
X138319987Y-96977586D01*
X138319988Y-96977585D01*
X138319991Y-96977585D01*
X138422765Y-96932206D01*
X138502206Y-96852765D01*
X138547585Y-96749991D01*
X138547585Y-96749988D01*
X138550033Y-96740993D01*
X138553071Y-96741819D01*
X138574082Y-96692237D01*
X138631795Y-96652856D01*
X138701639Y-96650928D01*
X138761436Y-96687067D01*
X138788126Y-96741487D01*
X138789965Y-96740987D01*
X138792415Y-96749991D01*
X138837793Y-96852764D01*
X138837794Y-96852765D01*
X138917235Y-96932206D01*
X139020009Y-96977585D01*
X139045135Y-96980500D01*
X140834864Y-96980499D01*
X140834879Y-96980497D01*
X140834882Y-96980497D01*
X140859987Y-96977586D01*
X140859988Y-96977585D01*
X140859991Y-96977585D01*
X140962765Y-96932206D01*
X141042206Y-96852765D01*
X141087585Y-96749991D01*
X141087585Y-96749988D01*
X141090033Y-96740993D01*
X141093071Y-96741819D01*
X141114082Y-96692237D01*
X141171795Y-96652856D01*
X141241639Y-96650928D01*
X141301436Y-96687067D01*
X141328126Y-96741487D01*
X141329965Y-96740987D01*
X141332415Y-96749991D01*
X141377793Y-96852764D01*
X141377794Y-96852765D01*
X141457235Y-96932206D01*
X141560009Y-96977585D01*
X141585135Y-96980500D01*
X143374864Y-96980499D01*
X143374879Y-96980497D01*
X143374882Y-96980497D01*
X143399987Y-96977586D01*
X143399988Y-96977585D01*
X143399991Y-96977585D01*
X143502765Y-96932206D01*
X143582206Y-96852765D01*
X143627585Y-96749991D01*
X143627585Y-96749988D01*
X143630033Y-96740993D01*
X143633071Y-96741819D01*
X143654082Y-96692237D01*
X143711795Y-96652856D01*
X143781639Y-96650928D01*
X143841436Y-96687067D01*
X143868126Y-96741487D01*
X143869965Y-96740987D01*
X143872415Y-96749991D01*
X143917793Y-96852764D01*
X143917794Y-96852765D01*
X143997235Y-96932206D01*
X144100009Y-96977585D01*
X144125135Y-96980500D01*
X145914864Y-96980499D01*
X145914879Y-96980497D01*
X145914882Y-96980497D01*
X145939987Y-96977586D01*
X145939988Y-96977585D01*
X145939991Y-96977585D01*
X146042765Y-96932206D01*
X146074020Y-96900950D01*
X146135340Y-96867466D01*
X146205032Y-96872450D01*
X146260966Y-96914320D01*
X146261791Y-96915604D01*
X146352809Y-97037187D01*
X146352812Y-97037190D01*
X146467906Y-97123350D01*
X146467913Y-97123354D01*
X146602620Y-97173596D01*
X146602627Y-97173598D01*
X146662155Y-97179999D01*
X146662172Y-97180000D01*
X147210000Y-97180000D01*
X147210000Y-94857106D01*
X147252993Y-94900099D01*
X147367007Y-94965925D01*
X147494174Y-95000000D01*
X147625826Y-95000000D01*
X147752993Y-94965925D01*
X147867007Y-94900099D01*
X147910000Y-94857106D01*
X147910000Y-97186000D01*
X147890315Y-97253039D01*
X147837511Y-97298794D01*
X147786000Y-97310000D01*
X147655058Y-97310000D01*
X147642731Y-97326465D01*
X147596656Y-97450000D01*
X148251000Y-97450000D01*
X148318039Y-97469685D01*
X148363794Y-97522489D01*
X148375000Y-97574000D01*
X148375000Y-97800000D01*
X148601000Y-97800000D01*
X148668039Y-97819685D01*
X148713794Y-97872489D01*
X148725000Y-97924000D01*
X148725000Y-98524637D01*
X148779692Y-98518757D01*
X148779694Y-98518757D01*
X148911033Y-98469768D01*
X148911036Y-98469767D01*
X149023258Y-98385758D01*
X149107266Y-98273537D01*
X149121049Y-98236584D01*
X149162920Y-98180649D01*
X149228384Y-98156231D01*
X149296657Y-98171082D01*
X149346063Y-98220486D01*
X149353413Y-98236579D01*
X149353415Y-98236584D01*
X149367288Y-98273778D01*
X149451384Y-98386116D01*
X149541555Y-98453618D01*
X149563127Y-98469767D01*
X149563722Y-98470212D01*
X149656094Y-98504665D01*
X149695200Y-98519251D01*
X149744216Y-98524521D01*
X149778412Y-98533249D01*
X149866498Y-98569735D01*
X149866503Y-98569737D01*
X150021153Y-98600499D01*
X150021156Y-98600500D01*
X150021158Y-98600500D01*
X150178844Y-98600500D01*
X150178845Y-98600499D01*
X150333497Y-98569737D01*
X150421589Y-98533248D01*
X150455784Y-98524521D01*
X150494677Y-98520339D01*
X150504799Y-98519251D01*
X150636278Y-98470212D01*
X150748616Y-98386116D01*
X150832712Y-98273778D01*
X150867550Y-98180370D01*
X150896047Y-98136029D01*
X152788321Y-96243756D01*
X152849642Y-96210273D01*
X152919334Y-96215257D01*
X152975267Y-96257129D01*
X152999684Y-96322593D01*
X153000000Y-96331439D01*
X153000000Y-99976000D01*
X152980315Y-100043039D01*
X152927511Y-100088794D01*
X152876000Y-100100000D01*
X99624000Y-100100000D01*
X99556961Y-100080315D01*
X99511206Y-100027511D01*
X99500000Y-99976000D01*
X99500000Y-97650000D01*
X114106473Y-97650000D01*
X114110319Y-97687651D01*
X114110319Y-97687653D01*
X114164546Y-97851300D01*
X114164551Y-97851311D01*
X114255052Y-97998034D01*
X114255055Y-97998038D01*
X114376961Y-98119944D01*
X114376965Y-98119947D01*
X114523688Y-98210448D01*
X114523699Y-98210453D01*
X114687347Y-98264680D01*
X114737500Y-98269803D01*
X114737500Y-97650000D01*
X114106473Y-97650000D01*
X99500000Y-97650000D01*
X99500000Y-96672500D01*
X103271912Y-96672500D01*
X103389637Y-96834535D01*
X103389642Y-96834541D01*
X103545458Y-96990357D01*
X103723739Y-97119886D01*
X103920089Y-97219932D01*
X104129664Y-97288026D01*
X104347319Y-97322500D01*
X104607500Y-97322500D01*
X106107500Y-97322500D01*
X106367681Y-97322500D01*
X106585335Y-97288026D01*
X106794910Y-97219932D01*
X106991260Y-97119886D01*
X107169541Y-96990357D01*
X107325357Y-96834541D01*
X107325362Y-96834535D01*
X107443087Y-96672500D01*
X106107500Y-96672500D01*
X106107500Y-97322500D01*
X104607500Y-97322500D01*
X104607500Y-96672500D01*
X103271912Y-96672500D01*
X99500000Y-96672500D01*
X99500000Y-95843509D01*
X104757500Y-95843509D01*
X104757500Y-96001491D01*
X104798389Y-96154091D01*
X104877381Y-96290908D01*
X104989092Y-96402619D01*
X105125909Y-96481611D01*
X105278509Y-96522500D01*
X105436491Y-96522500D01*
X105589091Y-96481611D01*
X105725908Y-96402619D01*
X105837619Y-96290908D01*
X105916611Y-96154091D01*
X105957500Y-96001491D01*
X105957500Y-95843509D01*
X105956560Y-95840000D01*
X111116473Y-95840000D01*
X111120319Y-95877651D01*
X111120319Y-95877653D01*
X111174546Y-96041300D01*
X111174551Y-96041311D01*
X111265052Y-96188034D01*
X111265055Y-96188038D01*
X111386961Y-96309944D01*
X111386965Y-96309947D01*
X111533688Y-96400448D01*
X111533699Y-96400453D01*
X111697347Y-96454680D01*
X111747500Y-96459803D01*
X111747500Y-95840000D01*
X111116473Y-95840000D01*
X105956560Y-95840000D01*
X105916611Y-95690909D01*
X105837619Y-95554092D01*
X105725908Y-95442381D01*
X105589091Y-95363389D01*
X105436491Y-95322500D01*
X105278509Y-95322500D01*
X105125909Y-95363389D01*
X104989092Y-95442381D01*
X104877381Y-95554092D01*
X104798389Y-95690909D01*
X104757500Y-95843509D01*
X99500000Y-95843509D01*
X99500000Y-77476009D01*
X104757500Y-77476009D01*
X104757500Y-77883991D01*
X104798389Y-78036591D01*
X104877381Y-78173408D01*
X104989092Y-78285119D01*
X105125909Y-78364111D01*
X105278509Y-78405000D01*
X105436491Y-78405000D01*
X105589091Y-78364111D01*
X105725908Y-78285119D01*
X105837619Y-78173408D01*
X105916611Y-78036591D01*
X105957500Y-77883991D01*
X105957500Y-77476009D01*
X105916611Y-77323409D01*
X105837619Y-77186592D01*
X105826027Y-77175000D01*
X110237569Y-77175000D01*
X110317809Y-77282186D01*
X110317814Y-77282191D01*
X110432906Y-77368350D01*
X110432915Y-77368355D01*
X110562499Y-77416686D01*
X110562500Y-77416686D01*
X110562500Y-77175000D01*
X110237569Y-77175000D01*
X105826027Y-77175000D01*
X105725908Y-77074881D01*
X105589091Y-76995889D01*
X105436491Y-76955000D01*
X105278509Y-76955000D01*
X105125909Y-76995889D01*
X104989092Y-77074881D01*
X104877381Y-77186592D01*
X104798389Y-77323409D01*
X104757500Y-77476009D01*
X99500000Y-77476009D01*
X99500000Y-76877203D01*
X103057500Y-76877203D01*
X103057500Y-76930000D01*
X104607500Y-76930000D01*
X106107500Y-76930000D01*
X107657500Y-76930000D01*
X107657500Y-76877207D01*
X107657499Y-76877203D01*
X107642536Y-76744398D01*
X107642534Y-76744387D01*
X107583613Y-76576002D01*
X107583608Y-76575992D01*
X107488703Y-76424953D01*
X107488698Y-76424947D01*
X107362552Y-76298801D01*
X107362546Y-76298796D01*
X107211507Y-76203891D01*
X107211497Y-76203886D01*
X107043112Y-76144965D01*
X107043101Y-76144963D01*
X106910296Y-76130000D01*
X106107500Y-76130000D01*
X106107500Y-76930000D01*
X104607500Y-76930000D01*
X104607500Y-76130000D01*
X103804703Y-76130000D01*
X103671898Y-76144963D01*
X103671887Y-76144965D01*
X103503502Y-76203886D01*
X103503492Y-76203891D01*
X103352453Y-76298796D01*
X103352447Y-76298801D01*
X103226301Y-76424947D01*
X103226296Y-76424953D01*
X103131391Y-76575992D01*
X103131386Y-76576002D01*
X103072465Y-76744387D01*
X103072463Y-76744398D01*
X103057500Y-76877203D01*
X99500000Y-76877203D01*
X99500000Y-76000000D01*
X110237569Y-76000000D01*
X110562500Y-76000000D01*
X110562500Y-75758313D01*
X110432906Y-75806649D01*
X110317814Y-75892808D01*
X110317809Y-75892813D01*
X110237569Y-76000000D01*
X99500000Y-76000000D01*
X99500000Y-75700013D01*
X121500000Y-75700013D01*
X121500000Y-75737500D01*
X122375000Y-75737500D01*
X123075000Y-75737500D01*
X123949999Y-75737500D01*
X123949999Y-75700028D01*
X123949998Y-75700013D01*
X123939505Y-75597302D01*
X123884358Y-75430880D01*
X123884356Y-75430875D01*
X123792315Y-75281654D01*
X123668345Y-75157684D01*
X123519124Y-75065643D01*
X123519119Y-75065641D01*
X123352697Y-75010494D01*
X123352690Y-75010493D01*
X123249986Y-75000000D01*
X123075000Y-75000000D01*
X123075000Y-75737500D01*
X122375000Y-75737500D01*
X122375000Y-75000000D01*
X122200029Y-75000000D01*
X122200012Y-75000001D01*
X122097302Y-75010494D01*
X121930880Y-75065641D01*
X121930875Y-75065643D01*
X121781654Y-75157684D01*
X121657684Y-75281654D01*
X121565643Y-75430875D01*
X121565641Y-75430880D01*
X121510494Y-75597302D01*
X121510493Y-75597309D01*
X121500000Y-75700013D01*
X99500000Y-75700013D01*
X99500000Y-75125371D01*
X112200000Y-75125371D01*
X112200000Y-75150000D01*
X112700000Y-75150000D01*
X114200000Y-75150000D01*
X114700000Y-75150000D01*
X114700000Y-75125373D01*
X114699999Y-75125371D01*
X114685496Y-75052459D01*
X114685494Y-75052455D01*
X114630239Y-74969760D01*
X114547544Y-74914505D01*
X114547540Y-74914503D01*
X114474627Y-74900000D01*
X114200000Y-74900000D01*
X114200000Y-75150000D01*
X112700000Y-75150000D01*
X112700000Y-74900000D01*
X112425373Y-74900000D01*
X112352459Y-74914503D01*
X112352455Y-74914505D01*
X112269760Y-74969760D01*
X112214505Y-75052455D01*
X112214503Y-75052459D01*
X112200000Y-75125371D01*
X99500000Y-75125371D01*
X99500000Y-73724000D01*
X99519685Y-73656961D01*
X99572489Y-73611206D01*
X99624000Y-73600000D01*
X152876000Y-73600000D01*
X152943039Y-73619685D01*
G37*
%TD.AperFunction*%
%TA.AperFunction,Conductor*%
G36*
X148921450Y-80117076D02*
G01*
X148948126Y-80171487D01*
X148949966Y-80170987D01*
X148952416Y-80179991D01*
X148997794Y-80282764D01*
X148997795Y-80282765D01*
X149077236Y-80362206D01*
X149180010Y-80407585D01*
X149205136Y-80410500D01*
X150994865Y-80410499D01*
X150994880Y-80410497D01*
X150994883Y-80410497D01*
X151019988Y-80407586D01*
X151019989Y-80407585D01*
X151019992Y-80407585D01*
X151122766Y-80362206D01*
X151187819Y-80297153D01*
X151249142Y-80263668D01*
X151318834Y-80268652D01*
X151374767Y-80310524D01*
X151399184Y-80375988D01*
X151399500Y-80384834D01*
X151399500Y-93375167D01*
X151379815Y-93442206D01*
X151327011Y-93487961D01*
X151257853Y-93497905D01*
X151194297Y-93468880D01*
X151187819Y-93462848D01*
X151122765Y-93397794D01*
X151019992Y-93352415D01*
X150994865Y-93349500D01*
X149205143Y-93349500D01*
X149205117Y-93349502D01*
X149180012Y-93352413D01*
X149180008Y-93352415D01*
X149077235Y-93397793D01*
X149077233Y-93397794D01*
X149045979Y-93429049D01*
X148984656Y-93462534D01*
X148914964Y-93457548D01*
X148859031Y-93415676D01*
X148858208Y-93414395D01*
X148767190Y-93292812D01*
X148767187Y-93292809D01*
X148652093Y-93206649D01*
X148652086Y-93206645D01*
X148517379Y-93156403D01*
X148517372Y-93156401D01*
X148457844Y-93150000D01*
X147910000Y-93150000D01*
X147910000Y-94142894D01*
X147867007Y-94099901D01*
X147752993Y-94034075D01*
X147625826Y-94000000D01*
X147494174Y-94000000D01*
X147367007Y-94034075D01*
X147252993Y-94099901D01*
X147210000Y-94142894D01*
X147210000Y-93150000D01*
X146662155Y-93150000D01*
X146602627Y-93156401D01*
X146602620Y-93156403D01*
X146467913Y-93206645D01*
X146467906Y-93206649D01*
X146352812Y-93292809D01*
X146352809Y-93292812D01*
X146261331Y-93415011D01*
X146258475Y-93412873D01*
X146221028Y-93450253D01*
X146152741Y-93465043D01*
X146087299Y-93440566D01*
X146074019Y-93429048D01*
X146042765Y-93397794D01*
X145939992Y-93352415D01*
X145930208Y-93351280D01*
X145865884Y-93323999D01*
X145826520Y-93266273D01*
X145820500Y-93228106D01*
X145820500Y-93166158D01*
X145819233Y-93159790D01*
X145819232Y-93159784D01*
X145789738Y-93011510D01*
X145789737Y-93011503D01*
X145751531Y-92919266D01*
X145729394Y-92865821D01*
X145729390Y-92865815D01*
X145641789Y-92734710D01*
X145525970Y-92618891D01*
X145525947Y-92618870D01*
X142886819Y-89979741D01*
X142853334Y-89918418D01*
X142850500Y-89892060D01*
X142850500Y-88574500D01*
X142870185Y-88507461D01*
X142922989Y-88461706D01*
X142974500Y-88450500D01*
X148028844Y-88450500D01*
X148028845Y-88450499D01*
X148183497Y-88419737D01*
X148329179Y-88359394D01*
X148460289Y-88271789D01*
X148571789Y-88160289D01*
X148659394Y-88029179D01*
X148719737Y-87883497D01*
X148750500Y-87728842D01*
X148750500Y-87571158D01*
X148750500Y-87571155D01*
X148750499Y-87571153D01*
X148743177Y-87534344D01*
X148719737Y-87416503D01*
X148688652Y-87341457D01*
X148659397Y-87270827D01*
X148659390Y-87270814D01*
X148571789Y-87139711D01*
X148571786Y-87139707D01*
X148460292Y-87028213D01*
X148460288Y-87028210D01*
X148329185Y-86940609D01*
X148329172Y-86940602D01*
X148183501Y-86880264D01*
X148183489Y-86880261D01*
X148028845Y-86849500D01*
X148028842Y-86849500D01*
X145703842Y-86849500D01*
X142432940Y-86849500D01*
X142365901Y-86829815D01*
X142345259Y-86813181D01*
X140410292Y-84878213D01*
X140410288Y-84878210D01*
X140279185Y-84790609D01*
X140279172Y-84790602D01*
X140133501Y-84730264D01*
X140133489Y-84730261D01*
X139978845Y-84699500D01*
X139978842Y-84699500D01*
X131952916Y-84699500D01*
X131885877Y-84679815D01*
X131865235Y-84663181D01*
X131849499Y-84647445D01*
X131849494Y-84647441D01*
X131702993Y-84541003D01*
X131702992Y-84541002D01*
X131617488Y-84497435D01*
X131566692Y-84449461D01*
X131549897Y-84381640D01*
X131572435Y-84315505D01*
X131617488Y-84276466D01*
X131807558Y-84179620D01*
X131979459Y-84054727D01*
X131979464Y-84054723D01*
X132129723Y-83904464D01*
X132129727Y-83904459D01*
X132254620Y-83732557D01*
X132351092Y-83543222D01*
X132405752Y-83375000D01*
X131057106Y-83375000D01*
X131100099Y-83332007D01*
X131165925Y-83217993D01*
X131200000Y-83090826D01*
X131200000Y-82959174D01*
X131165925Y-82832007D01*
X131100099Y-82717993D01*
X131057106Y-82675000D01*
X132405752Y-82675000D01*
X132405751Y-82674999D01*
X132351092Y-82506777D01*
X132254620Y-82317442D01*
X132129727Y-82145540D01*
X132129723Y-82145535D01*
X131979464Y-81995276D01*
X131979459Y-81995272D01*
X131807557Y-81870379D01*
X131618217Y-81773904D01*
X131416129Y-81708242D01*
X131206246Y-81675000D01*
X131050000Y-81675000D01*
X131050000Y-82667894D01*
X131007007Y-82624901D01*
X130892993Y-82559075D01*
X130765826Y-82525000D01*
X130634174Y-82525000D01*
X130507007Y-82559075D01*
X130392993Y-82624901D01*
X130350000Y-82667894D01*
X130350000Y-81675000D01*
X130193754Y-81675000D01*
X129983872Y-81708242D01*
X129983869Y-81708242D01*
X129781782Y-81773904D01*
X129592442Y-81870379D01*
X129420540Y-81995272D01*
X129420535Y-81995276D01*
X129270276Y-82145535D01*
X129270272Y-82145540D01*
X129145379Y-82317442D01*
X129048907Y-82506777D01*
X128994248Y-82674999D01*
X128994248Y-82675000D01*
X130342894Y-82675000D01*
X130299901Y-82717993D01*
X130234075Y-82832007D01*
X130200000Y-82959174D01*
X130200000Y-83090826D01*
X130234075Y-83217993D01*
X130299901Y-83332007D01*
X130342894Y-83375000D01*
X128994248Y-83375000D01*
X129048907Y-83543222D01*
X129145379Y-83732557D01*
X129270272Y-83904459D01*
X129270276Y-83904464D01*
X129420535Y-84054723D01*
X129420540Y-84054727D01*
X129592442Y-84179620D01*
X129782511Y-84276466D01*
X129833307Y-84324441D01*
X129850102Y-84392262D01*
X129827565Y-84458397D01*
X129782512Y-84497435D01*
X129697009Y-84541002D01*
X129609550Y-84604544D01*
X129543743Y-84628023D01*
X129475689Y-84612197D01*
X129448984Y-84591906D01*
X128360292Y-83503213D01*
X128360288Y-83503210D01*
X128229185Y-83415609D01*
X128229172Y-83415602D01*
X128083501Y-83355264D01*
X128083491Y-83355261D01*
X127993283Y-83337317D01*
X127931372Y-83304931D01*
X127896798Y-83244215D01*
X127900539Y-83174446D01*
X127929792Y-83128021D01*
X129795994Y-81261818D01*
X129857317Y-81228334D01*
X129883675Y-81225500D01*
X141080890Y-81225500D01*
X141080892Y-81225500D01*
X141208186Y-81191392D01*
X141322314Y-81125500D01*
X142000995Y-80446817D01*
X142062318Y-80413333D01*
X142088676Y-80410499D01*
X143374856Y-80410499D01*
X143374864Y-80410499D01*
X143374879Y-80410497D01*
X143374882Y-80410497D01*
X143399987Y-80407586D01*
X143399988Y-80407585D01*
X143399991Y-80407585D01*
X143502765Y-80362206D01*
X143582206Y-80282765D01*
X143627585Y-80179991D01*
X143627585Y-80179988D01*
X143630033Y-80170993D01*
X143633071Y-80171819D01*
X143654082Y-80122237D01*
X143711795Y-80082856D01*
X143781639Y-80080928D01*
X143841436Y-80117067D01*
X143868126Y-80171487D01*
X143869965Y-80170987D01*
X143872415Y-80179991D01*
X143917793Y-80282764D01*
X143917794Y-80282765D01*
X143997235Y-80362206D01*
X144100009Y-80407585D01*
X144125135Y-80410500D01*
X145914864Y-80410499D01*
X145914879Y-80410497D01*
X145914882Y-80410497D01*
X145939987Y-80407586D01*
X145939988Y-80407585D01*
X145939991Y-80407585D01*
X146042765Y-80362206D01*
X146122206Y-80282765D01*
X146167585Y-80179991D01*
X146167585Y-80179988D01*
X146170033Y-80170993D01*
X146173071Y-80171819D01*
X146194082Y-80122237D01*
X146251795Y-80082856D01*
X146321639Y-80080928D01*
X146381436Y-80117067D01*
X146408126Y-80171487D01*
X146409965Y-80170987D01*
X146412415Y-80179991D01*
X146457793Y-80282764D01*
X146457794Y-80282765D01*
X146537235Y-80362206D01*
X146640009Y-80407585D01*
X146665135Y-80410500D01*
X148454864Y-80410499D01*
X148454879Y-80410497D01*
X148454882Y-80410497D01*
X148479987Y-80407586D01*
X148479988Y-80407585D01*
X148479991Y-80407585D01*
X148582765Y-80362206D01*
X148662206Y-80282765D01*
X148707585Y-80179991D01*
X148707585Y-80179988D01*
X148710033Y-80170993D01*
X148713067Y-80171818D01*
X148734095Y-80122218D01*
X148791814Y-80082845D01*
X148861658Y-80080928D01*
X148921450Y-80117076D01*
G37*
%TD.AperFunction*%
%TA.AperFunction,Conductor*%
G36*
X118392540Y-79020185D02*
G01*
X118438295Y-79072989D01*
X118449501Y-79124500D01*
X118449501Y-80144856D01*
X118449502Y-80144882D01*
X118452413Y-80169987D01*
X118452415Y-80169991D01*
X118497793Y-80272764D01*
X118497794Y-80272765D01*
X118577235Y-80352206D01*
X118680009Y-80397585D01*
X118705135Y-80400500D01*
X120794864Y-80400499D01*
X120794879Y-80400497D01*
X120794882Y-80400497D01*
X120819986Y-80397586D01*
X120819987Y-80397585D01*
X120819991Y-80397585D01*
X120841201Y-80388219D01*
X120910476Y-80379148D01*
X120973661Y-80408970D01*
X121010693Y-80468219D01*
X121014862Y-80491409D01*
X121015386Y-80497732D01*
X121015387Y-80497738D01*
X121076412Y-80738717D01*
X121176268Y-80966369D01*
X121220680Y-81034345D01*
X121950000Y-80305025D01*
X121950000Y-80322409D01*
X121987482Y-80462292D01*
X122059890Y-80587708D01*
X122162292Y-80690110D01*
X122287708Y-80762518D01*
X122427591Y-80800000D01*
X122444974Y-80800000D01*
X121751793Y-81493181D01*
X121690470Y-81526666D01*
X121664112Y-81529500D01*
X120714108Y-81529500D01*
X120586812Y-81563608D01*
X120472686Y-81629500D01*
X120472683Y-81629502D01*
X119053774Y-83048412D01*
X118992451Y-83081897D01*
X118922759Y-83076913D01*
X118878412Y-83048412D01*
X118860000Y-83030000D01*
X117660000Y-83030000D01*
X117660000Y-83054628D01*
X117674503Y-83127540D01*
X117674505Y-83127546D01*
X117679244Y-83134638D01*
X117700120Y-83201316D01*
X117681633Y-83268696D01*
X117663824Y-83291204D01*
X117657795Y-83297232D01*
X117657794Y-83297234D01*
X117612415Y-83400006D01*
X117612415Y-83400008D01*
X117609500Y-83425131D01*
X117609500Y-84024856D01*
X117609502Y-84024882D01*
X117612413Y-84049987D01*
X117612415Y-84049991D01*
X117657793Y-84152764D01*
X117663821Y-84158792D01*
X117697306Y-84220115D01*
X117692322Y-84289807D01*
X117679246Y-84315358D01*
X117674506Y-84322452D01*
X117674503Y-84322459D01*
X117660000Y-84395371D01*
X117660000Y-84420000D01*
X118860000Y-84420000D01*
X118860000Y-84395373D01*
X118855687Y-84373692D01*
X118861914Y-84304101D01*
X118904776Y-84248923D01*
X118970666Y-84225678D01*
X118977304Y-84225500D01*
X119150890Y-84225500D01*
X119150892Y-84225500D01*
X119278186Y-84191392D01*
X119392314Y-84125500D01*
X120950995Y-82566819D01*
X121012318Y-82533334D01*
X121038676Y-82530500D01*
X124633709Y-82530500D01*
X124700748Y-82550185D01*
X124746503Y-82602989D01*
X124756447Y-82672147D01*
X124749651Y-82698471D01*
X124689860Y-82856125D01*
X124689859Y-82856130D01*
X124669355Y-83024999D01*
X124669355Y-83025000D01*
X124681864Y-83128019D01*
X124688850Y-83185553D01*
X124677390Y-83254477D01*
X124630486Y-83306263D01*
X124565754Y-83324500D01*
X122271154Y-83324500D01*
X122116509Y-83355261D01*
X122116497Y-83355264D01*
X122073832Y-83372936D01*
X122073833Y-83372937D01*
X121970823Y-83415604D01*
X121970815Y-83415609D01*
X121845265Y-83499499D01*
X121845265Y-83499500D01*
X121839713Y-83503210D01*
X121839710Y-83503212D01*
X121839706Y-83503215D01*
X120751016Y-84591906D01*
X119739711Y-85603211D01*
X119684637Y-85658285D01*
X119628209Y-85714712D01*
X119540609Y-85845814D01*
X119540602Y-85845827D01*
X119480264Y-85991498D01*
X119480261Y-85991510D01*
X119449500Y-86146153D01*
X119449500Y-87099655D01*
X119429815Y-87166694D01*
X119377011Y-87212449D01*
X119307853Y-87222393D01*
X119244297Y-87193368D01*
X119237819Y-87187336D01*
X119220538Y-87170055D01*
X119220534Y-87170052D01*
X119073811Y-87079551D01*
X119073800Y-87079546D01*
X118910152Y-87025319D01*
X118809154Y-87015000D01*
X118720598Y-87015000D01*
X118653559Y-86995315D01*
X118607804Y-86942511D01*
X118597860Y-86873353D01*
X118604416Y-86847666D01*
X118640844Y-86750000D01*
X117986500Y-86750000D01*
X117919461Y-86730315D01*
X117873706Y-86677511D01*
X117862500Y-86626000D01*
X117862500Y-86400000D01*
X117636500Y-86400000D01*
X117569461Y-86380315D01*
X117523706Y-86327511D01*
X117512500Y-86276000D01*
X117512500Y-86050000D01*
X118212500Y-86050000D01*
X118640844Y-86050000D01*
X118594766Y-85926461D01*
X118510758Y-85814241D01*
X118398537Y-85730232D01*
X118267186Y-85681241D01*
X118267187Y-85681241D01*
X118212500Y-85675361D01*
X118212500Y-86050000D01*
X117512500Y-86050000D01*
X117512500Y-85675361D01*
X117457812Y-85681241D01*
X117326462Y-85730232D01*
X117214240Y-85814241D01*
X117127456Y-85930170D01*
X117071522Y-85972040D01*
X117001831Y-85977024D01*
X116940508Y-85943538D01*
X116912835Y-85901346D01*
X116910862Y-85896342D01*
X116910861Y-85896341D01*
X116910861Y-85896340D01*
X116910860Y-85896339D01*
X116821500Y-85778499D01*
X116737075Y-85714478D01*
X116695551Y-85658285D01*
X116688000Y-85615674D01*
X116688000Y-84954628D01*
X117660000Y-84954628D01*
X117674503Y-85027540D01*
X117674505Y-85027544D01*
X117729760Y-85110239D01*
X117812455Y-85165494D01*
X117812459Y-85165496D01*
X117885371Y-85179999D01*
X117885374Y-85180000D01*
X118005000Y-85180000D01*
X118515000Y-85180000D01*
X118634626Y-85180000D01*
X118634628Y-85179999D01*
X118707540Y-85165496D01*
X118707544Y-85165494D01*
X118790239Y-85110239D01*
X118845494Y-85027544D01*
X118845496Y-85027540D01*
X118859999Y-84954628D01*
X118860000Y-84954626D01*
X118860000Y-84930000D01*
X118515000Y-84930000D01*
X118515000Y-85180000D01*
X118005000Y-85180000D01*
X118005000Y-84930000D01*
X117660000Y-84930000D01*
X117660000Y-84954628D01*
X116688000Y-84954628D01*
X116688000Y-84800026D01*
X116688000Y-84800025D01*
X116686559Y-84794647D01*
X116688220Y-84724798D01*
X116718650Y-84674873D01*
X117240510Y-84153014D01*
X117312984Y-84027485D01*
X117342271Y-83918186D01*
X117350500Y-83887475D01*
X117350500Y-82495371D01*
X117660000Y-82495371D01*
X117660000Y-82520000D01*
X118005000Y-82520000D01*
X118515000Y-82520000D01*
X118860000Y-82520000D01*
X118860000Y-82495373D01*
X118859999Y-82495371D01*
X118845496Y-82422459D01*
X118845494Y-82422455D01*
X118790239Y-82339760D01*
X118707544Y-82284505D01*
X118707540Y-82284503D01*
X118634627Y-82270000D01*
X118515000Y-82270000D01*
X118515000Y-82520000D01*
X118005000Y-82520000D01*
X118005000Y-82270000D01*
X117885373Y-82270000D01*
X117812459Y-82284503D01*
X117812455Y-82284505D01*
X117729760Y-82339760D01*
X117674505Y-82422455D01*
X117674503Y-82422459D01*
X117660000Y-82495371D01*
X117350500Y-82495371D01*
X117350500Y-82277525D01*
X117312984Y-82137515D01*
X117304069Y-82122073D01*
X117304069Y-82122072D01*
X117240512Y-82011988D01*
X117240508Y-82011983D01*
X116436819Y-81208294D01*
X116403334Y-81146971D01*
X116400500Y-81120613D01*
X116400500Y-79124500D01*
X116420185Y-79057461D01*
X116472989Y-79011706D01*
X116524500Y-79000500D01*
X118325501Y-79000500D01*
X118392540Y-79020185D01*
G37*
%TD.AperFunction*%
%TA.AperFunction,Conductor*%
G36*
X126244435Y-78982685D02*
G01*
X126290190Y-79035489D01*
X126300134Y-79104647D01*
X126271109Y-79168203D01*
X126248519Y-79188575D01*
X126160858Y-79249954D01*
X125999954Y-79410858D01*
X125869432Y-79597265D01*
X125869431Y-79597267D01*
X125773261Y-79803502D01*
X125773258Y-79803511D01*
X125714366Y-80023302D01*
X125714364Y-80023313D01*
X125694532Y-80249998D01*
X125694532Y-80250001D01*
X125714364Y-80476686D01*
X125714366Y-80476697D01*
X125773258Y-80696488D01*
X125773261Y-80696497D01*
X125869431Y-80902732D01*
X125869432Y-80902734D01*
X125999954Y-81089141D01*
X126160858Y-81250045D01*
X126237807Y-81303925D01*
X126281432Y-81358501D01*
X126288626Y-81428000D01*
X126257103Y-81490355D01*
X126196874Y-81525769D01*
X126166684Y-81529500D01*
X123335888Y-81529500D01*
X123268849Y-81509815D01*
X123248207Y-81493181D01*
X122555026Y-80800000D01*
X122572409Y-80800000D01*
X122712292Y-80762518D01*
X122837708Y-80690110D01*
X122940110Y-80587708D01*
X123012518Y-80462292D01*
X123050000Y-80322409D01*
X123050000Y-80305027D01*
X123779318Y-81034345D01*
X123779318Y-81034344D01*
X123823733Y-80966365D01*
X123823734Y-80966363D01*
X123923587Y-80738717D01*
X123984612Y-80497738D01*
X123984614Y-80497729D01*
X124005141Y-80250005D01*
X124005141Y-80249994D01*
X123984614Y-80002270D01*
X123984612Y-80002261D01*
X123923587Y-79761282D01*
X123823734Y-79533636D01*
X123823729Y-79533628D01*
X123779318Y-79465653D01*
X123050000Y-80194972D01*
X123050000Y-80177591D01*
X123012518Y-80037708D01*
X122940110Y-79912292D01*
X122837708Y-79809890D01*
X122712292Y-79737482D01*
X122572409Y-79700000D01*
X122555024Y-79700000D01*
X123168939Y-79086086D01*
X123230262Y-79052601D01*
X123241837Y-79050651D01*
X123243094Y-79050500D01*
X123243102Y-79050500D01*
X123331564Y-79039877D01*
X123472342Y-78984361D01*
X123472348Y-78984356D01*
X123479737Y-78980203D01*
X123481247Y-78982890D01*
X123532592Y-78963374D01*
X123542210Y-78963000D01*
X126177396Y-78963000D01*
X126244435Y-78982685D01*
G37*
%TD.AperFunction*%
%TA.AperFunction,Conductor*%
G36*
X121761151Y-79020185D02*
G01*
X121781793Y-79036819D01*
X122444974Y-79700000D01*
X122427591Y-79700000D01*
X122287708Y-79737482D01*
X122162292Y-79809890D01*
X122059890Y-79912292D01*
X121987482Y-80037708D01*
X121950000Y-80177591D01*
X121950000Y-80194974D01*
X121220679Y-79465653D01*
X121187291Y-79469116D01*
X121118579Y-79456452D01*
X121067621Y-79408650D01*
X121050500Y-79345778D01*
X121050500Y-79124500D01*
X121070185Y-79057461D01*
X121122989Y-79011706D01*
X121174500Y-79000500D01*
X121694112Y-79000500D01*
X121761151Y-79020185D01*
G37*
%TD.AperFunction*%
%TD*%
%TA.AperFunction,Conductor*%
%TO.N,VIN1*%
G36*
X116096984Y-89019685D02*
G01*
X116142739Y-89072489D01*
X116152683Y-89141647D01*
X116149022Y-89158595D01*
X116117401Y-89267434D01*
X116114500Y-89304298D01*
X116114500Y-91085701D01*
X116117401Y-91122567D01*
X116117402Y-91122573D01*
X116151927Y-91241405D01*
X116151728Y-91311274D01*
X116113786Y-91369944D01*
X116050148Y-91398788D01*
X116032851Y-91400000D01*
X115200000Y-91400000D01*
X115200000Y-93667990D01*
X115180315Y-93735029D01*
X115139122Y-93774721D01*
X115093140Y-93801914D01*
X115093129Y-93801923D01*
X114976923Y-93918129D01*
X114976918Y-93918135D01*
X114964509Y-93939120D01*
X114913440Y-93986804D01*
X114857776Y-94000000D01*
X103224000Y-94000000D01*
X103156961Y-93980315D01*
X103111206Y-93927511D01*
X103100000Y-93876000D01*
X103100000Y-89124000D01*
X103119685Y-89056961D01*
X103172489Y-89011206D01*
X103224000Y-89000000D01*
X116029945Y-89000000D01*
X116096984Y-89019685D01*
G37*
%TD.AperFunction*%
%TD*%
M02*
