%TF.GenerationSoftware,KiCad,Pcbnew,9.0.7*%
%TF.CreationDate,2026-08-08T19:43:12-04:00*%
%TF.ProjectId,SB_Pixel_Count,53425f50-6978-4656-9c5f-436f756e742e,v1*%
%TF.SameCoordinates,Original*%
%TF.FileFunction,Copper,L1,Top*%
%TF.FilePolarity,Positive*%
%FSLAX46Y46*%
G04 Gerber Fmt 4.6, Leading zero omitted, Abs format (unit mm)*
G04 Created by KiCad (PCBNEW 9.0.7) date 2026-08-08 19:43:12*
%MOMM*%
%LPD*%
G01*
G04 APERTURE LIST*
G04 Aperture macros list*
%AMRoundRect*
0 Rectangle with rounded corners*
0 $1 Rounding radius*
0 $2 $3 $4 $5 $6 $7 $8 $9 X,Y pos of 4 corners*
0 Add a 4 corners polygon primitive as box body*
4,1,4,$2,$3,$4,$5,$6,$7,$8,$9,$2,$3,0*
0 Add four circle primitives for the rounded corners*
1,1,$1+$1,$2,$3*
1,1,$1+$1,$4,$5*
1,1,$1+$1,$6,$7*
1,1,$1+$1,$8,$9*
0 Add four rect primitives between the rounded corners*
20,1,$1+$1,$2,$3,$4,$5,0*
20,1,$1+$1,$4,$5,$6,$7,0*
20,1,$1+$1,$6,$7,$8,$9,0*
20,1,$1+$1,$8,$9,$2,$3,0*%
G04 Aperture macros list end*
%TA.AperFunction,ComponentPad*%
%ADD10R,2.500000X1.700000*%
%TD*%
%TA.AperFunction,ComponentPad*%
%ADD11O,2.500000X1.700000*%
%TD*%
%TA.AperFunction,SMDPad,CuDef*%
%ADD12RoundRect,0.250000X0.475000X-0.337500X0.475000X0.337500X-0.475000X0.337500X-0.475000X-0.337500X0*%
%TD*%
%TA.AperFunction,SMDPad,CuDef*%
%ADD13RoundRect,0.375000X-0.625000X-0.375000X0.625000X-0.375000X0.625000X0.375000X-0.625000X0.375000X0*%
%TD*%
%TA.AperFunction,SMDPad,CuDef*%
%ADD14RoundRect,0.500000X-0.500000X-1.400000X0.500000X-1.400000X0.500000X1.400000X-0.500000X1.400000X0*%
%TD*%
%TA.AperFunction,SMDPad,CuDef*%
%ADD15RoundRect,0.150000X0.150000X-0.825000X0.150000X0.825000X-0.150000X0.825000X-0.150000X-0.825000X0*%
%TD*%
%TA.AperFunction,SMDPad,CuDef*%
%ADD16R,0.700000X0.510000*%
%TD*%
%TA.AperFunction,SMDPad,CuDef*%
%ADD17RoundRect,0.237500X-0.300000X-0.237500X0.300000X-0.237500X0.300000X0.237500X-0.300000X0.237500X0*%
%TD*%
%TA.AperFunction,SMDPad,CuDef*%
%ADD18RoundRect,0.237500X0.300000X0.237500X-0.300000X0.237500X-0.300000X-0.237500X0.300000X-0.237500X0*%
%TD*%
%TA.AperFunction,SMDPad,CuDef*%
%ADD19RoundRect,0.237500X0.250000X0.237500X-0.250000X0.237500X-0.250000X-0.237500X0.250000X-0.237500X0*%
%TD*%
%TA.AperFunction,SMDPad,CuDef*%
%ADD20RoundRect,0.237500X-0.250000X-0.237500X0.250000X-0.237500X0.250000X0.237500X-0.250000X0.237500X0*%
%TD*%
%TA.AperFunction,ComponentPad*%
%ADD21RoundRect,0.250000X-1.550000X0.650000X-1.550000X-0.650000X1.550000X-0.650000X1.550000X0.650000X0*%
%TD*%
%TA.AperFunction,ComponentPad*%
%ADD22O,3.600000X1.800000*%
%TD*%
%TA.AperFunction,SMDPad,CuDef*%
%ADD23RoundRect,0.249999X1.425001X-0.450001X1.425001X0.450001X-1.425001X0.450001X-1.425001X-0.450001X0*%
%TD*%
%TA.AperFunction,ComponentPad*%
%ADD24C,2.000000*%
%TD*%
%TA.AperFunction,ComponentPad*%
%ADD25R,1.600000X1.600000*%
%TD*%
%TA.AperFunction,SMDPad,CuDef*%
%ADD26R,1.700000X3.030000*%
%TD*%
%TA.AperFunction,ComponentPad*%
%ADD27C,1.600000*%
%TD*%
%TA.AperFunction,ComponentPad*%
%ADD28RoundRect,0.291667X-1.508333X0.758333X-1.508333X-0.758333X1.508333X-0.758333X1.508333X0.758333X0*%
%TD*%
%TA.AperFunction,ComponentPad*%
%ADD29O,3.600000X2.100000*%
%TD*%
%TA.AperFunction,ViaPad*%
%ADD30C,0.800000*%
%TD*%
%TA.AperFunction,Conductor*%
%ADD31C,0.500000*%
%TD*%
%TA.AperFunction,Conductor*%
%ADD32C,1.000000*%
%TD*%
%TA.AperFunction,Conductor*%
%ADD33C,0.400000*%
%TD*%
G04 APERTURE END LIST*
D10*
%TO.P,J3,1,Pin_1*%
%TO.N,I2C_SDA*%
X130700000Y-90625000D03*
D11*
%TO.P,J3,2,Pin_2*%
%TO.N,I2C_SCL*%
X130700000Y-88125000D03*
%TO.P,J3,3,Pin_3*%
%TO.N,+3.3V*%
X130700000Y-85525000D03*
%TO.P,J3,4,Pin_4*%
%TO.N,GND*%
X130700000Y-83025000D03*
%TD*%
D12*
%TO.P,C4,1*%
%TO.N,+5V*%
X122725000Y-78162500D03*
%TO.P,C4,2*%
%TO.N,GND*%
X122725000Y-76087500D03*
%TD*%
%TO.P,C3,1*%
%TO.N,VIN1*%
X111150000Y-78662500D03*
%TO.P,C3,2*%
%TO.N,GND*%
X111150000Y-76587500D03*
%TD*%
D13*
%TO.P,U3,1,GND*%
%TO.N,GND*%
X113450000Y-75900000D03*
%TO.P,U3,2,VO*%
%TO.N,+5V*%
X113450000Y-78200000D03*
D14*
X119750000Y-78200000D03*
D13*
%TO.P,U3,3,VI*%
%TO.N,VIN1*%
X113450000Y-80500000D03*
%TD*%
D15*
%TO.P,U4,1,A1*%
%TO.N,Net-(U4-A1)*%
X115645000Y-95145000D03*
%TO.P,U4,2,A0*%
%TO.N,Net-(U4-A0)*%
X116915000Y-95145000D03*
%TO.P,U4,3,SDA*%
%TO.N,I2C_SDA*%
X118185000Y-95145000D03*
%TO.P,U4,4,SCL*%
%TO.N,I2C_SCL*%
X119455000Y-95145000D03*
%TO.P,U4,5,VS*%
%TO.N,+3.3V*%
X119455000Y-90195000D03*
%TO.P,U4,6,GND*%
%TO.N,GND*%
X118185000Y-90195000D03*
%TO.P,U4,7,IN-*%
%TO.N,VOUT1*%
X116915000Y-90195000D03*
%TO.P,U4,8,IN+*%
%TO.N,VIN1*%
X115645000Y-90195000D03*
%TD*%
D16*
%TO.P,U1,1*%
%TO.N,GND*%
X118260000Y-84675000D03*
%TO.P,U1,2*%
%TO.N,OUT1*%
X118260000Y-83725000D03*
%TO.P,U1,3,GND*%
%TO.N,GND*%
X118260000Y-82775000D03*
%TO.P,U1,4*%
%TO.N,Net-(R1-Pad2)*%
X115940000Y-82775000D03*
%TO.P,U1,5,VCC*%
%TO.N,+5V*%
X115940000Y-84675000D03*
%TD*%
D17*
%TO.P,C6,1*%
%TO.N,GND*%
X148375000Y-97800000D03*
%TO.P,C6,2*%
%TO.N,+5V*%
X150100000Y-97800000D03*
%TD*%
%TO.P,C1,1*%
%TO.N,+5V*%
X116137500Y-86400000D03*
%TO.P,C1,2*%
%TO.N,GND*%
X117862500Y-86400000D03*
%TD*%
D18*
%TO.P,C5,1*%
%TO.N,+3.3V*%
X120185000Y-87990000D03*
%TO.P,C5,2*%
%TO.N,GND*%
X118460000Y-87990000D03*
%TD*%
D19*
%TO.P,R3,1*%
%TO.N,Net-(U4-A0)*%
X116912500Y-97300000D03*
%TO.P,R3,2*%
%TO.N,GND*%
X115087500Y-97300000D03*
%TD*%
D20*
%TO.P,R1,1*%
%TO.N,/DOUT1*%
X111712500Y-82575000D03*
%TO.P,R1,2*%
%TO.N,Net-(R1-Pad2)*%
X113537500Y-82575000D03*
%TD*%
D19*
%TO.P,R4,1*%
%TO.N,Net-(U4-A1)*%
X113922500Y-95490000D03*
%TO.P,R4,2*%
%TO.N,GND*%
X112097500Y-95490000D03*
%TD*%
D21*
%TO.P,TB1,1,P1*%
%TO.N,VIN1*%
X105357500Y-92112500D03*
D22*
%TO.P,TB1,2,P2*%
%TO.N,GND*%
X105357500Y-95922500D03*
%TD*%
D23*
%TO.P,R2,1*%
%TO.N,VIN1*%
X112200000Y-91800000D03*
%TO.P,R2,2*%
%TO.N,VOUT1*%
X112200000Y-85700000D03*
%TD*%
D24*
%TO.P,SW1,1,1*%
%TO.N,SW1*%
X127000000Y-80250000D03*
%TO.P,SW1,2,2*%
%TO.N,GND*%
X122500000Y-80250000D03*
%TO.P,SW1,3*%
%TO.N,N/C*%
X127000000Y-86750000D03*
%TO.P,SW1,4*%
X122500000Y-86750000D03*
%TD*%
%TO.P,SW2,1,1*%
%TO.N,SW2*%
X127000000Y-89875000D03*
%TO.P,SW2,2,2*%
%TO.N,GND*%
X122500000Y-89875000D03*
%TO.P,SW2,3*%
%TO.N,N/C*%
X127000000Y-96375000D03*
%TO.P,SW2,4*%
X122500000Y-96375000D03*
%TD*%
D25*
%TO.P,U2,1,PA02_A0_D0*%
%TO.N,unconnected-(U2-PA02_A0_D0-Pad1)*%
X150100000Y-79260000D03*
D26*
X150100001Y-78595000D03*
D27*
%TO.P,U2,2,PA4_A1_D1*%
%TO.N,unconnected-(U2-PA4_A1_D1-Pad2)*%
X147560000Y-79260000D03*
D26*
X147560000Y-78595000D03*
D27*
%TO.P,U2,3,PA10_A2_D2*%
%TO.N,SW1*%
X145020000Y-79260000D03*
D26*
X145020000Y-78595000D03*
D27*
%TO.P,U2,4,PA11_A3_D3*%
%TO.N,SW2*%
X142480000Y-79260000D03*
D26*
X142480000Y-78595000D03*
D27*
%TO.P,U2,5,PA8_A4_D4_SDA*%
%TO.N,I2C_SDA*%
X139940000Y-79260000D03*
D26*
X139940000Y-78595000D03*
D27*
%TO.P,U2,6,PA9_A5_D5_SCL*%
%TO.N,I2C_SCL*%
X137400000Y-79260000D03*
D26*
X137400000Y-78595000D03*
D27*
%TO.P,U2,7,PB08_A6_D6_TX*%
%TO.N,OUT1*%
X134860000Y-79260000D03*
D26*
X134860000Y-78595000D03*
%TO.P,U2,8,PB09_A7_D7_RX*%
%TO.N,CS*%
X134860000Y-95165000D03*
D27*
X134860000Y-94500000D03*
D26*
%TO.P,U2,9,PA7_A8_D8_SCK*%
%TO.N,CLK*%
X137400000Y-95165000D03*
D27*
X137400000Y-94500000D03*
D26*
%TO.P,U2,10,PA5_A9_D9_MISO*%
%TO.N,DO*%
X139940000Y-95165000D03*
D27*
X139940000Y-94500000D03*
D26*
%TO.P,U2,11,PA6_A10_D10_MOSI*%
%TO.N,DI*%
X142480000Y-95165000D03*
D27*
X142480000Y-94500000D03*
D26*
%TO.P,U2,12,3V3*%
%TO.N,+3.3V*%
X145020000Y-95165000D03*
D27*
X145020000Y-94500000D03*
D26*
%TO.P,U2,13,GND*%
%TO.N,GND*%
X147560000Y-95165000D03*
D27*
X147560000Y-94500000D03*
%TO.P,U2,14,5V*%
%TO.N,+5V*%
X150100000Y-94500000D03*
D26*
X150100000Y-95165000D03*
%TD*%
D28*
%TO.P,J2,1,Pin_1*%
%TO.N,GND*%
X105357500Y-77680000D03*
D22*
%TO.P,J2,2,Pin_2*%
%TO.N,/DOUT1*%
X105357500Y-81340000D03*
D29*
%TO.P,J2,3,Pin_3*%
%TO.N,VOUT1*%
X105357500Y-85000000D03*
%TD*%
D30*
%TO.N,GND*%
X132450000Y-95810000D03*
X117750000Y-76875000D03*
X119035000Y-86297900D03*
X117400000Y-92700000D03*
X108000000Y-99000000D03*
X123340000Y-74390000D03*
X115900000Y-99000000D03*
X135575000Y-87800000D03*
X133375000Y-84025000D03*
X152200000Y-74400000D03*
X133525000Y-92575000D03*
X150700000Y-81900000D03*
X151900000Y-99200000D03*
X119475000Y-81000000D03*
X115550000Y-76875000D03*
X147050000Y-81900000D03*
X116650000Y-75875000D03*
X122340000Y-74390000D03*
X109750000Y-75325000D03*
X101000000Y-94500000D03*
X121250000Y-74450000D03*
X117750000Y-75875000D03*
X117875000Y-79500000D03*
X150600000Y-92600000D03*
X113700000Y-97300000D03*
X114200000Y-74200000D03*
X133025000Y-90725000D03*
X148400000Y-99100000D03*
X136075000Y-92525000D03*
X146290000Y-74175000D03*
X131310000Y-74310000D03*
X145300000Y-98900000D03*
X119500000Y-92600000D03*
X116600000Y-74200000D03*
X140250000Y-83500000D03*
X135253021Y-81850000D03*
X141000000Y-99000000D03*
X115550000Y-75875000D03*
X112000000Y-74200000D03*
X130120000Y-95930000D03*
X110700000Y-95500000D03*
X148450000Y-91175000D03*
X139145743Y-74175000D03*
X109650000Y-76675000D03*
X147000000Y-97900000D03*
X147650000Y-92625000D03*
X144850000Y-85150000D03*
X112100000Y-97100000D03*
X120743069Y-80933278D03*
X116300000Y-92700000D03*
X138050000Y-88525000D03*
X121000000Y-99000000D03*
X140350000Y-90225000D03*
X124675000Y-76025000D03*
X112080000Y-98970000D03*
X113100000Y-74200000D03*
X142625000Y-81900000D03*
X116875000Y-81000000D03*
X130160000Y-93130000D03*
X135000000Y-99000000D03*
X111300000Y-75250000D03*
X148400000Y-89450000D03*
X117875000Y-81000000D03*
X115400000Y-74200000D03*
X144700000Y-90000000D03*
X101000000Y-99000000D03*
X148075000Y-85125000D03*
X124800000Y-80200000D03*
X150700000Y-86600000D03*
X124340000Y-74390000D03*
X127000000Y-99000000D03*
X116650000Y-76875000D03*
X116875000Y-79500000D03*
X118400000Y-92700000D03*
%TO.N,VIN1*%
X112700000Y-90500000D03*
X113700000Y-90500000D03*
X111700000Y-93500000D03*
X114700000Y-92500000D03*
X114700000Y-89500000D03*
X110700000Y-93500000D03*
X112700000Y-89500000D03*
X110700000Y-90500000D03*
X111700000Y-89500000D03*
X112700000Y-93500000D03*
X109700000Y-89500000D03*
X113700000Y-89500000D03*
X113700000Y-93500000D03*
X109700000Y-93500000D03*
X114700000Y-93500000D03*
X110700000Y-89500000D03*
X114700000Y-91500000D03*
X114700000Y-90500000D03*
X109700000Y-91500000D03*
X109700000Y-90500000D03*
X111700000Y-90500000D03*
X109700000Y-92500000D03*
%TO.N,+3.3V*%
X147950000Y-87650000D03*
%TO.N,VOUT1*%
X114700000Y-86000000D03*
X114700000Y-85000000D03*
X111700000Y-84000000D03*
X110700000Y-84000000D03*
X114700000Y-84000000D03*
X114700000Y-87000000D03*
X109700000Y-85000000D03*
X111700000Y-88000000D03*
X113700000Y-84000000D03*
X109700000Y-86000000D03*
X110700000Y-88000000D03*
X112700000Y-88000000D03*
X109700000Y-88000000D03*
X109700000Y-87000000D03*
X110700000Y-87000000D03*
X114700000Y-88000000D03*
X109700000Y-84000000D03*
X113700000Y-87000000D03*
X112700000Y-84000000D03*
X112700000Y-87000000D03*
X111700000Y-87000000D03*
X113700000Y-88000000D03*
%TO.N,SW2*%
X125200000Y-82500000D03*
%TO.N,DO*%
X137675000Y-91400000D03*
%TD*%
D31*
%TO.N,+5V*%
X116800000Y-82350000D02*
X115850000Y-81400000D01*
D32*
X122725000Y-78162500D02*
X129089708Y-78162500D01*
X150820001Y-75550000D02*
X152200000Y-76929999D01*
X152200000Y-76929999D02*
X152200000Y-95700000D01*
D31*
X115850000Y-81400000D02*
X115850000Y-78325000D01*
X115850000Y-78325000D02*
X115975000Y-78200000D01*
D32*
X115975000Y-78200000D02*
X113875000Y-78200000D01*
D31*
X116137500Y-84872500D02*
X115940000Y-84675000D01*
D32*
X152200000Y-95700000D02*
X150100000Y-97800000D01*
D31*
X115940000Y-84675000D02*
X116800000Y-83815000D01*
D32*
X150100000Y-94500000D02*
X150100000Y-97800000D01*
D31*
X116800000Y-83815000D02*
X116800000Y-82350000D01*
D32*
X122687500Y-78200000D02*
X115975000Y-78200000D01*
X122725000Y-78162500D02*
X122687500Y-78200000D01*
X131702208Y-75550000D02*
X150820001Y-75550000D01*
X129089708Y-78162500D02*
X131702208Y-75550000D01*
D31*
X116137500Y-86400000D02*
X116137500Y-84872500D01*
D33*
%TO.N,GND*%
X118110000Y-86152500D02*
X117862500Y-86400000D01*
X118185000Y-92485000D02*
X118400000Y-92700000D01*
X118260000Y-82775000D02*
X118260000Y-82540000D01*
D31*
X118185000Y-90195000D02*
X118185000Y-92485000D01*
D33*
X128825000Y-83025000D02*
X130700000Y-83025000D01*
X118062500Y-86400000D02*
X117862500Y-86400000D01*
X117862500Y-86400000D02*
X118932900Y-86400000D01*
X118932900Y-86400000D02*
X119035000Y-86297900D01*
X118110000Y-85850000D02*
X118110000Y-86152500D01*
X118260000Y-84675000D02*
X118260000Y-85700000D01*
X121100000Y-83400000D02*
X128400000Y-83400000D01*
D31*
X118185000Y-90195000D02*
X118185000Y-88352500D01*
D33*
X128800000Y-83000000D02*
X128825000Y-83025000D01*
X118260000Y-85700000D02*
X118110000Y-85850000D01*
X119800000Y-84700000D02*
X121100000Y-83400000D01*
X118200000Y-86537500D02*
X118062500Y-86400000D01*
X118285000Y-84700000D02*
X119800000Y-84700000D01*
D31*
X118200000Y-87662500D02*
X118200000Y-86537500D01*
X118185000Y-88352500D02*
X118537500Y-88000000D01*
D33*
X128400000Y-83400000D02*
X128800000Y-83000000D01*
X118260000Y-84675000D02*
X118285000Y-84700000D01*
X118260000Y-82540000D02*
X119800000Y-81000000D01*
D31*
X118537500Y-88000000D02*
X118200000Y-87662500D01*
D32*
%TO.N,VIN1*%
X105357500Y-91857500D02*
X102400000Y-88900000D01*
D31*
X115005000Y-90195000D02*
X114700000Y-90500000D01*
D32*
X103268406Y-79600000D02*
X108725000Y-79600000D01*
X102400000Y-80468406D02*
X103268406Y-79600000D01*
X113875000Y-80500000D02*
X111725000Y-80500000D01*
X111725000Y-80500000D02*
X111200000Y-79975000D01*
X102400000Y-88900000D02*
X102400000Y-80468406D01*
X111200000Y-79975000D02*
X111200000Y-78662500D01*
D31*
X115645000Y-90195000D02*
X115005000Y-90195000D01*
D32*
X109662500Y-78662500D02*
X111200000Y-78662500D01*
X105357500Y-92112500D02*
X105357500Y-91857500D01*
X108725000Y-79600000D02*
X109662500Y-78662500D01*
%TO.N,+3.3V*%
X128525000Y-84800000D02*
X129250000Y-85525000D01*
X145020000Y-93245000D02*
X142050000Y-90275000D01*
X130725000Y-85500000D02*
X139900000Y-85500000D01*
X129250000Y-85525000D02*
X130700000Y-85525000D01*
X119455000Y-89382500D02*
X119455000Y-90195000D01*
X120262500Y-88000000D02*
X120262500Y-88575000D01*
X120250000Y-87925000D02*
X120250000Y-86225000D01*
X120185000Y-87990000D02*
X120250000Y-87925000D01*
X142050000Y-90275000D02*
X142050000Y-87650000D01*
X139900000Y-85500000D02*
X142050000Y-87650000D01*
X145020000Y-94500000D02*
X145020000Y-93245000D01*
X121675000Y-84800000D02*
X128525000Y-84800000D01*
X120250000Y-86225000D02*
X121675000Y-84800000D01*
X120262500Y-88575000D02*
X119455000Y-89382500D01*
X142050000Y-87650000D02*
X145625000Y-87650000D01*
X130700000Y-85525000D02*
X130725000Y-85500000D01*
X145625000Y-87650000D02*
X147950000Y-87650000D01*
D33*
%TO.N,/DOUT1*%
X110477500Y-81340000D02*
X105357500Y-81340000D01*
X111712500Y-82575000D02*
X110477500Y-81340000D01*
D31*
%TO.N,VOUT1*%
X116800000Y-88300000D02*
X116915000Y-88415000D01*
X116800000Y-88000000D02*
X116800000Y-88300000D01*
X116915000Y-88415000D02*
X116915000Y-90195000D01*
X114700000Y-88000000D02*
X116800000Y-88000000D01*
D33*
%TO.N,I2C_SDA*%
X120500000Y-95250000D02*
X121275000Y-94475000D01*
X129775000Y-90625000D02*
X130700000Y-90625000D01*
X118185000Y-95985000D02*
X118925000Y-96725000D01*
X125925000Y-94475000D02*
X129775000Y-90625000D01*
X121275000Y-94475000D02*
X125925000Y-94475000D01*
X118925000Y-96725000D02*
X119850000Y-96725000D01*
X119850000Y-96725000D02*
X120500000Y-96075000D01*
X120500000Y-96075000D02*
X120500000Y-95250000D01*
X118185000Y-95145000D02*
X118185000Y-95985000D01*
%TO.N,I2C_SCL*%
X120725000Y-93875000D02*
X125676472Y-93875000D01*
X119455000Y-95145000D02*
X120725000Y-93875000D01*
X129850000Y-88125000D02*
X130700000Y-88125000D01*
X128750000Y-89225000D02*
X129850000Y-88125000D01*
X128750000Y-90801472D02*
X128750000Y-89225000D01*
X125676472Y-93875000D02*
X128750000Y-90801472D01*
%TO.N,Net-(R1-Pad2)*%
X113737500Y-82775000D02*
X113537500Y-82575000D01*
X115940000Y-82775000D02*
X113737500Y-82775000D01*
%TO.N,Net-(U4-A0)*%
X116915000Y-95145000D02*
X116915000Y-97297500D01*
X116915000Y-97297500D02*
X116912500Y-97300000D01*
%TO.N,Net-(U4-A1)*%
X115300000Y-95490000D02*
X115645000Y-95145000D01*
X113922500Y-95490000D02*
X115300000Y-95490000D01*
%TO.N,SW1*%
X127000000Y-80250000D02*
X128275000Y-80250000D01*
X128275000Y-80250000D02*
X131845000Y-76680000D01*
X131845000Y-76680000D02*
X143730000Y-76680000D01*
X143730000Y-76680000D02*
X145020000Y-77970000D01*
X145020000Y-77970000D02*
X145020000Y-79495000D01*
%TO.N,OUT1*%
X118260000Y-83725000D02*
X119085000Y-83725000D01*
X127801472Y-81700000D02*
X130241472Y-79260000D01*
X130241472Y-79260000D02*
X134860000Y-79260000D01*
X119085000Y-83725000D02*
X121110000Y-81700000D01*
X121110000Y-81700000D02*
X127801472Y-81700000D01*
%TO.N,SW2*%
X127850000Y-82500000D02*
X125200000Y-82500000D01*
X142480000Y-79260000D02*
X141015000Y-80725000D01*
X141015000Y-80725000D02*
X129625000Y-80725000D01*
X129625000Y-80725000D02*
X127850000Y-82500000D01*
%TO.N,DO*%
X137675000Y-92235000D02*
X137675000Y-91400000D01*
X139940000Y-94500000D02*
X137675000Y-92235000D01*
%TD*%
%TA.AperFunction,Conductor*%
%TO.N,VOUT1*%
G36*
X111210004Y-83506293D02*
G01*
X111312247Y-83540174D01*
X111413323Y-83550500D01*
X112011676Y-83550499D01*
X112011684Y-83550498D01*
X112011687Y-83550498D01*
X112067030Y-83544844D01*
X112112753Y-83540174D01*
X112214996Y-83506293D01*
X112253999Y-83500000D01*
X112996001Y-83500000D01*
X113035004Y-83506293D01*
X113137247Y-83540174D01*
X113238323Y-83550500D01*
X113836676Y-83550499D01*
X113836684Y-83550498D01*
X113836687Y-83550498D01*
X113892030Y-83544844D01*
X113937753Y-83540174D01*
X114039996Y-83506293D01*
X114078999Y-83500000D01*
X115076000Y-83500000D01*
X115143039Y-83519685D01*
X115188794Y-83572489D01*
X115200000Y-83624000D01*
X115200000Y-84064534D01*
X115180315Y-84131573D01*
X115175267Y-84138844D01*
X115146206Y-84177664D01*
X115146202Y-84177671D01*
X115095910Y-84312513D01*
X115095909Y-84312517D01*
X115089500Y-84372127D01*
X115089500Y-84372134D01*
X115089500Y-84372135D01*
X115089500Y-84977870D01*
X115089501Y-84977876D01*
X115095908Y-85037483D01*
X115146202Y-85172328D01*
X115146203Y-85172330D01*
X115175267Y-85211154D01*
X115199684Y-85276618D01*
X115200000Y-85285465D01*
X115200000Y-85755101D01*
X115181540Y-85820195D01*
X115164093Y-85848481D01*
X115164092Y-85848484D01*
X115109826Y-86012247D01*
X115109826Y-86012248D01*
X115109825Y-86012248D01*
X115099500Y-86113315D01*
X115099500Y-86686669D01*
X115099501Y-86686687D01*
X115109825Y-86787752D01*
X115164092Y-86951515D01*
X115164096Y-86951524D01*
X115181538Y-86979801D01*
X115200000Y-87044898D01*
X115200000Y-87400000D01*
X117325500Y-87400000D01*
X117334185Y-87402550D01*
X117343147Y-87401262D01*
X117367187Y-87412240D01*
X117392539Y-87419685D01*
X117398466Y-87426525D01*
X117406703Y-87430287D01*
X117420992Y-87452521D01*
X117438294Y-87472489D01*
X117440581Y-87483003D01*
X117444477Y-87489065D01*
X117449500Y-87524000D01*
X117449500Y-87530408D01*
X117443206Y-87569412D01*
X117432326Y-87602245D01*
X117422000Y-87703315D01*
X117422000Y-88276669D01*
X117422001Y-88276687D01*
X117433014Y-88384489D01*
X117432751Y-88384515D01*
X117434500Y-88401032D01*
X117434500Y-89087670D01*
X117429576Y-89122265D01*
X117387402Y-89267426D01*
X117387401Y-89267432D01*
X117384500Y-89304298D01*
X117384500Y-91085701D01*
X117387401Y-91122567D01*
X117387402Y-91122573D01*
X117421927Y-91241405D01*
X117421728Y-91311274D01*
X117383786Y-91369944D01*
X117320148Y-91398788D01*
X117302851Y-91400000D01*
X116781331Y-91400000D01*
X116714292Y-91380315D01*
X116668537Y-91327511D01*
X116657332Y-91275647D01*
X116657425Y-91243022D01*
X116657425Y-91242851D01*
X116657424Y-91242850D01*
X116657425Y-91242845D01*
X116657425Y-91242844D01*
X116637354Y-91100371D01*
X116624924Y-91057587D01*
X116620000Y-91022991D01*
X116620000Y-89367009D01*
X116624924Y-89332414D01*
X116633090Y-89304306D01*
X116634450Y-89299626D01*
X116643126Y-89265328D01*
X116646787Y-89248380D01*
X116653038Y-89213583D01*
X116653037Y-89069703D01*
X116643093Y-89000545D01*
X116602558Y-88862496D01*
X116524770Y-88741457D01*
X116524765Y-88741451D01*
X116479021Y-88688659D01*
X116479017Y-88688656D01*
X116479015Y-88688653D01*
X116442795Y-88657268D01*
X116405023Y-88598491D01*
X116400000Y-88563557D01*
X116400000Y-88500000D01*
X116077068Y-88500000D01*
X116059422Y-88498738D01*
X116029946Y-88494500D01*
X116029945Y-88494500D01*
X103524500Y-88494500D01*
X103457461Y-88474815D01*
X103411706Y-88422011D01*
X103400500Y-88370500D01*
X103400500Y-83624000D01*
X103420185Y-83556961D01*
X103472989Y-83511206D01*
X103524500Y-83500000D01*
X111171001Y-83500000D01*
X111210004Y-83506293D01*
G37*
%TD.AperFunction*%
%TD*%
%TA.AperFunction,Conductor*%
%TO.N,GND*%
G36*
X152942539Y-73620185D02*
G01*
X152988294Y-73672989D01*
X152999500Y-73724500D01*
X152999500Y-76298058D01*
X152993261Y-76319303D01*
X152991682Y-76341390D01*
X152983609Y-76352173D01*
X152979815Y-76365097D01*
X152963082Y-76379595D01*
X152949812Y-76397324D01*
X152937189Y-76402032D01*
X152927011Y-76410852D01*
X152905095Y-76414003D01*
X152884348Y-76421742D01*
X152871185Y-76418878D01*
X152857853Y-76420796D01*
X152837711Y-76411597D01*
X152816074Y-76406891D01*
X152798347Y-76393620D01*
X152794297Y-76391771D01*
X152787819Y-76385739D01*
X152772265Y-76370185D01*
X152739106Y-76337027D01*
X152710289Y-76308210D01*
X152710286Y-76308208D01*
X152401578Y-75999500D01*
X151330293Y-74928213D01*
X151330289Y-74928210D01*
X151199186Y-74840609D01*
X151199173Y-74840602D01*
X151053502Y-74780264D01*
X151053490Y-74780261D01*
X150898846Y-74749500D01*
X150898843Y-74749500D01*
X131781050Y-74749500D01*
X131623366Y-74749500D01*
X131623363Y-74749500D01*
X131468718Y-74780261D01*
X131468706Y-74780264D01*
X131323035Y-74840602D01*
X131323022Y-74840609D01*
X131191919Y-74928210D01*
X131191915Y-74928213D01*
X128794449Y-77325681D01*
X128733126Y-77359166D01*
X128706768Y-77362000D01*
X123542210Y-77362000D01*
X123525619Y-77357285D01*
X123509362Y-77357570D01*
X123485942Y-77346011D01*
X123480000Y-77344323D01*
X123479735Y-77344796D01*
X123477762Y-77343687D01*
X123477006Y-77343472D01*
X123471042Y-77339785D01*
X123469224Y-77337760D01*
X123467281Y-77336801D01*
X123465580Y-77335511D01*
X123466324Y-77334529D01*
X123449355Y-77315625D01*
X123426684Y-77292383D01*
X123426150Y-77289773D01*
X123424370Y-77287790D01*
X123419187Y-77255739D01*
X123412681Y-77223931D01*
X123413643Y-77221445D01*
X123413218Y-77218816D01*
X123426186Y-77189052D01*
X123437910Y-77158775D01*
X123440062Y-77157204D01*
X123441127Y-77154762D01*
X123468131Y-77136731D01*
X123494359Y-77117602D01*
X123497245Y-77116606D01*
X123519120Y-77109357D01*
X123519124Y-77109356D01*
X123668345Y-77017315D01*
X123792315Y-76893345D01*
X123884356Y-76744124D01*
X123884358Y-76744119D01*
X123939505Y-76577697D01*
X123939506Y-76577690D01*
X123949999Y-76474986D01*
X123950000Y-76474973D01*
X123950000Y-76437500D01*
X121500001Y-76437500D01*
X121500001Y-76474986D01*
X121510494Y-76577697D01*
X121565641Y-76744119D01*
X121565643Y-76744124D01*
X121657684Y-76893345D01*
X121781654Y-77017315D01*
X121930876Y-77109356D01*
X121952755Y-77116606D01*
X121962262Y-77123188D01*
X121973552Y-77125685D01*
X121990464Y-77142713D01*
X122010201Y-77156378D01*
X122014640Y-77167055D01*
X122022788Y-77175259D01*
X122027809Y-77198727D01*
X122037025Y-77220893D01*
X122034986Y-77232276D01*
X122037406Y-77243583D01*
X122028941Y-77266042D01*
X122024711Y-77289669D01*
X122016211Y-77299817D01*
X122012765Y-77308963D01*
X121997023Y-77322728D01*
X121987723Y-77333834D01*
X121979595Y-77339875D01*
X121977658Y-77340639D01*
X121932785Y-77374667D01*
X121932309Y-77375021D01*
X121900099Y-77386909D01*
X121867953Y-77399127D01*
X121866884Y-77399168D01*
X121866761Y-77399214D01*
X121866604Y-77399179D01*
X121858339Y-77399500D01*
X121174500Y-77399500D01*
X121107461Y-77379815D01*
X121061706Y-77327011D01*
X121050500Y-77275500D01*
X121050500Y-76755043D01*
X121050499Y-76755039D01*
X121050468Y-76754767D01*
X121045565Y-76711246D01*
X121035369Y-76620750D01*
X121035368Y-76620745D01*
X121016848Y-76567819D01*
X120975789Y-76450478D01*
X120967634Y-76437500D01*
X120928509Y-76375233D01*
X120879816Y-76297738D01*
X120752262Y-76170184D01*
X120681944Y-76126000D01*
X120599523Y-76074211D01*
X120429254Y-76014631D01*
X120429249Y-76014630D01*
X120294960Y-75999500D01*
X120294954Y-75999500D01*
X119205046Y-75999500D01*
X119205039Y-75999500D01*
X119070750Y-76014630D01*
X119070745Y-76014631D01*
X118900476Y-76074211D01*
X118747737Y-76170184D01*
X118620184Y-76297737D01*
X118524211Y-76450476D01*
X118464631Y-76620745D01*
X118464630Y-76620750D01*
X118449500Y-76755039D01*
X118449500Y-77275500D01*
X118429815Y-77342539D01*
X118377011Y-77388294D01*
X118325500Y-77399500D01*
X114656163Y-77399500D01*
X114630799Y-77392052D01*
X114604636Y-77388287D01*
X114594862Y-77381499D01*
X114589124Y-77379815D01*
X114574947Y-77369202D01*
X114571614Y-77366313D01*
X114494653Y-77289352D01*
X114455545Y-77265710D01*
X114447541Y-77258773D01*
X114434150Y-77237930D01*
X114417419Y-77219660D01*
X114415594Y-77209047D01*
X114409775Y-77199989D01*
X114409778Y-77175216D01*
X114405581Y-77150800D01*
X114409783Y-77140886D01*
X114409785Y-77130120D01*
X114423180Y-77109281D01*
X114432850Y-77086472D01*
X114443078Y-77078329D01*
X114447567Y-77071347D01*
X114457608Y-77066762D01*
X114473664Y-77053982D01*
X114549025Y-77016607D01*
X114697366Y-76897367D01*
X114697367Y-76897366D01*
X114816607Y-76749025D01*
X114816609Y-76749022D01*
X114901168Y-76578523D01*
X114947102Y-76393824D01*
X114950000Y-76351096D01*
X114950000Y-76250000D01*
X113574000Y-76250000D01*
X113506961Y-76230315D01*
X113461206Y-76177511D01*
X113450000Y-76126000D01*
X113450000Y-75900000D01*
X113224000Y-75900000D01*
X113215314Y-75897449D01*
X113206353Y-75898738D01*
X113182312Y-75887759D01*
X113156961Y-75880315D01*
X113151033Y-75873474D01*
X113142797Y-75869713D01*
X113128507Y-75847478D01*
X113111206Y-75827511D01*
X113108918Y-75816996D01*
X113105023Y-75810935D01*
X113100000Y-75776000D01*
X113100000Y-75700013D01*
X121500000Y-75700013D01*
X121500000Y-75737500D01*
X122375000Y-75737500D01*
X123075000Y-75737500D01*
X123949999Y-75737500D01*
X123949999Y-75700028D01*
X123949998Y-75700013D01*
X123939505Y-75597302D01*
X123884358Y-75430880D01*
X123884356Y-75430875D01*
X123792315Y-75281654D01*
X123668345Y-75157684D01*
X123519124Y-75065643D01*
X123519119Y-75065641D01*
X123352697Y-75010494D01*
X123352690Y-75010493D01*
X123249986Y-75000000D01*
X123075000Y-75000000D01*
X123075000Y-75737500D01*
X122375000Y-75737500D01*
X122375000Y-75000000D01*
X122200029Y-75000000D01*
X122200012Y-75000001D01*
X122097302Y-75010494D01*
X121930880Y-75065641D01*
X121930875Y-75065643D01*
X121781654Y-75157684D01*
X121657684Y-75281654D01*
X121565643Y-75430875D01*
X121565641Y-75430880D01*
X121510494Y-75597302D01*
X121510493Y-75597309D01*
X121500000Y-75700013D01*
X113100000Y-75700013D01*
X113100000Y-75550000D01*
X113800000Y-75550000D01*
X114950000Y-75550000D01*
X114950000Y-75448903D01*
X114947102Y-75406175D01*
X114901168Y-75221476D01*
X114816609Y-75050977D01*
X114816607Y-75050974D01*
X114697367Y-74902633D01*
X114697366Y-74902632D01*
X114549025Y-74783392D01*
X114549022Y-74783390D01*
X114378523Y-74698831D01*
X114193824Y-74652897D01*
X114151097Y-74650000D01*
X113800000Y-74650000D01*
X113800000Y-75550000D01*
X113100000Y-75550000D01*
X113100000Y-74650000D01*
X112748903Y-74650000D01*
X112706175Y-74652897D01*
X112521476Y-74698831D01*
X112350977Y-74783390D01*
X112350974Y-74783392D01*
X112202633Y-74902632D01*
X112202632Y-74902633D01*
X112083392Y-75050974D01*
X112083390Y-75050977D01*
X111998831Y-75221476D01*
X111952896Y-75406181D01*
X111952052Y-75411562D01*
X111950738Y-75411355D01*
X111928764Y-75470906D01*
X111872977Y-75512973D01*
X111803303Y-75518200D01*
X111790234Y-75514649D01*
X111777697Y-75510494D01*
X111777690Y-75510493D01*
X111674986Y-75500000D01*
X111500000Y-75500000D01*
X111500000Y-76463500D01*
X111480315Y-76530539D01*
X111427511Y-76576294D01*
X111376000Y-76587500D01*
X111150000Y-76587500D01*
X111150000Y-76813500D01*
X111130315Y-76880539D01*
X111077511Y-76926294D01*
X111026000Y-76937500D01*
X109925001Y-76937500D01*
X109925001Y-76974986D01*
X109935494Y-77077697D01*
X109990641Y-77244119D01*
X109990643Y-77244124D01*
X110082684Y-77393345D01*
X110206654Y-77517315D01*
X110355876Y-77609356D01*
X110377755Y-77616606D01*
X110391566Y-77626168D01*
X110407600Y-77631181D01*
X110419698Y-77645645D01*
X110435201Y-77656378D01*
X110441649Y-77671888D01*
X110452428Y-77684774D01*
X110454785Y-77703481D01*
X110462025Y-77720893D01*
X110459064Y-77737428D01*
X110461165Y-77754096D01*
X110453034Y-77771109D01*
X110449711Y-77789669D01*
X110438069Y-77802422D01*
X110431037Y-77817136D01*
X110408928Y-77834862D01*
X110409420Y-77835511D01*
X110407719Y-77836801D01*
X110406136Y-77837402D01*
X110403965Y-77839781D01*
X110398002Y-77843468D01*
X110397264Y-77843670D01*
X110395276Y-77844789D01*
X110394997Y-77844293D01*
X110369767Y-77851226D01*
X110342408Y-77861626D01*
X110332790Y-77862000D01*
X109583655Y-77862000D01*
X109473103Y-77883991D01*
X109470589Y-77884491D01*
X109429003Y-77892763D01*
X109429001Y-77892763D01*
X109429000Y-77892764D01*
X109428998Y-77892764D01*
X109283327Y-77953102D01*
X109283314Y-77953109D01*
X109159423Y-78035892D01*
X109152212Y-78040710D01*
X109152204Y-78040716D01*
X108429741Y-78763181D01*
X108368418Y-78796666D01*
X108342060Y-78799500D01*
X107752950Y-78799500D01*
X107685911Y-78779815D01*
X107640156Y-78727011D01*
X107630212Y-78657853D01*
X107635909Y-78634544D01*
X107642535Y-78615608D01*
X107642536Y-78615601D01*
X107657499Y-78482796D01*
X107657500Y-78482792D01*
X107657500Y-78430000D01*
X103057500Y-78430000D01*
X103057500Y-78482796D01*
X103072463Y-78615601D01*
X103072465Y-78615612D01*
X103094593Y-78678848D01*
X103098155Y-78748627D01*
X103063427Y-78809254D01*
X103025005Y-78834364D01*
X102889230Y-78890604D01*
X102889220Y-78890609D01*
X102758117Y-78978210D01*
X102758113Y-78978213D01*
X102092906Y-79643422D01*
X101889711Y-79846617D01*
X101851828Y-79884500D01*
X101778209Y-79958118D01*
X101690609Y-80089220D01*
X101690602Y-80089233D01*
X101630264Y-80234904D01*
X101630261Y-80234916D01*
X101599500Y-80389559D01*
X101599500Y-88978846D01*
X101630261Y-89133489D01*
X101630264Y-89133501D01*
X101690602Y-89279172D01*
X101690609Y-89279185D01*
X101778210Y-89410288D01*
X101778213Y-89410292D01*
X102558181Y-90190259D01*
X102591666Y-90251582D01*
X102594500Y-90277940D01*
X102594500Y-93876000D01*
X102594501Y-93876009D01*
X102606052Y-93983450D01*
X102606054Y-93983462D01*
X102617260Y-94034972D01*
X102651383Y-94137497D01*
X102651386Y-94137503D01*
X102729171Y-94258537D01*
X102729179Y-94258548D01*
X102774923Y-94311340D01*
X102774926Y-94311343D01*
X102774930Y-94311347D01*
X102883664Y-94405567D01*
X103014541Y-94465338D01*
X103081580Y-94485023D01*
X103081584Y-94485024D01*
X103224000Y-94505500D01*
X103224003Y-94505500D01*
X103644378Y-94505500D01*
X103711417Y-94525185D01*
X103757172Y-94577989D01*
X103767116Y-94647147D01*
X103738091Y-94710703D01*
X103717264Y-94729818D01*
X103545458Y-94854642D01*
X103389642Y-95010458D01*
X103260113Y-95188739D01*
X103160067Y-95385089D01*
X103099175Y-95572499D01*
X103099175Y-95572500D01*
X104866753Y-95572500D01*
X104798389Y-95690909D01*
X104757500Y-95843509D01*
X104757500Y-96001491D01*
X104798389Y-96154091D01*
X104866753Y-96272500D01*
X103099175Y-96272500D01*
X103160067Y-96459910D01*
X103260113Y-96656260D01*
X103389642Y-96834541D01*
X103545458Y-96990357D01*
X103723739Y-97119886D01*
X103920089Y-97219932D01*
X104129664Y-97288026D01*
X104347319Y-97322500D01*
X105007500Y-97322500D01*
X105007500Y-96413246D01*
X105125909Y-96481611D01*
X105278509Y-96522500D01*
X105436491Y-96522500D01*
X105589091Y-96481611D01*
X105707500Y-96413246D01*
X105707500Y-97322500D01*
X106367681Y-97322500D01*
X106585335Y-97288026D01*
X106794910Y-97219932D01*
X106991260Y-97119886D01*
X107169541Y-96990357D01*
X107325357Y-96834541D01*
X107454886Y-96656260D01*
X107554932Y-96459910D01*
X107615825Y-96272500D01*
X105848247Y-96272500D01*
X105916611Y-96154091D01*
X105957500Y-96001491D01*
X105957500Y-95843509D01*
X105956560Y-95840000D01*
X111116473Y-95840000D01*
X111120319Y-95877651D01*
X111120319Y-95877653D01*
X111174546Y-96041300D01*
X111174551Y-96041311D01*
X111265052Y-96188034D01*
X111265055Y-96188038D01*
X111386961Y-96309944D01*
X111386965Y-96309947D01*
X111533688Y-96400448D01*
X111533699Y-96400453D01*
X111697347Y-96454680D01*
X111747500Y-96459803D01*
X111747500Y-95840000D01*
X111116473Y-95840000D01*
X105956560Y-95840000D01*
X105916611Y-95690909D01*
X105848247Y-95572500D01*
X107615825Y-95572500D01*
X107615824Y-95572499D01*
X107554932Y-95385089D01*
X107454886Y-95188739D01*
X107325357Y-95010458D01*
X107169541Y-94854642D01*
X106997736Y-94729818D01*
X106955071Y-94674488D01*
X106949092Y-94604875D01*
X106981698Y-94543080D01*
X107042537Y-94508722D01*
X107070622Y-94505500D01*
X111252155Y-94505500D01*
X111319194Y-94525185D01*
X111364949Y-94577989D01*
X111374893Y-94647147D01*
X111345868Y-94710703D01*
X111339836Y-94717181D01*
X111265055Y-94791961D01*
X111265052Y-94791965D01*
X111174551Y-94938688D01*
X111174545Y-94938701D01*
X111120319Y-95102348D01*
X111120318Y-95102354D01*
X111116471Y-95139999D01*
X111116472Y-95140000D01*
X111973500Y-95140000D01*
X112040539Y-95159685D01*
X112086294Y-95212489D01*
X112097500Y-95264000D01*
X112097500Y-95490000D01*
X112323500Y-95490000D01*
X112390539Y-95509685D01*
X112436294Y-95562489D01*
X112447500Y-95614000D01*
X112447500Y-96459802D01*
X112497650Y-96454680D01*
X112497653Y-96454680D01*
X112661300Y-96400453D01*
X112661311Y-96400448D01*
X112808034Y-96309947D01*
X112808038Y-96309944D01*
X112929943Y-96188039D01*
X113021806Y-96039107D01*
X113073754Y-95992383D01*
X113142717Y-95981160D01*
X113206799Y-96009004D01*
X113226149Y-96029278D01*
X113251424Y-96062608D01*
X113287250Y-96109852D01*
X113288501Y-96111501D01*
X113389425Y-96188034D01*
X113406342Y-96200862D01*
X113543923Y-96255117D01*
X113601562Y-96262039D01*
X113630381Y-96265500D01*
X113630382Y-96265500D01*
X114214616Y-96265500D01*
X114214618Y-96265500D01*
X114289230Y-96256539D01*
X114358136Y-96268089D01*
X114409861Y-96315060D01*
X114427980Y-96382539D01*
X114406741Y-96449102D01*
X114380934Y-96476913D01*
X114376965Y-96480051D01*
X114255055Y-96601961D01*
X114255052Y-96601965D01*
X114164551Y-96748688D01*
X114164545Y-96748701D01*
X114110319Y-96912348D01*
X114110318Y-96912354D01*
X114106471Y-96949999D01*
X114106472Y-96950000D01*
X114737500Y-96950000D01*
X114737500Y-96330195D01*
X114737499Y-96330195D01*
X114687350Y-96335318D01*
X114640177Y-96350950D01*
X114570348Y-96353351D01*
X114510307Y-96317619D01*
X114479115Y-96255098D01*
X114486676Y-96185639D01*
X114509699Y-96149528D01*
X114517289Y-96141234D01*
X114556500Y-96111500D01*
X114614506Y-96035006D01*
X114618371Y-96030784D01*
X114643559Y-96015546D01*
X114667234Y-95998052D01*
X114674651Y-95996737D01*
X114678153Y-95994619D01*
X114685482Y-95994817D01*
X114709846Y-95990500D01*
X114936907Y-95990500D01*
X115003946Y-96010185D01*
X115049701Y-96062989D01*
X115053948Y-96073545D01*
X115085750Y-96164430D01*
X115092207Y-96182882D01*
X115172850Y-96292150D01*
X115282118Y-96372793D01*
X115354457Y-96398105D01*
X115411230Y-96438825D01*
X115436978Y-96503777D01*
X115437500Y-96515145D01*
X115437500Y-98269802D01*
X115487650Y-98264680D01*
X115487653Y-98264680D01*
X115651300Y-98210453D01*
X115651311Y-98210448D01*
X115749311Y-98150000D01*
X147343973Y-98150000D01*
X147347819Y-98187651D01*
X147347819Y-98187653D01*
X147402046Y-98351300D01*
X147402051Y-98351311D01*
X147492552Y-98498034D01*
X147492555Y-98498038D01*
X147614461Y-98619944D01*
X147614465Y-98619947D01*
X147761188Y-98710448D01*
X147761199Y-98710453D01*
X147924847Y-98764680D01*
X148024999Y-98774912D01*
X148025000Y-98774911D01*
X148025000Y-98150000D01*
X147343973Y-98150000D01*
X115749311Y-98150000D01*
X115798034Y-98119947D01*
X115798038Y-98119944D01*
X115919943Y-97998039D01*
X116011806Y-97849107D01*
X116063754Y-97802383D01*
X116132717Y-97791160D01*
X116196799Y-97819004D01*
X116216149Y-97839278D01*
X116278501Y-97921501D01*
X116379425Y-97998034D01*
X116396342Y-98010862D01*
X116533923Y-98065117D01*
X116591562Y-98072039D01*
X116620381Y-98075500D01*
X116620382Y-98075500D01*
X117204619Y-98075500D01*
X117226232Y-98072904D01*
X117291077Y-98065117D01*
X117428658Y-98010862D01*
X117546500Y-97921500D01*
X117635862Y-97803658D01*
X117690117Y-97666077D01*
X117700500Y-97579618D01*
X117700500Y-97020382D01*
X117690117Y-96933923D01*
X117635862Y-96796342D01*
X117632833Y-96792347D01*
X117546500Y-96678499D01*
X117464575Y-96616374D01*
X117462094Y-96613017D01*
X117458297Y-96611283D01*
X117441508Y-96585160D01*
X117423051Y-96560182D01*
X117422135Y-96555013D01*
X117420523Y-96552505D01*
X117415500Y-96517570D01*
X117415500Y-96294539D01*
X117435185Y-96227500D01*
X117439727Y-96220910D01*
X117447208Y-96210773D01*
X117450228Y-96206681D01*
X117505871Y-96164430D01*
X117575527Y-96158968D01*
X117637078Y-96192033D01*
X117649769Y-96206678D01*
X117712850Y-96292150D01*
X117792522Y-96350950D01*
X117822118Y-96372793D01*
X117822120Y-96372794D01*
X117861334Y-96386515D01*
X117908062Y-96415876D01*
X118524500Y-97032314D01*
X118617686Y-97125500D01*
X118731814Y-97191392D01*
X118859108Y-97225500D01*
X118859110Y-97225500D01*
X119915890Y-97225500D01*
X119915892Y-97225500D01*
X120043186Y-97191392D01*
X120157314Y-97125500D01*
X120900500Y-96382314D01*
X120951177Y-96294539D01*
X120968113Y-96265206D01*
X121018680Y-96216990D01*
X121087287Y-96203768D01*
X121152152Y-96229736D01*
X121192680Y-96286650D01*
X121199500Y-96327206D01*
X121199500Y-96477352D01*
X121203685Y-96503777D01*
X121231522Y-96679534D01*
X121294781Y-96874223D01*
X121333392Y-96950000D01*
X121377816Y-97037187D01*
X121387715Y-97056613D01*
X121508028Y-97222213D01*
X121652786Y-97366971D01*
X121767067Y-97449999D01*
X121818390Y-97487287D01*
X121887478Y-97522489D01*
X122000776Y-97580218D01*
X122000778Y-97580218D01*
X122000781Y-97580220D01*
X122105137Y-97614127D01*
X122195465Y-97643477D01*
X122296557Y-97659488D01*
X122397648Y-97675500D01*
X122397649Y-97675500D01*
X122602351Y-97675500D01*
X122602352Y-97675500D01*
X122804534Y-97643477D01*
X122999219Y-97580220D01*
X123000401Y-97579618D01*
X123011426Y-97574000D01*
X123181610Y-97487287D01*
X123284756Y-97412348D01*
X123347213Y-97366971D01*
X123347215Y-97366968D01*
X123347219Y-97366966D01*
X123491966Y-97222219D01*
X123491968Y-97222215D01*
X123491971Y-97222213D01*
X123562236Y-97125500D01*
X123612287Y-97056610D01*
X123705220Y-96874219D01*
X123768477Y-96679534D01*
X123800500Y-96477352D01*
X123800500Y-96272648D01*
X125699500Y-96272648D01*
X125699500Y-96477352D01*
X125703685Y-96503777D01*
X125731522Y-96679534D01*
X125794781Y-96874223D01*
X125833392Y-96950000D01*
X125877816Y-97037187D01*
X125887715Y-97056613D01*
X126008028Y-97222213D01*
X126152786Y-97366971D01*
X126267067Y-97449999D01*
X126318390Y-97487287D01*
X126387478Y-97522489D01*
X126500776Y-97580218D01*
X126500778Y-97580218D01*
X126500781Y-97580220D01*
X126605137Y-97614127D01*
X126695465Y-97643477D01*
X126796557Y-97659488D01*
X126897648Y-97675500D01*
X126897649Y-97675500D01*
X127102351Y-97675500D01*
X127102352Y-97675500D01*
X127304534Y-97643477D01*
X127499219Y-97580220D01*
X127500401Y-97579618D01*
X127511426Y-97574000D01*
X127681610Y-97487287D01*
X127784756Y-97412348D01*
X127847213Y-97366971D01*
X127847215Y-97366968D01*
X127847219Y-97366966D01*
X127991966Y-97222219D01*
X127991968Y-97222215D01*
X127991971Y-97222213D01*
X128062236Y-97125500D01*
X128112287Y-97056610D01*
X128205220Y-96874219D01*
X128268477Y-96679534D01*
X128300500Y-96477352D01*
X128300500Y-96272648D01*
X128292305Y-96220905D01*
X128268477Y-96070465D01*
X128205828Y-95877653D01*
X128205220Y-95875781D01*
X128205218Y-95875778D01*
X128205218Y-95875776D01*
X128151127Y-95769618D01*
X128112287Y-95693390D01*
X128104556Y-95682749D01*
X127991971Y-95527786D01*
X127847213Y-95383028D01*
X127681613Y-95262715D01*
X127681612Y-95262714D01*
X127681610Y-95262713D01*
X127624653Y-95233691D01*
X127499223Y-95169781D01*
X127304534Y-95106522D01*
X127129995Y-95078878D01*
X127102352Y-95074500D01*
X126897648Y-95074500D01*
X126873329Y-95078351D01*
X126695465Y-95106522D01*
X126500776Y-95169781D01*
X126318386Y-95262715D01*
X126152786Y-95383028D01*
X126008028Y-95527786D01*
X125887715Y-95693386D01*
X125794781Y-95875776D01*
X125731522Y-96070465D01*
X125702495Y-96253736D01*
X125699500Y-96272648D01*
X123800500Y-96272648D01*
X123792305Y-96220905D01*
X123768477Y-96070465D01*
X123705828Y-95877653D01*
X123705220Y-95875781D01*
X123705218Y-95875778D01*
X123705218Y-95875776D01*
X123651127Y-95769618D01*
X123612287Y-95693390D01*
X123604556Y-95682749D01*
X123491971Y-95527786D01*
X123347213Y-95383028D01*
X123181613Y-95262715D01*
X123181612Y-95262714D01*
X123181610Y-95262713D01*
X123078126Y-95209985D01*
X123027330Y-95162010D01*
X123010535Y-95094189D01*
X123033073Y-95028054D01*
X123087788Y-94984603D01*
X123134421Y-94975500D01*
X125990890Y-94975500D01*
X125990892Y-94975500D01*
X126118186Y-94941392D01*
X126232314Y-94875500D01*
X129297480Y-91810331D01*
X129358801Y-91776848D01*
X129399455Y-91774841D01*
X129405135Y-91775500D01*
X131994864Y-91775499D01*
X131994879Y-91775497D01*
X131994882Y-91775497D01*
X132019987Y-91772586D01*
X132019988Y-91772585D01*
X132019991Y-91772585D01*
X132122765Y-91727206D01*
X132202206Y-91647765D01*
X132247585Y-91544991D01*
X132250500Y-91519865D01*
X132250499Y-89730136D01*
X132248637Y-89714078D01*
X132247586Y-89705012D01*
X132247585Y-89705010D01*
X132247585Y-89705009D01*
X132202206Y-89602235D01*
X132122765Y-89522794D01*
X132098455Y-89512060D01*
X132019992Y-89477415D01*
X131994868Y-89474500D01*
X131452668Y-89474500D01*
X131385629Y-89454815D01*
X131339874Y-89402011D01*
X131329930Y-89332853D01*
X131358955Y-89269297D01*
X131414351Y-89232569D01*
X131541633Y-89191213D01*
X131541639Y-89191211D01*
X131702994Y-89108996D01*
X131849501Y-89002553D01*
X131977553Y-88874501D01*
X132083996Y-88727994D01*
X132166211Y-88566639D01*
X132222171Y-88394409D01*
X132241592Y-88271789D01*
X132250500Y-88215551D01*
X132250500Y-88034448D01*
X132226591Y-87883501D01*
X132222171Y-87855591D01*
X132180989Y-87728844D01*
X132166212Y-87683363D01*
X132166211Y-87683360D01*
X132109040Y-87571158D01*
X132083996Y-87522006D01*
X132033176Y-87452058D01*
X131977558Y-87375505D01*
X131977554Y-87375500D01*
X131849499Y-87247445D01*
X131849494Y-87247441D01*
X131702997Y-87141006D01*
X131702996Y-87141005D01*
X131702994Y-87141004D01*
X131615443Y-87096394D01*
X131541639Y-87058788D01*
X131541636Y-87058787D01*
X131369410Y-87002829D01*
X131190551Y-86974500D01*
X131190546Y-86974500D01*
X130209454Y-86974500D01*
X130209449Y-86974500D01*
X130030589Y-87002829D01*
X129858363Y-87058787D01*
X129858360Y-87058788D01*
X129697002Y-87141006D01*
X129550505Y-87247441D01*
X129550500Y-87247445D01*
X129422445Y-87375500D01*
X129422441Y-87375505D01*
X129316006Y-87522002D01*
X129233788Y-87683360D01*
X129233787Y-87683363D01*
X129177829Y-87855589D01*
X129149500Y-88034448D01*
X129149500Y-88066324D01*
X129129815Y-88133363D01*
X129113181Y-88154005D01*
X128349502Y-88917683D01*
X128349500Y-88917686D01*
X128283607Y-89031814D01*
X128283607Y-89031815D01*
X128273104Y-89071013D01*
X128236739Y-89130673D01*
X128173892Y-89161201D01*
X128104516Y-89152906D01*
X128053012Y-89111803D01*
X127991971Y-89027786D01*
X127847213Y-88883028D01*
X127681613Y-88762715D01*
X127681612Y-88762714D01*
X127681610Y-88762713D01*
X127586006Y-88714000D01*
X127499223Y-88669781D01*
X127304534Y-88606522D01*
X127129995Y-88578878D01*
X127102352Y-88574500D01*
X126897648Y-88574500D01*
X126873329Y-88578351D01*
X126695465Y-88606522D01*
X126500776Y-88669781D01*
X126318386Y-88762715D01*
X126152786Y-88883028D01*
X126008028Y-89027786D01*
X125887715Y-89193386D01*
X125794781Y-89375776D01*
X125731522Y-89570465D01*
X125706236Y-89730117D01*
X125699500Y-89772648D01*
X125699500Y-89977352D01*
X125701987Y-89993052D01*
X125731522Y-90179534D01*
X125794781Y-90374223D01*
X125887715Y-90556613D01*
X126008028Y-90722213D01*
X126152786Y-90866971D01*
X126271822Y-90953454D01*
X126318390Y-90987287D01*
X126423101Y-91040640D01*
X126500776Y-91080218D01*
X126500778Y-91080218D01*
X126500781Y-91080220D01*
X126576120Y-91104699D01*
X126695465Y-91143477D01*
X126716067Y-91146740D01*
X126897648Y-91175500D01*
X126897649Y-91175500D01*
X127102351Y-91175500D01*
X127102352Y-91175500D01*
X127304534Y-91143477D01*
X127399391Y-91112655D01*
X127469230Y-91110660D01*
X127529063Y-91146740D01*
X127559892Y-91209441D01*
X127551928Y-91278855D01*
X127525389Y-91318268D01*
X125505477Y-93338181D01*
X125444154Y-93371666D01*
X125417796Y-93374500D01*
X120659107Y-93374500D01*
X120565805Y-93399500D01*
X120565804Y-93399499D01*
X120531818Y-93408606D01*
X120531811Y-93408609D01*
X120417689Y-93474498D01*
X120417683Y-93474502D01*
X120324498Y-93567688D01*
X119983725Y-93908460D01*
X119922402Y-93941945D01*
X119852710Y-93936961D01*
X119822411Y-93920549D01*
X119817886Y-93917209D01*
X119817880Y-93917206D01*
X119689700Y-93872353D01*
X119659270Y-93869500D01*
X119659266Y-93869500D01*
X119250734Y-93869500D01*
X119250730Y-93869500D01*
X119220300Y-93872353D01*
X119220298Y-93872353D01*
X119092119Y-93917206D01*
X119092117Y-93917207D01*
X118982850Y-93997850D01*
X118919770Y-94083321D01*
X118864123Y-94125571D01*
X118794466Y-94131030D01*
X118732917Y-94097962D01*
X118720230Y-94083321D01*
X118684543Y-94034967D01*
X118657150Y-93997850D01*
X118547882Y-93917207D01*
X118547880Y-93917206D01*
X118419700Y-93872353D01*
X118389270Y-93869500D01*
X118389266Y-93869500D01*
X117980734Y-93869500D01*
X117980730Y-93869500D01*
X117950300Y-93872353D01*
X117950298Y-93872353D01*
X117822119Y-93917206D01*
X117822117Y-93917207D01*
X117712850Y-93997850D01*
X117649770Y-94083321D01*
X117594123Y-94125571D01*
X117524466Y-94131030D01*
X117462917Y-94097962D01*
X117450230Y-94083321D01*
X117414543Y-94034967D01*
X117387150Y-93997850D01*
X117277882Y-93917207D01*
X117277880Y-93917206D01*
X117149700Y-93872353D01*
X117119270Y-93869500D01*
X117119266Y-93869500D01*
X116710734Y-93869500D01*
X116710730Y-93869500D01*
X116680300Y-93872353D01*
X116680298Y-93872353D01*
X116552119Y-93917206D01*
X116552117Y-93917207D01*
X116442850Y-93997850D01*
X116379770Y-94083321D01*
X116324123Y-94125571D01*
X116254466Y-94131030D01*
X116192917Y-94097962D01*
X116180230Y-94083321D01*
X116144543Y-94034967D01*
X116117150Y-93997850D01*
X116007882Y-93917207D01*
X116007880Y-93917206D01*
X115879700Y-93872353D01*
X115849270Y-93869500D01*
X115849266Y-93869500D01*
X115819631Y-93869500D01*
X115752592Y-93849815D01*
X115706837Y-93797011D01*
X115696893Y-93727854D01*
X115696938Y-93727539D01*
X115705500Y-93667990D01*
X115705500Y-92029500D01*
X115725185Y-91962461D01*
X115777989Y-91916706D01*
X115829500Y-91905500D01*
X116032855Y-91905500D01*
X116044629Y-91905088D01*
X116068185Y-91904264D01*
X116085482Y-91903052D01*
X116120665Y-91899345D01*
X116258831Y-91859202D01*
X116322469Y-91830358D01*
X116337644Y-91820666D01*
X116404736Y-91801169D01*
X116455901Y-91812374D01*
X116571872Y-91865338D01*
X116638911Y-91885023D01*
X116638915Y-91885024D01*
X116781331Y-91905500D01*
X116781334Y-91905500D01*
X117302855Y-91905500D01*
X117314629Y-91905088D01*
X117338185Y-91904264D01*
X117355482Y-91903052D01*
X117390665Y-91899345D01*
X117528831Y-91859202D01*
X117592469Y-91830358D01*
X117607644Y-91820667D01*
X117713724Y-91752921D01*
X117713726Y-91752919D01*
X117765581Y-91693418D01*
X117824466Y-91655812D01*
X117881651Y-91655811D01*
X117885000Y-91653296D01*
X117885000Y-91528616D01*
X117896351Y-91476786D01*
X117906344Y-91455071D01*
X117927226Y-91312714D01*
X117927229Y-91311549D01*
X117927425Y-91243022D01*
X117927425Y-91242851D01*
X117927424Y-91242850D01*
X117927425Y-91242845D01*
X117927425Y-91242844D01*
X117907354Y-91100371D01*
X117906763Y-91098338D01*
X117894924Y-91057587D01*
X117890000Y-91022991D01*
X117890000Y-89367008D01*
X117894924Y-89332412D01*
X117915003Y-89263301D01*
X117921620Y-89232569D01*
X117930032Y-89193496D01*
X117934956Y-89158901D01*
X117940000Y-89087670D01*
X117940000Y-88714000D01*
X117959685Y-88646961D01*
X118012489Y-88601206D01*
X118064000Y-88590000D01*
X118110000Y-88590000D01*
X118110000Y-88114000D01*
X118129685Y-88046961D01*
X118182489Y-88001206D01*
X118234000Y-87990000D01*
X118686000Y-87990000D01*
X118753039Y-88009685D01*
X118798794Y-88062489D01*
X118810000Y-88114000D01*
X118810000Y-88869333D01*
X118805500Y-88885527D01*
X118805946Y-88900782D01*
X118793696Y-88928011D01*
X118792227Y-88933301D01*
X118790722Y-88935799D01*
X118745606Y-89003321D01*
X118735786Y-89027028D01*
X118731005Y-89034968D01*
X118711834Y-89052584D01*
X118695501Y-89072854D01*
X118686525Y-89075841D01*
X118679558Y-89082244D01*
X118653907Y-89086698D01*
X118629207Y-89094921D01*
X118624778Y-89095000D01*
X118485000Y-89095000D01*
X118485000Y-91653295D01*
X118595198Y-91621281D01*
X118736552Y-91537685D01*
X118736561Y-91537678D01*
X118852678Y-91421561D01*
X118852681Y-91421557D01*
X118855028Y-91417589D01*
X118906094Y-91369901D01*
X118974835Y-91357393D01*
X119035396Y-91380931D01*
X119092118Y-91422793D01*
X119134845Y-91437744D01*
X119220299Y-91467646D01*
X119250730Y-91470500D01*
X119250734Y-91470500D01*
X119659270Y-91470500D01*
X119689699Y-91467646D01*
X119689701Y-91467646D01*
X119753790Y-91445219D01*
X119817882Y-91422793D01*
X119927150Y-91342150D01*
X120007793Y-91232882D01*
X120034025Y-91157914D01*
X120052646Y-91104701D01*
X120052646Y-91104699D01*
X120053243Y-91098339D01*
X120053243Y-91098338D01*
X120055500Y-91074271D01*
X120055500Y-90774765D01*
X120075185Y-90707726D01*
X120076398Y-90705874D01*
X120105584Y-90662195D01*
X120164394Y-90574179D01*
X120224737Y-90428497D01*
X120255500Y-90273842D01*
X120255500Y-89765440D01*
X120257994Y-89756947D01*
X121000000Y-89756947D01*
X121000000Y-89993052D01*
X121036934Y-90226247D01*
X121109897Y-90450802D01*
X121217089Y-90661178D01*
X121217827Y-90662195D01*
X121217830Y-90662195D01*
X121950000Y-89930025D01*
X121950000Y-89947409D01*
X121987482Y-90087292D01*
X122059890Y-90212708D01*
X122162292Y-90315110D01*
X122287708Y-90387518D01*
X122427591Y-90425000D01*
X122444974Y-90425000D01*
X121712803Y-91157170D01*
X121713828Y-91157914D01*
X121924197Y-91265102D01*
X122148752Y-91338065D01*
X122148751Y-91338065D01*
X122381948Y-91375000D01*
X122618052Y-91375000D01*
X122851247Y-91338065D01*
X123075802Y-91265102D01*
X123286171Y-91157914D01*
X123286175Y-91157911D01*
X123287195Y-91157170D01*
X123287195Y-91157168D01*
X122555026Y-90425000D01*
X122572409Y-90425000D01*
X122712292Y-90387518D01*
X122837708Y-90315110D01*
X122940110Y-90212708D01*
X123012518Y-90087292D01*
X123050000Y-89947409D01*
X123050000Y-89930027D01*
X123782168Y-90662195D01*
X123782170Y-90662195D01*
X123782911Y-90661175D01*
X123782914Y-90661171D01*
X123890102Y-90450802D01*
X123963065Y-90226247D01*
X124000000Y-89993052D01*
X124000000Y-89756947D01*
X123963065Y-89523752D01*
X123890102Y-89299197D01*
X123782914Y-89088828D01*
X123782170Y-89087803D01*
X123050000Y-89819973D01*
X123050000Y-89802591D01*
X123012518Y-89662708D01*
X122940110Y-89537292D01*
X122837708Y-89434890D01*
X122712292Y-89362482D01*
X122572409Y-89325000D01*
X122555027Y-89325000D01*
X123287195Y-88592830D01*
X123287195Y-88592827D01*
X123286178Y-88592089D01*
X123075802Y-88484897D01*
X122851247Y-88411934D01*
X122851248Y-88411934D01*
X122618052Y-88375000D01*
X122381948Y-88375000D01*
X122148752Y-88411934D01*
X121924197Y-88484897D01*
X121713833Y-88592083D01*
X121713830Y-88592084D01*
X121712803Y-88592829D01*
X122444974Y-89325000D01*
X122427591Y-89325000D01*
X122287708Y-89362482D01*
X122162292Y-89434890D01*
X122059890Y-89537292D01*
X121987482Y-89662708D01*
X121950000Y-89802591D01*
X121950000Y-89819974D01*
X121217829Y-89087803D01*
X121217084Y-89088830D01*
X121217083Y-89088833D01*
X121109897Y-89299197D01*
X121036934Y-89523752D01*
X121000000Y-89756947D01*
X120257994Y-89756947D01*
X120264144Y-89735999D01*
X120270668Y-89706013D01*
X120274422Y-89700997D01*
X120275185Y-89698401D01*
X120291819Y-89677759D01*
X120884288Y-89085290D01*
X120884290Y-89085287D01*
X120886324Y-89082244D01*
X120971894Y-88954179D01*
X121024813Y-88826420D01*
X121032237Y-88808498D01*
X121063000Y-88653843D01*
X121063000Y-88496158D01*
X121063000Y-87921158D01*
X121052883Y-87870296D01*
X121050500Y-87846104D01*
X121050500Y-87280306D01*
X121070185Y-87213267D01*
X121122989Y-87167512D01*
X121192147Y-87157568D01*
X121255703Y-87186593D01*
X121292429Y-87241985D01*
X121294780Y-87249219D01*
X121380331Y-87417123D01*
X121387715Y-87431613D01*
X121508028Y-87597213D01*
X121652786Y-87741971D01*
X121796116Y-87846104D01*
X121818390Y-87862287D01*
X121933927Y-87921156D01*
X122000776Y-87955218D01*
X122000778Y-87955218D01*
X122000781Y-87955220D01*
X122081903Y-87981578D01*
X122195465Y-88018477D01*
X122286780Y-88032940D01*
X122397648Y-88050500D01*
X122397649Y-88050500D01*
X122602351Y-88050500D01*
X122602352Y-88050500D01*
X122804534Y-88018477D01*
X122999219Y-87955220D01*
X123181610Y-87862287D01*
X123274590Y-87794732D01*
X123347213Y-87741971D01*
X123347215Y-87741968D01*
X123347219Y-87741966D01*
X123491966Y-87597219D01*
X123491968Y-87597215D01*
X123491971Y-87597213D01*
X123572522Y-87486342D01*
X123612287Y-87431610D01*
X123705220Y-87249219D01*
X123768477Y-87054534D01*
X123800500Y-86852352D01*
X123800500Y-86647648D01*
X123768477Y-86445466D01*
X123754535Y-86402558D01*
X123727771Y-86320185D01*
X123705220Y-86250781D01*
X123705218Y-86250778D01*
X123705218Y-86250776D01*
X123638778Y-86120382D01*
X123612287Y-86068390D01*
X123588238Y-86035289D01*
X123491971Y-85902786D01*
X123401366Y-85812181D01*
X123367881Y-85750858D01*
X123372865Y-85681166D01*
X123414737Y-85625233D01*
X123480201Y-85600816D01*
X123489047Y-85600500D01*
X126010953Y-85600500D01*
X126077992Y-85620185D01*
X126123747Y-85672989D01*
X126133691Y-85742147D01*
X126104666Y-85805703D01*
X126098634Y-85812181D01*
X126008032Y-85902782D01*
X126008028Y-85902786D01*
X125887715Y-86068386D01*
X125794781Y-86250776D01*
X125731522Y-86445465D01*
X125699500Y-86647648D01*
X125699500Y-86852351D01*
X125731522Y-87054534D01*
X125794781Y-87249223D01*
X125858691Y-87374653D01*
X125880331Y-87417123D01*
X125887715Y-87431613D01*
X126008028Y-87597213D01*
X126152786Y-87741971D01*
X126296116Y-87846104D01*
X126318390Y-87862287D01*
X126433927Y-87921156D01*
X126500776Y-87955218D01*
X126500778Y-87955218D01*
X126500781Y-87955220D01*
X126581903Y-87981578D01*
X126695465Y-88018477D01*
X126786780Y-88032940D01*
X126897648Y-88050500D01*
X126897649Y-88050500D01*
X127102351Y-88050500D01*
X127102352Y-88050500D01*
X127304534Y-88018477D01*
X127499219Y-87955220D01*
X127681610Y-87862287D01*
X127774590Y-87794732D01*
X127847213Y-87741971D01*
X127847215Y-87741968D01*
X127847219Y-87741966D01*
X127991966Y-87597219D01*
X127991968Y-87597215D01*
X127991971Y-87597213D01*
X128072522Y-87486342D01*
X128112287Y-87431610D01*
X128205220Y-87249219D01*
X128268477Y-87054534D01*
X128300500Y-86852352D01*
X128300500Y-86647648D01*
X128268477Y-86445466D01*
X128254535Y-86402558D01*
X128227771Y-86320185D01*
X128205220Y-86250781D01*
X128205218Y-86250778D01*
X128205218Y-86250776D01*
X128138778Y-86120382D01*
X128112287Y-86068390D01*
X128088238Y-86035289D01*
X127991971Y-85902786D01*
X127901366Y-85812181D01*
X127890753Y-85792744D01*
X127876253Y-85776011D01*
X127874336Y-85762679D01*
X127867881Y-85750858D01*
X127869460Y-85728771D01*
X127866309Y-85706853D01*
X127871904Y-85694601D01*
X127872865Y-85681166D01*
X127886135Y-85663439D01*
X127895334Y-85643297D01*
X127906665Y-85636014D01*
X127914737Y-85625233D01*
X127935482Y-85617495D01*
X127954112Y-85605523D01*
X127976030Y-85602371D01*
X127980201Y-85600816D01*
X127989047Y-85600500D01*
X128142060Y-85600500D01*
X128209099Y-85620185D01*
X128229741Y-85636819D01*
X128628211Y-86035289D01*
X128699883Y-86106961D01*
X128739712Y-86146790D01*
X128870814Y-86234390D01*
X128870827Y-86234397D01*
X129016498Y-86294735D01*
X129016503Y-86294737D01*
X129144438Y-86320185D01*
X129171153Y-86325499D01*
X129171156Y-86325500D01*
X129171158Y-86325500D01*
X129422084Y-86325500D01*
X129489123Y-86345185D01*
X129509765Y-86361819D01*
X129550500Y-86402554D01*
X129550505Y-86402558D01*
X129609564Y-86445466D01*
X129697006Y-86508996D01*
X129802484Y-86562740D01*
X129858360Y-86591211D01*
X129858363Y-86591212D01*
X129944476Y-86619191D01*
X130030591Y-86647171D01*
X130113429Y-86660291D01*
X130209449Y-86675500D01*
X130209454Y-86675500D01*
X131190551Y-86675500D01*
X131277259Y-86661765D01*
X131369409Y-86647171D01*
X131541639Y-86591211D01*
X131702994Y-86508996D01*
X131849501Y-86402553D01*
X131915235Y-86336819D01*
X131976558Y-86303334D01*
X132002916Y-86300500D01*
X139517060Y-86300500D01*
X139584099Y-86320185D01*
X139604741Y-86336819D01*
X141213181Y-87945259D01*
X141246666Y-88006582D01*
X141249500Y-88032940D01*
X141249500Y-90353846D01*
X141280261Y-90508489D01*
X141280264Y-90508501D01*
X141340602Y-90654172D01*
X141340609Y-90654185D01*
X141428210Y-90785288D01*
X141428213Y-90785292D01*
X143931294Y-93288371D01*
X143964779Y-93349694D01*
X143959795Y-93419386D01*
X143954023Y-93432494D01*
X143945120Y-93449908D01*
X143917794Y-93477235D01*
X143872415Y-93580009D01*
X143870595Y-93595692D01*
X143860410Y-93615617D01*
X143851145Y-93625399D01*
X143845885Y-93637801D01*
X143827591Y-93650272D01*
X143812368Y-93666349D01*
X143799287Y-93669569D01*
X143788156Y-93677159D01*
X143766021Y-93677760D01*
X143744525Y-93683054D01*
X143731780Y-93678691D01*
X143718312Y-93679058D01*
X143699365Y-93667596D01*
X143678420Y-93660428D01*
X143670056Y-93649868D01*
X143658529Y-93642895D01*
X143648787Y-93623012D01*
X143635041Y-93605656D01*
X143633714Y-93592249D01*
X143631882Y-93588510D01*
X143630035Y-93589013D01*
X143627585Y-93580013D01*
X143627585Y-93580009D01*
X143582206Y-93477235D01*
X143502765Y-93397794D01*
X143502763Y-93397793D01*
X143399992Y-93352415D01*
X143374865Y-93349500D01*
X141585143Y-93349500D01*
X141585117Y-93349502D01*
X141560012Y-93352413D01*
X141560008Y-93352415D01*
X141457235Y-93397793D01*
X141377794Y-93477234D01*
X141332415Y-93580006D01*
X141329967Y-93589007D01*
X141326934Y-93588181D01*
X141305885Y-93637801D01*
X141248156Y-93677159D01*
X141178312Y-93679058D01*
X141118529Y-93642895D01*
X141091882Y-93588510D01*
X141090035Y-93589013D01*
X141087585Y-93580013D01*
X141087585Y-93580009D01*
X141042206Y-93477235D01*
X140962765Y-93397794D01*
X140962763Y-93397793D01*
X140859992Y-93352415D01*
X140834868Y-93349500D01*
X140834865Y-93349500D01*
X139548676Y-93349500D01*
X139481637Y-93329815D01*
X139460995Y-93313181D01*
X138211819Y-92064005D01*
X138197115Y-92037077D01*
X138180523Y-92011259D01*
X138179631Y-92005058D01*
X138178334Y-92002682D01*
X138175500Y-91976324D01*
X138175500Y-91941518D01*
X138195185Y-91874479D01*
X138211823Y-91853833D01*
X138219114Y-91846542D01*
X138295775Y-91731811D01*
X138297683Y-91727206D01*
X138330588Y-91647765D01*
X138348580Y-91604328D01*
X138373951Y-91476782D01*
X138375500Y-91468995D01*
X138375500Y-91331004D01*
X138348581Y-91195677D01*
X138348580Y-91195676D01*
X138348580Y-91195672D01*
X138310898Y-91104699D01*
X138295778Y-91068195D01*
X138295771Y-91068182D01*
X138219114Y-90953458D01*
X138219111Y-90953454D01*
X138121545Y-90855888D01*
X138121541Y-90855885D01*
X138006817Y-90779228D01*
X138006804Y-90779221D01*
X137879332Y-90726421D01*
X137879322Y-90726418D01*
X137743995Y-90699500D01*
X137743993Y-90699500D01*
X137606007Y-90699500D01*
X137606005Y-90699500D01*
X137470677Y-90726418D01*
X137470667Y-90726421D01*
X137343195Y-90779221D01*
X137343182Y-90779228D01*
X137228458Y-90855885D01*
X137228454Y-90855888D01*
X137130888Y-90953454D01*
X137130885Y-90953458D01*
X137054228Y-91068182D01*
X137054221Y-91068195D01*
X137001421Y-91195667D01*
X137001418Y-91195677D01*
X136974500Y-91331004D01*
X136974500Y-91331007D01*
X136974500Y-91468993D01*
X136974500Y-91468995D01*
X136974499Y-91468995D01*
X137001418Y-91604322D01*
X137001421Y-91604332D01*
X137054221Y-91731804D01*
X137054228Y-91731817D01*
X137130885Y-91846541D01*
X137138177Y-91853833D01*
X137171665Y-91915155D01*
X137174500Y-91941518D01*
X137174500Y-92300891D01*
X137208608Y-92428187D01*
X137241554Y-92485250D01*
X137274500Y-92542314D01*
X137274502Y-92542316D01*
X137870005Y-93137819D01*
X137903490Y-93199142D01*
X137898506Y-93268834D01*
X137856634Y-93324767D01*
X137791170Y-93349184D01*
X137782324Y-93349500D01*
X136505143Y-93349500D01*
X136505117Y-93349502D01*
X136480012Y-93352413D01*
X136480008Y-93352415D01*
X136377235Y-93397793D01*
X136297794Y-93477234D01*
X136252415Y-93580006D01*
X136249967Y-93589007D01*
X136246934Y-93588181D01*
X136225885Y-93637801D01*
X136168156Y-93677159D01*
X136098312Y-93679058D01*
X136038529Y-93642895D01*
X136011882Y-93588510D01*
X136010035Y-93589013D01*
X136007585Y-93580013D01*
X136007585Y-93580009D01*
X135962206Y-93477235D01*
X135882765Y-93397794D01*
X135882763Y-93397793D01*
X135779992Y-93352415D01*
X135754865Y-93349500D01*
X133965143Y-93349500D01*
X133965117Y-93349502D01*
X133940012Y-93352413D01*
X133940008Y-93352415D01*
X133837235Y-93397793D01*
X133757794Y-93477234D01*
X133712415Y-93580006D01*
X133712415Y-93580008D01*
X133709500Y-93605131D01*
X133709500Y-96724856D01*
X133709502Y-96724882D01*
X133712413Y-96749987D01*
X133712415Y-96749991D01*
X133757793Y-96852764D01*
X133757794Y-96852765D01*
X133837235Y-96932206D01*
X133940009Y-96977585D01*
X133965135Y-96980500D01*
X135754864Y-96980499D01*
X135754879Y-96980497D01*
X135754882Y-96980497D01*
X135779987Y-96977586D01*
X135779988Y-96977585D01*
X135779991Y-96977585D01*
X135882765Y-96932206D01*
X135962206Y-96852765D01*
X136007585Y-96749991D01*
X136007585Y-96749988D01*
X136010033Y-96740993D01*
X136013071Y-96741819D01*
X136034082Y-96692237D01*
X136091795Y-96652856D01*
X136161639Y-96650928D01*
X136221436Y-96687067D01*
X136248126Y-96741487D01*
X136249965Y-96740987D01*
X136252415Y-96749991D01*
X136297793Y-96852764D01*
X136297794Y-96852765D01*
X136377235Y-96932206D01*
X136480009Y-96977585D01*
X136505135Y-96980500D01*
X138294864Y-96980499D01*
X138294879Y-96980497D01*
X138294882Y-96980497D01*
X138319987Y-96977586D01*
X138319988Y-96977585D01*
X138319991Y-96977585D01*
X138422765Y-96932206D01*
X138502206Y-96852765D01*
X138547585Y-96749991D01*
X138547585Y-96749988D01*
X138550033Y-96740993D01*
X138553071Y-96741819D01*
X138574082Y-96692237D01*
X138631795Y-96652856D01*
X138701639Y-96650928D01*
X138761436Y-96687067D01*
X138788126Y-96741487D01*
X138789965Y-96740987D01*
X138792415Y-96749991D01*
X138837793Y-96852764D01*
X138837794Y-96852765D01*
X138917235Y-96932206D01*
X139020009Y-96977585D01*
X139045135Y-96980500D01*
X140834864Y-96980499D01*
X140834879Y-96980497D01*
X140834882Y-96980497D01*
X140859987Y-96977586D01*
X140859988Y-96977585D01*
X140859991Y-96977585D01*
X140962765Y-96932206D01*
X141042206Y-96852765D01*
X141087585Y-96749991D01*
X141087585Y-96749988D01*
X141090033Y-96740993D01*
X141093071Y-96741819D01*
X141114082Y-96692237D01*
X141171795Y-96652856D01*
X141241639Y-96650928D01*
X141301436Y-96687067D01*
X141328126Y-96741487D01*
X141329965Y-96740987D01*
X141332415Y-96749991D01*
X141377793Y-96852764D01*
X141377794Y-96852765D01*
X141457235Y-96932206D01*
X141560009Y-96977585D01*
X141585135Y-96980500D01*
X143374864Y-96980499D01*
X143374879Y-96980497D01*
X143374882Y-96980497D01*
X143399987Y-96977586D01*
X143399988Y-96977585D01*
X143399991Y-96977585D01*
X143502765Y-96932206D01*
X143582206Y-96852765D01*
X143627585Y-96749991D01*
X143627585Y-96749988D01*
X143630033Y-96740993D01*
X143633071Y-96741819D01*
X143654082Y-96692237D01*
X143711795Y-96652856D01*
X143781639Y-96650928D01*
X143841436Y-96687067D01*
X143868126Y-96741487D01*
X143869965Y-96740987D01*
X143872415Y-96749991D01*
X143917793Y-96852764D01*
X143917794Y-96852765D01*
X143997235Y-96932206D01*
X144100009Y-96977585D01*
X144125135Y-96980500D01*
X145914864Y-96980499D01*
X145914879Y-96980497D01*
X145914882Y-96980497D01*
X145939987Y-96977586D01*
X145939988Y-96977585D01*
X145939991Y-96977585D01*
X146042765Y-96932206D01*
X146074020Y-96900950D01*
X146135340Y-96867466D01*
X146205032Y-96872450D01*
X146260966Y-96914320D01*
X146261791Y-96915604D01*
X146352809Y-97037187D01*
X146352812Y-97037190D01*
X146467906Y-97123350D01*
X146467913Y-97123354D01*
X146602620Y-97173596D01*
X146602627Y-97173598D01*
X146662155Y-97179999D01*
X146662172Y-97180000D01*
X147253092Y-97180000D01*
X147320131Y-97199685D01*
X147365886Y-97252489D01*
X147375830Y-97321647D01*
X147370798Y-97343003D01*
X147347819Y-97412348D01*
X147347818Y-97412354D01*
X147343971Y-97449999D01*
X147343972Y-97450000D01*
X148251000Y-97450000D01*
X148318039Y-97469685D01*
X148363794Y-97522489D01*
X148375000Y-97574000D01*
X148375000Y-97800000D01*
X148601000Y-97800000D01*
X148668039Y-97819685D01*
X148713794Y-97872489D01*
X148725000Y-97924000D01*
X148725000Y-98774910D01*
X148825150Y-98764681D01*
X148825153Y-98764680D01*
X148988800Y-98710453D01*
X148988811Y-98710448D01*
X149135534Y-98619947D01*
X149135538Y-98619944D01*
X149257443Y-98498039D01*
X149268461Y-98480177D01*
X149320409Y-98433451D01*
X149389371Y-98422228D01*
X149448923Y-98446466D01*
X149533842Y-98510862D01*
X149671423Y-98565117D01*
X149729062Y-98572039D01*
X149757881Y-98575500D01*
X149757882Y-98575500D01*
X149883264Y-98575500D01*
X149907454Y-98577882D01*
X149933614Y-98583086D01*
X150021155Y-98600500D01*
X150021158Y-98600500D01*
X150178844Y-98600500D01*
X150257354Y-98584882D01*
X150292545Y-98577882D01*
X150316736Y-98575500D01*
X150442119Y-98575500D01*
X150463732Y-98572904D01*
X150528577Y-98565117D01*
X150666158Y-98510862D01*
X150784000Y-98421500D01*
X150873362Y-98303658D01*
X150927617Y-98166077D01*
X150930913Y-98138624D01*
X150958450Y-98074412D01*
X150966337Y-98065739D01*
X152787821Y-96244256D01*
X152849142Y-96210773D01*
X152918834Y-96215757D01*
X152974767Y-96257629D01*
X152999184Y-96323093D01*
X152999500Y-96331939D01*
X152999500Y-99975500D01*
X152979815Y-100042539D01*
X152927011Y-100088294D01*
X152875500Y-100099500D01*
X99624500Y-100099500D01*
X99557461Y-100079815D01*
X99511706Y-100027011D01*
X99500500Y-99975500D01*
X99500500Y-97650000D01*
X114106473Y-97650000D01*
X114110319Y-97687651D01*
X114110319Y-97687653D01*
X114164546Y-97851300D01*
X114164551Y-97851311D01*
X114255052Y-97998034D01*
X114255055Y-97998038D01*
X114376961Y-98119944D01*
X114376965Y-98119947D01*
X114523688Y-98210448D01*
X114523699Y-98210453D01*
X114687347Y-98264680D01*
X114737500Y-98269803D01*
X114737500Y-97650000D01*
X114106473Y-97650000D01*
X99500500Y-97650000D01*
X99500500Y-77476009D01*
X104757500Y-77476009D01*
X104757500Y-77883991D01*
X104798389Y-78036591D01*
X104877381Y-78173408D01*
X104989092Y-78285119D01*
X105125909Y-78364111D01*
X105278509Y-78405000D01*
X105436491Y-78405000D01*
X105589091Y-78364111D01*
X105725908Y-78285119D01*
X105837619Y-78173408D01*
X105916611Y-78036591D01*
X105957500Y-77883991D01*
X105957500Y-77476009D01*
X105916611Y-77323409D01*
X105837619Y-77186592D01*
X105725908Y-77074881D01*
X105589091Y-76995889D01*
X105436491Y-76955000D01*
X105278509Y-76955000D01*
X105125909Y-76995889D01*
X104989092Y-77074881D01*
X104877381Y-77186592D01*
X104798389Y-77323409D01*
X104757500Y-77476009D01*
X99500500Y-77476009D01*
X99500500Y-76877203D01*
X103057500Y-76877203D01*
X103057500Y-76930000D01*
X104607500Y-76930000D01*
X106107500Y-76930000D01*
X107657500Y-76930000D01*
X107657500Y-76877207D01*
X107657499Y-76877203D01*
X107642536Y-76744398D01*
X107642534Y-76744387D01*
X107583613Y-76576002D01*
X107583608Y-76575992D01*
X107488703Y-76424953D01*
X107488698Y-76424947D01*
X107362551Y-76298800D01*
X107211500Y-76203888D01*
X107211497Y-76203886D01*
X107200429Y-76200013D01*
X109925000Y-76200013D01*
X109925000Y-76237500D01*
X110800000Y-76237500D01*
X110800000Y-75500000D01*
X110625029Y-75500000D01*
X110625012Y-75500001D01*
X110522302Y-75510494D01*
X110355880Y-75565641D01*
X110355875Y-75565643D01*
X110206654Y-75657684D01*
X110082684Y-75781654D01*
X109990643Y-75930875D01*
X109990641Y-75930880D01*
X109935494Y-76097302D01*
X109935493Y-76097309D01*
X109925000Y-76200013D01*
X107200429Y-76200013D01*
X107043112Y-76144965D01*
X107043101Y-76144963D01*
X106910296Y-76130000D01*
X106107500Y-76130000D01*
X106107500Y-76930000D01*
X104607500Y-76930000D01*
X104607500Y-76130000D01*
X103804703Y-76130000D01*
X103671898Y-76144963D01*
X103671887Y-76144965D01*
X103503502Y-76203886D01*
X103503492Y-76203891D01*
X103352453Y-76298796D01*
X103352447Y-76298801D01*
X103226301Y-76424947D01*
X103226296Y-76424953D01*
X103131391Y-76575992D01*
X103131386Y-76576002D01*
X103072465Y-76744387D01*
X103072463Y-76744398D01*
X103057500Y-76877203D01*
X99500500Y-76877203D01*
X99500500Y-73724500D01*
X99520185Y-73657461D01*
X99572989Y-73611706D01*
X99624500Y-73600500D01*
X152875500Y-73600500D01*
X152942539Y-73620185D01*
G37*
%TD.AperFunction*%
%TA.AperFunction,Conductor*%
G36*
X147910000Y-95041000D02*
G01*
X147890315Y-95108039D01*
X147837511Y-95153794D01*
X147786000Y-95165000D01*
X147334000Y-95165000D01*
X147266961Y-95145315D01*
X147221206Y-95092511D01*
X147210000Y-95041000D01*
X147210000Y-94857106D01*
X147252993Y-94900099D01*
X147367007Y-94965925D01*
X147494174Y-95000000D01*
X147625826Y-95000000D01*
X147752993Y-94965925D01*
X147867007Y-94900099D01*
X147910000Y-94857106D01*
X147910000Y-95041000D01*
G37*
%TD.AperFunction*%
%TA.AperFunction,Conductor*%
G36*
X148921450Y-80117076D02*
G01*
X148948126Y-80171487D01*
X148949966Y-80170987D01*
X148952416Y-80179991D01*
X148997794Y-80282764D01*
X148997795Y-80282765D01*
X149077236Y-80362206D01*
X149180010Y-80407585D01*
X149205136Y-80410500D01*
X150994865Y-80410499D01*
X150994880Y-80410497D01*
X150994883Y-80410497D01*
X151019988Y-80407586D01*
X151019989Y-80407585D01*
X151019992Y-80407585D01*
X151122766Y-80362206D01*
X151187819Y-80297153D01*
X151249142Y-80263668D01*
X151318834Y-80268652D01*
X151374767Y-80310524D01*
X151399184Y-80375988D01*
X151399500Y-80384834D01*
X151399500Y-93375167D01*
X151379815Y-93442206D01*
X151327011Y-93487961D01*
X151257853Y-93497905D01*
X151194297Y-93468880D01*
X151187819Y-93462848D01*
X151122765Y-93397794D01*
X151019992Y-93352415D01*
X150994865Y-93349500D01*
X149205143Y-93349500D01*
X149205117Y-93349502D01*
X149180012Y-93352413D01*
X149180008Y-93352415D01*
X149077235Y-93397793D01*
X149077233Y-93397794D01*
X149045979Y-93429049D01*
X148984656Y-93462534D01*
X148914964Y-93457548D01*
X148859031Y-93415676D01*
X148858208Y-93414395D01*
X148767190Y-93292812D01*
X148767187Y-93292809D01*
X148652093Y-93206649D01*
X148652086Y-93206645D01*
X148517379Y-93156403D01*
X148517372Y-93156401D01*
X148457844Y-93150000D01*
X147910000Y-93150000D01*
X147910000Y-94142894D01*
X147867007Y-94099901D01*
X147752993Y-94034075D01*
X147625826Y-94000000D01*
X147494174Y-94000000D01*
X147367007Y-94034075D01*
X147252993Y-94099901D01*
X147210000Y-94142894D01*
X147210000Y-93150000D01*
X146662155Y-93150000D01*
X146602627Y-93156401D01*
X146602620Y-93156403D01*
X146467913Y-93206645D01*
X146467906Y-93206649D01*
X146352812Y-93292809D01*
X146352809Y-93292812D01*
X146261331Y-93415011D01*
X146258475Y-93412873D01*
X146221028Y-93450253D01*
X146152741Y-93465043D01*
X146104366Y-93451316D01*
X146087483Y-93442512D01*
X146042765Y-93397794D01*
X145939991Y-93352415D01*
X145914865Y-93349500D01*
X145909114Y-93349500D01*
X145887166Y-93338055D01*
X145877822Y-93329062D01*
X145865884Y-93323999D01*
X145853132Y-93305299D01*
X145836825Y-93289604D01*
X145833826Y-93276987D01*
X145826520Y-93266273D01*
X145820500Y-93228106D01*
X145820500Y-93166158D01*
X145818364Y-93155423D01*
X145818363Y-93155417D01*
X145789737Y-93011503D01*
X145776023Y-92978394D01*
X145729397Y-92865827D01*
X145729390Y-92865814D01*
X145641789Y-92734711D01*
X145641786Y-92734707D01*
X145525970Y-92618891D01*
X145525947Y-92618870D01*
X142886819Y-89979741D01*
X142853334Y-89918418D01*
X142850500Y-89892060D01*
X142850500Y-88574500D01*
X142870185Y-88507461D01*
X142922989Y-88461706D01*
X142974500Y-88450500D01*
X148028844Y-88450500D01*
X148028845Y-88450499D01*
X148183497Y-88419737D01*
X148329179Y-88359394D01*
X148460289Y-88271789D01*
X148571789Y-88160289D01*
X148659394Y-88029179D01*
X148719737Y-87883497D01*
X148750500Y-87728842D01*
X148750500Y-87571158D01*
X148750500Y-87571155D01*
X148750499Y-87571153D01*
X148723697Y-87436413D01*
X148719737Y-87416503D01*
X148663323Y-87280306D01*
X148659397Y-87270827D01*
X148659390Y-87270814D01*
X148571789Y-87139711D01*
X148571786Y-87139707D01*
X148460292Y-87028213D01*
X148460288Y-87028210D01*
X148329185Y-86940609D01*
X148329172Y-86940602D01*
X148183501Y-86880264D01*
X148183489Y-86880261D01*
X148028845Y-86849500D01*
X148028842Y-86849500D01*
X145703842Y-86849500D01*
X142432940Y-86849500D01*
X142365901Y-86829815D01*
X142345259Y-86813181D01*
X140410292Y-84878213D01*
X140410288Y-84878210D01*
X140279185Y-84790609D01*
X140279172Y-84790602D01*
X140133501Y-84730264D01*
X140133489Y-84730261D01*
X139978845Y-84699500D01*
X139978842Y-84699500D01*
X131952916Y-84699500D01*
X131885877Y-84679815D01*
X131865235Y-84663181D01*
X131849499Y-84647445D01*
X131849494Y-84647441D01*
X131702993Y-84541003D01*
X131702992Y-84541002D01*
X131617488Y-84497435D01*
X131566692Y-84449461D01*
X131549897Y-84381640D01*
X131572435Y-84315505D01*
X131617488Y-84276466D01*
X131807558Y-84179620D01*
X131979459Y-84054727D01*
X131979464Y-84054723D01*
X132129723Y-83904464D01*
X132129727Y-83904459D01*
X132254620Y-83732557D01*
X132351092Y-83543222D01*
X132405752Y-83375000D01*
X131057106Y-83375000D01*
X131100099Y-83332007D01*
X131165925Y-83217993D01*
X131200000Y-83090826D01*
X131200000Y-82959174D01*
X131165925Y-82832007D01*
X131100099Y-82717993D01*
X131057106Y-82675000D01*
X132405752Y-82675000D01*
X132405751Y-82674999D01*
X132351092Y-82506777D01*
X132254620Y-82317442D01*
X132129727Y-82145540D01*
X132129723Y-82145535D01*
X131979464Y-81995276D01*
X131979459Y-81995272D01*
X131807557Y-81870379D01*
X131618217Y-81773904D01*
X131416129Y-81708242D01*
X131206246Y-81675000D01*
X131050000Y-81675000D01*
X131050000Y-82667894D01*
X131007007Y-82624901D01*
X130892993Y-82559075D01*
X130765826Y-82525000D01*
X130634174Y-82525000D01*
X130507007Y-82559075D01*
X130392993Y-82624901D01*
X130350000Y-82667894D01*
X130350000Y-81675000D01*
X130193754Y-81675000D01*
X129983872Y-81708242D01*
X129983869Y-81708242D01*
X129781782Y-81773904D01*
X129592442Y-81870379D01*
X129420540Y-81995272D01*
X129420535Y-81995276D01*
X129270276Y-82145535D01*
X129270272Y-82145540D01*
X129145379Y-82317442D01*
X129048907Y-82506777D01*
X128994248Y-82674999D01*
X128994248Y-82675000D01*
X130342894Y-82675000D01*
X130299901Y-82717993D01*
X130234075Y-82832007D01*
X130200000Y-82959174D01*
X130200000Y-83090826D01*
X130234075Y-83217993D01*
X130299901Y-83332007D01*
X130342894Y-83375000D01*
X128994248Y-83375000D01*
X129048907Y-83543222D01*
X129145379Y-83732557D01*
X129270272Y-83904459D01*
X129270276Y-83904464D01*
X129420535Y-84054723D01*
X129420540Y-84054727D01*
X129592442Y-84179620D01*
X129782511Y-84276466D01*
X129787925Y-84281579D01*
X129795034Y-84283800D01*
X129812979Y-84305242D01*
X129833307Y-84324441D01*
X129835097Y-84331669D01*
X129839877Y-84337381D01*
X129843381Y-84365121D01*
X129850102Y-84392262D01*
X129847699Y-84399311D01*
X129848633Y-84406700D01*
X129836584Y-84431928D01*
X129827565Y-84458397D01*
X129820985Y-84464593D01*
X129818523Y-84469749D01*
X129802116Y-84482362D01*
X129791457Y-84492401D01*
X129787082Y-84495107D01*
X129697006Y-84541004D01*
X129605826Y-84607249D01*
X129601906Y-84609675D01*
X129572482Y-84617768D01*
X129543743Y-84628023D01*
X129539117Y-84626947D01*
X129534539Y-84628207D01*
X129505409Y-84619108D01*
X129475689Y-84612197D01*
X129470389Y-84608170D01*
X129467847Y-84607376D01*
X129465232Y-84604251D01*
X129448984Y-84591906D01*
X129035292Y-84178213D01*
X129035288Y-84178210D01*
X128904185Y-84090609D01*
X128904172Y-84090602D01*
X128758501Y-84030264D01*
X128758489Y-84030261D01*
X128603845Y-83999500D01*
X128603842Y-83999500D01*
X121753842Y-83999500D01*
X121596157Y-83999500D01*
X121596155Y-83999500D01*
X121500779Y-84018472D01*
X121468645Y-84024864D01*
X121441503Y-84030263D01*
X121441501Y-84030263D01*
X121441500Y-84030264D01*
X121441498Y-84030264D01*
X121295827Y-84090602D01*
X121295814Y-84090609D01*
X121164712Y-84178209D01*
X121130142Y-84212780D01*
X121053211Y-84289711D01*
X121053209Y-84289713D01*
X119722270Y-85620651D01*
X119628213Y-85714707D01*
X119628210Y-85714711D01*
X119540609Y-85845814D01*
X119540602Y-85845827D01*
X119480264Y-85991498D01*
X119480261Y-85991510D01*
X119449500Y-86146153D01*
X119449500Y-87099655D01*
X119429815Y-87166694D01*
X119377011Y-87212449D01*
X119307853Y-87222393D01*
X119244297Y-87193368D01*
X119237819Y-87187336D01*
X119220538Y-87170055D01*
X119220534Y-87170052D01*
X119073811Y-87079551D01*
X119073800Y-87079546D01*
X118938448Y-87034695D01*
X118881003Y-86994922D01*
X118854180Y-86930406D01*
X118859746Y-86877984D01*
X118889681Y-86787645D01*
X118893528Y-86750000D01*
X117986500Y-86750000D01*
X117919461Y-86730315D01*
X117873706Y-86677511D01*
X117862500Y-86626000D01*
X117862500Y-86174000D01*
X117882185Y-86106961D01*
X117934989Y-86061206D01*
X117986500Y-86050000D01*
X118893526Y-86050000D01*
X118893526Y-86049999D01*
X118889680Y-86012348D01*
X118889680Y-86012346D01*
X118835453Y-85848699D01*
X118835448Y-85848688D01*
X118744947Y-85701965D01*
X118744944Y-85701961D01*
X118671146Y-85628163D01*
X118637661Y-85566840D01*
X118642645Y-85497148D01*
X118684517Y-85441215D01*
X118715494Y-85424300D01*
X118852086Y-85373354D01*
X118852093Y-85373350D01*
X118967187Y-85287190D01*
X118967190Y-85287187D01*
X119053350Y-85172093D01*
X119053354Y-85172086D01*
X119103596Y-85037379D01*
X119103598Y-85037372D01*
X119109999Y-84977844D01*
X119110000Y-84977827D01*
X119110000Y-84930000D01*
X117410000Y-84930000D01*
X117410000Y-84977844D01*
X117416401Y-85037372D01*
X117416403Y-85037379D01*
X117466645Y-85172086D01*
X117466649Y-85172093D01*
X117514538Y-85236064D01*
X117538956Y-85301528D01*
X117524105Y-85369801D01*
X117474700Y-85419207D01*
X117427874Y-85433733D01*
X117412347Y-85435319D01*
X117248699Y-85489546D01*
X117248688Y-85489551D01*
X117101965Y-85580052D01*
X117101961Y-85580055D01*
X116980055Y-85701961D01*
X116980050Y-85701967D01*
X116969034Y-85719827D01*
X116957894Y-85729845D01*
X116950632Y-85742952D01*
X116932441Y-85752738D01*
X116917085Y-85766550D01*
X116902297Y-85768955D01*
X116889102Y-85776055D01*
X116868508Y-85774453D01*
X116848122Y-85777770D01*
X116833233Y-85771709D01*
X116819443Y-85770637D01*
X116788572Y-85753530D01*
X116737074Y-85714477D01*
X116695551Y-85658284D01*
X116688000Y-85615674D01*
X116688000Y-84800026D01*
X116688000Y-84800025D01*
X116686559Y-84794647D01*
X116688220Y-84724798D01*
X116718650Y-84674873D01*
X117212912Y-84180611D01*
X117274233Y-84147128D01*
X117343925Y-84152112D01*
X117399858Y-84193984D01*
X117424275Y-84259448D01*
X117417732Y-84304962D01*
X117418187Y-84305070D01*
X117416987Y-84310146D01*
X117416776Y-84311619D01*
X117416404Y-84312616D01*
X117416401Y-84312627D01*
X117410000Y-84372155D01*
X117410000Y-84420000D01*
X119110000Y-84420000D01*
X119110000Y-84372172D01*
X119109999Y-84372160D01*
X119107166Y-84345813D01*
X119119570Y-84277053D01*
X119167179Y-84225915D01*
X119198358Y-84212781D01*
X119278186Y-84191392D01*
X119392314Y-84125500D01*
X121280995Y-82236819D01*
X121342318Y-82203334D01*
X121368676Y-82200500D01*
X124394256Y-82200500D01*
X124461295Y-82220185D01*
X124507050Y-82272989D01*
X124516994Y-82342147D01*
X124515873Y-82348691D01*
X124499500Y-82431002D01*
X124499500Y-82431007D01*
X124499500Y-82568993D01*
X124499500Y-82568995D01*
X124499499Y-82568995D01*
X124526418Y-82704322D01*
X124526421Y-82704332D01*
X124579221Y-82831804D01*
X124579228Y-82831817D01*
X124655885Y-82946541D01*
X124655888Y-82946545D01*
X124753454Y-83044111D01*
X124753458Y-83044114D01*
X124868182Y-83120771D01*
X124868195Y-83120778D01*
X124985822Y-83169500D01*
X124995672Y-83173580D01*
X124995676Y-83173580D01*
X124995677Y-83173581D01*
X125131004Y-83200500D01*
X125131007Y-83200500D01*
X125268995Y-83200500D01*
X125360041Y-83182389D01*
X125404328Y-83173580D01*
X125531811Y-83120775D01*
X125646542Y-83044114D01*
X125646545Y-83044111D01*
X125653838Y-83036819D01*
X125715161Y-83003334D01*
X125741519Y-83000500D01*
X127915890Y-83000500D01*
X127915892Y-83000500D01*
X128043186Y-82966392D01*
X128157314Y-82900500D01*
X129795995Y-81261819D01*
X129857318Y-81228334D01*
X129883676Y-81225500D01*
X141080890Y-81225500D01*
X141080892Y-81225500D01*
X141208186Y-81191392D01*
X141322314Y-81125500D01*
X142000995Y-80446817D01*
X142062318Y-80413333D01*
X142088676Y-80410499D01*
X143374856Y-80410499D01*
X143374864Y-80410499D01*
X143374879Y-80410497D01*
X143374882Y-80410497D01*
X143399987Y-80407586D01*
X143399988Y-80407585D01*
X143399991Y-80407585D01*
X143502765Y-80362206D01*
X143582206Y-80282765D01*
X143627585Y-80179991D01*
X143627585Y-80179988D01*
X143630033Y-80170993D01*
X143633071Y-80171819D01*
X143654082Y-80122237D01*
X143711795Y-80082856D01*
X143781639Y-80080928D01*
X143841436Y-80117067D01*
X143868126Y-80171487D01*
X143869965Y-80170987D01*
X143872415Y-80179991D01*
X143917793Y-80282764D01*
X143917794Y-80282765D01*
X143997235Y-80362206D01*
X144100009Y-80407585D01*
X144125135Y-80410500D01*
X145914864Y-80410499D01*
X145914879Y-80410497D01*
X145914882Y-80410497D01*
X145939987Y-80407586D01*
X145939988Y-80407585D01*
X145939991Y-80407585D01*
X146042765Y-80362206D01*
X146122206Y-80282765D01*
X146167585Y-80179991D01*
X146167585Y-80179988D01*
X146170033Y-80170993D01*
X146173071Y-80171819D01*
X146194082Y-80122237D01*
X146251795Y-80082856D01*
X146321639Y-80080928D01*
X146381436Y-80117067D01*
X146408126Y-80171487D01*
X146409965Y-80170987D01*
X146412415Y-80179991D01*
X146457793Y-80282764D01*
X146457794Y-80282765D01*
X146537235Y-80362206D01*
X146640009Y-80407585D01*
X146665135Y-80410500D01*
X148454864Y-80410499D01*
X148454879Y-80410497D01*
X148454882Y-80410497D01*
X148479987Y-80407586D01*
X148479988Y-80407585D01*
X148479991Y-80407585D01*
X148582765Y-80362206D01*
X148662206Y-80282765D01*
X148707585Y-80179991D01*
X148707585Y-80179988D01*
X148710033Y-80170993D01*
X148713067Y-80171818D01*
X148734095Y-80122218D01*
X148791814Y-80082845D01*
X148861658Y-80080928D01*
X148921450Y-80117076D01*
G37*
%TD.AperFunction*%
%TA.AperFunction,Conductor*%
G36*
X118392539Y-79020185D02*
G01*
X118438294Y-79072989D01*
X118449500Y-79124500D01*
X118449500Y-79644960D01*
X118464630Y-79779249D01*
X118464631Y-79779254D01*
X118524211Y-79949523D01*
X118607990Y-80082856D01*
X118620184Y-80102262D01*
X118747738Y-80229816D01*
X118755855Y-80234916D01*
X118895098Y-80322409D01*
X118900478Y-80325789D01*
X119026074Y-80369737D01*
X119070745Y-80385368D01*
X119070750Y-80385369D01*
X119161246Y-80395565D01*
X119205040Y-80400499D01*
X119205043Y-80400500D01*
X119205046Y-80400500D01*
X120294957Y-80400500D01*
X120294958Y-80400499D01*
X120362104Y-80392934D01*
X120429249Y-80385369D01*
X120429252Y-80385368D01*
X120429255Y-80385368D01*
X120599522Y-80325789D01*
X120752262Y-80229816D01*
X120788319Y-80193759D01*
X120849642Y-80160274D01*
X120919334Y-80165258D01*
X120975267Y-80207130D01*
X120999684Y-80272594D01*
X121000000Y-80281440D01*
X121000000Y-80368052D01*
X121036934Y-80601247D01*
X121109897Y-80825802D01*
X121208441Y-81019205D01*
X121221337Y-81087874D01*
X121195061Y-81152615D01*
X121137954Y-81192872D01*
X121097956Y-81199500D01*
X121044107Y-81199500D01*
X120947073Y-81225500D01*
X120947072Y-81225499D01*
X120916818Y-81233606D01*
X120916811Y-81233609D01*
X120802689Y-81299498D01*
X120802683Y-81299502D01*
X119108505Y-82993681D01*
X119047182Y-83027166D01*
X119020824Y-83030000D01*
X118384000Y-83030000D01*
X118316961Y-83010315D01*
X118271206Y-82957511D01*
X118260000Y-82906000D01*
X118260000Y-82775000D01*
X118129000Y-82775000D01*
X118061961Y-82755315D01*
X118016206Y-82702511D01*
X118005000Y-82651000D01*
X118005000Y-82520000D01*
X118515000Y-82520000D01*
X119110000Y-82520000D01*
X119110000Y-82472172D01*
X119109999Y-82472155D01*
X119103598Y-82412627D01*
X119103596Y-82412620D01*
X119053354Y-82277913D01*
X119053350Y-82277906D01*
X118967190Y-82162812D01*
X118967187Y-82162809D01*
X118852093Y-82076649D01*
X118852086Y-82076645D01*
X118717379Y-82026403D01*
X118717372Y-82026401D01*
X118657844Y-82020000D01*
X118515000Y-82020000D01*
X118515000Y-82520000D01*
X118005000Y-82520000D01*
X118005000Y-82020000D01*
X117862155Y-82020000D01*
X117802627Y-82026401D01*
X117802620Y-82026403D01*
X117667913Y-82076645D01*
X117667906Y-82076649D01*
X117552813Y-82162809D01*
X117534163Y-82187721D01*
X117478228Y-82229590D01*
X117408536Y-82234572D01*
X117347214Y-82201085D01*
X117315123Y-82145499D01*
X117312983Y-82137513D01*
X117304069Y-82122073D01*
X117304069Y-82122072D01*
X117240512Y-82011988D01*
X117240508Y-82011983D01*
X116436819Y-81208294D01*
X116403334Y-81146971D01*
X116400500Y-81120613D01*
X116400500Y-79124500D01*
X116420185Y-79057461D01*
X116472989Y-79011706D01*
X116524500Y-79000500D01*
X118325500Y-79000500D01*
X118392539Y-79020185D01*
G37*
%TD.AperFunction*%
%TA.AperFunction,Conductor*%
G36*
X126207483Y-78971883D02*
G01*
X126238203Y-78979028D01*
X126240754Y-78981653D01*
X126244267Y-78982685D01*
X126264914Y-79006513D01*
X126286898Y-79029134D01*
X126287625Y-79032722D01*
X126290022Y-79035489D01*
X126294509Y-79066701D01*
X126300773Y-79097612D01*
X126299444Y-79101023D01*
X126299966Y-79104647D01*
X126286862Y-79133339D01*
X126275423Y-79162721D01*
X126271865Y-79166178D01*
X126270941Y-79168203D01*
X126250113Y-79187319D01*
X126152780Y-79258034D01*
X126008028Y-79402786D01*
X125887715Y-79568386D01*
X125794781Y-79750776D01*
X125731522Y-79945465D01*
X125704342Y-80117076D01*
X125699500Y-80147648D01*
X125699500Y-80352352D01*
X125699790Y-80354185D01*
X125731522Y-80554534D01*
X125794781Y-80749223D01*
X125852306Y-80862120D01*
X125886684Y-80929591D01*
X125887715Y-80931613D01*
X125939300Y-81002615D01*
X125962780Y-81068421D01*
X125946954Y-81136475D01*
X125896848Y-81185170D01*
X125838982Y-81199500D01*
X123902044Y-81199500D01*
X123835005Y-81179815D01*
X123789250Y-81127011D01*
X123779306Y-81057853D01*
X123791559Y-81019205D01*
X123890102Y-80825802D01*
X123963065Y-80601247D01*
X124000000Y-80368052D01*
X124000000Y-80131947D01*
X123963065Y-79898752D01*
X123890102Y-79674197D01*
X123782914Y-79463828D01*
X123782169Y-79462802D01*
X123050000Y-80194971D01*
X123050000Y-80177591D01*
X123012518Y-80037708D01*
X122940110Y-79912292D01*
X122837708Y-79809890D01*
X122712292Y-79737482D01*
X122572409Y-79700000D01*
X122555024Y-79700000D01*
X123168939Y-79086086D01*
X123230262Y-79052601D01*
X123241837Y-79050651D01*
X123243094Y-79050500D01*
X123243102Y-79050500D01*
X123331564Y-79039877D01*
X123472342Y-78984361D01*
X123472348Y-78984356D01*
X123479737Y-78980203D01*
X123481247Y-78982890D01*
X123532592Y-78963374D01*
X123542210Y-78963000D01*
X126177228Y-78963000D01*
X126207483Y-78971883D01*
G37*
%TD.AperFunction*%
%TA.AperFunction,Conductor*%
G36*
X121761151Y-79020185D02*
G01*
X121781793Y-79036819D01*
X122444974Y-79700000D01*
X122427591Y-79700000D01*
X122287708Y-79737482D01*
X122162292Y-79809890D01*
X122059890Y-79912292D01*
X121987482Y-80037708D01*
X121950000Y-80177591D01*
X121950000Y-80194974D01*
X121217828Y-79462802D01*
X121184285Y-79465458D01*
X121170647Y-79462599D01*
X121156853Y-79464583D01*
X121137124Y-79455573D01*
X121115901Y-79451125D01*
X121105973Y-79441347D01*
X121093297Y-79435558D01*
X121081572Y-79417314D01*
X121066122Y-79402097D01*
X121062286Y-79387304D01*
X121055523Y-79376780D01*
X121050500Y-79341845D01*
X121050500Y-79124500D01*
X121070185Y-79057461D01*
X121122989Y-79011706D01*
X121174500Y-79000500D01*
X121694112Y-79000500D01*
X121761151Y-79020185D01*
G37*
%TD.AperFunction*%
%TD*%
%TA.AperFunction,Conductor*%
%TO.N,VIN1*%
G36*
X116096984Y-89019685D02*
G01*
X116142739Y-89072489D01*
X116152683Y-89141647D01*
X116149022Y-89158595D01*
X116117401Y-89267434D01*
X116114500Y-89304298D01*
X116114500Y-91085701D01*
X116117401Y-91122567D01*
X116117402Y-91122573D01*
X116151927Y-91241405D01*
X116151728Y-91311274D01*
X116113786Y-91369944D01*
X116050148Y-91398788D01*
X116032851Y-91400000D01*
X115200000Y-91400000D01*
X115200000Y-93667990D01*
X115180315Y-93735029D01*
X115139122Y-93774721D01*
X115093140Y-93801914D01*
X115093129Y-93801923D01*
X114976923Y-93918129D01*
X114976918Y-93918135D01*
X114964509Y-93939120D01*
X114913440Y-93986804D01*
X114857776Y-94000000D01*
X103224000Y-94000000D01*
X103156961Y-93980315D01*
X103111206Y-93927511D01*
X103100000Y-93876000D01*
X103100000Y-89124000D01*
X103119685Y-89056961D01*
X103172489Y-89011206D01*
X103224000Y-89000000D01*
X116029945Y-89000000D01*
X116096984Y-89019685D01*
G37*
%TD.AperFunction*%
%TD*%
M02*
