%TF.GenerationSoftware,KiCad,Pcbnew,9.0.7*%
%TF.CreationDate,2026-08-08T19:43:13-04:00*%
%TF.ProjectId,SB_Pixel_Count,53425f50-6978-4656-9c5f-436f756e742e,v1*%
%TF.SameCoordinates,Original*%
%TF.FileFunction,Legend,Bot*%
%TF.FilePolarity,Positive*%
%FSLAX46Y46*%
G04 Gerber Fmt 4.6, Leading zero omitted, Abs format (unit mm)*
G04 Created by KiCad (PCBNEW 9.0.7) date 2026-08-08 19:43:13*
%MOMM*%
%LPD*%
G01*
G04 APERTURE LIST*
G04 Aperture macros list*
%AMRoundRect*
0 Rectangle with rounded corners*
0 $1 Rounding radius*
0 $2 $3 $4 $5 $6 $7 $8 $9 X,Y pos of 4 corners*
0 Add a 4 corners polygon primitive as box body*
4,1,4,$2,$3,$4,$5,$6,$7,$8,$9,$2,$3,0*
0 Add four circle primitives for the rounded corners*
1,1,$1+$1,$2,$3*
1,1,$1+$1,$4,$5*
1,1,$1+$1,$6,$7*
1,1,$1+$1,$8,$9*
0 Add four rect primitives between the rounded corners*
20,1,$1+$1,$2,$3,$4,$5,0*
20,1,$1+$1,$4,$5,$6,$7,0*
20,1,$1+$1,$6,$7,$8,$9,0*
20,1,$1+$1,$8,$9,$2,$3,0*%
G04 Aperture macros list end*
%ADD10C,0.300000*%
%ADD11C,0.150000*%
%ADD12C,0.100000*%
%ADD13C,0.120000*%
%ADD14C,0.254001*%
%ADD15C,0.059995*%
%ADD16R,2.500000X1.700000*%
%ADD17O,2.500000X1.700000*%
%ADD18RoundRect,0.250000X-1.550000X0.650000X-1.550000X-0.650000X1.550000X-0.650000X1.550000X0.650000X0*%
%ADD19O,3.600000X1.800000*%
%ADD20C,2.000000*%
%ADD21R,1.600000X1.600000*%
%ADD22C,1.600000*%
%ADD23RoundRect,0.291667X-1.508333X0.758333X-1.508333X-0.758333X1.508333X-0.758333X1.508333X0.758333X0*%
%ADD24O,3.600000X2.100000*%
%ADD25R,1.000000X0.500000*%
%ADD26R,1.400000X1.300000*%
G04 APERTURE END LIST*
D10*
X101627742Y-97959774D02*
X101699171Y-98102632D01*
X101699171Y-98102632D02*
X101699171Y-98316917D01*
X101699171Y-98316917D02*
X101627742Y-98531203D01*
X101627742Y-98531203D02*
X101484885Y-98674060D01*
X101484885Y-98674060D02*
X101342028Y-98745489D01*
X101342028Y-98745489D02*
X101056314Y-98816917D01*
X101056314Y-98816917D02*
X100842028Y-98816917D01*
X100842028Y-98816917D02*
X100556314Y-98745489D01*
X100556314Y-98745489D02*
X100413457Y-98674060D01*
X100413457Y-98674060D02*
X100270600Y-98531203D01*
X100270600Y-98531203D02*
X100199171Y-98316917D01*
X100199171Y-98316917D02*
X100199171Y-98174060D01*
X100199171Y-98174060D02*
X100270600Y-97959774D01*
X100270600Y-97959774D02*
X100342028Y-97888346D01*
X100342028Y-97888346D02*
X100842028Y-97888346D01*
X100842028Y-97888346D02*
X100842028Y-98174060D01*
X100199171Y-97245489D02*
X101699171Y-97245489D01*
X101699171Y-97245489D02*
X100199171Y-96388346D01*
X100199171Y-96388346D02*
X101699171Y-96388346D01*
X100199171Y-95674060D02*
X101699171Y-95674060D01*
X101699171Y-95674060D02*
X101699171Y-95316917D01*
X101699171Y-95316917D02*
X101627742Y-95102631D01*
X101627742Y-95102631D02*
X101484885Y-94959774D01*
X101484885Y-94959774D02*
X101342028Y-94888345D01*
X101342028Y-94888345D02*
X101056314Y-94816917D01*
X101056314Y-94816917D02*
X100842028Y-94816917D01*
X100842028Y-94816917D02*
X100556314Y-94888345D01*
X100556314Y-94888345D02*
X100413457Y-94959774D01*
X100413457Y-94959774D02*
X100270600Y-95102631D01*
X100270600Y-95102631D02*
X100199171Y-95316917D01*
X100199171Y-95316917D02*
X100199171Y-95674060D01*
X100199171Y-93059774D02*
X100199171Y-93916917D01*
X100199171Y-93488346D02*
X101699171Y-93488346D01*
X101699171Y-93488346D02*
X101484885Y-93631203D01*
X101484885Y-93631203D02*
X101342028Y-93774060D01*
X101342028Y-93774060D02*
X101270600Y-93916917D01*
X101556314Y-92488346D02*
X101627742Y-92416918D01*
X101627742Y-92416918D02*
X101699171Y-92274061D01*
X101699171Y-92274061D02*
X101699171Y-91916918D01*
X101699171Y-91916918D02*
X101627742Y-91774061D01*
X101627742Y-91774061D02*
X101556314Y-91702632D01*
X101556314Y-91702632D02*
X101413457Y-91631203D01*
X101413457Y-91631203D02*
X101270600Y-91631203D01*
X101270600Y-91631203D02*
X101056314Y-91702632D01*
X101056314Y-91702632D02*
X100199171Y-92559775D01*
X100199171Y-92559775D02*
X100199171Y-91631203D01*
X101699171Y-91202632D02*
X100199171Y-90702632D01*
X100199171Y-90702632D02*
X101699171Y-90202632D01*
X100199171Y-82445489D02*
X101699171Y-82445489D01*
X101699171Y-82445489D02*
X101699171Y-82088346D01*
X101699171Y-82088346D02*
X101627742Y-81874060D01*
X101627742Y-81874060D02*
X101484885Y-81731203D01*
X101484885Y-81731203D02*
X101342028Y-81659774D01*
X101342028Y-81659774D02*
X101056314Y-81588346D01*
X101056314Y-81588346D02*
X100842028Y-81588346D01*
X100842028Y-81588346D02*
X100556314Y-81659774D01*
X100556314Y-81659774D02*
X100413457Y-81731203D01*
X100413457Y-81731203D02*
X100270600Y-81874060D01*
X100270600Y-81874060D02*
X100199171Y-82088346D01*
X100199171Y-82088346D02*
X100199171Y-82445489D01*
X101699171Y-80659774D02*
X101699171Y-80516917D01*
X101699171Y-80516917D02*
X101627742Y-80374060D01*
X101627742Y-80374060D02*
X101556314Y-80302632D01*
X101556314Y-80302632D02*
X101413457Y-80231203D01*
X101413457Y-80231203D02*
X101127742Y-80159774D01*
X101127742Y-80159774D02*
X100770600Y-80159774D01*
X100770600Y-80159774D02*
X100484885Y-80231203D01*
X100484885Y-80231203D02*
X100342028Y-80302632D01*
X100342028Y-80302632D02*
X100270600Y-80374060D01*
X100270600Y-80374060D02*
X100199171Y-80516917D01*
X100199171Y-80516917D02*
X100199171Y-80659774D01*
X100199171Y-80659774D02*
X100270600Y-80802632D01*
X100270600Y-80802632D02*
X100342028Y-80874060D01*
X100342028Y-80874060D02*
X100484885Y-80945489D01*
X100484885Y-80945489D02*
X100770600Y-81016917D01*
X100770600Y-81016917D02*
X101127742Y-81016917D01*
X101127742Y-81016917D02*
X101413457Y-80945489D01*
X101413457Y-80945489D02*
X101556314Y-80874060D01*
X101556314Y-80874060D02*
X101627742Y-80802632D01*
X101627742Y-80802632D02*
X101699171Y-80659774D01*
X100199171Y-86459774D02*
X100199171Y-87316917D01*
X100199171Y-86888346D02*
X101699171Y-86888346D01*
X101699171Y-86888346D02*
X101484885Y-87031203D01*
X101484885Y-87031203D02*
X101342028Y-87174060D01*
X101342028Y-87174060D02*
X101270600Y-87316917D01*
X101556314Y-85888346D02*
X101627742Y-85816918D01*
X101627742Y-85816918D02*
X101699171Y-85674061D01*
X101699171Y-85674061D02*
X101699171Y-85316918D01*
X101699171Y-85316918D02*
X101627742Y-85174061D01*
X101627742Y-85174061D02*
X101556314Y-85102632D01*
X101556314Y-85102632D02*
X101413457Y-85031203D01*
X101413457Y-85031203D02*
X101270600Y-85031203D01*
X101270600Y-85031203D02*
X101056314Y-85102632D01*
X101056314Y-85102632D02*
X100199171Y-85959775D01*
X100199171Y-85959775D02*
X100199171Y-85031203D01*
X101699171Y-84602632D02*
X100199171Y-84102632D01*
X100199171Y-84102632D02*
X101699171Y-83602632D01*
X101627742Y-78059774D02*
X101699171Y-78202632D01*
X101699171Y-78202632D02*
X101699171Y-78416917D01*
X101699171Y-78416917D02*
X101627742Y-78631203D01*
X101627742Y-78631203D02*
X101484885Y-78774060D01*
X101484885Y-78774060D02*
X101342028Y-78845489D01*
X101342028Y-78845489D02*
X101056314Y-78916917D01*
X101056314Y-78916917D02*
X100842028Y-78916917D01*
X100842028Y-78916917D02*
X100556314Y-78845489D01*
X100556314Y-78845489D02*
X100413457Y-78774060D01*
X100413457Y-78774060D02*
X100270600Y-78631203D01*
X100270600Y-78631203D02*
X100199171Y-78416917D01*
X100199171Y-78416917D02*
X100199171Y-78274060D01*
X100199171Y-78274060D02*
X100270600Y-78059774D01*
X100270600Y-78059774D02*
X100342028Y-77988346D01*
X100342028Y-77988346D02*
X100842028Y-77988346D01*
X100842028Y-77988346D02*
X100842028Y-78274060D01*
X100199171Y-77345489D02*
X101699171Y-77345489D01*
X101699171Y-77345489D02*
X100199171Y-76488346D01*
X100199171Y-76488346D02*
X101699171Y-76488346D01*
X100199171Y-75774060D02*
X101699171Y-75774060D01*
X101699171Y-75774060D02*
X101699171Y-75416917D01*
X101699171Y-75416917D02*
X101627742Y-75202631D01*
X101627742Y-75202631D02*
X101484885Y-75059774D01*
X101484885Y-75059774D02*
X101342028Y-74988345D01*
X101342028Y-74988345D02*
X101056314Y-74916917D01*
X101056314Y-74916917D02*
X100842028Y-74916917D01*
X100842028Y-74916917D02*
X100556314Y-74988345D01*
X100556314Y-74988345D02*
X100413457Y-75059774D01*
X100413457Y-75059774D02*
X100270600Y-75202631D01*
X100270600Y-75202631D02*
X100199171Y-75416917D01*
X100199171Y-75416917D02*
X100199171Y-75774060D01*
D11*
X117727800Y-92380839D02*
X117680180Y-92237982D01*
X117680180Y-92237982D02*
X117680180Y-91999887D01*
X117680180Y-91999887D02*
X117727800Y-91904649D01*
X117727800Y-91904649D02*
X117775419Y-91857030D01*
X117775419Y-91857030D02*
X117870657Y-91809411D01*
X117870657Y-91809411D02*
X117965895Y-91809411D01*
X117965895Y-91809411D02*
X118061133Y-91857030D01*
X118061133Y-91857030D02*
X118108752Y-91904649D01*
X118108752Y-91904649D02*
X118156371Y-91999887D01*
X118156371Y-91999887D02*
X118203990Y-92190363D01*
X118203990Y-92190363D02*
X118251609Y-92285601D01*
X118251609Y-92285601D02*
X118299228Y-92333220D01*
X118299228Y-92333220D02*
X118394466Y-92380839D01*
X118394466Y-92380839D02*
X118489704Y-92380839D01*
X118489704Y-92380839D02*
X118584942Y-92333220D01*
X118584942Y-92333220D02*
X118632561Y-92285601D01*
X118632561Y-92285601D02*
X118680180Y-92190363D01*
X118680180Y-92190363D02*
X118680180Y-91952268D01*
X118680180Y-91952268D02*
X118632561Y-91809411D01*
X118203990Y-91047506D02*
X118156371Y-90904649D01*
X118156371Y-90904649D02*
X118108752Y-90857030D01*
X118108752Y-90857030D02*
X118013514Y-90809411D01*
X118013514Y-90809411D02*
X117870657Y-90809411D01*
X117870657Y-90809411D02*
X117775419Y-90857030D01*
X117775419Y-90857030D02*
X117727800Y-90904649D01*
X117727800Y-90904649D02*
X117680180Y-90999887D01*
X117680180Y-90999887D02*
X117680180Y-91380839D01*
X117680180Y-91380839D02*
X118680180Y-91380839D01*
X118680180Y-91380839D02*
X118680180Y-91047506D01*
X118680180Y-91047506D02*
X118632561Y-90952268D01*
X118632561Y-90952268D02*
X118584942Y-90904649D01*
X118584942Y-90904649D02*
X118489704Y-90857030D01*
X118489704Y-90857030D02*
X118394466Y-90857030D01*
X118394466Y-90857030D02*
X118299228Y-90904649D01*
X118299228Y-90904649D02*
X118251609Y-90952268D01*
X118251609Y-90952268D02*
X118203990Y-91047506D01*
X118203990Y-91047506D02*
X118203990Y-91380839D01*
X117680180Y-89618934D02*
X118680180Y-89618934D01*
X118680180Y-89618934D02*
X118680180Y-89237982D01*
X118680180Y-89237982D02*
X118632561Y-89142744D01*
X118632561Y-89142744D02*
X118584942Y-89095125D01*
X118584942Y-89095125D02*
X118489704Y-89047506D01*
X118489704Y-89047506D02*
X118346847Y-89047506D01*
X118346847Y-89047506D02*
X118251609Y-89095125D01*
X118251609Y-89095125D02*
X118203990Y-89142744D01*
X118203990Y-89142744D02*
X118156371Y-89237982D01*
X118156371Y-89237982D02*
X118156371Y-89618934D01*
X117680180Y-88618934D02*
X118346847Y-88618934D01*
X118680180Y-88618934D02*
X118632561Y-88666553D01*
X118632561Y-88666553D02*
X118584942Y-88618934D01*
X118584942Y-88618934D02*
X118632561Y-88571315D01*
X118632561Y-88571315D02*
X118680180Y-88618934D01*
X118680180Y-88618934D02*
X118584942Y-88618934D01*
X117680180Y-88237982D02*
X118346847Y-87714173D01*
X118346847Y-88237982D02*
X117680180Y-87714173D01*
X117727800Y-86952268D02*
X117680180Y-87047506D01*
X117680180Y-87047506D02*
X117680180Y-87237982D01*
X117680180Y-87237982D02*
X117727800Y-87333220D01*
X117727800Y-87333220D02*
X117823038Y-87380839D01*
X117823038Y-87380839D02*
X118203990Y-87380839D01*
X118203990Y-87380839D02*
X118299228Y-87333220D01*
X118299228Y-87333220D02*
X118346847Y-87237982D01*
X118346847Y-87237982D02*
X118346847Y-87047506D01*
X118346847Y-87047506D02*
X118299228Y-86952268D01*
X118299228Y-86952268D02*
X118203990Y-86904649D01*
X118203990Y-86904649D02*
X118108752Y-86904649D01*
X118108752Y-86904649D02*
X118013514Y-87380839D01*
X117680180Y-86333220D02*
X117727800Y-86428458D01*
X117727800Y-86428458D02*
X117823038Y-86476077D01*
X117823038Y-86476077D02*
X118680180Y-86476077D01*
X117775419Y-84618934D02*
X117727800Y-84666553D01*
X117727800Y-84666553D02*
X117680180Y-84809410D01*
X117680180Y-84809410D02*
X117680180Y-84904648D01*
X117680180Y-84904648D02*
X117727800Y-85047505D01*
X117727800Y-85047505D02*
X117823038Y-85142743D01*
X117823038Y-85142743D02*
X117918276Y-85190362D01*
X117918276Y-85190362D02*
X118108752Y-85237981D01*
X118108752Y-85237981D02*
X118251609Y-85237981D01*
X118251609Y-85237981D02*
X118442085Y-85190362D01*
X118442085Y-85190362D02*
X118537323Y-85142743D01*
X118537323Y-85142743D02*
X118632561Y-85047505D01*
X118632561Y-85047505D02*
X118680180Y-84904648D01*
X118680180Y-84904648D02*
X118680180Y-84809410D01*
X118680180Y-84809410D02*
X118632561Y-84666553D01*
X118632561Y-84666553D02*
X118584942Y-84618934D01*
X117680180Y-84047505D02*
X117727800Y-84142743D01*
X117727800Y-84142743D02*
X117775419Y-84190362D01*
X117775419Y-84190362D02*
X117870657Y-84237981D01*
X117870657Y-84237981D02*
X118156371Y-84237981D01*
X118156371Y-84237981D02*
X118251609Y-84190362D01*
X118251609Y-84190362D02*
X118299228Y-84142743D01*
X118299228Y-84142743D02*
X118346847Y-84047505D01*
X118346847Y-84047505D02*
X118346847Y-83904648D01*
X118346847Y-83904648D02*
X118299228Y-83809410D01*
X118299228Y-83809410D02*
X118251609Y-83761791D01*
X118251609Y-83761791D02*
X118156371Y-83714172D01*
X118156371Y-83714172D02*
X117870657Y-83714172D01*
X117870657Y-83714172D02*
X117775419Y-83761791D01*
X117775419Y-83761791D02*
X117727800Y-83809410D01*
X117727800Y-83809410D02*
X117680180Y-83904648D01*
X117680180Y-83904648D02*
X117680180Y-84047505D01*
X118346847Y-82857029D02*
X117680180Y-82857029D01*
X118346847Y-83285600D02*
X117823038Y-83285600D01*
X117823038Y-83285600D02*
X117727800Y-83237981D01*
X117727800Y-83237981D02*
X117680180Y-83142743D01*
X117680180Y-83142743D02*
X117680180Y-82999886D01*
X117680180Y-82999886D02*
X117727800Y-82904648D01*
X117727800Y-82904648D02*
X117775419Y-82857029D01*
X118346847Y-82380838D02*
X117680180Y-82380838D01*
X118251609Y-82380838D02*
X118299228Y-82333219D01*
X118299228Y-82333219D02*
X118346847Y-82237981D01*
X118346847Y-82237981D02*
X118346847Y-82095124D01*
X118346847Y-82095124D02*
X118299228Y-81999886D01*
X118299228Y-81999886D02*
X118203990Y-81952267D01*
X118203990Y-81952267D02*
X117680180Y-81952267D01*
X118346847Y-81618933D02*
X118346847Y-81237981D01*
X118680180Y-81476076D02*
X117823038Y-81476076D01*
X117823038Y-81476076D02*
X117727800Y-81428457D01*
X117727800Y-81428457D02*
X117680180Y-81333219D01*
X117680180Y-81333219D02*
X117680180Y-81237981D01*
X117680180Y-80142742D02*
X118680180Y-80142742D01*
X118680180Y-80142742D02*
X118680180Y-79761790D01*
X118680180Y-79761790D02*
X118632561Y-79666552D01*
X118632561Y-79666552D02*
X118584942Y-79618933D01*
X118584942Y-79618933D02*
X118489704Y-79571314D01*
X118489704Y-79571314D02*
X118346847Y-79571314D01*
X118346847Y-79571314D02*
X118251609Y-79618933D01*
X118251609Y-79618933D02*
X118203990Y-79666552D01*
X118203990Y-79666552D02*
X118156371Y-79761790D01*
X118156371Y-79761790D02*
X118156371Y-80142742D01*
X117680180Y-79142742D02*
X118346847Y-79142742D01*
X118156371Y-79142742D02*
X118251609Y-79095123D01*
X118251609Y-79095123D02*
X118299228Y-79047504D01*
X118299228Y-79047504D02*
X118346847Y-78952266D01*
X118346847Y-78952266D02*
X118346847Y-78857028D01*
X117680180Y-78380837D02*
X117727800Y-78476075D01*
X117727800Y-78476075D02*
X117775419Y-78523694D01*
X117775419Y-78523694D02*
X117870657Y-78571313D01*
X117870657Y-78571313D02*
X118156371Y-78571313D01*
X118156371Y-78571313D02*
X118251609Y-78523694D01*
X118251609Y-78523694D02*
X118299228Y-78476075D01*
X118299228Y-78476075D02*
X118346847Y-78380837D01*
X118346847Y-78380837D02*
X118346847Y-78237980D01*
X118346847Y-78237980D02*
X118299228Y-78142742D01*
X118299228Y-78142742D02*
X118251609Y-78095123D01*
X118251609Y-78095123D02*
X118156371Y-78047504D01*
X118156371Y-78047504D02*
X117870657Y-78047504D01*
X117870657Y-78047504D02*
X117775419Y-78095123D01*
X117775419Y-78095123D02*
X117727800Y-78142742D01*
X117727800Y-78142742D02*
X117680180Y-78237980D01*
X117680180Y-78237980D02*
X117680180Y-78380837D01*
X118346847Y-76952265D02*
X117680180Y-76714170D01*
X117680180Y-76714170D02*
X118346847Y-76476075D01*
X117680180Y-75571313D02*
X117680180Y-76142741D01*
X117680180Y-75857027D02*
X118680180Y-75857027D01*
X118680180Y-75857027D02*
X118537323Y-75952265D01*
X118537323Y-75952265D02*
X118442085Y-76047503D01*
X118442085Y-76047503D02*
X118394466Y-76142741D01*
X133467704Y-87936904D02*
X133467704Y-87784523D01*
X133467704Y-87784523D02*
X133429609Y-87708333D01*
X133429609Y-87708333D02*
X133353419Y-87632142D01*
X133353419Y-87632142D02*
X133201038Y-87594047D01*
X133201038Y-87594047D02*
X132934371Y-87594047D01*
X132934371Y-87594047D02*
X132781990Y-87632142D01*
X132781990Y-87632142D02*
X132705800Y-87708333D01*
X132705800Y-87708333D02*
X132667704Y-87784523D01*
X132667704Y-87784523D02*
X132667704Y-87936904D01*
X132667704Y-87936904D02*
X132705800Y-88013095D01*
X132705800Y-88013095D02*
X132781990Y-88089285D01*
X132781990Y-88089285D02*
X132934371Y-88127381D01*
X132934371Y-88127381D02*
X133201038Y-88127381D01*
X133201038Y-88127381D02*
X133353419Y-88089285D01*
X133353419Y-88089285D02*
X133429609Y-88013095D01*
X133429609Y-88013095D02*
X133467704Y-87936904D01*
X132667704Y-86870238D02*
X132667704Y-87251190D01*
X132667704Y-87251190D02*
X133467704Y-87251190D01*
X133086752Y-86603571D02*
X133086752Y-86336905D01*
X132667704Y-86222619D02*
X132667704Y-86603571D01*
X132667704Y-86603571D02*
X133467704Y-86603571D01*
X133467704Y-86603571D02*
X133467704Y-86222619D01*
X132667704Y-85879761D02*
X133467704Y-85879761D01*
X133467704Y-85879761D02*
X133467704Y-85689285D01*
X133467704Y-85689285D02*
X133429609Y-85574999D01*
X133429609Y-85574999D02*
X133353419Y-85498809D01*
X133353419Y-85498809D02*
X133277228Y-85460714D01*
X133277228Y-85460714D02*
X133124847Y-85422618D01*
X133124847Y-85422618D02*
X133010561Y-85422618D01*
X133010561Y-85422618D02*
X132858180Y-85460714D01*
X132858180Y-85460714D02*
X132781990Y-85498809D01*
X132781990Y-85498809D02*
X132705800Y-85574999D01*
X132705800Y-85574999D02*
X132667704Y-85689285D01*
X132667704Y-85689285D02*
X132667704Y-85879761D01*
D12*
X131215104Y-80951666D02*
X130643676Y-80951666D01*
X130643676Y-80951666D02*
X130529390Y-80989761D01*
X130529390Y-80989761D02*
X130453200Y-81065952D01*
X130453200Y-81065952D02*
X130415104Y-81180237D01*
X130415104Y-81180237D02*
X130415104Y-81256428D01*
X131215104Y-80646904D02*
X131215104Y-80151666D01*
X131215104Y-80151666D02*
X130910342Y-80418332D01*
X130910342Y-80418332D02*
X130910342Y-80304047D01*
X130910342Y-80304047D02*
X130872247Y-80227856D01*
X130872247Y-80227856D02*
X130834152Y-80189761D01*
X130834152Y-80189761D02*
X130757961Y-80151666D01*
X130757961Y-80151666D02*
X130567485Y-80151666D01*
X130567485Y-80151666D02*
X130491295Y-80189761D01*
X130491295Y-80189761D02*
X130453200Y-80227856D01*
X130453200Y-80227856D02*
X130415104Y-80304047D01*
X130415104Y-80304047D02*
X130415104Y-80532618D01*
X130415104Y-80532618D02*
X130453200Y-80608809D01*
X130453200Y-80608809D02*
X130491295Y-80646904D01*
X128966800Y-82533332D02*
X129004895Y-82647618D01*
X129004895Y-82647618D02*
X129004895Y-82838094D01*
X129004895Y-82838094D02*
X128966800Y-82914285D01*
X128966800Y-82914285D02*
X128928704Y-82952380D01*
X128928704Y-82952380D02*
X128852514Y-82990475D01*
X128852514Y-82990475D02*
X128776323Y-82990475D01*
X128776323Y-82990475D02*
X128700133Y-82952380D01*
X128700133Y-82952380D02*
X128662038Y-82914285D01*
X128662038Y-82914285D02*
X128623942Y-82838094D01*
X128623942Y-82838094D02*
X128585847Y-82685713D01*
X128585847Y-82685713D02*
X128547752Y-82609523D01*
X128547752Y-82609523D02*
X128509657Y-82571428D01*
X128509657Y-82571428D02*
X128433466Y-82533332D01*
X128433466Y-82533332D02*
X128357276Y-82533332D01*
X128357276Y-82533332D02*
X128281085Y-82571428D01*
X128281085Y-82571428D02*
X128242990Y-82609523D01*
X128242990Y-82609523D02*
X128204895Y-82685713D01*
X128204895Y-82685713D02*
X128204895Y-82876190D01*
X128204895Y-82876190D02*
X128242990Y-82990475D01*
X128204895Y-83257142D02*
X129004895Y-83447618D01*
X129004895Y-83447618D02*
X128433466Y-83599999D01*
X128433466Y-83599999D02*
X129004895Y-83752380D01*
X129004895Y-83752380D02*
X128204895Y-83942857D01*
X129004895Y-84666666D02*
X129004895Y-84209523D01*
X129004895Y-84438095D02*
X128204895Y-84438095D01*
X128204895Y-84438095D02*
X128319180Y-84361904D01*
X128319180Y-84361904D02*
X128395371Y-84285714D01*
X128395371Y-84285714D02*
X128433466Y-84209523D01*
X128956800Y-92223332D02*
X128994895Y-92337618D01*
X128994895Y-92337618D02*
X128994895Y-92528094D01*
X128994895Y-92528094D02*
X128956800Y-92604285D01*
X128956800Y-92604285D02*
X128918704Y-92642380D01*
X128918704Y-92642380D02*
X128842514Y-92680475D01*
X128842514Y-92680475D02*
X128766323Y-92680475D01*
X128766323Y-92680475D02*
X128690133Y-92642380D01*
X128690133Y-92642380D02*
X128652038Y-92604285D01*
X128652038Y-92604285D02*
X128613942Y-92528094D01*
X128613942Y-92528094D02*
X128575847Y-92375713D01*
X128575847Y-92375713D02*
X128537752Y-92299523D01*
X128537752Y-92299523D02*
X128499657Y-92261428D01*
X128499657Y-92261428D02*
X128423466Y-92223332D01*
X128423466Y-92223332D02*
X128347276Y-92223332D01*
X128347276Y-92223332D02*
X128271085Y-92261428D01*
X128271085Y-92261428D02*
X128232990Y-92299523D01*
X128232990Y-92299523D02*
X128194895Y-92375713D01*
X128194895Y-92375713D02*
X128194895Y-92566190D01*
X128194895Y-92566190D02*
X128232990Y-92680475D01*
X128194895Y-92947142D02*
X128994895Y-93137618D01*
X128994895Y-93137618D02*
X128423466Y-93289999D01*
X128423466Y-93289999D02*
X128994895Y-93442380D01*
X128994895Y-93442380D02*
X128194895Y-93632857D01*
X128271085Y-93899523D02*
X128232990Y-93937619D01*
X128232990Y-93937619D02*
X128194895Y-94013809D01*
X128194895Y-94013809D02*
X128194895Y-94204285D01*
X128194895Y-94204285D02*
X128232990Y-94280476D01*
X128232990Y-94280476D02*
X128271085Y-94318571D01*
X128271085Y-94318571D02*
X128347276Y-94356666D01*
X128347276Y-94356666D02*
X128423466Y-94356666D01*
X128423466Y-94356666D02*
X128537752Y-94318571D01*
X128537752Y-94318571D02*
X128994895Y-93861428D01*
X128994895Y-93861428D02*
X128994895Y-94356666D01*
D11*
X137094903Y-86018019D02*
X137904426Y-86018019D01*
X137904426Y-86018019D02*
X137999664Y-86065638D01*
X137999664Y-86065638D02*
X138047284Y-86113257D01*
X138047284Y-86113257D02*
X138094903Y-86208495D01*
X138094903Y-86208495D02*
X138094903Y-86398971D01*
X138094903Y-86398971D02*
X138047284Y-86494209D01*
X138047284Y-86494209D02*
X137999664Y-86541828D01*
X137999664Y-86541828D02*
X137904426Y-86589447D01*
X137904426Y-86589447D02*
X137094903Y-86589447D01*
X137094903Y-87541828D02*
X137094903Y-87065638D01*
X137094903Y-87065638D02*
X137571093Y-87018019D01*
X137571093Y-87018019D02*
X137523474Y-87065638D01*
X137523474Y-87065638D02*
X137475855Y-87160876D01*
X137475855Y-87160876D02*
X137475855Y-87398971D01*
X137475855Y-87398971D02*
X137523474Y-87494209D01*
X137523474Y-87494209D02*
X137571093Y-87541828D01*
X137571093Y-87541828D02*
X137666331Y-87589447D01*
X137666331Y-87589447D02*
X137904426Y-87589447D01*
X137904426Y-87589447D02*
X137999664Y-87541828D01*
X137999664Y-87541828D02*
X138047284Y-87494209D01*
X138047284Y-87494209D02*
X138094903Y-87398971D01*
X138094903Y-87398971D02*
X138094903Y-87160876D01*
X138094903Y-87160876D02*
X138047284Y-87065638D01*
X138047284Y-87065638D02*
X137999664Y-87018019D01*
D13*
%TO.C,J3*%
X129200000Y-74325000D02*
X156200000Y-74325000D01*
X156200000Y-74325000D02*
X156200000Y-99325000D01*
X132060000Y-81635000D02*
X129340000Y-81635000D01*
X132060000Y-81635000D02*
X132060000Y-92015000D01*
X129340000Y-92015000D02*
X129340000Y-81635000D01*
X132060000Y-92015000D02*
X129340000Y-92015000D01*
X129200000Y-99325000D02*
X129200000Y-74325000D01*
X156200000Y-99325000D02*
X129200000Y-99325000D01*
%TO.C,SW1*%
X125500000Y-87000000D02*
X124000000Y-87000000D01*
X121500000Y-85750000D02*
X121500000Y-81250000D01*
X128000000Y-81250000D02*
X128000000Y-85750000D01*
X124000000Y-80000000D02*
X125500000Y-80000000D01*
%TO.C,SW2*%
X125500000Y-96625000D02*
X124000000Y-96625000D01*
X121500000Y-95375000D02*
X121500000Y-90875000D01*
X128000000Y-90875000D02*
X128000000Y-95375000D01*
X124000000Y-89625000D02*
X125500000Y-89625000D01*
D14*
%TO.C,U5*%
X139640084Y-90998720D02*
X139640084Y-82561128D01*
X141168760Y-81154930D02*
X143756314Y-81154930D01*
X143756314Y-92404917D02*
X141168760Y-92404917D01*
X145618595Y-81154930D02*
X145635080Y-81154930D01*
X145635080Y-81154930D02*
X145635080Y-92404917D01*
X145635080Y-92404917D02*
X145618595Y-92404917D01*
X146620069Y-91474818D02*
G75*
G02*
X146110035Y-91474818I-255017J0D01*
G01*
X146110035Y-91474818D02*
G75*
G02*
X146620069Y-91474818I255017J0D01*
G01*
D15*
X146667567Y-92404968D02*
G75*
G02*
X146607623Y-92404968I-29972J0D01*
G01*
X146607623Y-92404968D02*
G75*
G02*
X146667567Y-92404968I29972J0D01*
G01*
%TD*%
%LPC*%
D16*
%TO.C,J3*%
X130700000Y-90625000D03*
D17*
X130700000Y-88125000D03*
X130700000Y-85525000D03*
X130700000Y-83025000D03*
%TD*%
D18*
%TO.C,TB1*%
X105357500Y-92112500D03*
D19*
X105357500Y-95922500D03*
%TD*%
D20*
%TO.C,SW1*%
X127000000Y-80250000D03*
X122500000Y-80250000D03*
X127000000Y-86750000D03*
X122500000Y-86750000D03*
%TD*%
%TO.C,SW2*%
X127000000Y-89875000D03*
X122500000Y-89875000D03*
X127000000Y-96375000D03*
X122500000Y-96375000D03*
%TD*%
D21*
%TO.C,U2*%
X150100000Y-79260000D03*
D22*
X147560000Y-79260000D03*
X145020000Y-79260000D03*
X142480000Y-79260000D03*
X139940000Y-79260000D03*
X137400000Y-79260000D03*
X134860000Y-79260000D03*
X134860000Y-94500000D03*
X137400000Y-94500000D03*
X139940000Y-94500000D03*
X142480000Y-94500000D03*
X145020000Y-94500000D03*
X147560000Y-94500000D03*
X150100000Y-94500000D03*
%TD*%
D23*
%TO.C,J2*%
X105357500Y-77680000D03*
D19*
X105357500Y-81340000D03*
D24*
X105357500Y-85000000D03*
%TD*%
D25*
%TO.C,U5*%
X146422456Y-90630013D03*
X146422456Y-89529936D03*
X146422456Y-88430114D03*
X146422456Y-87680051D03*
X146422456Y-86229962D03*
X146422456Y-85130140D03*
X146422456Y-84030064D03*
X146422456Y-82929987D03*
X146422456Y-86980025D03*
D26*
X144687379Y-81680051D03*
X140237544Y-81680051D03*
X140237544Y-91879949D03*
X144687379Y-91879949D03*
%TD*%
%LPD*%
M02*
