M48
; DRILL file {KiCad 9.0.7} date 2026-08-08T19:43:13-0400
; FORMAT={-:-/ absolute / inch / decimal}
; #@! TF.CreationDate,2026-08-08T19:43:13-04:00
; #@! TF.GenerationSoftware,Kicad,Pcbnew,9.0.7
; #@! TF.FileFunction,Plated,1,2,PTH
FMAT,2
INCH
; #@! TA.AperFunction,Plated,PTH,ViaDrill
T1C0.0157
; #@! TA.AperFunction,Plated,PTH,ComponentDrill
T2C0.0394
; #@! TA.AperFunction,Plated,PTH,ComponentDrill
T3C0.0433
; #@! TA.AperFunction,Plated,PTH,ComponentDrill
T4C0.0472
%
G90
G05
T1
X3.9764Y-3.7205
X3.9764Y-3.8976
X4.252Y-3.8976
X4.3169Y-3.0187
X4.3189Y-3.3071
X4.3189Y-3.3465
X4.3189Y-3.3858
X4.3189Y-3.4252
X4.3189Y-3.4646
X4.3189Y-3.5236
X4.3189Y-3.563
X4.3189Y-3.6024
X4.3189Y-3.6417
X4.3189Y-3.6811
X4.3209Y-2.9656
X4.3583Y-3.3071
X4.3583Y-3.4252
X4.3583Y-3.4646
X4.3583Y-3.5236
X4.3583Y-3.563
X4.3583Y-3.6811
X4.3583Y-3.7598
X4.3819Y-2.9626
X4.3976Y-3.3071
X4.3976Y-3.4252
X4.3976Y-3.4646
X4.3976Y-3.5236
X4.3976Y-3.563
X4.3976Y-3.6811
X4.4094Y-2.9213
X4.4126Y-3.8965
X4.4134Y-3.8228
X4.437Y-3.3071
X4.437Y-3.4252
X4.437Y-3.4646
X4.437Y-3.5236
X4.437Y-3.563
X4.437Y-3.6811
X4.4528Y-2.9213
X4.4764Y-3.3071
X4.4764Y-3.4252
X4.4764Y-3.4646
X4.4764Y-3.5236
X4.4764Y-3.563
X4.4764Y-3.6811
X4.4764Y-3.8307
X4.4961Y-2.9213
X4.5157Y-3.3071
X4.5157Y-3.3465
X4.5157Y-3.3858
X4.5157Y-3.4252
X4.5157Y-3.4646
X4.5157Y-3.5236
X4.5157Y-3.563
X4.5157Y-3.6024
X4.5157Y-3.6417
X4.5157Y-3.6811
X4.5433Y-2.9213
X4.5492Y-2.9872
X4.5492Y-3.0266
X4.563Y-3.8976
X4.5787Y-3.6496
X4.5906Y-2.9213
X4.5925Y-2.9872
X4.5925Y-3.0266
X4.6014Y-3.1299
X4.6014Y-3.189
X4.622Y-3.6496
X4.6358Y-2.9872
X4.6358Y-3.0266
X4.6407Y-3.1299
X4.6407Y-3.189
X4.6614Y-3.6496
X4.6864Y-3.3976
X4.7037Y-3.189
X4.7047Y-3.6457
X4.7537Y-3.1863
X4.7638Y-3.8976
X4.7736Y-2.9311
X4.8165Y-2.9287
X4.8559Y-2.9287
X4.8953Y-2.9287
X4.9085Y-2.9931
X4.9134Y-3.1575
X4.9291Y-3.248
X5.0Y-3.8976
X5.1228Y-3.7768
X5.1244Y-3.6665
X5.1697Y-2.9256
X5.2146Y-3.772
X5.2372Y-3.5719
X5.251Y-3.3081
X5.2569Y-3.6447
X5.315Y-3.8976
X5.3249Y-3.2224
X5.3376Y-3.4567
X5.3573Y-3.6427
X5.4203Y-3.5984
X5.435Y-3.4852
X5.4782Y-2.9203
X5.5217Y-3.2874
X5.5256Y-3.5522
X5.5512Y-3.8976
X5.6152Y-3.2244
X5.6969Y-3.5433
X5.7028Y-3.3524
X5.7205Y-3.8937
X5.7594Y-2.9203
X5.7874Y-3.8543
X5.7894Y-3.2244
X5.813Y-3.6467
X5.8248Y-3.4508
X5.8297Y-3.3514
X5.8425Y-3.5217
X5.8425Y-3.9016
X5.8445Y-3.5896
X5.9291Y-3.6457
X5.9331Y-3.2244
X5.9331Y-3.4094
X5.9803Y-3.9055
X5.9921Y-2.9291
T2
X5.1457Y-3.2687
X5.1457Y-3.3671
X5.1457Y-3.4695
X5.1457Y-3.5679
X5.3094Y-3.1205
X5.3094Y-3.7205
X5.4094Y-3.1205
X5.4094Y-3.7205
X5.5094Y-3.1205
X5.5094Y-3.7205
X5.6094Y-3.1205
X5.6094Y-3.7205
X5.7094Y-3.1205
X5.7094Y-3.7205
X5.8094Y-3.1205
X5.8094Y-3.7205
X5.9094Y-3.1205
X5.9094Y-3.7205
T3
X4.8228Y-3.1594
X4.8228Y-3.4154
X4.8228Y-3.5384
X4.8228Y-3.7943
X5.0Y-3.1594
X5.0Y-3.4154
X5.0Y-3.5384
X5.0Y-3.7943
T4
X4.1479Y-3.2024
X4.1479Y-3.6265
X4.1479Y-3.7765
T4
G00X4.1479Y-3.0533
M15
G01X4.1479Y-3.0632
M16
G05
G00X4.1479Y-3.3415
M15
G01X4.1479Y-3.3514
M16
G05
M30
