%TF.GenerationSoftware,KiCad,Pcbnew,9.0.7*%
%TF.CreationDate,2026-08-08T19:43:13-04:00*%
%TF.ProjectId,SB_Pixel_Count,53425f50-6978-4656-9c5f-436f756e742e,v1*%
%TF.SameCoordinates,Original*%
%TF.FileFunction,Copper,L2,Bot*%
%TF.FilePolarity,Positive*%
%FSLAX46Y46*%
G04 Gerber Fmt 4.6, Leading zero omitted, Abs format (unit mm)*
G04 Created by KiCad (PCBNEW 9.0.7) date 2026-08-08 19:43:13*
%MOMM*%
%LPD*%
G01*
G04 APERTURE LIST*
G04 Aperture macros list*
%AMRoundRect*
0 Rectangle with rounded corners*
0 $1 Rounding radius*
0 $2 $3 $4 $5 $6 $7 $8 $9 X,Y pos of 4 corners*
0 Add a 4 corners polygon primitive as box body*
4,1,4,$2,$3,$4,$5,$6,$7,$8,$9,$2,$3,0*
0 Add four circle primitives for the rounded corners*
1,1,$1+$1,$2,$3*
1,1,$1+$1,$4,$5*
1,1,$1+$1,$6,$7*
1,1,$1+$1,$8,$9*
0 Add four rect primitives between the rounded corners*
20,1,$1+$1,$2,$3,$4,$5,0*
20,1,$1+$1,$4,$5,$6,$7,0*
20,1,$1+$1,$6,$7,$8,$9,0*
20,1,$1+$1,$8,$9,$2,$3,0*%
G04 Aperture macros list end*
%TA.AperFunction,ComponentPad*%
%ADD10R,2.500000X1.700000*%
%TD*%
%TA.AperFunction,ComponentPad*%
%ADD11O,2.500000X1.700000*%
%TD*%
%TA.AperFunction,ComponentPad*%
%ADD12RoundRect,0.250000X-1.550000X0.650000X-1.550000X-0.650000X1.550000X-0.650000X1.550000X0.650000X0*%
%TD*%
%TA.AperFunction,ComponentPad*%
%ADD13O,3.600000X1.800000*%
%TD*%
%TA.AperFunction,ComponentPad*%
%ADD14C,2.000000*%
%TD*%
%TA.AperFunction,ComponentPad*%
%ADD15R,1.600000X1.600000*%
%TD*%
%TA.AperFunction,ComponentPad*%
%ADD16C,1.600000*%
%TD*%
%TA.AperFunction,ComponentPad*%
%ADD17RoundRect,0.291667X-1.508333X0.758333X-1.508333X-0.758333X1.508333X-0.758333X1.508333X0.758333X0*%
%TD*%
%TA.AperFunction,ComponentPad*%
%ADD18O,3.600000X2.100000*%
%TD*%
%TA.AperFunction,SMDPad,CuDef*%
%ADD19R,1.000000X0.500000*%
%TD*%
%TA.AperFunction,SMDPad,CuDef*%
%ADD20R,1.400000X1.300000*%
%TD*%
%TA.AperFunction,ViaPad*%
%ADD21C,0.800000*%
%TD*%
%TA.AperFunction,Conductor*%
%ADD22C,0.500000*%
%TD*%
%TA.AperFunction,Conductor*%
%ADD23C,0.400000*%
%TD*%
G04 APERTURE END LIST*
D10*
%TO.P,J3,1,Pin_1*%
%TO.N,I2C_SDA*%
X130700000Y-90625000D03*
D11*
%TO.P,J3,2,Pin_2*%
%TO.N,I2C_SCL*%
X130700000Y-88125000D03*
%TO.P,J3,3,Pin_3*%
%TO.N,+3.3V*%
X130700000Y-85525000D03*
%TO.P,J3,4,Pin_4*%
%TO.N,GND*%
X130700000Y-83025000D03*
%TD*%
D12*
%TO.P,TB1,1,P1*%
%TO.N,VIN1*%
X105357500Y-92112500D03*
D13*
%TO.P,TB1,2,P2*%
%TO.N,GND*%
X105357500Y-95922500D03*
%TD*%
D14*
%TO.P,SW1,1,1*%
%TO.N,SW1*%
X127000000Y-80250000D03*
%TO.P,SW1,2,2*%
%TO.N,GND*%
X122500000Y-80250000D03*
%TO.P,SW1,3*%
%TO.N,N/C*%
X127000000Y-86750000D03*
%TO.P,SW1,4*%
X122500000Y-86750000D03*
%TD*%
%TO.P,SW2,1,1*%
%TO.N,SW2*%
X127000000Y-89875000D03*
%TO.P,SW2,2,2*%
%TO.N,GND*%
X122500000Y-89875000D03*
%TO.P,SW2,3*%
%TO.N,N/C*%
X127000000Y-96375000D03*
%TO.P,SW2,4*%
X122500000Y-96375000D03*
%TD*%
D15*
%TO.P,U2,1,PA02_A0_D0*%
%TO.N,unconnected-(U2-PA02_A0_D0-Pad1)*%
X150100000Y-79260000D03*
D16*
%TO.P,U2,2,PA4_A1_D1*%
%TO.N,unconnected-(U2-PA4_A1_D1-Pad2)*%
X147560000Y-79260000D03*
%TO.P,U2,3,PA10_A2_D2*%
%TO.N,SW1*%
X145020000Y-79260000D03*
%TO.P,U2,4,PA11_A3_D3*%
%TO.N,SW2*%
X142480000Y-79260000D03*
%TO.P,U2,5,PA8_A4_D4_SDA*%
%TO.N,I2C_SDA*%
X139940000Y-79260000D03*
%TO.P,U2,6,PA9_A5_D5_SCL*%
%TO.N,I2C_SCL*%
X137400000Y-79260000D03*
%TO.P,U2,7,PB08_A6_D6_TX*%
%TO.N,OUT1*%
X134860000Y-79260000D03*
%TO.P,U2,8,PB09_A7_D7_RX*%
%TO.N,CS*%
X134860000Y-94500000D03*
%TO.P,U2,9,PA7_A8_D8_SCK*%
%TO.N,CLK*%
X137400000Y-94500000D03*
%TO.P,U2,10,PA5_A9_D9_MISO*%
%TO.N,DO*%
X139940000Y-94500000D03*
%TO.P,U2,11,PA6_A10_D10_MOSI*%
%TO.N,DI*%
X142480000Y-94500000D03*
%TO.P,U2,12,3V3*%
%TO.N,+3.3V*%
X145020000Y-94500000D03*
%TO.P,U2,13,GND*%
%TO.N,GND*%
X147560000Y-94500000D03*
%TO.P,U2,14,5V*%
%TO.N,+5V*%
X150100000Y-94500000D03*
%TD*%
D17*
%TO.P,J2,1,Pin_1*%
%TO.N,GND*%
X105357500Y-77680000D03*
D13*
%TO.P,J2,2,Pin_2*%
%TO.N,/DOUT1*%
X105357500Y-81340000D03*
D18*
%TO.P,J2,3,Pin_3*%
%TO.N,VOUT1*%
X105357500Y-85000000D03*
%TD*%
D19*
%TO.P,U5,1,DAT2*%
%TO.N,unconnected-(U5-DAT2-Pad1)*%
X146422456Y-90630013D03*
%TO.P,U5,2,CD/DAT3*%
%TO.N,CS*%
X146422456Y-89529936D03*
%TO.P,U5,3,CMD*%
%TO.N,DI*%
X146422456Y-88430114D03*
%TO.P,U5,4,VDD*%
%TO.N,+3.3V*%
X146422456Y-87680051D03*
%TO.P,U5,5,CLK*%
%TO.N,CLK*%
X146422456Y-86229962D03*
%TO.P,U5,6,VSS*%
%TO.N,GND*%
X146422456Y-85130140D03*
%TO.P,U5,7,DAT0*%
%TO.N,DO*%
X146422456Y-84030064D03*
%TO.P,U5,8,DAT1*%
%TO.N,unconnected-(U5-DAT1-Pad8)*%
X146422456Y-82929987D03*
%TO.P,U5,9,SWITCH*%
%TO.N,unconnected-(U5-SWITCH-Pad9)*%
X146422456Y-86980025D03*
D20*
%TO.P,U5,10,10*%
%TO.N,GND*%
X144687379Y-81680051D03*
%TO.P,U5,11,11*%
X140237544Y-81680051D03*
%TO.P,U5,12,12*%
X140237544Y-91879949D03*
%TO.P,U5,13,13*%
X144687379Y-91879949D03*
%TD*%
D21*
%TO.N,GND*%
X132450000Y-95810000D03*
X117750000Y-76875000D03*
X119035000Y-86297900D03*
X117400000Y-92700000D03*
X108000000Y-99000000D03*
X123340000Y-74390000D03*
X115900000Y-99000000D03*
X135575000Y-87800000D03*
X133375000Y-84025000D03*
X152200000Y-74400000D03*
X133525000Y-92575000D03*
X150700000Y-81900000D03*
X151900000Y-99200000D03*
X119475000Y-81000000D03*
X115550000Y-76875000D03*
X147050000Y-81900000D03*
X116650000Y-75875000D03*
X122340000Y-74390000D03*
X109750000Y-75325000D03*
X101000000Y-94500000D03*
X121250000Y-74450000D03*
X117750000Y-75875000D03*
X117875000Y-79500000D03*
X150600000Y-92600000D03*
X113700000Y-97300000D03*
X114200000Y-74200000D03*
X133025000Y-90725000D03*
X148400000Y-99100000D03*
X136075000Y-92525000D03*
X146290000Y-74175000D03*
X131310000Y-74310000D03*
X145300000Y-98900000D03*
X119500000Y-92600000D03*
X116600000Y-74200000D03*
X140250000Y-83500000D03*
X135253021Y-81850000D03*
X141000000Y-99000000D03*
X115550000Y-75875000D03*
X112000000Y-74200000D03*
X130120000Y-95930000D03*
X110700000Y-95500000D03*
X148450000Y-91175000D03*
X139145743Y-74175000D03*
X109650000Y-76675000D03*
X147000000Y-97900000D03*
X147650000Y-92625000D03*
X144850000Y-85150000D03*
X112100000Y-97100000D03*
X120743069Y-80933278D03*
X116300000Y-92700000D03*
X138050000Y-88525000D03*
X121000000Y-99000000D03*
X140350000Y-90225000D03*
X124675000Y-76025000D03*
X112080000Y-98970000D03*
X113100000Y-74200000D03*
X142625000Y-81900000D03*
X116875000Y-81000000D03*
X130160000Y-93130000D03*
X135000000Y-99000000D03*
X111300000Y-75250000D03*
X148400000Y-89450000D03*
X117875000Y-81000000D03*
X115400000Y-74200000D03*
X144700000Y-90000000D03*
X101000000Y-99000000D03*
X148075000Y-85125000D03*
X124800000Y-80200000D03*
X150700000Y-86600000D03*
X124340000Y-74390000D03*
X127000000Y-99000000D03*
X116650000Y-76875000D03*
X116875000Y-79500000D03*
X118400000Y-92700000D03*
%TO.N,VIN1*%
X112700000Y-90500000D03*
X113700000Y-90500000D03*
X111700000Y-93500000D03*
X114700000Y-92500000D03*
X114700000Y-89500000D03*
X110700000Y-93500000D03*
X112700000Y-89500000D03*
X110700000Y-90500000D03*
X111700000Y-89500000D03*
X112700000Y-93500000D03*
X109700000Y-89500000D03*
X113700000Y-89500000D03*
X113700000Y-93500000D03*
X109700000Y-93500000D03*
X114700000Y-93500000D03*
X110700000Y-89500000D03*
X114700000Y-91500000D03*
X114700000Y-90500000D03*
X109700000Y-91500000D03*
X109700000Y-90500000D03*
X111700000Y-90500000D03*
X109700000Y-92500000D03*
%TO.N,+3.3V*%
X147950000Y-87650000D03*
%TO.N,VOUT1*%
X114700000Y-86000000D03*
X114700000Y-85000000D03*
X111700000Y-84000000D03*
X110700000Y-84000000D03*
X114700000Y-84000000D03*
X114700000Y-87000000D03*
X109700000Y-85000000D03*
X111700000Y-88000000D03*
X113700000Y-84000000D03*
X109700000Y-86000000D03*
X110700000Y-88000000D03*
X112700000Y-88000000D03*
X109700000Y-88000000D03*
X109700000Y-87000000D03*
X110700000Y-87000000D03*
X114700000Y-88000000D03*
X109700000Y-84000000D03*
X113700000Y-87000000D03*
X112700000Y-84000000D03*
X112700000Y-87000000D03*
X111700000Y-87000000D03*
X113700000Y-88000000D03*
%TO.N,SW2*%
X125200000Y-82500000D03*
%TO.N,DO*%
X137675000Y-91400000D03*
%TD*%
D22*
%TO.N,+3.3V*%
X147919949Y-87680051D02*
X147950000Y-87650000D01*
X146422456Y-87680051D02*
X147919949Y-87680051D01*
D23*
%TO.N,I2C_SDA*%
X130850000Y-90625000D02*
X130700000Y-90625000D01*
X139940000Y-79260000D02*
X138250000Y-80950000D01*
X138250000Y-80950000D02*
X138250000Y-83225000D01*
X138250000Y-83225000D02*
X130850000Y-90625000D01*
%TO.N,I2C_SCL*%
X131300000Y-88125000D02*
X137400000Y-82025000D01*
X130700000Y-88125000D02*
X131300000Y-88125000D01*
X137400000Y-82025000D02*
X137400000Y-79260000D01*
%TO.N,SW2*%
X127000000Y-89850000D02*
X125200000Y-88050000D01*
X125200000Y-88050000D02*
X125200000Y-82500000D01*
%TO.N,DO*%
X137675000Y-90725000D02*
X137675000Y-91400000D01*
X146422456Y-84030064D02*
X144369936Y-84030064D01*
X144369936Y-84030064D02*
X137675000Y-90725000D01*
%TO.N,DI*%
X142480000Y-90395000D02*
X142480000Y-94500000D01*
X146422456Y-88430114D02*
X144444886Y-88430114D01*
X144444886Y-88430114D02*
X142480000Y-90395000D01*
%TO.N,CLK*%
X146422456Y-86229962D02*
X143018566Y-86229962D01*
X138750000Y-93150000D02*
X137400000Y-94500000D01*
X143018566Y-86229962D02*
X138750000Y-90498528D01*
X138750000Y-90498528D02*
X138750000Y-93150000D01*
%TO.N,CS*%
X146350000Y-96450000D02*
X136810000Y-96450000D01*
X146350000Y-92750000D02*
X146350000Y-96450000D01*
X147322456Y-89980013D02*
X147322456Y-91777544D01*
X136810000Y-96450000D02*
X134860000Y-94500000D01*
X146872379Y-89529936D02*
X147322456Y-89980013D01*
X146422456Y-89529936D02*
X146872379Y-89529936D01*
X147322456Y-91777544D02*
X146350000Y-92750000D01*
%TD*%
%TA.AperFunction,Conductor*%
%TO.N,GND*%
G36*
X145564995Y-86750147D02*
G01*
X145610750Y-86802951D01*
X145621956Y-86854462D01*
X145621956Y-87274881D01*
X145621958Y-87274905D01*
X145625945Y-87309281D01*
X145624184Y-87309485D01*
X145624185Y-87350592D01*
X145625946Y-87350797D01*
X145623080Y-87375500D01*
X145621956Y-87385186D01*
X145621956Y-87597219D01*
X145621957Y-87805614D01*
X145602273Y-87872653D01*
X145549469Y-87918408D01*
X145497957Y-87929614D01*
X144378993Y-87929614D01*
X144283429Y-87955220D01*
X144283428Y-87955219D01*
X144251701Y-87963721D01*
X144251700Y-87963721D01*
X144137572Y-88029614D01*
X144137569Y-88029616D01*
X142079502Y-90087683D01*
X142079500Y-90087686D01*
X142013608Y-90201812D01*
X141979500Y-90329108D01*
X141979500Y-93443909D01*
X141959815Y-93510948D01*
X141911801Y-93554391D01*
X141903212Y-93558767D01*
X141847386Y-93599328D01*
X141763072Y-93660586D01*
X141763070Y-93660588D01*
X141763069Y-93660588D01*
X141640588Y-93783069D01*
X141640588Y-93783070D01*
X141640586Y-93783072D01*
X141601936Y-93836269D01*
X141538768Y-93923211D01*
X141460128Y-94077552D01*
X141406597Y-94242302D01*
X141379500Y-94413389D01*
X141379500Y-94586610D01*
X141405934Y-94753512D01*
X141406598Y-94757701D01*
X141460127Y-94922445D01*
X141538768Y-95076788D01*
X141640586Y-95216928D01*
X141763072Y-95339414D01*
X141903212Y-95441232D01*
X142057555Y-95519873D01*
X142222299Y-95573402D01*
X142393389Y-95600500D01*
X142393390Y-95600500D01*
X142566610Y-95600500D01*
X142566611Y-95600500D01*
X142737701Y-95573402D01*
X142902445Y-95519873D01*
X143056788Y-95441232D01*
X143196928Y-95339414D01*
X143319414Y-95216928D01*
X143421232Y-95076788D01*
X143499873Y-94922445D01*
X143553402Y-94757701D01*
X143580500Y-94586611D01*
X143580500Y-94413389D01*
X143553402Y-94242299D01*
X143499873Y-94077555D01*
X143421232Y-93923212D01*
X143319414Y-93783072D01*
X143196928Y-93660586D01*
X143084862Y-93579165D01*
X143056787Y-93558767D01*
X143048199Y-93554391D01*
X142997406Y-93506414D01*
X142980500Y-93443909D01*
X142980500Y-92577793D01*
X143487379Y-92577793D01*
X143493780Y-92637321D01*
X143493782Y-92637328D01*
X143544024Y-92772035D01*
X143544028Y-92772042D01*
X143630188Y-92887136D01*
X143630191Y-92887139D01*
X143745285Y-92973299D01*
X143745292Y-92973303D01*
X143879999Y-93023545D01*
X143880006Y-93023547D01*
X143939534Y-93029948D01*
X143939551Y-93029949D01*
X144337379Y-93029949D01*
X144337379Y-92229949D01*
X143487379Y-92229949D01*
X143487379Y-92577793D01*
X142980500Y-92577793D01*
X142980500Y-91182104D01*
X143487379Y-91182104D01*
X143487379Y-91529949D01*
X144337379Y-91529949D01*
X144337379Y-90729949D01*
X143939534Y-90729949D01*
X143880006Y-90736350D01*
X143879999Y-90736352D01*
X143745292Y-90786594D01*
X143745285Y-90786598D01*
X143630191Y-90872758D01*
X143630188Y-90872761D01*
X143544028Y-90987855D01*
X143544024Y-90987862D01*
X143493782Y-91122569D01*
X143493780Y-91122576D01*
X143487379Y-91182104D01*
X142980500Y-91182104D01*
X142980500Y-90653676D01*
X143000185Y-90586637D01*
X143016819Y-90565995D01*
X144615881Y-88966933D01*
X144677204Y-88933448D01*
X144703562Y-88930614D01*
X145557907Y-88930614D01*
X145624946Y-88950299D01*
X145670701Y-89003103D01*
X145680645Y-89072261D01*
X145671341Y-89104701D01*
X145670250Y-89107170D01*
X145670250Y-89107171D01*
X145662824Y-89123990D01*
X145624871Y-89209942D01*
X145624871Y-89209944D01*
X145621956Y-89235067D01*
X145621956Y-89824792D01*
X145621958Y-89824818D01*
X145624869Y-89849923D01*
X145624871Y-89849927D01*
X145670249Y-89952700D01*
X145709842Y-89992293D01*
X145743327Y-90053616D01*
X145738343Y-90123308D01*
X145709843Y-90167654D01*
X145670250Y-90207246D01*
X145670250Y-90207247D01*
X145624871Y-90310019D01*
X145624871Y-90310021D01*
X145621956Y-90335144D01*
X145621956Y-90611980D01*
X145602271Y-90679019D01*
X145549467Y-90724774D01*
X145484701Y-90735270D01*
X145435207Y-90729949D01*
X145037379Y-90729949D01*
X145037379Y-91529949D01*
X145887379Y-91529949D01*
X145887379Y-91304512D01*
X145907064Y-91237473D01*
X145959868Y-91191718D01*
X146011375Y-91180512D01*
X146697956Y-91180512D01*
X146706641Y-91183062D01*
X146715603Y-91181774D01*
X146739643Y-91192752D01*
X146764995Y-91200197D01*
X146770922Y-91207037D01*
X146779159Y-91210799D01*
X146793448Y-91233033D01*
X146810750Y-91253001D01*
X146813037Y-91263515D01*
X146816933Y-91269577D01*
X146821956Y-91304512D01*
X146821956Y-91518868D01*
X146802271Y-91585907D01*
X146785637Y-91606549D01*
X146099060Y-92293126D01*
X146037737Y-92326611D01*
X145968045Y-92321627D01*
X145912112Y-92279755D01*
X145897197Y-92239767D01*
X145887379Y-92229949D01*
X145037379Y-92229949D01*
X145037379Y-93029949D01*
X145435207Y-93029949D01*
X145435223Y-93029948D01*
X145494751Y-93023547D01*
X145494758Y-93023545D01*
X145629465Y-92973303D01*
X145629468Y-92973301D01*
X145651188Y-92957042D01*
X145716652Y-92932624D01*
X145784925Y-92947475D01*
X145834331Y-92996879D01*
X145849500Y-93056308D01*
X145849500Y-93499010D01*
X145829815Y-93566049D01*
X145777011Y-93611804D01*
X145707853Y-93621748D01*
X145652615Y-93599328D01*
X145596791Y-93558770D01*
X145596790Y-93558769D01*
X145596788Y-93558768D01*
X145442445Y-93480127D01*
X145277701Y-93426598D01*
X145277699Y-93426597D01*
X145277698Y-93426597D01*
X145146271Y-93405781D01*
X145106611Y-93399500D01*
X144933389Y-93399500D01*
X144893728Y-93405781D01*
X144762302Y-93426597D01*
X144597552Y-93480128D01*
X144443211Y-93558768D01*
X144387386Y-93599328D01*
X144303072Y-93660586D01*
X144303070Y-93660588D01*
X144303069Y-93660588D01*
X144180588Y-93783069D01*
X144180588Y-93783070D01*
X144180586Y-93783072D01*
X144141936Y-93836269D01*
X144078768Y-93923211D01*
X144000128Y-94077552D01*
X143946597Y-94242302D01*
X143919500Y-94413389D01*
X143919500Y-94586610D01*
X143945934Y-94753512D01*
X143946598Y-94757701D01*
X144000127Y-94922445D01*
X144078768Y-95076788D01*
X144180586Y-95216928D01*
X144303072Y-95339414D01*
X144443212Y-95441232D01*
X144597555Y-95519873D01*
X144762299Y-95573402D01*
X144933389Y-95600500D01*
X144933390Y-95600500D01*
X145106610Y-95600500D01*
X145106611Y-95600500D01*
X145277701Y-95573402D01*
X145442445Y-95519873D01*
X145596788Y-95441232D01*
X145652614Y-95400672D01*
X145718420Y-95377191D01*
X145786474Y-95393016D01*
X145835169Y-95443121D01*
X145849500Y-95500989D01*
X145849500Y-95825500D01*
X145829815Y-95892539D01*
X145777011Y-95938294D01*
X145725500Y-95949500D01*
X137068676Y-95949500D01*
X137001637Y-95929815D01*
X136980995Y-95913181D01*
X136736274Y-95668460D01*
X136702789Y-95607137D01*
X136707773Y-95537445D01*
X136749645Y-95481512D01*
X136815109Y-95457095D01*
X136880249Y-95470293D01*
X136977555Y-95519873D01*
X137142299Y-95573402D01*
X137313389Y-95600500D01*
X137313390Y-95600500D01*
X137486610Y-95600500D01*
X137486611Y-95600500D01*
X137657701Y-95573402D01*
X137822445Y-95519873D01*
X137976788Y-95441232D01*
X138116928Y-95339414D01*
X138239414Y-95216928D01*
X138341232Y-95076788D01*
X138419873Y-94922445D01*
X138473402Y-94757701D01*
X138500500Y-94586611D01*
X138500500Y-94413389D01*
X138473402Y-94242299D01*
X138470424Y-94233136D01*
X138468428Y-94163298D01*
X138500672Y-94107139D01*
X138771544Y-93836267D01*
X138832865Y-93802784D01*
X138902557Y-93807768D01*
X138958490Y-93849640D01*
X138982907Y-93915104D01*
X138969708Y-93980244D01*
X138920129Y-94077549D01*
X138866597Y-94242302D01*
X138839500Y-94413389D01*
X138839500Y-94586610D01*
X138865934Y-94753512D01*
X138866598Y-94757701D01*
X138920127Y-94922445D01*
X138998768Y-95076788D01*
X139100586Y-95216928D01*
X139223072Y-95339414D01*
X139363212Y-95441232D01*
X139517555Y-95519873D01*
X139682299Y-95573402D01*
X139853389Y-95600500D01*
X139853390Y-95600500D01*
X140026610Y-95600500D01*
X140026611Y-95600500D01*
X140197701Y-95573402D01*
X140362445Y-95519873D01*
X140516788Y-95441232D01*
X140656928Y-95339414D01*
X140779414Y-95216928D01*
X140881232Y-95076788D01*
X140959873Y-94922445D01*
X141013402Y-94757701D01*
X141040500Y-94586611D01*
X141040500Y-94413389D01*
X141013402Y-94242299D01*
X140959873Y-94077555D01*
X140881232Y-93923212D01*
X140779414Y-93783072D01*
X140656928Y-93660586D01*
X140516788Y-93558768D01*
X140362445Y-93480127D01*
X140197701Y-93426598D01*
X140197699Y-93426597D01*
X140197698Y-93426597D01*
X140066271Y-93405781D01*
X140026611Y-93399500D01*
X139853389Y-93399500D01*
X139813728Y-93405781D01*
X139682302Y-93426597D01*
X139517552Y-93480128D01*
X139363206Y-93558771D01*
X139359684Y-93560929D01*
X139292236Y-93579165D01*
X139225636Y-93558042D01*
X139181029Y-93504265D01*
X139172577Y-93434908D01*
X139187518Y-93393196D01*
X139216392Y-93343186D01*
X139250500Y-93215892D01*
X139250500Y-93135128D01*
X139270185Y-93068089D01*
X139322989Y-93022334D01*
X139392147Y-93012390D01*
X139417836Y-93018947D01*
X139430166Y-93023546D01*
X139430171Y-93023547D01*
X139489699Y-93029948D01*
X139489716Y-93029949D01*
X139887544Y-93029949D01*
X140587544Y-93029949D01*
X140985372Y-93029949D01*
X140985388Y-93029948D01*
X141044916Y-93023547D01*
X141044923Y-93023545D01*
X141179630Y-92973303D01*
X141179637Y-92973299D01*
X141294731Y-92887139D01*
X141294734Y-92887136D01*
X141380894Y-92772042D01*
X141380898Y-92772035D01*
X141431140Y-92637328D01*
X141431142Y-92637321D01*
X141437543Y-92577793D01*
X141437544Y-92577776D01*
X141437544Y-92229949D01*
X140587544Y-92229949D01*
X140587544Y-93029949D01*
X139887544Y-93029949D01*
X139887544Y-91529949D01*
X140587544Y-91529949D01*
X141437544Y-91529949D01*
X141437544Y-91182121D01*
X141437543Y-91182104D01*
X141431142Y-91122576D01*
X141431140Y-91122569D01*
X141380898Y-90987862D01*
X141380894Y-90987855D01*
X141294734Y-90872761D01*
X141294731Y-90872758D01*
X141179637Y-90786598D01*
X141179630Y-90786594D01*
X141044923Y-90736352D01*
X141044916Y-90736350D01*
X140985388Y-90729949D01*
X140587544Y-90729949D01*
X140587544Y-91529949D01*
X139887544Y-91529949D01*
X139887544Y-90729949D01*
X139525755Y-90729949D01*
X139458716Y-90710264D01*
X139412961Y-90657460D01*
X139403017Y-90588302D01*
X139432042Y-90524746D01*
X139438074Y-90518268D01*
X143189561Y-86766781D01*
X143250884Y-86733296D01*
X143277242Y-86730462D01*
X145497956Y-86730462D01*
X145564995Y-86750147D01*
G37*
%TD.AperFunction*%
%TA.AperFunction,Conductor*%
G36*
X152942539Y-73620185D02*
G01*
X152988294Y-73672989D01*
X152999500Y-73724500D01*
X152999500Y-99975500D01*
X152979815Y-100042539D01*
X152927011Y-100088294D01*
X152875500Y-100099500D01*
X99624500Y-100099500D01*
X99557461Y-100079815D01*
X99511706Y-100027011D01*
X99500500Y-99975500D01*
X99500500Y-83624000D01*
X102794500Y-83624000D01*
X102794500Y-88376000D01*
X102794501Y-88376009D01*
X102806052Y-88483450D01*
X102806054Y-88483462D01*
X102817260Y-88534972D01*
X102851383Y-88637497D01*
X102851386Y-88637503D01*
X102878964Y-88680414D01*
X102898649Y-88747453D01*
X102887443Y-88798966D01*
X102834664Y-88914534D01*
X102814976Y-88981582D01*
X102809949Y-89016549D01*
X102794500Y-89124000D01*
X102794500Y-93876000D01*
X102794501Y-93876009D01*
X102806052Y-93983450D01*
X102806054Y-93983462D01*
X102817260Y-94034972D01*
X102851383Y-94137497D01*
X102851386Y-94137503D01*
X102929171Y-94258537D01*
X102929179Y-94258548D01*
X102974923Y-94311340D01*
X102974926Y-94311343D01*
X102974930Y-94311347D01*
X103083664Y-94405567D01*
X103083667Y-94405568D01*
X103083668Y-94405569D01*
X103177925Y-94448616D01*
X103214541Y-94465338D01*
X103281580Y-94485023D01*
X103281584Y-94485024D01*
X103424000Y-94505500D01*
X103424003Y-94505500D01*
X103644378Y-94505500D01*
X103711417Y-94525185D01*
X103757172Y-94577989D01*
X103767116Y-94647147D01*
X103738091Y-94710703D01*
X103717264Y-94729818D01*
X103545458Y-94854642D01*
X103389642Y-95010458D01*
X103260113Y-95188739D01*
X103160067Y-95385089D01*
X103099175Y-95572499D01*
X103099175Y-95572500D01*
X104866753Y-95572500D01*
X104798389Y-95690909D01*
X104757500Y-95843509D01*
X104757500Y-96001491D01*
X104798389Y-96154091D01*
X104866753Y-96272500D01*
X103099175Y-96272500D01*
X103160067Y-96459910D01*
X103260113Y-96656260D01*
X103389642Y-96834541D01*
X103545458Y-96990357D01*
X103723739Y-97119886D01*
X103920089Y-97219932D01*
X104129664Y-97288026D01*
X104347319Y-97322500D01*
X105007500Y-97322500D01*
X105007500Y-96413246D01*
X105125909Y-96481611D01*
X105278509Y-96522500D01*
X105436491Y-96522500D01*
X105589091Y-96481611D01*
X105707500Y-96413246D01*
X105707500Y-97322500D01*
X106367681Y-97322500D01*
X106585335Y-97288026D01*
X106794910Y-97219932D01*
X106991260Y-97119886D01*
X107169541Y-96990357D01*
X107325357Y-96834541D01*
X107454886Y-96656260D01*
X107554932Y-96459910D01*
X107615777Y-96272648D01*
X121199500Y-96272648D01*
X121199500Y-96477351D01*
X121231522Y-96679534D01*
X121294781Y-96874223D01*
X121387715Y-97056613D01*
X121508028Y-97222213D01*
X121652786Y-97366971D01*
X121807749Y-97479556D01*
X121818390Y-97487287D01*
X121934607Y-97546503D01*
X122000776Y-97580218D01*
X122000778Y-97580218D01*
X122000781Y-97580220D01*
X122105137Y-97614127D01*
X122195465Y-97643477D01*
X122296557Y-97659488D01*
X122397648Y-97675500D01*
X122397649Y-97675500D01*
X122602351Y-97675500D01*
X122602352Y-97675500D01*
X122804534Y-97643477D01*
X122999219Y-97580220D01*
X123181610Y-97487287D01*
X123274590Y-97419732D01*
X123347213Y-97366971D01*
X123347215Y-97366968D01*
X123347219Y-97366966D01*
X123491966Y-97222219D01*
X123491968Y-97222215D01*
X123491971Y-97222213D01*
X123544732Y-97149590D01*
X123612287Y-97056610D01*
X123705220Y-96874219D01*
X123768477Y-96679534D01*
X123800500Y-96477352D01*
X123800500Y-96272648D01*
X125699500Y-96272648D01*
X125699500Y-96477351D01*
X125731522Y-96679534D01*
X125794781Y-96874223D01*
X125887715Y-97056613D01*
X126008028Y-97222213D01*
X126152786Y-97366971D01*
X126307749Y-97479556D01*
X126318390Y-97487287D01*
X126434607Y-97546503D01*
X126500776Y-97580218D01*
X126500778Y-97580218D01*
X126500781Y-97580220D01*
X126605137Y-97614127D01*
X126695465Y-97643477D01*
X126796557Y-97659488D01*
X126897648Y-97675500D01*
X126897649Y-97675500D01*
X127102351Y-97675500D01*
X127102352Y-97675500D01*
X127304534Y-97643477D01*
X127499219Y-97580220D01*
X127681610Y-97487287D01*
X127774590Y-97419732D01*
X127847213Y-97366971D01*
X127847215Y-97366968D01*
X127847219Y-97366966D01*
X127991966Y-97222219D01*
X127991968Y-97222215D01*
X127991971Y-97222213D01*
X128044732Y-97149590D01*
X128112287Y-97056610D01*
X128205220Y-96874219D01*
X128268477Y-96679534D01*
X128300500Y-96477352D01*
X128300500Y-96272648D01*
X128268477Y-96070466D01*
X128205220Y-95875781D01*
X128205218Y-95875778D01*
X128205218Y-95875776D01*
X128166539Y-95799865D01*
X128112287Y-95693390D01*
X128100471Y-95677127D01*
X127991971Y-95527786D01*
X127847213Y-95383028D01*
X127681613Y-95262715D01*
X127681612Y-95262714D01*
X127681610Y-95262713D01*
X127624653Y-95233691D01*
X127499223Y-95169781D01*
X127304534Y-95106522D01*
X127129995Y-95078878D01*
X127102352Y-95074500D01*
X126897648Y-95074500D01*
X126873329Y-95078351D01*
X126695465Y-95106522D01*
X126500776Y-95169781D01*
X126318386Y-95262715D01*
X126152786Y-95383028D01*
X126008028Y-95527786D01*
X125887715Y-95693386D01*
X125794781Y-95875776D01*
X125731522Y-96070465D01*
X125699500Y-96272648D01*
X123800500Y-96272648D01*
X123768477Y-96070466D01*
X123705220Y-95875781D01*
X123705218Y-95875778D01*
X123705218Y-95875776D01*
X123666539Y-95799865D01*
X123612287Y-95693390D01*
X123600471Y-95677127D01*
X123491971Y-95527786D01*
X123347213Y-95383028D01*
X123181613Y-95262715D01*
X123181612Y-95262714D01*
X123181610Y-95262713D01*
X123124653Y-95233691D01*
X122999223Y-95169781D01*
X122804534Y-95106522D01*
X122629995Y-95078878D01*
X122602352Y-95074500D01*
X122397648Y-95074500D01*
X122373329Y-95078351D01*
X122195465Y-95106522D01*
X122000776Y-95169781D01*
X121818386Y-95262715D01*
X121652786Y-95383028D01*
X121508028Y-95527786D01*
X121387715Y-95693386D01*
X121294781Y-95875776D01*
X121231522Y-96070465D01*
X121199500Y-96272648D01*
X107615777Y-96272648D01*
X107615825Y-96272500D01*
X105848247Y-96272500D01*
X105916611Y-96154091D01*
X105957500Y-96001491D01*
X105957500Y-95843509D01*
X105916611Y-95690909D01*
X105848247Y-95572500D01*
X107615825Y-95572500D01*
X107615824Y-95572499D01*
X107554932Y-95385089D01*
X107454886Y-95188739D01*
X107325357Y-95010458D01*
X107169541Y-94854642D01*
X106997736Y-94729818D01*
X106955071Y-94674488D01*
X106949092Y-94604875D01*
X106981698Y-94543080D01*
X107042537Y-94508722D01*
X107070622Y-94505500D01*
X115075990Y-94505500D01*
X115076000Y-94505500D01*
X115183456Y-94493947D01*
X115234967Y-94482741D01*
X115269197Y-94471347D01*
X115337497Y-94448616D01*
X115337501Y-94448613D01*
X115337504Y-94448613D01*
X115392313Y-94413389D01*
X133759500Y-94413389D01*
X133759500Y-94586610D01*
X133785934Y-94753512D01*
X133786598Y-94757701D01*
X133840127Y-94922445D01*
X133918768Y-95076788D01*
X134020586Y-95216928D01*
X134143072Y-95339414D01*
X134283212Y-95441232D01*
X134437555Y-95519873D01*
X134602299Y-95573402D01*
X134773389Y-95600500D01*
X134773390Y-95600500D01*
X134946610Y-95600500D01*
X134946611Y-95600500D01*
X135117701Y-95573402D01*
X135126859Y-95570425D01*
X135196700Y-95568429D01*
X135252861Y-95600675D01*
X136409500Y-96757314D01*
X136502686Y-96850500D01*
X136616814Y-96916392D01*
X136744107Y-96950500D01*
X136744108Y-96950500D01*
X136744109Y-96950500D01*
X146415890Y-96950500D01*
X146415892Y-96950500D01*
X146543186Y-96916392D01*
X146657314Y-96850500D01*
X146750500Y-96757314D01*
X146816392Y-96643186D01*
X146850500Y-96515892D01*
X146850500Y-95799865D01*
X146870185Y-95732826D01*
X146922989Y-95687071D01*
X146992147Y-95677127D01*
X147030797Y-95689381D01*
X147060969Y-95704755D01*
X147255582Y-95767990D01*
X147457683Y-95800000D01*
X147662317Y-95800000D01*
X147864417Y-95767990D01*
X148059031Y-95704755D01*
X148198643Y-95633618D01*
X147565025Y-95000000D01*
X147625826Y-95000000D01*
X147752993Y-94965925D01*
X147867007Y-94900099D01*
X147960099Y-94807007D01*
X148025925Y-94692993D01*
X148060000Y-94565826D01*
X148060000Y-94505025D01*
X148693618Y-95138643D01*
X148764755Y-94999029D01*
X148816952Y-94838386D01*
X148856389Y-94780710D01*
X148920748Y-94753512D01*
X148989594Y-94765427D01*
X149041070Y-94812671D01*
X149052814Y-94838385D01*
X149080128Y-94922449D01*
X149124971Y-95010458D01*
X149158768Y-95076788D01*
X149260586Y-95216928D01*
X149383072Y-95339414D01*
X149523212Y-95441232D01*
X149677555Y-95519873D01*
X149842299Y-95573402D01*
X150013389Y-95600500D01*
X150013390Y-95600500D01*
X150186610Y-95600500D01*
X150186611Y-95600500D01*
X150357701Y-95573402D01*
X150522445Y-95519873D01*
X150676788Y-95441232D01*
X150816928Y-95339414D01*
X150939414Y-95216928D01*
X151041232Y-95076788D01*
X151119873Y-94922445D01*
X151173402Y-94757701D01*
X151200500Y-94586611D01*
X151200500Y-94413389D01*
X151173402Y-94242299D01*
X151119873Y-94077555D01*
X151041232Y-93923212D01*
X150939414Y-93783072D01*
X150816928Y-93660586D01*
X150676788Y-93558768D01*
X150522445Y-93480127D01*
X150357701Y-93426598D01*
X150357699Y-93426597D01*
X150357698Y-93426597D01*
X150226271Y-93405781D01*
X150186611Y-93399500D01*
X150013389Y-93399500D01*
X149973728Y-93405781D01*
X149842302Y-93426597D01*
X149677552Y-93480128D01*
X149523211Y-93558768D01*
X149467386Y-93599328D01*
X149383072Y-93660586D01*
X149383070Y-93660588D01*
X149383069Y-93660588D01*
X149260588Y-93783069D01*
X149260588Y-93783070D01*
X149260586Y-93783072D01*
X149221936Y-93836269D01*
X149158768Y-93923211D01*
X149080129Y-94077549D01*
X149052814Y-94161615D01*
X149013375Y-94219290D01*
X148949016Y-94246487D01*
X148880170Y-94234572D01*
X148828695Y-94187327D01*
X148816952Y-94161613D01*
X148764757Y-94000975D01*
X148764753Y-94000965D01*
X148693619Y-93861354D01*
X148060000Y-94494973D01*
X148060000Y-94434174D01*
X148025925Y-94307007D01*
X147960099Y-94192993D01*
X147867007Y-94099901D01*
X147752993Y-94034075D01*
X147625826Y-94000000D01*
X147565024Y-94000000D01*
X148198644Y-93366379D01*
X148059024Y-93295241D01*
X147864419Y-93232010D01*
X147662317Y-93200000D01*
X147457683Y-93200000D01*
X147255582Y-93232009D01*
X147060965Y-93295245D01*
X147030794Y-93310619D01*
X147028089Y-93311126D01*
X147026011Y-93312928D01*
X146993957Y-93317536D01*
X146962125Y-93323515D01*
X146959576Y-93322480D01*
X146956853Y-93322872D01*
X146927387Y-93309415D01*
X146897385Y-93297238D01*
X146895800Y-93294990D01*
X146893297Y-93293847D01*
X146875781Y-93266592D01*
X146857128Y-93240131D01*
X146856555Y-93236675D01*
X146855523Y-93235069D01*
X146850500Y-93200134D01*
X146850500Y-93008676D01*
X146870185Y-92941637D01*
X146886819Y-92920995D01*
X147722952Y-92084862D01*
X147722955Y-92084859D01*
X147746480Y-92044114D01*
X147788848Y-91970730D01*
X147807666Y-91900500D01*
X147822956Y-91843437D01*
X147822956Y-91711652D01*
X147822956Y-89914121D01*
X147788848Y-89786827D01*
X147722956Y-89672699D01*
X147629770Y-89579513D01*
X147204678Y-89154421D01*
X147195591Y-89144276D01*
X147185464Y-89131638D01*
X147174662Y-89107171D01*
X147130375Y-89062884D01*
X147126110Y-89057561D01*
X147115318Y-89031301D01*
X147101712Y-89006383D01*
X147102210Y-88999406D01*
X147099552Y-88992936D01*
X147104670Y-88965009D01*
X147106696Y-88936691D01*
X147111124Y-88929800D01*
X147112149Y-88924211D01*
X147120337Y-88915464D01*
X147135197Y-88892344D01*
X147153047Y-88874494D01*
X147174662Y-88852879D01*
X147220041Y-88750105D01*
X147222956Y-88724979D01*
X147222955Y-88354550D01*
X147225505Y-88345864D01*
X147224217Y-88336904D01*
X147235194Y-88312867D01*
X147242639Y-88287512D01*
X147249481Y-88281583D01*
X147253242Y-88273348D01*
X147275473Y-88259061D01*
X147295443Y-88241757D01*
X147305958Y-88239469D01*
X147312020Y-88235574D01*
X147346955Y-88230551D01*
X147520375Y-88230551D01*
X147587414Y-88250236D01*
X147589257Y-88251443D01*
X147618189Y-88270775D01*
X147618190Y-88270775D01*
X147618191Y-88270776D01*
X147618193Y-88270777D01*
X147700825Y-88305004D01*
X147745672Y-88323580D01*
X147745676Y-88323580D01*
X147745677Y-88323581D01*
X147881004Y-88350500D01*
X147881007Y-88350500D01*
X148018995Y-88350500D01*
X148110041Y-88332389D01*
X148154328Y-88323580D01*
X148281811Y-88270775D01*
X148396542Y-88194114D01*
X148494114Y-88096542D01*
X148570775Y-87981811D01*
X148623580Y-87854328D01*
X148636112Y-87791324D01*
X148650500Y-87718995D01*
X148650500Y-87581004D01*
X148623581Y-87445677D01*
X148623580Y-87445676D01*
X148623580Y-87445672D01*
X148598526Y-87385186D01*
X148570778Y-87318195D01*
X148570771Y-87318182D01*
X148494114Y-87203458D01*
X148494111Y-87203454D01*
X148396545Y-87105888D01*
X148396541Y-87105885D01*
X148281817Y-87029228D01*
X148281804Y-87029221D01*
X148154332Y-86976421D01*
X148154322Y-86976418D01*
X148018995Y-86949500D01*
X148018993Y-86949500D01*
X147881007Y-86949500D01*
X147881005Y-86949500D01*
X147745677Y-86976418D01*
X147745667Y-86976421D01*
X147618195Y-87029221D01*
X147618182Y-87029228D01*
X147499316Y-87108653D01*
X147481269Y-87114303D01*
X147465360Y-87124528D01*
X147434398Y-87128979D01*
X147432638Y-87129531D01*
X147430425Y-87129551D01*
X147346956Y-87129551D01*
X147279917Y-87109866D01*
X147234162Y-87057062D01*
X147222956Y-87005551D01*
X147222955Y-86685168D01*
X147222955Y-86685161D01*
X147220041Y-86660034D01*
X147217854Y-86655081D01*
X147208780Y-86585809D01*
X147217855Y-86554901D01*
X147220041Y-86549953D01*
X147222956Y-86524827D01*
X147222955Y-85935098D01*
X147222953Y-85935079D01*
X147220042Y-85909974D01*
X147220041Y-85909973D01*
X147220041Y-85909971D01*
X147217400Y-85903991D01*
X147208328Y-85834715D01*
X147238150Y-85771529D01*
X147256524Y-85754637D01*
X147279643Y-85737330D01*
X147279646Y-85737326D01*
X147365808Y-85622228D01*
X147365810Y-85622226D01*
X147416052Y-85487519D01*
X147416054Y-85487512D01*
X147422455Y-85427984D01*
X147422456Y-85427967D01*
X147422456Y-85380140D01*
X145422456Y-85380140D01*
X145422456Y-85427984D01*
X145428857Y-85487512D01*
X145428858Y-85487516D01*
X145456687Y-85562128D01*
X145461671Y-85631820D01*
X145428186Y-85693143D01*
X145366863Y-85726628D01*
X145340505Y-85729462D01*
X143677713Y-85729462D01*
X143610674Y-85709777D01*
X143564919Y-85656973D01*
X143554975Y-85587815D01*
X143584000Y-85524259D01*
X143590032Y-85517781D01*
X144540930Y-84566883D01*
X144602253Y-84533398D01*
X144628611Y-84530564D01*
X145340599Y-84530564D01*
X145407638Y-84550249D01*
X145453393Y-84603053D01*
X145463337Y-84672211D01*
X145456781Y-84697897D01*
X145428859Y-84772759D01*
X145428857Y-84772767D01*
X145422456Y-84832295D01*
X145422456Y-84880140D01*
X147422456Y-84880140D01*
X147422456Y-84832312D01*
X147422455Y-84832295D01*
X147416054Y-84772767D01*
X147416052Y-84772760D01*
X147365810Y-84638053D01*
X147365806Y-84638046D01*
X147279647Y-84522954D01*
X147279642Y-84522949D01*
X147256439Y-84505579D01*
X147214568Y-84449645D01*
X147209584Y-84379953D01*
X147217314Y-84356230D01*
X147220041Y-84350055D01*
X147222956Y-84324929D01*
X147222955Y-83735200D01*
X147222953Y-83735181D01*
X147220042Y-83710076D01*
X147220041Y-83710074D01*
X147220041Y-83710073D01*
X147174662Y-83607299D01*
X147135069Y-83567706D01*
X147101584Y-83506383D01*
X147106568Y-83436691D01*
X147135068Y-83392345D01*
X147174662Y-83352752D01*
X147220041Y-83249978D01*
X147222956Y-83224852D01*
X147222955Y-82635123D01*
X147221770Y-82624901D01*
X147220042Y-82609999D01*
X147220041Y-82609997D01*
X147220041Y-82609996D01*
X147174662Y-82507222D01*
X147095221Y-82427781D01*
X146992448Y-82382402D01*
X146967324Y-82379487D01*
X146011379Y-82379487D01*
X145944340Y-82359802D01*
X145898585Y-82306998D01*
X145887379Y-82255487D01*
X145887379Y-82030051D01*
X145037379Y-82030051D01*
X145037379Y-82830051D01*
X145435207Y-82830051D01*
X145435220Y-82830050D01*
X145484699Y-82824730D01*
X145553459Y-82837134D01*
X145604597Y-82884744D01*
X145621956Y-82948019D01*
X145621956Y-83224843D01*
X145621958Y-83224869D01*
X145624869Y-83249974D01*
X145624870Y-83249975D01*
X145624870Y-83249977D01*
X145624871Y-83249978D01*
X145670250Y-83352752D01*
X145670251Y-83352753D01*
X145671454Y-83355477D01*
X145680526Y-83424756D01*
X145650703Y-83487941D01*
X145591453Y-83524972D01*
X145558020Y-83529564D01*
X144304043Y-83529564D01*
X144176748Y-83563672D01*
X144062622Y-83629564D01*
X144062619Y-83629566D01*
X143982114Y-83710072D01*
X143969436Y-83722750D01*
X143969434Y-83722752D01*
X140662958Y-87029228D01*
X137350245Y-90341940D01*
X137350244Y-90341940D01*
X137350245Y-90341941D01*
X137274500Y-90417686D01*
X137208608Y-90531812D01*
X137174500Y-90659108D01*
X137174500Y-90858481D01*
X137154815Y-90925520D01*
X137138181Y-90946162D01*
X137130888Y-90953454D01*
X137130885Y-90953458D01*
X137054228Y-91068182D01*
X137054221Y-91068195D01*
X137001421Y-91195667D01*
X137001418Y-91195677D01*
X136974500Y-91331004D01*
X136974500Y-91331007D01*
X136974500Y-91468993D01*
X136974500Y-91468995D01*
X136974499Y-91468995D01*
X137001418Y-91604322D01*
X137001421Y-91604332D01*
X137054221Y-91731804D01*
X137054228Y-91731817D01*
X137130885Y-91846541D01*
X137130888Y-91846545D01*
X137228454Y-91944111D01*
X137228458Y-91944114D01*
X137343182Y-92020771D01*
X137343195Y-92020778D01*
X137470667Y-92073578D01*
X137470672Y-92073580D01*
X137470676Y-92073580D01*
X137470677Y-92073581D01*
X137606004Y-92100500D01*
X137606007Y-92100500D01*
X137743995Y-92100500D01*
X137835041Y-92082389D01*
X137879328Y-92073580D01*
X138006811Y-92020775D01*
X138056609Y-91987500D01*
X138123286Y-91966623D01*
X138190666Y-91985107D01*
X138237356Y-92037085D01*
X138249500Y-92090603D01*
X138249500Y-92891324D01*
X138229815Y-92958363D01*
X138213181Y-92979005D01*
X137792861Y-93399324D01*
X137731538Y-93432809D01*
X137666869Y-93429576D01*
X137657704Y-93426599D01*
X137657698Y-93426597D01*
X137526271Y-93405781D01*
X137486611Y-93399500D01*
X137313389Y-93399500D01*
X137273728Y-93405781D01*
X137142302Y-93426597D01*
X136977552Y-93480128D01*
X136823211Y-93558768D01*
X136767386Y-93599328D01*
X136683072Y-93660586D01*
X136683070Y-93660588D01*
X136683069Y-93660588D01*
X136560588Y-93783069D01*
X136560588Y-93783070D01*
X136560586Y-93783072D01*
X136521936Y-93836269D01*
X136458768Y-93923211D01*
X136380128Y-94077552D01*
X136326597Y-94242302D01*
X136299500Y-94413389D01*
X136299500Y-94586610D01*
X136325934Y-94753512D01*
X136326598Y-94757701D01*
X136372866Y-94900099D01*
X136380129Y-94922450D01*
X136429705Y-95019750D01*
X136442601Y-95088419D01*
X136416324Y-95153159D01*
X136359218Y-95193416D01*
X136289412Y-95196408D01*
X136231539Y-95163725D01*
X135960675Y-94892861D01*
X135927190Y-94831538D01*
X135930426Y-94766859D01*
X135933402Y-94757701D01*
X135960500Y-94586611D01*
X135960500Y-94413389D01*
X135933402Y-94242299D01*
X135879873Y-94077555D01*
X135801232Y-93923212D01*
X135699414Y-93783072D01*
X135576928Y-93660586D01*
X135436788Y-93558768D01*
X135282445Y-93480127D01*
X135117701Y-93426598D01*
X135117699Y-93426597D01*
X135117698Y-93426597D01*
X134986271Y-93405781D01*
X134946611Y-93399500D01*
X134773389Y-93399500D01*
X134733728Y-93405781D01*
X134602302Y-93426597D01*
X134437552Y-93480128D01*
X134283211Y-93558768D01*
X134227386Y-93599328D01*
X134143072Y-93660586D01*
X134143070Y-93660588D01*
X134143069Y-93660588D01*
X134020588Y-93783069D01*
X134020588Y-93783070D01*
X134020586Y-93783072D01*
X133981936Y-93836269D01*
X133918768Y-93923211D01*
X133840128Y-94077552D01*
X133786597Y-94242302D01*
X133759500Y-94413389D01*
X115392313Y-94413389D01*
X115458543Y-94370825D01*
X115511347Y-94325070D01*
X115605567Y-94216336D01*
X115665338Y-94085459D01*
X115685023Y-94018420D01*
X115685024Y-94018416D01*
X115705500Y-93876000D01*
X115705500Y-89756947D01*
X121000000Y-89756947D01*
X121000000Y-89993052D01*
X121036934Y-90226247D01*
X121109897Y-90450802D01*
X121217089Y-90661178D01*
X121217827Y-90662195D01*
X121217830Y-90662195D01*
X121950000Y-89930025D01*
X121950000Y-89947409D01*
X121987482Y-90087292D01*
X122059890Y-90212708D01*
X122162292Y-90315110D01*
X122287708Y-90387518D01*
X122427591Y-90425000D01*
X122444974Y-90425000D01*
X121712803Y-91157170D01*
X121713828Y-91157914D01*
X121924197Y-91265102D01*
X122148752Y-91338065D01*
X122148751Y-91338065D01*
X122381948Y-91375000D01*
X122618052Y-91375000D01*
X122851247Y-91338065D01*
X123075802Y-91265102D01*
X123286171Y-91157914D01*
X123286175Y-91157911D01*
X123287195Y-91157170D01*
X123287195Y-91157168D01*
X122555026Y-90425000D01*
X122572409Y-90425000D01*
X122712292Y-90387518D01*
X122837708Y-90315110D01*
X122940110Y-90212708D01*
X123012518Y-90087292D01*
X123050000Y-89947409D01*
X123050000Y-89930027D01*
X123782168Y-90662195D01*
X123782170Y-90662195D01*
X123782911Y-90661175D01*
X123782914Y-90661171D01*
X123890102Y-90450802D01*
X123963065Y-90226247D01*
X124000000Y-89993052D01*
X124000000Y-89756947D01*
X123963065Y-89523752D01*
X123890102Y-89299197D01*
X123782914Y-89088828D01*
X123782170Y-89087803D01*
X123050000Y-89819973D01*
X123050000Y-89802591D01*
X123012518Y-89662708D01*
X122940110Y-89537292D01*
X122837708Y-89434890D01*
X122712292Y-89362482D01*
X122572409Y-89325000D01*
X122555027Y-89325000D01*
X123287195Y-88592830D01*
X123287195Y-88592827D01*
X123286178Y-88592089D01*
X123075802Y-88484897D01*
X122851247Y-88411934D01*
X122851248Y-88411934D01*
X122618052Y-88375000D01*
X122381948Y-88375000D01*
X122148752Y-88411934D01*
X121924197Y-88484897D01*
X121713833Y-88592083D01*
X121713830Y-88592084D01*
X121712803Y-88592829D01*
X122444974Y-89325000D01*
X122427591Y-89325000D01*
X122287708Y-89362482D01*
X122162292Y-89434890D01*
X122059890Y-89537292D01*
X121987482Y-89662708D01*
X121950000Y-89802591D01*
X121950000Y-89819974D01*
X121217829Y-89087803D01*
X121217084Y-89088830D01*
X121217083Y-89088833D01*
X121109897Y-89299197D01*
X121036934Y-89523752D01*
X121000000Y-89756947D01*
X115705500Y-89756947D01*
X115705500Y-89124000D01*
X115693947Y-89016544D01*
X115682741Y-88965033D01*
X115673308Y-88936691D01*
X115648615Y-88862499D01*
X115621035Y-88819585D01*
X115618483Y-88810896D01*
X115612555Y-88804054D01*
X115608794Y-88777898D01*
X115601350Y-88752545D01*
X115603637Y-88742028D01*
X115602612Y-88734895D01*
X115612554Y-88701035D01*
X115665338Y-88585459D01*
X115685023Y-88518420D01*
X115685024Y-88518416D01*
X115705500Y-88376000D01*
X115705500Y-86647648D01*
X121199500Y-86647648D01*
X121199500Y-86852351D01*
X121231522Y-87054534D01*
X121294781Y-87249223D01*
X121387715Y-87431613D01*
X121508028Y-87597213D01*
X121652786Y-87741971D01*
X121791411Y-87842686D01*
X121818390Y-87862287D01*
X121929886Y-87919097D01*
X122000776Y-87955218D01*
X122000778Y-87955218D01*
X122000781Y-87955220D01*
X122082598Y-87981804D01*
X122195465Y-88018477D01*
X122296301Y-88034448D01*
X122397648Y-88050500D01*
X122397649Y-88050500D01*
X122602351Y-88050500D01*
X122602352Y-88050500D01*
X122804534Y-88018477D01*
X122999219Y-87955220D01*
X123181610Y-87862287D01*
X123279283Y-87791324D01*
X123347213Y-87741971D01*
X123347215Y-87741968D01*
X123347219Y-87741966D01*
X123491966Y-87597219D01*
X123491968Y-87597215D01*
X123491971Y-87597213D01*
X123575181Y-87482682D01*
X123612287Y-87431610D01*
X123705220Y-87249219D01*
X123768477Y-87054534D01*
X123800500Y-86852352D01*
X123800500Y-86647648D01*
X123768477Y-86445466D01*
X123754535Y-86402558D01*
X123705218Y-86250776D01*
X123642658Y-86127997D01*
X123612287Y-86068390D01*
X123575181Y-86017317D01*
X123491971Y-85902786D01*
X123347213Y-85758028D01*
X123181613Y-85637715D01*
X123181612Y-85637714D01*
X123181610Y-85637713D01*
X123083680Y-85587815D01*
X122999223Y-85544781D01*
X122804534Y-85481522D01*
X122629995Y-85453878D01*
X122602352Y-85449500D01*
X122397648Y-85449500D01*
X122373329Y-85453351D01*
X122195465Y-85481522D01*
X122000776Y-85544781D01*
X121818386Y-85637715D01*
X121652786Y-85758028D01*
X121508028Y-85902786D01*
X121387715Y-86068386D01*
X121294781Y-86250776D01*
X121231522Y-86445465D01*
X121199500Y-86647648D01*
X115705500Y-86647648D01*
X115705500Y-83624000D01*
X115693947Y-83516544D01*
X115682741Y-83465033D01*
X115669450Y-83425099D01*
X115648616Y-83362502D01*
X115648613Y-83362496D01*
X115576299Y-83249975D01*
X115570825Y-83241457D01*
X115570820Y-83241451D01*
X115525076Y-83188659D01*
X115525072Y-83188656D01*
X115525070Y-83188653D01*
X115416336Y-83094433D01*
X115416333Y-83094431D01*
X115416331Y-83094430D01*
X115285465Y-83034664D01*
X115285460Y-83034662D01*
X115285459Y-83034662D01*
X115226192Y-83017259D01*
X115218417Y-83014976D01*
X115156347Y-83006052D01*
X115076000Y-82994500D01*
X103424000Y-82994500D01*
X103423991Y-82994500D01*
X103423990Y-82994501D01*
X103316549Y-83006052D01*
X103316537Y-83006054D01*
X103265027Y-83017260D01*
X103162502Y-83051383D01*
X103162496Y-83051386D01*
X103041462Y-83129171D01*
X103041451Y-83129179D01*
X102988659Y-83174923D01*
X102894433Y-83283664D01*
X102894430Y-83283668D01*
X102834664Y-83414534D01*
X102814976Y-83481582D01*
X102806114Y-83543222D01*
X102794500Y-83624000D01*
X99500500Y-83624000D01*
X99500500Y-82568995D01*
X124499499Y-82568995D01*
X124526418Y-82704322D01*
X124526421Y-82704332D01*
X124579221Y-82831804D01*
X124579228Y-82831817D01*
X124655885Y-82946541D01*
X124663177Y-82953833D01*
X124696665Y-83015155D01*
X124699500Y-83041518D01*
X124699500Y-88115891D01*
X124733608Y-88243187D01*
X124759200Y-88287512D01*
X124799500Y-88357314D01*
X124799502Y-88357316D01*
X125746734Y-89304548D01*
X125780219Y-89365871D01*
X125776984Y-89430547D01*
X125731523Y-89570461D01*
X125731523Y-89570464D01*
X125701987Y-89756947D01*
X125699500Y-89772648D01*
X125699500Y-89977352D01*
X125701987Y-89993052D01*
X125731522Y-90179534D01*
X125794781Y-90374223D01*
X125820654Y-90425000D01*
X125871477Y-90524746D01*
X125887715Y-90556613D01*
X126008028Y-90722213D01*
X126152786Y-90866971D01*
X126271822Y-90953454D01*
X126318390Y-90987287D01*
X126434607Y-91046503D01*
X126500776Y-91080218D01*
X126500778Y-91080218D01*
X126500781Y-91080220D01*
X126605137Y-91114127D01*
X126695465Y-91143477D01*
X126781906Y-91157168D01*
X126897648Y-91175500D01*
X126897649Y-91175500D01*
X127102351Y-91175500D01*
X127102352Y-91175500D01*
X127304534Y-91143477D01*
X127499219Y-91080220D01*
X127681610Y-90987287D01*
X127788202Y-90909844D01*
X127847213Y-90866971D01*
X127847215Y-90866968D01*
X127847219Y-90866966D01*
X127991966Y-90722219D01*
X127991968Y-90722215D01*
X127991971Y-90722213D01*
X128044732Y-90649590D01*
X128112287Y-90556610D01*
X128205220Y-90374219D01*
X128268477Y-90179534D01*
X128300500Y-89977352D01*
X128300500Y-89772648D01*
X128298013Y-89756947D01*
X128268477Y-89570465D01*
X128224426Y-89434890D01*
X128205220Y-89375781D01*
X128205218Y-89375778D01*
X128205218Y-89375776D01*
X128152344Y-89272006D01*
X128112287Y-89193390D01*
X128061880Y-89124010D01*
X127991971Y-89027786D01*
X127847213Y-88883028D01*
X127681613Y-88762715D01*
X127681612Y-88762714D01*
X127681610Y-88762713D01*
X127607553Y-88724979D01*
X127499223Y-88669781D01*
X127304534Y-88606522D01*
X127129995Y-88578878D01*
X127102352Y-88574500D01*
X126897648Y-88574500D01*
X126857211Y-88580904D01*
X126695462Y-88606523D01*
X126593284Y-88639722D01*
X126523443Y-88641717D01*
X126467286Y-88609472D01*
X125736819Y-87879005D01*
X125703334Y-87817682D01*
X125700500Y-87791324D01*
X125700500Y-87555567D01*
X125720185Y-87488528D01*
X125772989Y-87442773D01*
X125842147Y-87432829D01*
X125905703Y-87461854D01*
X125924819Y-87482682D01*
X126008034Y-87597219D01*
X126152786Y-87741971D01*
X126291411Y-87842686D01*
X126318390Y-87862287D01*
X126429886Y-87919097D01*
X126500776Y-87955218D01*
X126500778Y-87955218D01*
X126500781Y-87955220D01*
X126582598Y-87981804D01*
X126695465Y-88018477D01*
X126796301Y-88034448D01*
X126897648Y-88050500D01*
X126897649Y-88050500D01*
X127102351Y-88050500D01*
X127102352Y-88050500D01*
X127203699Y-88034448D01*
X129149500Y-88034448D01*
X129149500Y-88215551D01*
X129177829Y-88394410D01*
X129233787Y-88566636D01*
X129233788Y-88566639D01*
X129271027Y-88639722D01*
X129314469Y-88724982D01*
X129316006Y-88727997D01*
X129422441Y-88874494D01*
X129422445Y-88874499D01*
X129550500Y-89002554D01*
X129550505Y-89002558D01*
X129585229Y-89027786D01*
X129697006Y-89108996D01*
X129786157Y-89154421D01*
X129858360Y-89191211D01*
X129858366Y-89191213D01*
X129985650Y-89232569D01*
X130043326Y-89272006D01*
X130070525Y-89336364D01*
X130058611Y-89405210D01*
X130011367Y-89456687D01*
X129947333Y-89474500D01*
X129405143Y-89474500D01*
X129405117Y-89474502D01*
X129380012Y-89477413D01*
X129380008Y-89477415D01*
X129277235Y-89522793D01*
X129197794Y-89602234D01*
X129152415Y-89705006D01*
X129152415Y-89705008D01*
X129149500Y-89730131D01*
X129149500Y-91519856D01*
X129149502Y-91519882D01*
X129152413Y-91544987D01*
X129152415Y-91544991D01*
X129197793Y-91647764D01*
X129197794Y-91647765D01*
X129277235Y-91727206D01*
X129380009Y-91772585D01*
X129405135Y-91775500D01*
X131994864Y-91775499D01*
X131994879Y-91775497D01*
X131994882Y-91775497D01*
X132019987Y-91772586D01*
X132019988Y-91772585D01*
X132019991Y-91772585D01*
X132122765Y-91727206D01*
X132202206Y-91647765D01*
X132247585Y-91544991D01*
X132250500Y-91519865D01*
X132250499Y-89983674D01*
X132270184Y-89916636D01*
X132286813Y-89895999D01*
X138650499Y-83532315D01*
X138652088Y-83529564D01*
X138716392Y-83418186D01*
X138717369Y-83414541D01*
X138750500Y-83290893D01*
X138750500Y-83159108D01*
X138750500Y-82377895D01*
X139037544Y-82377895D01*
X139043945Y-82437423D01*
X139043947Y-82437430D01*
X139094189Y-82572137D01*
X139094193Y-82572144D01*
X139180353Y-82687238D01*
X139180356Y-82687241D01*
X139295450Y-82773401D01*
X139295457Y-82773405D01*
X139430164Y-82823647D01*
X139430171Y-82823649D01*
X139489699Y-82830050D01*
X139489716Y-82830051D01*
X139887544Y-82830051D01*
X140587544Y-82830051D01*
X140985372Y-82830051D01*
X140985388Y-82830050D01*
X141044916Y-82823649D01*
X141044923Y-82823647D01*
X141179630Y-82773405D01*
X141179637Y-82773401D01*
X141294731Y-82687241D01*
X141294734Y-82687238D01*
X141380894Y-82572144D01*
X141380898Y-82572137D01*
X141431140Y-82437430D01*
X141431142Y-82437423D01*
X141437543Y-82377895D01*
X143487379Y-82377895D01*
X143493780Y-82437423D01*
X143493782Y-82437430D01*
X143544024Y-82572137D01*
X143544028Y-82572144D01*
X143630188Y-82687238D01*
X143630191Y-82687241D01*
X143745285Y-82773401D01*
X143745292Y-82773405D01*
X143879999Y-82823647D01*
X143880006Y-82823649D01*
X143939534Y-82830050D01*
X143939551Y-82830051D01*
X144337379Y-82830051D01*
X144337379Y-82030051D01*
X143487379Y-82030051D01*
X143487379Y-82377895D01*
X141437543Y-82377895D01*
X141437544Y-82377878D01*
X141437544Y-82030051D01*
X140587544Y-82030051D01*
X140587544Y-82830051D01*
X139887544Y-82830051D01*
X139887544Y-82030051D01*
X139037544Y-82030051D01*
X139037544Y-82377895D01*
X138750500Y-82377895D01*
X138750500Y-81208675D01*
X138770185Y-81141636D01*
X138786815Y-81120998D01*
X138825865Y-81081948D01*
X138887186Y-81048465D01*
X138956878Y-81053449D01*
X139012811Y-81095321D01*
X139037228Y-81160785D01*
X139037544Y-81169631D01*
X139037544Y-81330051D01*
X141437544Y-81330051D01*
X141437544Y-80982223D01*
X141437543Y-80982206D01*
X143487379Y-80982206D01*
X143487379Y-81330051D01*
X144337379Y-81330051D01*
X144337379Y-80530051D01*
X143939534Y-80530051D01*
X143880006Y-80536452D01*
X143879999Y-80536454D01*
X143745292Y-80586696D01*
X143745285Y-80586700D01*
X143630191Y-80672860D01*
X143630188Y-80672863D01*
X143544028Y-80787957D01*
X143544024Y-80787964D01*
X143493782Y-80922671D01*
X143493780Y-80922678D01*
X143487379Y-80982206D01*
X141437543Y-80982206D01*
X141431142Y-80922678D01*
X141431140Y-80922671D01*
X141380898Y-80787964D01*
X141380894Y-80787957D01*
X141294734Y-80672863D01*
X141294731Y-80672860D01*
X141179637Y-80586700D01*
X141179630Y-80586696D01*
X141044923Y-80536454D01*
X141044916Y-80536452D01*
X140985388Y-80530051D01*
X140375381Y-80530051D01*
X140308342Y-80510366D01*
X140262587Y-80457562D01*
X140252643Y-80388404D01*
X140281668Y-80324848D01*
X140337060Y-80288120D01*
X140362445Y-80279873D01*
X140516788Y-80201232D01*
X140656928Y-80099414D01*
X140779414Y-79976928D01*
X140881232Y-79836788D01*
X140959873Y-79682445D01*
X141013402Y-79517701D01*
X141040500Y-79346611D01*
X141040500Y-79173389D01*
X141379500Y-79173389D01*
X141379500Y-79346610D01*
X141398065Y-79463830D01*
X141406598Y-79517701D01*
X141450514Y-79652860D01*
X141460128Y-79682447D01*
X141494943Y-79750776D01*
X141538768Y-79836788D01*
X141640586Y-79976928D01*
X141763072Y-80099414D01*
X141903212Y-80201232D01*
X142057555Y-80279873D01*
X142222299Y-80333402D01*
X142393389Y-80360500D01*
X142393390Y-80360500D01*
X142566610Y-80360500D01*
X142566611Y-80360500D01*
X142737701Y-80333402D01*
X142902445Y-80279873D01*
X143056788Y-80201232D01*
X143196928Y-80099414D01*
X143319414Y-79976928D01*
X143421232Y-79836788D01*
X143499873Y-79682445D01*
X143553402Y-79517701D01*
X143580500Y-79346611D01*
X143580500Y-79173389D01*
X143919500Y-79173389D01*
X143919500Y-79346610D01*
X143938065Y-79463830D01*
X143946598Y-79517701D01*
X143990514Y-79652860D01*
X144000128Y-79682447D01*
X144034943Y-79750776D01*
X144078768Y-79836788D01*
X144180586Y-79976928D01*
X144303072Y-80099414D01*
X144443212Y-80201232D01*
X144597555Y-80279873D01*
X144762299Y-80333402D01*
X144932778Y-80360403D01*
X144995911Y-80390331D01*
X145032843Y-80449642D01*
X145037379Y-80482875D01*
X145037379Y-81330051D01*
X145887379Y-81330051D01*
X145887379Y-80982223D01*
X145887378Y-80982206D01*
X145880977Y-80922678D01*
X145880975Y-80922671D01*
X145830733Y-80787964D01*
X145830729Y-80787957D01*
X145744569Y-80672863D01*
X145744566Y-80672860D01*
X145629472Y-80586700D01*
X145629465Y-80586696D01*
X145494758Y-80536454D01*
X145494752Y-80536452D01*
X145438761Y-80530432D01*
X145374210Y-80503693D01*
X145334363Y-80446300D01*
X145331870Y-80376475D01*
X145367524Y-80316387D01*
X145413695Y-80289214D01*
X145442445Y-80279873D01*
X145596788Y-80201232D01*
X145736928Y-80099414D01*
X145859414Y-79976928D01*
X145961232Y-79836788D01*
X146039873Y-79682445D01*
X146093402Y-79517701D01*
X146120500Y-79346611D01*
X146120500Y-79173389D01*
X146459500Y-79173389D01*
X146459500Y-79346610D01*
X146478065Y-79463830D01*
X146486598Y-79517701D01*
X146530514Y-79652860D01*
X146540128Y-79682447D01*
X146574943Y-79750776D01*
X146618768Y-79836788D01*
X146720586Y-79976928D01*
X146843072Y-80099414D01*
X146983212Y-80201232D01*
X147137555Y-80279873D01*
X147302299Y-80333402D01*
X147473389Y-80360500D01*
X147473390Y-80360500D01*
X147646610Y-80360500D01*
X147646611Y-80360500D01*
X147817701Y-80333402D01*
X147982445Y-80279873D01*
X148136788Y-80201232D01*
X148276928Y-80099414D01*
X148399414Y-79976928D01*
X148501232Y-79836788D01*
X148579873Y-79682445D01*
X148633402Y-79517701D01*
X148660500Y-79346611D01*
X148660500Y-79173389D01*
X148633402Y-79002299D01*
X148579873Y-78837555D01*
X148501232Y-78683212D01*
X148399414Y-78543072D01*
X148276928Y-78420586D01*
X148269420Y-78415131D01*
X148999500Y-78415131D01*
X148999500Y-80104856D01*
X148999502Y-80104882D01*
X149002413Y-80129987D01*
X149002415Y-80129991D01*
X149047793Y-80232764D01*
X149047794Y-80232765D01*
X149127235Y-80312206D01*
X149230009Y-80357585D01*
X149255135Y-80360500D01*
X150944864Y-80360499D01*
X150944879Y-80360497D01*
X150944882Y-80360497D01*
X150969987Y-80357586D01*
X150969988Y-80357585D01*
X150969991Y-80357585D01*
X151072765Y-80312206D01*
X151152206Y-80232765D01*
X151197585Y-80129991D01*
X151200500Y-80104865D01*
X151200499Y-78415136D01*
X151199324Y-78405000D01*
X151197586Y-78390012D01*
X151197585Y-78390010D01*
X151197585Y-78390009D01*
X151152206Y-78287235D01*
X151072765Y-78207794D01*
X151072763Y-78207793D01*
X150969992Y-78162415D01*
X150944865Y-78159500D01*
X149255143Y-78159500D01*
X149255117Y-78159502D01*
X149230012Y-78162413D01*
X149230008Y-78162415D01*
X149127235Y-78207793D01*
X149047794Y-78287234D01*
X149002415Y-78390006D01*
X149002415Y-78390008D01*
X148999500Y-78415131D01*
X148269420Y-78415131D01*
X148136788Y-78318768D01*
X147982445Y-78240127D01*
X147817701Y-78186598D01*
X147817699Y-78186597D01*
X147817698Y-78186597D01*
X147686271Y-78165781D01*
X147646611Y-78159500D01*
X147473389Y-78159500D01*
X147433728Y-78165781D01*
X147302302Y-78186597D01*
X147137552Y-78240128D01*
X146983211Y-78318768D01*
X146920803Y-78364111D01*
X146843072Y-78420586D01*
X146843070Y-78420588D01*
X146843069Y-78420588D01*
X146720588Y-78543069D01*
X146720588Y-78543070D01*
X146720586Y-78543072D01*
X146676859Y-78603256D01*
X146618768Y-78683211D01*
X146540128Y-78837552D01*
X146486597Y-79002302D01*
X146459500Y-79173389D01*
X146120500Y-79173389D01*
X146093402Y-79002299D01*
X146039873Y-78837555D01*
X145961232Y-78683212D01*
X145859414Y-78543072D01*
X145736928Y-78420586D01*
X145596788Y-78318768D01*
X145442445Y-78240127D01*
X145277701Y-78186598D01*
X145277699Y-78186597D01*
X145277698Y-78186597D01*
X145146271Y-78165781D01*
X145106611Y-78159500D01*
X144933389Y-78159500D01*
X144893728Y-78165781D01*
X144762302Y-78186597D01*
X144597552Y-78240128D01*
X144443211Y-78318768D01*
X144380803Y-78364111D01*
X144303072Y-78420586D01*
X144303070Y-78420588D01*
X144303069Y-78420588D01*
X144180588Y-78543069D01*
X144180588Y-78543070D01*
X144180586Y-78543072D01*
X144136859Y-78603256D01*
X144078768Y-78683211D01*
X144000128Y-78837552D01*
X143946597Y-79002302D01*
X143919500Y-79173389D01*
X143580500Y-79173389D01*
X143553402Y-79002299D01*
X143499873Y-78837555D01*
X143421232Y-78683212D01*
X143319414Y-78543072D01*
X143196928Y-78420586D01*
X143056788Y-78318768D01*
X142902445Y-78240127D01*
X142737701Y-78186598D01*
X142737699Y-78186597D01*
X142737698Y-78186597D01*
X142606271Y-78165781D01*
X142566611Y-78159500D01*
X142393389Y-78159500D01*
X142353728Y-78165781D01*
X142222302Y-78186597D01*
X142057552Y-78240128D01*
X141903211Y-78318768D01*
X141840803Y-78364111D01*
X141763072Y-78420586D01*
X141763070Y-78420588D01*
X141763069Y-78420588D01*
X141640588Y-78543069D01*
X141640588Y-78543070D01*
X141640586Y-78543072D01*
X141596859Y-78603256D01*
X141538768Y-78683211D01*
X141460128Y-78837552D01*
X141406597Y-79002302D01*
X141379500Y-79173389D01*
X141040500Y-79173389D01*
X141013402Y-79002299D01*
X140959873Y-78837555D01*
X140881232Y-78683212D01*
X140779414Y-78543072D01*
X140656928Y-78420586D01*
X140516788Y-78318768D01*
X140362445Y-78240127D01*
X140197701Y-78186598D01*
X140197699Y-78186597D01*
X140197698Y-78186597D01*
X140066271Y-78165781D01*
X140026611Y-78159500D01*
X139853389Y-78159500D01*
X139813728Y-78165781D01*
X139682302Y-78186597D01*
X139517552Y-78240128D01*
X139363211Y-78318768D01*
X139300803Y-78364111D01*
X139223072Y-78420586D01*
X139223070Y-78420588D01*
X139223069Y-78420588D01*
X139100588Y-78543069D01*
X139100588Y-78543070D01*
X139100586Y-78543072D01*
X139056859Y-78603256D01*
X138998768Y-78683211D01*
X138920128Y-78837552D01*
X138866597Y-79002302D01*
X138839500Y-79173389D01*
X138839500Y-79346610D01*
X138866597Y-79517697D01*
X138869576Y-79526866D01*
X138871568Y-79596707D01*
X138839324Y-79652860D01*
X138568460Y-79923724D01*
X138507137Y-79957209D01*
X138437445Y-79952225D01*
X138381512Y-79910353D01*
X138357095Y-79844889D01*
X138370294Y-79779748D01*
X138419873Y-79682445D01*
X138473402Y-79517701D01*
X138500500Y-79346611D01*
X138500500Y-79173389D01*
X138473402Y-79002299D01*
X138419873Y-78837555D01*
X138341232Y-78683212D01*
X138239414Y-78543072D01*
X138116928Y-78420586D01*
X137976788Y-78318768D01*
X137822445Y-78240127D01*
X137657701Y-78186598D01*
X137657699Y-78186597D01*
X137657698Y-78186597D01*
X137526271Y-78165781D01*
X137486611Y-78159500D01*
X137313389Y-78159500D01*
X137273728Y-78165781D01*
X137142302Y-78186597D01*
X136977552Y-78240128D01*
X136823211Y-78318768D01*
X136760803Y-78364111D01*
X136683072Y-78420586D01*
X136683070Y-78420588D01*
X136683069Y-78420588D01*
X136560588Y-78543069D01*
X136560588Y-78543070D01*
X136560586Y-78543072D01*
X136516859Y-78603256D01*
X136458768Y-78683211D01*
X136380128Y-78837552D01*
X136326597Y-79002302D01*
X136299500Y-79173389D01*
X136299500Y-79346610D01*
X136318065Y-79463830D01*
X136326598Y-79517701D01*
X136370514Y-79652860D01*
X136380128Y-79682447D01*
X136414943Y-79750776D01*
X136458768Y-79836788D01*
X136560586Y-79976928D01*
X136683072Y-80099414D01*
X136823212Y-80201232D01*
X136831793Y-80205604D01*
X136882589Y-80253575D01*
X136899500Y-80316089D01*
X136899500Y-81766323D01*
X136879815Y-81833362D01*
X136863181Y-81854004D01*
X131682690Y-87034494D01*
X131621367Y-87067979D01*
X131551675Y-87062995D01*
X131546168Y-87060576D01*
X131546137Y-87060652D01*
X131541638Y-87058788D01*
X131369410Y-87002829D01*
X131190551Y-86974500D01*
X131190546Y-86974500D01*
X130209454Y-86974500D01*
X130209449Y-86974500D01*
X130030589Y-87002829D01*
X129858363Y-87058787D01*
X129858360Y-87058788D01*
X129697002Y-87141006D01*
X129550505Y-87247441D01*
X129550500Y-87247445D01*
X129422445Y-87375500D01*
X129422441Y-87375505D01*
X129316006Y-87522002D01*
X129233788Y-87683360D01*
X129233787Y-87683363D01*
X129177829Y-87855589D01*
X129149500Y-88034448D01*
X127203699Y-88034448D01*
X127304534Y-88018477D01*
X127499219Y-87955220D01*
X127681610Y-87862287D01*
X127743004Y-87817682D01*
X127847213Y-87741971D01*
X127847215Y-87741968D01*
X127847219Y-87741966D01*
X127991966Y-87597219D01*
X127991968Y-87597215D01*
X127991971Y-87597213D01*
X128075181Y-87482682D01*
X128112287Y-87431610D01*
X128205220Y-87249219D01*
X128268477Y-87054534D01*
X128300500Y-86852352D01*
X128300500Y-86647648D01*
X128268477Y-86445466D01*
X128254535Y-86402558D01*
X128205218Y-86250776D01*
X128142658Y-86127997D01*
X128112287Y-86068390D01*
X128075181Y-86017317D01*
X127991971Y-85902786D01*
X127847213Y-85758028D01*
X127681613Y-85637715D01*
X127681612Y-85637714D01*
X127681610Y-85637713D01*
X127583680Y-85587815D01*
X127499223Y-85544781D01*
X127304534Y-85481522D01*
X127129995Y-85453878D01*
X127102352Y-85449500D01*
X126897648Y-85449500D01*
X126873329Y-85453351D01*
X126695465Y-85481522D01*
X126500776Y-85544781D01*
X126318386Y-85637715D01*
X126152786Y-85758028D01*
X126008032Y-85902782D01*
X126008028Y-85902787D01*
X125924818Y-86017317D01*
X125869488Y-86059983D01*
X125799875Y-86065962D01*
X125738080Y-86033356D01*
X125703723Y-85972518D01*
X125700500Y-85944432D01*
X125700500Y-83041518D01*
X125720185Y-82974479D01*
X125736823Y-82953833D01*
X125744114Y-82946542D01*
X125820775Y-82831811D01*
X125821505Y-82830050D01*
X125844969Y-82773401D01*
X125873580Y-82704328D01*
X125879414Y-82674999D01*
X128994248Y-82674999D01*
X128994248Y-82675000D01*
X130342894Y-82675000D01*
X130299901Y-82717993D01*
X130234075Y-82832007D01*
X130200000Y-82959174D01*
X130200000Y-83090826D01*
X130234075Y-83217993D01*
X130299901Y-83332007D01*
X130342894Y-83375000D01*
X128994248Y-83375000D01*
X129048907Y-83543222D01*
X129145379Y-83732557D01*
X129270272Y-83904459D01*
X129270276Y-83904464D01*
X129420535Y-84054723D01*
X129420540Y-84054727D01*
X129592442Y-84179620D01*
X129782511Y-84276466D01*
X129833307Y-84324441D01*
X129850102Y-84392262D01*
X129827565Y-84458397D01*
X129782512Y-84497435D01*
X129697004Y-84541004D01*
X129550505Y-84647441D01*
X129550500Y-84647445D01*
X129422445Y-84775500D01*
X129422441Y-84775505D01*
X129316006Y-84922002D01*
X129233788Y-85083360D01*
X129233787Y-85083363D01*
X129177829Y-85255589D01*
X129149500Y-85434448D01*
X129149500Y-85615551D01*
X129177829Y-85794410D01*
X129233787Y-85966636D01*
X129233788Y-85966639D01*
X129316006Y-86127997D01*
X129422441Y-86274494D01*
X129422445Y-86274499D01*
X129550500Y-86402554D01*
X129550505Y-86402558D01*
X129609564Y-86445466D01*
X129697006Y-86508996D01*
X129787093Y-86554898D01*
X129858360Y-86591211D01*
X129858363Y-86591212D01*
X129900778Y-86604993D01*
X130030591Y-86647171D01*
X130111805Y-86660034D01*
X130209449Y-86675500D01*
X130209454Y-86675500D01*
X131190551Y-86675500D01*
X131277259Y-86661765D01*
X131369409Y-86647171D01*
X131541639Y-86591211D01*
X131702994Y-86508996D01*
X131849501Y-86402553D01*
X131977553Y-86274501D01*
X132083996Y-86127994D01*
X132166211Y-85966639D01*
X132222171Y-85794409D01*
X132246989Y-85637715D01*
X132250500Y-85615551D01*
X132250500Y-85434448D01*
X132234019Y-85330397D01*
X132222171Y-85255591D01*
X132166211Y-85083361D01*
X132166211Y-85083360D01*
X132137740Y-85027484D01*
X132083996Y-84922006D01*
X132018830Y-84832312D01*
X131977558Y-84775505D01*
X131977554Y-84775500D01*
X131849499Y-84647445D01*
X131849494Y-84647441D01*
X131702993Y-84541003D01*
X131702992Y-84541002D01*
X131617488Y-84497435D01*
X131566692Y-84449461D01*
X131549897Y-84381640D01*
X131572435Y-84315505D01*
X131617488Y-84276466D01*
X131807558Y-84179620D01*
X131979459Y-84054727D01*
X131979464Y-84054723D01*
X132129723Y-83904464D01*
X132129727Y-83904459D01*
X132254620Y-83732557D01*
X132351092Y-83543222D01*
X132405752Y-83375000D01*
X131057106Y-83375000D01*
X131100099Y-83332007D01*
X131165925Y-83217993D01*
X131200000Y-83090826D01*
X131200000Y-82959174D01*
X131165925Y-82832007D01*
X131100099Y-82717993D01*
X131057106Y-82675000D01*
X132405752Y-82675000D01*
X132405751Y-82674999D01*
X132351092Y-82506777D01*
X132254620Y-82317442D01*
X132129727Y-82145540D01*
X132129723Y-82145535D01*
X131979464Y-81995276D01*
X131979459Y-81995272D01*
X131807557Y-81870379D01*
X131618217Y-81773904D01*
X131416129Y-81708242D01*
X131206246Y-81675000D01*
X131050000Y-81675000D01*
X131050000Y-82667894D01*
X131007007Y-82624901D01*
X130892993Y-82559075D01*
X130765826Y-82525000D01*
X130634174Y-82525000D01*
X130507007Y-82559075D01*
X130392993Y-82624901D01*
X130350000Y-82667894D01*
X130350000Y-81675000D01*
X130193754Y-81675000D01*
X129983872Y-81708242D01*
X129983869Y-81708242D01*
X129781782Y-81773904D01*
X129592442Y-81870379D01*
X129420540Y-81995272D01*
X129420535Y-81995276D01*
X129270276Y-82145535D01*
X129270272Y-82145540D01*
X129145379Y-82317442D01*
X129048907Y-82506777D01*
X128994248Y-82674999D01*
X125879414Y-82674999D01*
X125900500Y-82568993D01*
X125900500Y-82431007D01*
X125900500Y-82431004D01*
X125873581Y-82295677D01*
X125873580Y-82295676D01*
X125873580Y-82295672D01*
X125856935Y-82255487D01*
X125820778Y-82168195D01*
X125820771Y-82168182D01*
X125744114Y-82053458D01*
X125744111Y-82053454D01*
X125646545Y-81955888D01*
X125646541Y-81955885D01*
X125531817Y-81879228D01*
X125531804Y-81879221D01*
X125404332Y-81826421D01*
X125404322Y-81826418D01*
X125268995Y-81799500D01*
X125268993Y-81799500D01*
X125131007Y-81799500D01*
X125131005Y-81799500D01*
X124995677Y-81826418D01*
X124995667Y-81826421D01*
X124868195Y-81879221D01*
X124868182Y-81879228D01*
X124753458Y-81955885D01*
X124753454Y-81955888D01*
X124655888Y-82053454D01*
X124655885Y-82053458D01*
X124579228Y-82168182D01*
X124579221Y-82168195D01*
X124526421Y-82295667D01*
X124526418Y-82295677D01*
X124499500Y-82431004D01*
X124499500Y-82431007D01*
X124499500Y-82568993D01*
X124499500Y-82568995D01*
X124499499Y-82568995D01*
X99500500Y-82568995D01*
X99500500Y-81245513D01*
X103257000Y-81245513D01*
X103257000Y-81434486D01*
X103286559Y-81621118D01*
X103344954Y-81800836D01*
X103423956Y-81955885D01*
X103430740Y-81969199D01*
X103541810Y-82122073D01*
X103675427Y-82255690D01*
X103828301Y-82366760D01*
X103907847Y-82407290D01*
X103996663Y-82452545D01*
X103996665Y-82452545D01*
X103996668Y-82452547D01*
X104092997Y-82483846D01*
X104176381Y-82510940D01*
X104363014Y-82540500D01*
X104363019Y-82540500D01*
X106351986Y-82540500D01*
X106538618Y-82510940D01*
X106551430Y-82506777D01*
X106718332Y-82452547D01*
X106886699Y-82366760D01*
X107039573Y-82255690D01*
X107173190Y-82122073D01*
X107284260Y-81969199D01*
X107370047Y-81800832D01*
X107428440Y-81621118D01*
X107439625Y-81550500D01*
X107453085Y-81465520D01*
X107453085Y-81465519D01*
X107458000Y-81434487D01*
X107458000Y-81245513D01*
X107428440Y-81058881D01*
X107401346Y-80975497D01*
X107370047Y-80879168D01*
X107370045Y-80879165D01*
X107370045Y-80879163D01*
X107284259Y-80710800D01*
X107256694Y-80672860D01*
X107173190Y-80557927D01*
X107039573Y-80424310D01*
X106886699Y-80313240D01*
X106738167Y-80237559D01*
X106738166Y-80237558D01*
X106718338Y-80227455D01*
X106538618Y-80169059D01*
X106351986Y-80139500D01*
X106351981Y-80139500D01*
X104363019Y-80139500D01*
X104363014Y-80139500D01*
X104176381Y-80169059D01*
X103996663Y-80227454D01*
X103828300Y-80313240D01*
X103752859Y-80368052D01*
X103675427Y-80424310D01*
X103675425Y-80424312D01*
X103675424Y-80424312D01*
X103541812Y-80557924D01*
X103541812Y-80557925D01*
X103541810Y-80557927D01*
X103520908Y-80586696D01*
X103430740Y-80710800D01*
X103344954Y-80879163D01*
X103286559Y-81058881D01*
X103257000Y-81245513D01*
X99500500Y-81245513D01*
X99500500Y-80131947D01*
X121000000Y-80131947D01*
X121000000Y-80368052D01*
X121036934Y-80601247D01*
X121109897Y-80825802D01*
X121217089Y-81036178D01*
X121217827Y-81037195D01*
X121217830Y-81037195D01*
X121950000Y-80305025D01*
X121950000Y-80322409D01*
X121987482Y-80462292D01*
X122059890Y-80587708D01*
X122162292Y-80690110D01*
X122287708Y-80762518D01*
X122427591Y-80800000D01*
X122444974Y-80800000D01*
X121712803Y-81532170D01*
X121713828Y-81532914D01*
X121924197Y-81640102D01*
X122148752Y-81713065D01*
X122148751Y-81713065D01*
X122381948Y-81750000D01*
X122618052Y-81750000D01*
X122851247Y-81713065D01*
X123075802Y-81640102D01*
X123286171Y-81532914D01*
X123286175Y-81532911D01*
X123287195Y-81532170D01*
X123287195Y-81532168D01*
X122555026Y-80800000D01*
X122572409Y-80800000D01*
X122712292Y-80762518D01*
X122837708Y-80690110D01*
X122940110Y-80587708D01*
X123012518Y-80462292D01*
X123050000Y-80322409D01*
X123050000Y-80305027D01*
X123782168Y-81037195D01*
X123782170Y-81037195D01*
X123782911Y-81036175D01*
X123782914Y-81036171D01*
X123890102Y-80825802D01*
X123963065Y-80601247D01*
X124000000Y-80368052D01*
X124000000Y-80147648D01*
X125699500Y-80147648D01*
X125699500Y-80352351D01*
X125731522Y-80554534D01*
X125794781Y-80749223D01*
X125820654Y-80800000D01*
X125883158Y-80922671D01*
X125887715Y-80931613D01*
X126008028Y-81097213D01*
X126152786Y-81241971D01*
X126307749Y-81354556D01*
X126318390Y-81362287D01*
X126434607Y-81421503D01*
X126500776Y-81455218D01*
X126500778Y-81455218D01*
X126500781Y-81455220D01*
X126605137Y-81489127D01*
X126695465Y-81518477D01*
X126781906Y-81532168D01*
X126897648Y-81550500D01*
X126897649Y-81550500D01*
X127102351Y-81550500D01*
X127102352Y-81550500D01*
X127304534Y-81518477D01*
X127499219Y-81455220D01*
X127681610Y-81362287D01*
X127842329Y-81245519D01*
X127847213Y-81241971D01*
X127847215Y-81241968D01*
X127847219Y-81241966D01*
X127991966Y-81097219D01*
X127991968Y-81097215D01*
X127991971Y-81097213D01*
X128044732Y-81024590D01*
X128112287Y-80931610D01*
X128205220Y-80749219D01*
X128268477Y-80554534D01*
X128300500Y-80352352D01*
X128300500Y-80147648D01*
X128283087Y-80037708D01*
X128268477Y-79945465D01*
X128224426Y-79809890D01*
X128205220Y-79750781D01*
X128205218Y-79750778D01*
X128205218Y-79750776D01*
X128166198Y-79674197D01*
X128112287Y-79568390D01*
X128104556Y-79557749D01*
X127991971Y-79402786D01*
X127847213Y-79258028D01*
X127730715Y-79173389D01*
X133759500Y-79173389D01*
X133759500Y-79346610D01*
X133778065Y-79463830D01*
X133786598Y-79517701D01*
X133830514Y-79652860D01*
X133840128Y-79682447D01*
X133874943Y-79750776D01*
X133918768Y-79836788D01*
X134020586Y-79976928D01*
X134143072Y-80099414D01*
X134283212Y-80201232D01*
X134437555Y-80279873D01*
X134602299Y-80333402D01*
X134773389Y-80360500D01*
X134773390Y-80360500D01*
X134946610Y-80360500D01*
X134946611Y-80360500D01*
X135117701Y-80333402D01*
X135282445Y-80279873D01*
X135436788Y-80201232D01*
X135576928Y-80099414D01*
X135699414Y-79976928D01*
X135801232Y-79836788D01*
X135879873Y-79682445D01*
X135933402Y-79517701D01*
X135960500Y-79346611D01*
X135960500Y-79173389D01*
X135933402Y-79002299D01*
X135879873Y-78837555D01*
X135801232Y-78683212D01*
X135699414Y-78543072D01*
X135576928Y-78420586D01*
X135436788Y-78318768D01*
X135282445Y-78240127D01*
X135117701Y-78186598D01*
X135117699Y-78186597D01*
X135117698Y-78186597D01*
X134986271Y-78165781D01*
X134946611Y-78159500D01*
X134773389Y-78159500D01*
X134733728Y-78165781D01*
X134602302Y-78186597D01*
X134437552Y-78240128D01*
X134283211Y-78318768D01*
X134220803Y-78364111D01*
X134143072Y-78420586D01*
X134143070Y-78420588D01*
X134143069Y-78420588D01*
X134020588Y-78543069D01*
X134020588Y-78543070D01*
X134020586Y-78543072D01*
X133976859Y-78603256D01*
X133918768Y-78683211D01*
X133840128Y-78837552D01*
X133786597Y-79002302D01*
X133759500Y-79173389D01*
X127730715Y-79173389D01*
X127681613Y-79137715D01*
X127681612Y-79137714D01*
X127681610Y-79137713D01*
X127624653Y-79108691D01*
X127499223Y-79044781D01*
X127304534Y-78981522D01*
X127129995Y-78953878D01*
X127102352Y-78949500D01*
X126897648Y-78949500D01*
X126873329Y-78953351D01*
X126695465Y-78981522D01*
X126500776Y-79044781D01*
X126318386Y-79137715D01*
X126152786Y-79258028D01*
X126008028Y-79402786D01*
X125887715Y-79568386D01*
X125794781Y-79750776D01*
X125731522Y-79945465D01*
X125699500Y-80147648D01*
X124000000Y-80147648D01*
X124000000Y-80131947D01*
X123963065Y-79898752D01*
X123890102Y-79674197D01*
X123782914Y-79463828D01*
X123782170Y-79462803D01*
X123050000Y-80194973D01*
X123050000Y-80177591D01*
X123012518Y-80037708D01*
X122940110Y-79912292D01*
X122837708Y-79809890D01*
X122712292Y-79737482D01*
X122572409Y-79700000D01*
X122555027Y-79700000D01*
X123287195Y-78967830D01*
X123287195Y-78967827D01*
X123286178Y-78967089D01*
X123075802Y-78859897D01*
X122851247Y-78786934D01*
X122851248Y-78786934D01*
X122618052Y-78750000D01*
X122381948Y-78750000D01*
X122148752Y-78786934D01*
X121924197Y-78859897D01*
X121713833Y-78967083D01*
X121713830Y-78967084D01*
X121712803Y-78967829D01*
X122444974Y-79700000D01*
X122427591Y-79700000D01*
X122287708Y-79737482D01*
X122162292Y-79809890D01*
X122059890Y-79912292D01*
X121987482Y-80037708D01*
X121950000Y-80177591D01*
X121950000Y-80194974D01*
X121217829Y-79462803D01*
X121217084Y-79463830D01*
X121217083Y-79463833D01*
X121109897Y-79674197D01*
X121036934Y-79898752D01*
X121000000Y-80131947D01*
X99500500Y-80131947D01*
X99500500Y-78482796D01*
X103057500Y-78482796D01*
X103072463Y-78615601D01*
X103072465Y-78615612D01*
X103131386Y-78783997D01*
X103131391Y-78784007D01*
X103226296Y-78935046D01*
X103226301Y-78935052D01*
X103352447Y-79061198D01*
X103352453Y-79061203D01*
X103503492Y-79156108D01*
X103503502Y-79156113D01*
X103671887Y-79215034D01*
X103671898Y-79215036D01*
X103804703Y-79229999D01*
X103804707Y-79230000D01*
X104607500Y-79230000D01*
X106107500Y-79230000D01*
X106910293Y-79230000D01*
X106910296Y-79229999D01*
X107043101Y-79215036D01*
X107043112Y-79215034D01*
X107211497Y-79156113D01*
X107211507Y-79156108D01*
X107362546Y-79061203D01*
X107362552Y-79061198D01*
X107488698Y-78935052D01*
X107488702Y-78935047D01*
X107583608Y-78784007D01*
X107583613Y-78783997D01*
X107642534Y-78615612D01*
X107642536Y-78615601D01*
X107657499Y-78482796D01*
X107657500Y-78482792D01*
X107657500Y-78430000D01*
X106107500Y-78430000D01*
X106107500Y-79230000D01*
X104607500Y-79230000D01*
X104607500Y-78430000D01*
X103057500Y-78430000D01*
X103057500Y-78482796D01*
X99500500Y-78482796D01*
X99500500Y-77476009D01*
X104757500Y-77476009D01*
X104757500Y-77883991D01*
X104798389Y-78036591D01*
X104877381Y-78173408D01*
X104989092Y-78285119D01*
X105125909Y-78364111D01*
X105278509Y-78405000D01*
X105436491Y-78405000D01*
X105589091Y-78364111D01*
X105725908Y-78285119D01*
X105837619Y-78173408D01*
X105916611Y-78036591D01*
X105957500Y-77883991D01*
X105957500Y-77476009D01*
X105916611Y-77323409D01*
X105837619Y-77186592D01*
X105725908Y-77074881D01*
X105589091Y-76995889D01*
X105436491Y-76955000D01*
X105278509Y-76955000D01*
X105125909Y-76995889D01*
X104989092Y-77074881D01*
X104877381Y-77186592D01*
X104798389Y-77323409D01*
X104757500Y-77476009D01*
X99500500Y-77476009D01*
X99500500Y-76877203D01*
X103057500Y-76877203D01*
X103057500Y-76930000D01*
X104607500Y-76930000D01*
X106107500Y-76930000D01*
X107657500Y-76930000D01*
X107657500Y-76877207D01*
X107657499Y-76877203D01*
X107642536Y-76744398D01*
X107642534Y-76744387D01*
X107583613Y-76576002D01*
X107583608Y-76575992D01*
X107488703Y-76424953D01*
X107488698Y-76424947D01*
X107362552Y-76298801D01*
X107362546Y-76298796D01*
X107211507Y-76203891D01*
X107211497Y-76203886D01*
X107043112Y-76144965D01*
X107043101Y-76144963D01*
X106910296Y-76130000D01*
X106107500Y-76130000D01*
X106107500Y-76930000D01*
X104607500Y-76930000D01*
X104607500Y-76130000D01*
X103804703Y-76130000D01*
X103671898Y-76144963D01*
X103671887Y-76144965D01*
X103503502Y-76203886D01*
X103503492Y-76203891D01*
X103352453Y-76298796D01*
X103352447Y-76298801D01*
X103226301Y-76424947D01*
X103226296Y-76424953D01*
X103131391Y-76575992D01*
X103131386Y-76576002D01*
X103072465Y-76744387D01*
X103072463Y-76744398D01*
X103057500Y-76877203D01*
X99500500Y-76877203D01*
X99500500Y-73724500D01*
X99520185Y-73657461D01*
X99572989Y-73611706D01*
X99624500Y-73600500D01*
X152875500Y-73600500D01*
X152942539Y-73620185D01*
G37*
%TD.AperFunction*%
%TD*%
%TA.AperFunction,Conductor*%
%TO.N,VOUT1*%
G36*
X115143039Y-83519685D02*
G01*
X115188794Y-83572489D01*
X115200000Y-83624000D01*
X115200000Y-88376000D01*
X115180315Y-88443039D01*
X115127511Y-88488794D01*
X115076000Y-88500000D01*
X103424000Y-88500000D01*
X103356961Y-88480315D01*
X103311206Y-88427511D01*
X103300000Y-88376000D01*
X103300000Y-83624000D01*
X103319685Y-83556961D01*
X103372489Y-83511206D01*
X103424000Y-83500000D01*
X115076000Y-83500000D01*
X115143039Y-83519685D01*
G37*
%TD.AperFunction*%
%TD*%
%TA.AperFunction,Conductor*%
%TO.N,VIN1*%
G36*
X115143039Y-89019685D02*
G01*
X115188794Y-89072489D01*
X115200000Y-89124000D01*
X115200000Y-93876000D01*
X115180315Y-93943039D01*
X115127511Y-93988794D01*
X115076000Y-94000000D01*
X103424000Y-94000000D01*
X103356961Y-93980315D01*
X103311206Y-93927511D01*
X103300000Y-93876000D01*
X103300000Y-89124000D01*
X103319685Y-89056961D01*
X103372489Y-89011206D01*
X103424000Y-89000000D01*
X115076000Y-89000000D01*
X115143039Y-89019685D01*
G37*
%TD.AperFunction*%
%TD*%
M02*
