%TF.GenerationSoftware,KiCad,Pcbnew,9.0.7*%
%TF.CreationDate,2026-08-08T19:43:13-04:00*%
%TF.ProjectId,SB_Pixel_Count,53425f50-6978-4656-9c5f-436f756e742e,v1*%
%TF.SameCoordinates,Original*%
%TF.FileFunction,Soldermask,Bot*%
%TF.FilePolarity,Negative*%
%FSLAX46Y46*%
G04 Gerber Fmt 4.6, Leading zero omitted, Abs format (unit mm)*
G04 Created by KiCad (PCBNEW 9.0.7) date 2026-08-08 19:43:13*
%MOMM*%
%LPD*%
G01*
G04 APERTURE LIST*
G04 Aperture macros list*
%AMRoundRect*
0 Rectangle with rounded corners*
0 $1 Rounding radius*
0 $2 $3 $4 $5 $6 $7 $8 $9 X,Y pos of 4 corners*
0 Add a 4 corners polygon primitive as box body*
4,1,4,$2,$3,$4,$5,$6,$7,$8,$9,$2,$3,0*
0 Add four circle primitives for the rounded corners*
1,1,$1+$1,$2,$3*
1,1,$1+$1,$4,$5*
1,1,$1+$1,$6,$7*
1,1,$1+$1,$8,$9*
0 Add four rect primitives between the rounded corners*
20,1,$1+$1,$2,$3,$4,$5,0*
20,1,$1+$1,$4,$5,$6,$7,0*
20,1,$1+$1,$6,$7,$8,$9,0*
20,1,$1+$1,$8,$9,$2,$3,0*%
G04 Aperture macros list end*
%ADD10R,2.500000X1.700000*%
%ADD11O,2.500000X1.700000*%
%ADD12RoundRect,0.250000X-1.550000X0.650000X-1.550000X-0.650000X1.550000X-0.650000X1.550000X0.650000X0*%
%ADD13O,3.600000X1.800000*%
%ADD14C,2.000000*%
%ADD15R,1.600000X1.600000*%
%ADD16C,1.600000*%
%ADD17RoundRect,0.291667X-1.508333X0.758333X-1.508333X-0.758333X1.508333X-0.758333X1.508333X0.758333X0*%
%ADD18O,3.600000X2.100000*%
%ADD19R,1.000000X0.500000*%
%ADD20R,1.400000X1.300000*%
G04 APERTURE END LIST*
D10*
%TO.C,J3*%
X130700000Y-90625000D03*
D11*
X130700000Y-88125000D03*
X130700000Y-85525000D03*
X130700000Y-83025000D03*
%TD*%
D12*
%TO.C,TB1*%
X105357500Y-92112500D03*
D13*
X105357500Y-95922500D03*
%TD*%
D14*
%TO.C,SW1*%
X127000000Y-80250000D03*
X122500000Y-80250000D03*
X127000000Y-86750000D03*
X122500000Y-86750000D03*
%TD*%
%TO.C,SW2*%
X127000000Y-89875000D03*
X122500000Y-89875000D03*
X127000000Y-96375000D03*
X122500000Y-96375000D03*
%TD*%
D15*
%TO.C,U2*%
X150100000Y-79260000D03*
D16*
X147560000Y-79260000D03*
X145020000Y-79260000D03*
X142480000Y-79260000D03*
X139940000Y-79260000D03*
X137400000Y-79260000D03*
X134860000Y-79260000D03*
X134860000Y-94500000D03*
X137400000Y-94500000D03*
X139940000Y-94500000D03*
X142480000Y-94500000D03*
X145020000Y-94500000D03*
X147560000Y-94500000D03*
X150100000Y-94500000D03*
%TD*%
D17*
%TO.C,J2*%
X105357500Y-77680000D03*
D13*
X105357500Y-81340000D03*
D18*
X105357500Y-85000000D03*
%TD*%
D19*
%TO.C,U5*%
X146422456Y-90630013D03*
X146422456Y-89529936D03*
X146422456Y-88430114D03*
X146422456Y-87680051D03*
X146422456Y-86229962D03*
X146422456Y-85130140D03*
X146422456Y-84030064D03*
X146422456Y-82929987D03*
X146422456Y-86980025D03*
D20*
X144687379Y-81680051D03*
X140237544Y-81680051D03*
X140237544Y-91879949D03*
X144687379Y-91879949D03*
%TD*%
M02*
