%TF.GenerationSoftware,KiCad,Pcbnew,9.0.7*%
%TF.CreationDate,2026-08-08T20:03:18-04:00*%
%TF.ProjectId,SB_Pixel_Count,53425f50-6978-4656-9c5f-436f756e742e,v1*%
%TF.SameCoordinates,Original*%
%TF.FileFunction,Legend,Bot*%
%TF.FilePolarity,Positive*%
%FSLAX46Y46*%
G04 Gerber Fmt 4.6, Leading zero omitted, Abs format (unit mm)*
G04 Created by KiCad (PCBNEW 9.0.7) date 2026-08-08 20:03:18*
%MOMM*%
%LPD*%
G01*
G04 APERTURE LIST*
G04 Aperture macros list*
%AMRoundRect*
0 Rectangle with rounded corners*
0 $1 Rounding radius*
0 $2 $3 $4 $5 $6 $7 $8 $9 X,Y pos of 4 corners*
0 Add a 4 corners polygon primitive as box body*
4,1,4,$2,$3,$4,$5,$6,$7,$8,$9,$2,$3,0*
0 Add four circle primitives for the rounded corners*
1,1,$1+$1,$2,$3*
1,1,$1+$1,$4,$5*
1,1,$1+$1,$6,$7*
1,1,$1+$1,$8,$9*
0 Add four rect primitives between the rounded corners*
20,1,$1+$1,$2,$3,$4,$5,0*
20,1,$1+$1,$4,$5,$6,$7,0*
20,1,$1+$1,$6,$7,$8,$9,0*
20,1,$1+$1,$8,$9,$2,$3,0*%
G04 Aperture macros list end*
%ADD10C,0.300000*%
%ADD11C,0.150000*%
%ADD12C,0.100000*%
%ADD13C,0.254001*%
%ADD14C,0.059995*%
%ADD15C,0.120000*%
%ADD16RoundRect,0.250000X-1.550000X0.650000X-1.550000X-0.650000X1.550000X-0.650000X1.550000X0.650000X0*%
%ADD17O,3.600000X1.800000*%
%ADD18R,1.600000X1.600000*%
%ADD19C,1.600000*%
%ADD20RoundRect,0.291667X-1.508333X0.758333X-1.508333X-0.758333X1.508333X-0.758333X1.508333X0.758333X0*%
%ADD21O,3.600000X2.100000*%
%ADD22R,1.000000X0.500000*%
%ADD23R,1.400000X1.300000*%
%ADD24R,2.500000X1.700000*%
%ADD25O,2.500000X1.700000*%
%ADD26C,2.000000*%
G04 APERTURE END LIST*
D10*
X101627742Y-97959774D02*
X101699171Y-98102632D01*
X101699171Y-98102632D02*
X101699171Y-98316917D01*
X101699171Y-98316917D02*
X101627742Y-98531203D01*
X101627742Y-98531203D02*
X101484885Y-98674060D01*
X101484885Y-98674060D02*
X101342028Y-98745489D01*
X101342028Y-98745489D02*
X101056314Y-98816917D01*
X101056314Y-98816917D02*
X100842028Y-98816917D01*
X100842028Y-98816917D02*
X100556314Y-98745489D01*
X100556314Y-98745489D02*
X100413457Y-98674060D01*
X100413457Y-98674060D02*
X100270600Y-98531203D01*
X100270600Y-98531203D02*
X100199171Y-98316917D01*
X100199171Y-98316917D02*
X100199171Y-98174060D01*
X100199171Y-98174060D02*
X100270600Y-97959774D01*
X100270600Y-97959774D02*
X100342028Y-97888346D01*
X100342028Y-97888346D02*
X100842028Y-97888346D01*
X100842028Y-97888346D02*
X100842028Y-98174060D01*
X100199171Y-97245489D02*
X101699171Y-97245489D01*
X101699171Y-97245489D02*
X100199171Y-96388346D01*
X100199171Y-96388346D02*
X101699171Y-96388346D01*
X100199171Y-95674060D02*
X101699171Y-95674060D01*
X101699171Y-95674060D02*
X101699171Y-95316917D01*
X101699171Y-95316917D02*
X101627742Y-95102631D01*
X101627742Y-95102631D02*
X101484885Y-94959774D01*
X101484885Y-94959774D02*
X101342028Y-94888345D01*
X101342028Y-94888345D02*
X101056314Y-94816917D01*
X101056314Y-94816917D02*
X100842028Y-94816917D01*
X100842028Y-94816917D02*
X100556314Y-94888345D01*
X100556314Y-94888345D02*
X100413457Y-94959774D01*
X100413457Y-94959774D02*
X100270600Y-95102631D01*
X100270600Y-95102631D02*
X100199171Y-95316917D01*
X100199171Y-95316917D02*
X100199171Y-95674060D01*
X100199171Y-93059774D02*
X100199171Y-93916917D01*
X100199171Y-93488346D02*
X101699171Y-93488346D01*
X101699171Y-93488346D02*
X101484885Y-93631203D01*
X101484885Y-93631203D02*
X101342028Y-93774060D01*
X101342028Y-93774060D02*
X101270600Y-93916917D01*
X101556314Y-92488346D02*
X101627742Y-92416918D01*
X101627742Y-92416918D02*
X101699171Y-92274061D01*
X101699171Y-92274061D02*
X101699171Y-91916918D01*
X101699171Y-91916918D02*
X101627742Y-91774061D01*
X101627742Y-91774061D02*
X101556314Y-91702632D01*
X101556314Y-91702632D02*
X101413457Y-91631203D01*
X101413457Y-91631203D02*
X101270600Y-91631203D01*
X101270600Y-91631203D02*
X101056314Y-91702632D01*
X101056314Y-91702632D02*
X100199171Y-92559775D01*
X100199171Y-92559775D02*
X100199171Y-91631203D01*
X101699171Y-91202632D02*
X100199171Y-90702632D01*
X100199171Y-90702632D02*
X101699171Y-90202632D01*
X100199171Y-82445489D02*
X101699171Y-82445489D01*
X101699171Y-82445489D02*
X101699171Y-82088346D01*
X101699171Y-82088346D02*
X101627742Y-81874060D01*
X101627742Y-81874060D02*
X101484885Y-81731203D01*
X101484885Y-81731203D02*
X101342028Y-81659774D01*
X101342028Y-81659774D02*
X101056314Y-81588346D01*
X101056314Y-81588346D02*
X100842028Y-81588346D01*
X100842028Y-81588346D02*
X100556314Y-81659774D01*
X100556314Y-81659774D02*
X100413457Y-81731203D01*
X100413457Y-81731203D02*
X100270600Y-81874060D01*
X100270600Y-81874060D02*
X100199171Y-82088346D01*
X100199171Y-82088346D02*
X100199171Y-82445489D01*
X101699171Y-80659774D02*
X101699171Y-80516917D01*
X101699171Y-80516917D02*
X101627742Y-80374060D01*
X101627742Y-80374060D02*
X101556314Y-80302632D01*
X101556314Y-80302632D02*
X101413457Y-80231203D01*
X101413457Y-80231203D02*
X101127742Y-80159774D01*
X101127742Y-80159774D02*
X100770600Y-80159774D01*
X100770600Y-80159774D02*
X100484885Y-80231203D01*
X100484885Y-80231203D02*
X100342028Y-80302632D01*
X100342028Y-80302632D02*
X100270600Y-80374060D01*
X100270600Y-80374060D02*
X100199171Y-80516917D01*
X100199171Y-80516917D02*
X100199171Y-80659774D01*
X100199171Y-80659774D02*
X100270600Y-80802632D01*
X100270600Y-80802632D02*
X100342028Y-80874060D01*
X100342028Y-80874060D02*
X100484885Y-80945489D01*
X100484885Y-80945489D02*
X100770600Y-81016917D01*
X100770600Y-81016917D02*
X101127742Y-81016917D01*
X101127742Y-81016917D02*
X101413457Y-80945489D01*
X101413457Y-80945489D02*
X101556314Y-80874060D01*
X101556314Y-80874060D02*
X101627742Y-80802632D01*
X101627742Y-80802632D02*
X101699171Y-80659774D01*
X100199171Y-86459774D02*
X100199171Y-87316917D01*
X100199171Y-86888346D02*
X101699171Y-86888346D01*
X101699171Y-86888346D02*
X101484885Y-87031203D01*
X101484885Y-87031203D02*
X101342028Y-87174060D01*
X101342028Y-87174060D02*
X101270600Y-87316917D01*
X101556314Y-85888346D02*
X101627742Y-85816918D01*
X101627742Y-85816918D02*
X101699171Y-85674061D01*
X101699171Y-85674061D02*
X101699171Y-85316918D01*
X101699171Y-85316918D02*
X101627742Y-85174061D01*
X101627742Y-85174061D02*
X101556314Y-85102632D01*
X101556314Y-85102632D02*
X101413457Y-85031203D01*
X101413457Y-85031203D02*
X101270600Y-85031203D01*
X101270600Y-85031203D02*
X101056314Y-85102632D01*
X101056314Y-85102632D02*
X100199171Y-85959775D01*
X100199171Y-85959775D02*
X100199171Y-85031203D01*
X101699171Y-84602632D02*
X100199171Y-84102632D01*
X100199171Y-84102632D02*
X101699171Y-83602632D01*
X101627742Y-78059774D02*
X101699171Y-78202632D01*
X101699171Y-78202632D02*
X101699171Y-78416917D01*
X101699171Y-78416917D02*
X101627742Y-78631203D01*
X101627742Y-78631203D02*
X101484885Y-78774060D01*
X101484885Y-78774060D02*
X101342028Y-78845489D01*
X101342028Y-78845489D02*
X101056314Y-78916917D01*
X101056314Y-78916917D02*
X100842028Y-78916917D01*
X100842028Y-78916917D02*
X100556314Y-78845489D01*
X100556314Y-78845489D02*
X100413457Y-78774060D01*
X100413457Y-78774060D02*
X100270600Y-78631203D01*
X100270600Y-78631203D02*
X100199171Y-78416917D01*
X100199171Y-78416917D02*
X100199171Y-78274060D01*
X100199171Y-78274060D02*
X100270600Y-78059774D01*
X100270600Y-78059774D02*
X100342028Y-77988346D01*
X100342028Y-77988346D02*
X100842028Y-77988346D01*
X100842028Y-77988346D02*
X100842028Y-78274060D01*
X100199171Y-77345489D02*
X101699171Y-77345489D01*
X101699171Y-77345489D02*
X100199171Y-76488346D01*
X100199171Y-76488346D02*
X101699171Y-76488346D01*
X100199171Y-75774060D02*
X101699171Y-75774060D01*
X101699171Y-75774060D02*
X101699171Y-75416917D01*
X101699171Y-75416917D02*
X101627742Y-75202631D01*
X101627742Y-75202631D02*
X101484885Y-75059774D01*
X101484885Y-75059774D02*
X101342028Y-74988345D01*
X101342028Y-74988345D02*
X101056314Y-74916917D01*
X101056314Y-74916917D02*
X100842028Y-74916917D01*
X100842028Y-74916917D02*
X100556314Y-74988345D01*
X100556314Y-74988345D02*
X100413457Y-75059774D01*
X100413457Y-75059774D02*
X100270600Y-75202631D01*
X100270600Y-75202631D02*
X100199171Y-75416917D01*
X100199171Y-75416917D02*
X100199171Y-75774060D01*
D11*
X118197744Y-95914762D02*
X118150124Y-95771905D01*
X118150124Y-95771905D02*
X118150124Y-95533810D01*
X118150124Y-95533810D02*
X118197744Y-95438572D01*
X118197744Y-95438572D02*
X118245363Y-95390953D01*
X118245363Y-95390953D02*
X118340601Y-95343334D01*
X118340601Y-95343334D02*
X118435839Y-95343334D01*
X118435839Y-95343334D02*
X118531077Y-95390953D01*
X118531077Y-95390953D02*
X118578696Y-95438572D01*
X118578696Y-95438572D02*
X118626315Y-95533810D01*
X118626315Y-95533810D02*
X118673934Y-95724286D01*
X118673934Y-95724286D02*
X118721553Y-95819524D01*
X118721553Y-95819524D02*
X118769172Y-95867143D01*
X118769172Y-95867143D02*
X118864410Y-95914762D01*
X118864410Y-95914762D02*
X118959648Y-95914762D01*
X118959648Y-95914762D02*
X119054886Y-95867143D01*
X119054886Y-95867143D02*
X119102505Y-95819524D01*
X119102505Y-95819524D02*
X119150124Y-95724286D01*
X119150124Y-95724286D02*
X119150124Y-95486191D01*
X119150124Y-95486191D02*
X119102505Y-95343334D01*
X118673934Y-94581429D02*
X118626315Y-94438572D01*
X118626315Y-94438572D02*
X118578696Y-94390953D01*
X118578696Y-94390953D02*
X118483458Y-94343334D01*
X118483458Y-94343334D02*
X118340601Y-94343334D01*
X118340601Y-94343334D02*
X118245363Y-94390953D01*
X118245363Y-94390953D02*
X118197744Y-94438572D01*
X118197744Y-94438572D02*
X118150124Y-94533810D01*
X118150124Y-94533810D02*
X118150124Y-94914762D01*
X118150124Y-94914762D02*
X119150124Y-94914762D01*
X119150124Y-94914762D02*
X119150124Y-94581429D01*
X119150124Y-94581429D02*
X119102505Y-94486191D01*
X119102505Y-94486191D02*
X119054886Y-94438572D01*
X119054886Y-94438572D02*
X118959648Y-94390953D01*
X118959648Y-94390953D02*
X118864410Y-94390953D01*
X118864410Y-94390953D02*
X118769172Y-94438572D01*
X118769172Y-94438572D02*
X118721553Y-94486191D01*
X118721553Y-94486191D02*
X118673934Y-94581429D01*
X118673934Y-94581429D02*
X118673934Y-94914762D01*
X118150124Y-93152857D02*
X119150124Y-93152857D01*
X119150124Y-93152857D02*
X119150124Y-92771905D01*
X119150124Y-92771905D02*
X119102505Y-92676667D01*
X119102505Y-92676667D02*
X119054886Y-92629048D01*
X119054886Y-92629048D02*
X118959648Y-92581429D01*
X118959648Y-92581429D02*
X118816791Y-92581429D01*
X118816791Y-92581429D02*
X118721553Y-92629048D01*
X118721553Y-92629048D02*
X118673934Y-92676667D01*
X118673934Y-92676667D02*
X118626315Y-92771905D01*
X118626315Y-92771905D02*
X118626315Y-93152857D01*
X118150124Y-92152857D02*
X118816791Y-92152857D01*
X119150124Y-92152857D02*
X119102505Y-92200476D01*
X119102505Y-92200476D02*
X119054886Y-92152857D01*
X119054886Y-92152857D02*
X119102505Y-92105238D01*
X119102505Y-92105238D02*
X119150124Y-92152857D01*
X119150124Y-92152857D02*
X119054886Y-92152857D01*
X118150124Y-91771905D02*
X118816791Y-91248096D01*
X118816791Y-91771905D02*
X118150124Y-91248096D01*
X118197744Y-90486191D02*
X118150124Y-90581429D01*
X118150124Y-90581429D02*
X118150124Y-90771905D01*
X118150124Y-90771905D02*
X118197744Y-90867143D01*
X118197744Y-90867143D02*
X118292982Y-90914762D01*
X118292982Y-90914762D02*
X118673934Y-90914762D01*
X118673934Y-90914762D02*
X118769172Y-90867143D01*
X118769172Y-90867143D02*
X118816791Y-90771905D01*
X118816791Y-90771905D02*
X118816791Y-90581429D01*
X118816791Y-90581429D02*
X118769172Y-90486191D01*
X118769172Y-90486191D02*
X118673934Y-90438572D01*
X118673934Y-90438572D02*
X118578696Y-90438572D01*
X118578696Y-90438572D02*
X118483458Y-90914762D01*
X118150124Y-89867143D02*
X118197744Y-89962381D01*
X118197744Y-89962381D02*
X118292982Y-90010000D01*
X118292982Y-90010000D02*
X119150124Y-90010000D01*
X118245363Y-88152857D02*
X118197744Y-88200476D01*
X118197744Y-88200476D02*
X118150124Y-88343333D01*
X118150124Y-88343333D02*
X118150124Y-88438571D01*
X118150124Y-88438571D02*
X118197744Y-88581428D01*
X118197744Y-88581428D02*
X118292982Y-88676666D01*
X118292982Y-88676666D02*
X118388220Y-88724285D01*
X118388220Y-88724285D02*
X118578696Y-88771904D01*
X118578696Y-88771904D02*
X118721553Y-88771904D01*
X118721553Y-88771904D02*
X118912029Y-88724285D01*
X118912029Y-88724285D02*
X119007267Y-88676666D01*
X119007267Y-88676666D02*
X119102505Y-88581428D01*
X119102505Y-88581428D02*
X119150124Y-88438571D01*
X119150124Y-88438571D02*
X119150124Y-88343333D01*
X119150124Y-88343333D02*
X119102505Y-88200476D01*
X119102505Y-88200476D02*
X119054886Y-88152857D01*
X118150124Y-87581428D02*
X118197744Y-87676666D01*
X118197744Y-87676666D02*
X118245363Y-87724285D01*
X118245363Y-87724285D02*
X118340601Y-87771904D01*
X118340601Y-87771904D02*
X118626315Y-87771904D01*
X118626315Y-87771904D02*
X118721553Y-87724285D01*
X118721553Y-87724285D02*
X118769172Y-87676666D01*
X118769172Y-87676666D02*
X118816791Y-87581428D01*
X118816791Y-87581428D02*
X118816791Y-87438571D01*
X118816791Y-87438571D02*
X118769172Y-87343333D01*
X118769172Y-87343333D02*
X118721553Y-87295714D01*
X118721553Y-87295714D02*
X118626315Y-87248095D01*
X118626315Y-87248095D02*
X118340601Y-87248095D01*
X118340601Y-87248095D02*
X118245363Y-87295714D01*
X118245363Y-87295714D02*
X118197744Y-87343333D01*
X118197744Y-87343333D02*
X118150124Y-87438571D01*
X118150124Y-87438571D02*
X118150124Y-87581428D01*
X118816791Y-86390952D02*
X118150124Y-86390952D01*
X118816791Y-86819523D02*
X118292982Y-86819523D01*
X118292982Y-86819523D02*
X118197744Y-86771904D01*
X118197744Y-86771904D02*
X118150124Y-86676666D01*
X118150124Y-86676666D02*
X118150124Y-86533809D01*
X118150124Y-86533809D02*
X118197744Y-86438571D01*
X118197744Y-86438571D02*
X118245363Y-86390952D01*
X118816791Y-85914761D02*
X118150124Y-85914761D01*
X118721553Y-85914761D02*
X118769172Y-85867142D01*
X118769172Y-85867142D02*
X118816791Y-85771904D01*
X118816791Y-85771904D02*
X118816791Y-85629047D01*
X118816791Y-85629047D02*
X118769172Y-85533809D01*
X118769172Y-85533809D02*
X118673934Y-85486190D01*
X118673934Y-85486190D02*
X118150124Y-85486190D01*
X118816791Y-85152856D02*
X118816791Y-84771904D01*
X119150124Y-85009999D02*
X118292982Y-85009999D01*
X118292982Y-85009999D02*
X118197744Y-84962380D01*
X118197744Y-84962380D02*
X118150124Y-84867142D01*
X118150124Y-84867142D02*
X118150124Y-84771904D01*
X118150124Y-83676665D02*
X119150124Y-83676665D01*
X119150124Y-83676665D02*
X119150124Y-83295713D01*
X119150124Y-83295713D02*
X119102505Y-83200475D01*
X119102505Y-83200475D02*
X119054886Y-83152856D01*
X119054886Y-83152856D02*
X118959648Y-83105237D01*
X118959648Y-83105237D02*
X118816791Y-83105237D01*
X118816791Y-83105237D02*
X118721553Y-83152856D01*
X118721553Y-83152856D02*
X118673934Y-83200475D01*
X118673934Y-83200475D02*
X118626315Y-83295713D01*
X118626315Y-83295713D02*
X118626315Y-83676665D01*
X118150124Y-82676665D02*
X118816791Y-82676665D01*
X118626315Y-82676665D02*
X118721553Y-82629046D01*
X118721553Y-82629046D02*
X118769172Y-82581427D01*
X118769172Y-82581427D02*
X118816791Y-82486189D01*
X118816791Y-82486189D02*
X118816791Y-82390951D01*
X118150124Y-81914760D02*
X118197744Y-82009998D01*
X118197744Y-82009998D02*
X118245363Y-82057617D01*
X118245363Y-82057617D02*
X118340601Y-82105236D01*
X118340601Y-82105236D02*
X118626315Y-82105236D01*
X118626315Y-82105236D02*
X118721553Y-82057617D01*
X118721553Y-82057617D02*
X118769172Y-82009998D01*
X118769172Y-82009998D02*
X118816791Y-81914760D01*
X118816791Y-81914760D02*
X118816791Y-81771903D01*
X118816791Y-81771903D02*
X118769172Y-81676665D01*
X118769172Y-81676665D02*
X118721553Y-81629046D01*
X118721553Y-81629046D02*
X118626315Y-81581427D01*
X118626315Y-81581427D02*
X118340601Y-81581427D01*
X118340601Y-81581427D02*
X118245363Y-81629046D01*
X118245363Y-81629046D02*
X118197744Y-81676665D01*
X118197744Y-81676665D02*
X118150124Y-81771903D01*
X118150124Y-81771903D02*
X118150124Y-81914760D01*
X118816791Y-80486188D02*
X118150124Y-80248093D01*
X118150124Y-80248093D02*
X118816791Y-80009998D01*
X118150124Y-79105236D02*
X118150124Y-79676664D01*
X118150124Y-79390950D02*
X119150124Y-79390950D01*
X119150124Y-79390950D02*
X119007267Y-79486188D01*
X119007267Y-79486188D02*
X118912029Y-79581426D01*
X118912029Y-79581426D02*
X118864410Y-79676664D01*
X116587800Y-93867142D02*
X116540180Y-93724285D01*
X116540180Y-93724285D02*
X116540180Y-93486190D01*
X116540180Y-93486190D02*
X116587800Y-93390952D01*
X116587800Y-93390952D02*
X116635419Y-93343333D01*
X116635419Y-93343333D02*
X116730657Y-93295714D01*
X116730657Y-93295714D02*
X116825895Y-93295714D01*
X116825895Y-93295714D02*
X116921133Y-93343333D01*
X116921133Y-93343333D02*
X116968752Y-93390952D01*
X116968752Y-93390952D02*
X117016371Y-93486190D01*
X117016371Y-93486190D02*
X117063990Y-93676666D01*
X117063990Y-93676666D02*
X117111609Y-93771904D01*
X117111609Y-93771904D02*
X117159228Y-93819523D01*
X117159228Y-93819523D02*
X117254466Y-93867142D01*
X117254466Y-93867142D02*
X117349704Y-93867142D01*
X117349704Y-93867142D02*
X117444942Y-93819523D01*
X117444942Y-93819523D02*
X117492561Y-93771904D01*
X117492561Y-93771904D02*
X117540180Y-93676666D01*
X117540180Y-93676666D02*
X117540180Y-93438571D01*
X117540180Y-93438571D02*
X117492561Y-93295714D01*
X116540180Y-92057618D02*
X116540180Y-92105238D01*
X116540180Y-92105238D02*
X116587800Y-92200476D01*
X116587800Y-92200476D02*
X116730657Y-92343333D01*
X116730657Y-92343333D02*
X117016371Y-92581428D01*
X117016371Y-92581428D02*
X117159228Y-92676666D01*
X117159228Y-92676666D02*
X117302085Y-92724285D01*
X117302085Y-92724285D02*
X117397323Y-92724285D01*
X117397323Y-92724285D02*
X117492561Y-92676666D01*
X117492561Y-92676666D02*
X117540180Y-92581428D01*
X117540180Y-92581428D02*
X117540180Y-92533809D01*
X117540180Y-92533809D02*
X117492561Y-92438571D01*
X117492561Y-92438571D02*
X117397323Y-92390952D01*
X117397323Y-92390952D02*
X117349704Y-92390952D01*
X117349704Y-92390952D02*
X117254466Y-92438571D01*
X117254466Y-92438571D02*
X117206847Y-92486190D01*
X117206847Y-92486190D02*
X117016371Y-92771904D01*
X117016371Y-92771904D02*
X116968752Y-92819523D01*
X116968752Y-92819523D02*
X116873514Y-92867142D01*
X116873514Y-92867142D02*
X116730657Y-92867142D01*
X116730657Y-92867142D02*
X116635419Y-92819523D01*
X116635419Y-92819523D02*
X116587800Y-92771904D01*
X116587800Y-92771904D02*
X116540180Y-92676666D01*
X116540180Y-92676666D02*
X116540180Y-92533809D01*
X116540180Y-92533809D02*
X116587800Y-92438571D01*
X116587800Y-92438571D02*
X116635419Y-92390952D01*
X116635419Y-92390952D02*
X116825895Y-92248095D01*
X116825895Y-92248095D02*
X116968752Y-92200476D01*
X116968752Y-92200476D02*
X117063990Y-92200476D01*
X117063990Y-91295714D02*
X117016371Y-91152857D01*
X117016371Y-91152857D02*
X116968752Y-91105238D01*
X116968752Y-91105238D02*
X116873514Y-91057619D01*
X116873514Y-91057619D02*
X116730657Y-91057619D01*
X116730657Y-91057619D02*
X116635419Y-91105238D01*
X116635419Y-91105238D02*
X116587800Y-91152857D01*
X116587800Y-91152857D02*
X116540180Y-91248095D01*
X116540180Y-91248095D02*
X116540180Y-91629047D01*
X116540180Y-91629047D02*
X117540180Y-91629047D01*
X117540180Y-91629047D02*
X117540180Y-91295714D01*
X117540180Y-91295714D02*
X117492561Y-91200476D01*
X117492561Y-91200476D02*
X117444942Y-91152857D01*
X117444942Y-91152857D02*
X117349704Y-91105238D01*
X117349704Y-91105238D02*
X117254466Y-91105238D01*
X117254466Y-91105238D02*
X117159228Y-91152857D01*
X117159228Y-91152857D02*
X117111609Y-91200476D01*
X117111609Y-91200476D02*
X117063990Y-91295714D01*
X117063990Y-91295714D02*
X117063990Y-91629047D01*
X116540180Y-89867142D02*
X117540180Y-89867142D01*
X117540180Y-89867142D02*
X117540180Y-89629047D01*
X117540180Y-89629047D02*
X117492561Y-89486190D01*
X117492561Y-89486190D02*
X117397323Y-89390952D01*
X117397323Y-89390952D02*
X117302085Y-89343333D01*
X117302085Y-89343333D02*
X117111609Y-89295714D01*
X117111609Y-89295714D02*
X116968752Y-89295714D01*
X116968752Y-89295714D02*
X116778276Y-89343333D01*
X116778276Y-89343333D02*
X116683038Y-89390952D01*
X116683038Y-89390952D02*
X116587800Y-89486190D01*
X116587800Y-89486190D02*
X116540180Y-89629047D01*
X116540180Y-89629047D02*
X116540180Y-89867142D01*
X116587800Y-88486190D02*
X116540180Y-88581428D01*
X116540180Y-88581428D02*
X116540180Y-88771904D01*
X116540180Y-88771904D02*
X116587800Y-88867142D01*
X116587800Y-88867142D02*
X116683038Y-88914761D01*
X116683038Y-88914761D02*
X117063990Y-88914761D01*
X117063990Y-88914761D02*
X117159228Y-88867142D01*
X117159228Y-88867142D02*
X117206847Y-88771904D01*
X117206847Y-88771904D02*
X117206847Y-88581428D01*
X117206847Y-88581428D02*
X117159228Y-88486190D01*
X117159228Y-88486190D02*
X117063990Y-88438571D01*
X117063990Y-88438571D02*
X116968752Y-88438571D01*
X116968752Y-88438571D02*
X116873514Y-88914761D01*
X116587800Y-88057618D02*
X116540180Y-87962380D01*
X116540180Y-87962380D02*
X116540180Y-87771904D01*
X116540180Y-87771904D02*
X116587800Y-87676666D01*
X116587800Y-87676666D02*
X116683038Y-87629047D01*
X116683038Y-87629047D02*
X116730657Y-87629047D01*
X116730657Y-87629047D02*
X116825895Y-87676666D01*
X116825895Y-87676666D02*
X116873514Y-87771904D01*
X116873514Y-87771904D02*
X116873514Y-87914761D01*
X116873514Y-87914761D02*
X116921133Y-88009999D01*
X116921133Y-88009999D02*
X117016371Y-88057618D01*
X117016371Y-88057618D02*
X117063990Y-88057618D01*
X117063990Y-88057618D02*
X117159228Y-88009999D01*
X117159228Y-88009999D02*
X117206847Y-87914761D01*
X117206847Y-87914761D02*
X117206847Y-87771904D01*
X117206847Y-87771904D02*
X117159228Y-87676666D01*
X116540180Y-87200475D02*
X117206847Y-87200475D01*
X117540180Y-87200475D02*
X117492561Y-87248094D01*
X117492561Y-87248094D02*
X117444942Y-87200475D01*
X117444942Y-87200475D02*
X117492561Y-87152856D01*
X117492561Y-87152856D02*
X117540180Y-87200475D01*
X117540180Y-87200475D02*
X117444942Y-87200475D01*
X117206847Y-86295714D02*
X116397323Y-86295714D01*
X116397323Y-86295714D02*
X116302085Y-86343333D01*
X116302085Y-86343333D02*
X116254466Y-86390952D01*
X116254466Y-86390952D02*
X116206847Y-86486190D01*
X116206847Y-86486190D02*
X116206847Y-86629047D01*
X116206847Y-86629047D02*
X116254466Y-86724285D01*
X116587800Y-86295714D02*
X116540180Y-86390952D01*
X116540180Y-86390952D02*
X116540180Y-86581428D01*
X116540180Y-86581428D02*
X116587800Y-86676666D01*
X116587800Y-86676666D02*
X116635419Y-86724285D01*
X116635419Y-86724285D02*
X116730657Y-86771904D01*
X116730657Y-86771904D02*
X117016371Y-86771904D01*
X117016371Y-86771904D02*
X117111609Y-86724285D01*
X117111609Y-86724285D02*
X117159228Y-86676666D01*
X117159228Y-86676666D02*
X117206847Y-86581428D01*
X117206847Y-86581428D02*
X117206847Y-86390952D01*
X117206847Y-86390952D02*
X117159228Y-86295714D01*
X117206847Y-85819523D02*
X116540180Y-85819523D01*
X117111609Y-85819523D02*
X117159228Y-85771904D01*
X117159228Y-85771904D02*
X117206847Y-85676666D01*
X117206847Y-85676666D02*
X117206847Y-85533809D01*
X117206847Y-85533809D02*
X117159228Y-85438571D01*
X117159228Y-85438571D02*
X117063990Y-85390952D01*
X117063990Y-85390952D02*
X116540180Y-85390952D01*
X116587800Y-84962380D02*
X116540180Y-84867142D01*
X116540180Y-84867142D02*
X116540180Y-84676666D01*
X116540180Y-84676666D02*
X116587800Y-84581428D01*
X116587800Y-84581428D02*
X116683038Y-84533809D01*
X116683038Y-84533809D02*
X116730657Y-84533809D01*
X116730657Y-84533809D02*
X116825895Y-84581428D01*
X116825895Y-84581428D02*
X116873514Y-84676666D01*
X116873514Y-84676666D02*
X116873514Y-84819523D01*
X116873514Y-84819523D02*
X116921133Y-84914761D01*
X116921133Y-84914761D02*
X117016371Y-84962380D01*
X117016371Y-84962380D02*
X117063990Y-84962380D01*
X117063990Y-84962380D02*
X117159228Y-84914761D01*
X117159228Y-84914761D02*
X117206847Y-84819523D01*
X117206847Y-84819523D02*
X117206847Y-84676666D01*
X117206847Y-84676666D02*
X117159228Y-84581428D01*
X116540180Y-82867142D02*
X116540180Y-83343332D01*
X116540180Y-83343332D02*
X117540180Y-83343332D01*
X116540180Y-82057618D02*
X116540180Y-82533808D01*
X116540180Y-82533808D02*
X117540180Y-82533808D01*
X116635419Y-81152856D02*
X116587800Y-81200475D01*
X116587800Y-81200475D02*
X116540180Y-81343332D01*
X116540180Y-81343332D02*
X116540180Y-81438570D01*
X116540180Y-81438570D02*
X116587800Y-81581427D01*
X116587800Y-81581427D02*
X116683038Y-81676665D01*
X116683038Y-81676665D02*
X116778276Y-81724284D01*
X116778276Y-81724284D02*
X116968752Y-81771903D01*
X116968752Y-81771903D02*
X117111609Y-81771903D01*
X117111609Y-81771903D02*
X117302085Y-81724284D01*
X117302085Y-81724284D02*
X117397323Y-81676665D01*
X117397323Y-81676665D02*
X117492561Y-81581427D01*
X117492561Y-81581427D02*
X117540180Y-81438570D01*
X117540180Y-81438570D02*
X117540180Y-81343332D01*
X117540180Y-81343332D02*
X117492561Y-81200475D01*
X117492561Y-81200475D02*
X117444942Y-81152856D01*
X138185264Y-87541828D02*
X137375741Y-87541828D01*
X137375741Y-87541828D02*
X137280503Y-87494209D01*
X137280503Y-87494209D02*
X137232884Y-87446590D01*
X137232884Y-87446590D02*
X137185264Y-87351352D01*
X137185264Y-87351352D02*
X137185264Y-87160876D01*
X137185264Y-87160876D02*
X137232884Y-87065638D01*
X137232884Y-87065638D02*
X137280503Y-87018019D01*
X137280503Y-87018019D02*
X137375741Y-86970400D01*
X137375741Y-86970400D02*
X138185264Y-86970400D01*
X138185264Y-86018019D02*
X138185264Y-86494209D01*
X138185264Y-86494209D02*
X137709074Y-86541828D01*
X137709074Y-86541828D02*
X137756693Y-86494209D01*
X137756693Y-86494209D02*
X137804312Y-86398971D01*
X137804312Y-86398971D02*
X137804312Y-86160876D01*
X137804312Y-86160876D02*
X137756693Y-86065638D01*
X137756693Y-86065638D02*
X137709074Y-86018019D01*
X137709074Y-86018019D02*
X137613836Y-85970400D01*
X137613836Y-85970400D02*
X137375741Y-85970400D01*
X137375741Y-85970400D02*
X137280503Y-86018019D01*
X137280503Y-86018019D02*
X137232884Y-86065638D01*
X137232884Y-86065638D02*
X137185264Y-86160876D01*
X137185264Y-86160876D02*
X137185264Y-86398971D01*
X137185264Y-86398971D02*
X137232884Y-86494209D01*
X137232884Y-86494209D02*
X137280503Y-86541828D01*
X133467704Y-87936904D02*
X133467704Y-87784523D01*
X133467704Y-87784523D02*
X133429609Y-87708333D01*
X133429609Y-87708333D02*
X133353419Y-87632142D01*
X133353419Y-87632142D02*
X133201038Y-87594047D01*
X133201038Y-87594047D02*
X132934371Y-87594047D01*
X132934371Y-87594047D02*
X132781990Y-87632142D01*
X132781990Y-87632142D02*
X132705800Y-87708333D01*
X132705800Y-87708333D02*
X132667704Y-87784523D01*
X132667704Y-87784523D02*
X132667704Y-87936904D01*
X132667704Y-87936904D02*
X132705800Y-88013095D01*
X132705800Y-88013095D02*
X132781990Y-88089285D01*
X132781990Y-88089285D02*
X132934371Y-88127381D01*
X132934371Y-88127381D02*
X133201038Y-88127381D01*
X133201038Y-88127381D02*
X133353419Y-88089285D01*
X133353419Y-88089285D02*
X133429609Y-88013095D01*
X133429609Y-88013095D02*
X133467704Y-87936904D01*
X132667704Y-86870238D02*
X132667704Y-87251190D01*
X132667704Y-87251190D02*
X133467704Y-87251190D01*
X133086752Y-86603571D02*
X133086752Y-86336905D01*
X132667704Y-86222619D02*
X132667704Y-86603571D01*
X132667704Y-86603571D02*
X133467704Y-86603571D01*
X133467704Y-86603571D02*
X133467704Y-86222619D01*
X132667704Y-85879761D02*
X133467704Y-85879761D01*
X133467704Y-85879761D02*
X133467704Y-85689285D01*
X133467704Y-85689285D02*
X133429609Y-85574999D01*
X133429609Y-85574999D02*
X133353419Y-85498809D01*
X133353419Y-85498809D02*
X133277228Y-85460714D01*
X133277228Y-85460714D02*
X133124847Y-85422618D01*
X133124847Y-85422618D02*
X133010561Y-85422618D01*
X133010561Y-85422618D02*
X132858180Y-85460714D01*
X132858180Y-85460714D02*
X132781990Y-85498809D01*
X132781990Y-85498809D02*
X132705800Y-85574999D01*
X132705800Y-85574999D02*
X132667704Y-85689285D01*
X132667704Y-85689285D02*
X132667704Y-85879761D01*
D12*
X131215104Y-80951666D02*
X130643676Y-80951666D01*
X130643676Y-80951666D02*
X130529390Y-80989761D01*
X130529390Y-80989761D02*
X130453200Y-81065952D01*
X130453200Y-81065952D02*
X130415104Y-81180237D01*
X130415104Y-81180237D02*
X130415104Y-81256428D01*
X131215104Y-80646904D02*
X131215104Y-80151666D01*
X131215104Y-80151666D02*
X130910342Y-80418332D01*
X130910342Y-80418332D02*
X130910342Y-80304047D01*
X130910342Y-80304047D02*
X130872247Y-80227856D01*
X130872247Y-80227856D02*
X130834152Y-80189761D01*
X130834152Y-80189761D02*
X130757961Y-80151666D01*
X130757961Y-80151666D02*
X130567485Y-80151666D01*
X130567485Y-80151666D02*
X130491295Y-80189761D01*
X130491295Y-80189761D02*
X130453200Y-80227856D01*
X130453200Y-80227856D02*
X130415104Y-80304047D01*
X130415104Y-80304047D02*
X130415104Y-80532618D01*
X130415104Y-80532618D02*
X130453200Y-80608809D01*
X130453200Y-80608809D02*
X130491295Y-80646904D01*
X128313200Y-84666667D02*
X128275104Y-84552381D01*
X128275104Y-84552381D02*
X128275104Y-84361905D01*
X128275104Y-84361905D02*
X128313200Y-84285714D01*
X128313200Y-84285714D02*
X128351295Y-84247619D01*
X128351295Y-84247619D02*
X128427485Y-84209524D01*
X128427485Y-84209524D02*
X128503676Y-84209524D01*
X128503676Y-84209524D02*
X128579866Y-84247619D01*
X128579866Y-84247619D02*
X128617961Y-84285714D01*
X128617961Y-84285714D02*
X128656057Y-84361905D01*
X128656057Y-84361905D02*
X128694152Y-84514286D01*
X128694152Y-84514286D02*
X128732247Y-84590476D01*
X128732247Y-84590476D02*
X128770342Y-84628571D01*
X128770342Y-84628571D02*
X128846533Y-84666667D01*
X128846533Y-84666667D02*
X128922723Y-84666667D01*
X128922723Y-84666667D02*
X128998914Y-84628571D01*
X128998914Y-84628571D02*
X129037009Y-84590476D01*
X129037009Y-84590476D02*
X129075104Y-84514286D01*
X129075104Y-84514286D02*
X129075104Y-84323809D01*
X129075104Y-84323809D02*
X129037009Y-84209524D01*
X129075104Y-83942857D02*
X128275104Y-83752381D01*
X128275104Y-83752381D02*
X128846533Y-83600000D01*
X128846533Y-83600000D02*
X128275104Y-83447619D01*
X128275104Y-83447619D02*
X129075104Y-83257143D01*
X128275104Y-82533333D02*
X128275104Y-82990476D01*
X128275104Y-82761904D02*
X129075104Y-82761904D01*
X129075104Y-82761904D02*
X128960819Y-82838095D01*
X128960819Y-82838095D02*
X128884628Y-82914285D01*
X128884628Y-82914285D02*
X128846533Y-82990476D01*
D11*
X121155180Y-85084761D02*
X121155180Y-84513333D01*
X120155180Y-84799047D02*
X121155180Y-84799047D01*
X120202800Y-83799047D02*
X120155180Y-83894285D01*
X120155180Y-83894285D02*
X120155180Y-84084761D01*
X120155180Y-84084761D02*
X120202800Y-84179999D01*
X120202800Y-84179999D02*
X120298038Y-84227618D01*
X120298038Y-84227618D02*
X120678990Y-84227618D01*
X120678990Y-84227618D02*
X120774228Y-84179999D01*
X120774228Y-84179999D02*
X120821847Y-84084761D01*
X120821847Y-84084761D02*
X120821847Y-83894285D01*
X120821847Y-83894285D02*
X120774228Y-83799047D01*
X120774228Y-83799047D02*
X120678990Y-83751428D01*
X120678990Y-83751428D02*
X120583752Y-83751428D01*
X120583752Y-83751428D02*
X120488514Y-84227618D01*
X120202800Y-83370475D02*
X120155180Y-83275237D01*
X120155180Y-83275237D02*
X120155180Y-83084761D01*
X120155180Y-83084761D02*
X120202800Y-82989523D01*
X120202800Y-82989523D02*
X120298038Y-82941904D01*
X120298038Y-82941904D02*
X120345657Y-82941904D01*
X120345657Y-82941904D02*
X120440895Y-82989523D01*
X120440895Y-82989523D02*
X120488514Y-83084761D01*
X120488514Y-83084761D02*
X120488514Y-83227618D01*
X120488514Y-83227618D02*
X120536133Y-83322856D01*
X120536133Y-83322856D02*
X120631371Y-83370475D01*
X120631371Y-83370475D02*
X120678990Y-83370475D01*
X120678990Y-83370475D02*
X120774228Y-83322856D01*
X120774228Y-83322856D02*
X120821847Y-83227618D01*
X120821847Y-83227618D02*
X120821847Y-83084761D01*
X120821847Y-83084761D02*
X120774228Y-82989523D01*
X120821847Y-82656189D02*
X120821847Y-82275237D01*
X121155180Y-82513332D02*
X120298038Y-82513332D01*
X120298038Y-82513332D02*
X120202800Y-82465713D01*
X120202800Y-82465713D02*
X120155180Y-82370475D01*
X120155180Y-82370475D02*
X120155180Y-82275237D01*
D12*
X128303200Y-94356667D02*
X128265104Y-94242381D01*
X128265104Y-94242381D02*
X128265104Y-94051905D01*
X128265104Y-94051905D02*
X128303200Y-93975714D01*
X128303200Y-93975714D02*
X128341295Y-93937619D01*
X128341295Y-93937619D02*
X128417485Y-93899524D01*
X128417485Y-93899524D02*
X128493676Y-93899524D01*
X128493676Y-93899524D02*
X128569866Y-93937619D01*
X128569866Y-93937619D02*
X128607961Y-93975714D01*
X128607961Y-93975714D02*
X128646057Y-94051905D01*
X128646057Y-94051905D02*
X128684152Y-94204286D01*
X128684152Y-94204286D02*
X128722247Y-94280476D01*
X128722247Y-94280476D02*
X128760342Y-94318571D01*
X128760342Y-94318571D02*
X128836533Y-94356667D01*
X128836533Y-94356667D02*
X128912723Y-94356667D01*
X128912723Y-94356667D02*
X128988914Y-94318571D01*
X128988914Y-94318571D02*
X129027009Y-94280476D01*
X129027009Y-94280476D02*
X129065104Y-94204286D01*
X129065104Y-94204286D02*
X129065104Y-94013809D01*
X129065104Y-94013809D02*
X129027009Y-93899524D01*
X129065104Y-93632857D02*
X128265104Y-93442381D01*
X128265104Y-93442381D02*
X128836533Y-93290000D01*
X128836533Y-93290000D02*
X128265104Y-93137619D01*
X128265104Y-93137619D02*
X129065104Y-92947143D01*
X128988914Y-92680476D02*
X129027009Y-92642380D01*
X129027009Y-92642380D02*
X129065104Y-92566190D01*
X129065104Y-92566190D02*
X129065104Y-92375714D01*
X129065104Y-92375714D02*
X129027009Y-92299523D01*
X129027009Y-92299523D02*
X128988914Y-92261428D01*
X128988914Y-92261428D02*
X128912723Y-92223333D01*
X128912723Y-92223333D02*
X128836533Y-92223333D01*
X128836533Y-92223333D02*
X128722247Y-92261428D01*
X128722247Y-92261428D02*
X128265104Y-92718571D01*
X128265104Y-92718571D02*
X128265104Y-92223333D01*
D11*
X120105180Y-94786666D02*
X121105180Y-94786666D01*
X121105180Y-94786666D02*
X120390895Y-94453333D01*
X120390895Y-94453333D02*
X121105180Y-94120000D01*
X121105180Y-94120000D02*
X120105180Y-94120000D01*
X120152800Y-93262857D02*
X120105180Y-93358095D01*
X120105180Y-93358095D02*
X120105180Y-93548571D01*
X120105180Y-93548571D02*
X120152800Y-93643809D01*
X120152800Y-93643809D02*
X120248038Y-93691428D01*
X120248038Y-93691428D02*
X120628990Y-93691428D01*
X120628990Y-93691428D02*
X120724228Y-93643809D01*
X120724228Y-93643809D02*
X120771847Y-93548571D01*
X120771847Y-93548571D02*
X120771847Y-93358095D01*
X120771847Y-93358095D02*
X120724228Y-93262857D01*
X120724228Y-93262857D02*
X120628990Y-93215238D01*
X120628990Y-93215238D02*
X120533752Y-93215238D01*
X120533752Y-93215238D02*
X120438514Y-93691428D01*
X120771847Y-92786666D02*
X120105180Y-92786666D01*
X120676609Y-92786666D02*
X120724228Y-92739047D01*
X120724228Y-92739047D02*
X120771847Y-92643809D01*
X120771847Y-92643809D02*
X120771847Y-92500952D01*
X120771847Y-92500952D02*
X120724228Y-92405714D01*
X120724228Y-92405714D02*
X120628990Y-92358095D01*
X120628990Y-92358095D02*
X120105180Y-92358095D01*
X120771847Y-91453333D02*
X120105180Y-91453333D01*
X120771847Y-91881904D02*
X120248038Y-91881904D01*
X120248038Y-91881904D02*
X120152800Y-91834285D01*
X120152800Y-91834285D02*
X120105180Y-91739047D01*
X120105180Y-91739047D02*
X120105180Y-91596190D01*
X120105180Y-91596190D02*
X120152800Y-91500952D01*
X120152800Y-91500952D02*
X120200419Y-91453333D01*
D13*
%TO.C,U5*%
X139640084Y-90998720D02*
X139640084Y-82561128D01*
X141168760Y-81154930D02*
X143756314Y-81154930D01*
X143756314Y-92404917D02*
X141168760Y-92404917D01*
X145618595Y-81154930D02*
X145635080Y-81154930D01*
X145635080Y-81154930D02*
X145635080Y-92404917D01*
X145635080Y-92404917D02*
X145618595Y-92404917D01*
X146620069Y-91474818D02*
G75*
G02*
X146110035Y-91474818I-255017J0D01*
G01*
X146110035Y-91474818D02*
G75*
G02*
X146620069Y-91474818I255017J0D01*
G01*
D14*
X146667567Y-92404968D02*
G75*
G02*
X146607623Y-92404968I-29972J0D01*
G01*
X146607623Y-92404968D02*
G75*
G02*
X146667567Y-92404968I29972J0D01*
G01*
D15*
%TO.C,J3*%
X129200000Y-74325000D02*
X156200000Y-74325000D01*
X129200000Y-99325000D02*
X129200000Y-74325000D01*
X129340000Y-92015000D02*
X129340000Y-81635000D01*
X132060000Y-81635000D02*
X129340000Y-81635000D01*
X132060000Y-81635000D02*
X132060000Y-92015000D01*
X132060000Y-92015000D02*
X129340000Y-92015000D01*
X156200000Y-74325000D02*
X156200000Y-99325000D01*
X156200000Y-99325000D02*
X129200000Y-99325000D01*
%TO.C,SW1*%
X121500000Y-85750000D02*
X121500000Y-81250000D01*
X124000000Y-80000000D02*
X125500000Y-80000000D01*
X125500000Y-87000000D02*
X124000000Y-87000000D01*
X128000000Y-81250000D02*
X128000000Y-85750000D01*
%TO.C,SW2*%
X121500000Y-95375000D02*
X121500000Y-90875000D01*
X124000000Y-89625000D02*
X125500000Y-89625000D01*
X125500000Y-96625000D02*
X124000000Y-96625000D01*
X128000000Y-90875000D02*
X128000000Y-95375000D01*
%TD*%
%LPC*%
D16*
%TO.C,TB1*%
X105357500Y-92112500D03*
D17*
X105357500Y-95922500D03*
%TD*%
D18*
%TO.C,U2*%
X150100000Y-79260000D03*
D19*
X147560000Y-79260000D03*
X145020000Y-79260000D03*
X142480000Y-79260000D03*
X139940000Y-79260000D03*
X137400000Y-79260000D03*
X134860000Y-79260000D03*
X134860000Y-94500000D03*
X137400000Y-94500000D03*
X139940000Y-94500000D03*
X142480000Y-94500000D03*
X145020000Y-94500000D03*
X147560000Y-94500000D03*
X150100000Y-94500000D03*
%TD*%
D20*
%TO.C,J2*%
X105357500Y-77680000D03*
D17*
X105357500Y-81340000D03*
D21*
X105357500Y-85000000D03*
%TD*%
D22*
%TO.C,U5*%
X146422456Y-90630013D03*
X146422456Y-89529936D03*
X146422456Y-88430114D03*
X146422456Y-87680051D03*
X146422456Y-86229962D03*
X146422456Y-85130140D03*
X146422456Y-84030064D03*
X146422456Y-82929987D03*
X146422456Y-86980025D03*
D23*
X144687379Y-81680051D03*
X140237544Y-81680051D03*
X140237544Y-91879949D03*
X144687379Y-91879949D03*
%TD*%
D24*
%TO.C,J3*%
X130700000Y-90625000D03*
D25*
X130700000Y-88125000D03*
X130700000Y-85525000D03*
X130700000Y-83025000D03*
%TD*%
D26*
%TO.C,SW1*%
X127000000Y-80250000D03*
X122500000Y-80250000D03*
X127000000Y-86750000D03*
X122500000Y-86750000D03*
%TD*%
%TO.C,SW2*%
X127000000Y-89875000D03*
X122500000Y-89875000D03*
X127000000Y-96375000D03*
X122500000Y-96375000D03*
%TD*%
%LPD*%
M02*
