%TF.GenerationSoftware,KiCad,Pcbnew,9.0.7*%
%TF.CreationDate,2026-03-07T10:35:43-05:00*%
%TF.ProjectId,RP2040_Count,52503230-3430-45f4-936f-756e742e6b69,v1*%
%TF.SameCoordinates,Original*%
%TF.FileFunction,Legend,Bot*%
%TF.FilePolarity,Positive*%
%FSLAX46Y46*%
G04 Gerber Fmt 4.6, Leading zero omitted, Abs format (unit mm)*
G04 Created by KiCad (PCBNEW 9.0.7) date 2026-03-07 10:35:43*
%MOMM*%
%LPD*%
G01*
G04 APERTURE LIST*
G04 Aperture macros list*
%AMRoundRect*
0 Rectangle with rounded corners*
0 $1 Rounding radius*
0 $2 $3 $4 $5 $6 $7 $8 $9 X,Y pos of 4 corners*
0 Add a 4 corners polygon primitive as box body*
4,1,4,$2,$3,$4,$5,$6,$7,$8,$9,$2,$3,0*
0 Add four circle primitives for the rounded corners*
1,1,$1+$1,$2,$3*
1,1,$1+$1,$4,$5*
1,1,$1+$1,$6,$7*
1,1,$1+$1,$8,$9*
0 Add four rect primitives between the rounded corners*
20,1,$1+$1,$2,$3,$4,$5,0*
20,1,$1+$1,$4,$5,$6,$7,0*
20,1,$1+$1,$6,$7,$8,$9,0*
20,1,$1+$1,$8,$9,$2,$3,0*%
G04 Aperture macros list end*
%ADD10C,0.300000*%
%ADD11C,0.150000*%
%ADD12C,0.100000*%
%ADD13C,0.254001*%
%ADD14C,0.059995*%
%ADD15C,0.120000*%
%ADD16RoundRect,0.250000X-1.550000X0.650000X-1.550000X-0.650000X1.550000X-0.650000X1.550000X0.650000X0*%
%ADD17O,3.600000X1.800000*%
%ADD18R,1.600000X1.600000*%
%ADD19C,1.600000*%
%ADD20RoundRect,0.291667X-1.508333X0.758333X-1.508333X-0.758333X1.508333X-0.758333X1.508333X0.758333X0*%
%ADD21O,3.600000X2.100000*%
%ADD22R,1.000000X0.500000*%
%ADD23R,1.400000X1.300000*%
%ADD24R,2.500000X1.700000*%
%ADD25O,2.500000X1.700000*%
%ADD26C,2.000000*%
G04 APERTURE END LIST*
D10*
X101627742Y-97959774D02*
X101699171Y-98102632D01*
X101699171Y-98102632D02*
X101699171Y-98316917D01*
X101699171Y-98316917D02*
X101627742Y-98531203D01*
X101627742Y-98531203D02*
X101484885Y-98674060D01*
X101484885Y-98674060D02*
X101342028Y-98745489D01*
X101342028Y-98745489D02*
X101056314Y-98816917D01*
X101056314Y-98816917D02*
X100842028Y-98816917D01*
X100842028Y-98816917D02*
X100556314Y-98745489D01*
X100556314Y-98745489D02*
X100413457Y-98674060D01*
X100413457Y-98674060D02*
X100270600Y-98531203D01*
X100270600Y-98531203D02*
X100199171Y-98316917D01*
X100199171Y-98316917D02*
X100199171Y-98174060D01*
X100199171Y-98174060D02*
X100270600Y-97959774D01*
X100270600Y-97959774D02*
X100342028Y-97888346D01*
X100342028Y-97888346D02*
X100842028Y-97888346D01*
X100842028Y-97888346D02*
X100842028Y-98174060D01*
X100199171Y-97245489D02*
X101699171Y-97245489D01*
X101699171Y-97245489D02*
X100199171Y-96388346D01*
X100199171Y-96388346D02*
X101699171Y-96388346D01*
X100199171Y-95674060D02*
X101699171Y-95674060D01*
X101699171Y-95674060D02*
X101699171Y-95316917D01*
X101699171Y-95316917D02*
X101627742Y-95102631D01*
X101627742Y-95102631D02*
X101484885Y-94959774D01*
X101484885Y-94959774D02*
X101342028Y-94888345D01*
X101342028Y-94888345D02*
X101056314Y-94816917D01*
X101056314Y-94816917D02*
X100842028Y-94816917D01*
X100842028Y-94816917D02*
X100556314Y-94888345D01*
X100556314Y-94888345D02*
X100413457Y-94959774D01*
X100413457Y-94959774D02*
X100270600Y-95102631D01*
X100270600Y-95102631D02*
X100199171Y-95316917D01*
X100199171Y-95316917D02*
X100199171Y-95674060D01*
X100199171Y-93059774D02*
X100199171Y-93916917D01*
X100199171Y-93488346D02*
X101699171Y-93488346D01*
X101699171Y-93488346D02*
X101484885Y-93631203D01*
X101484885Y-93631203D02*
X101342028Y-93774060D01*
X101342028Y-93774060D02*
X101270600Y-93916917D01*
X101556314Y-92488346D02*
X101627742Y-92416918D01*
X101627742Y-92416918D02*
X101699171Y-92274061D01*
X101699171Y-92274061D02*
X101699171Y-91916918D01*
X101699171Y-91916918D02*
X101627742Y-91774061D01*
X101627742Y-91774061D02*
X101556314Y-91702632D01*
X101556314Y-91702632D02*
X101413457Y-91631203D01*
X101413457Y-91631203D02*
X101270600Y-91631203D01*
X101270600Y-91631203D02*
X101056314Y-91702632D01*
X101056314Y-91702632D02*
X100199171Y-92559775D01*
X100199171Y-92559775D02*
X100199171Y-91631203D01*
X101699171Y-91202632D02*
X100199171Y-90702632D01*
X100199171Y-90702632D02*
X101699171Y-90202632D01*
X100199171Y-82445489D02*
X101699171Y-82445489D01*
X101699171Y-82445489D02*
X101699171Y-82088346D01*
X101699171Y-82088346D02*
X101627742Y-81874060D01*
X101627742Y-81874060D02*
X101484885Y-81731203D01*
X101484885Y-81731203D02*
X101342028Y-81659774D01*
X101342028Y-81659774D02*
X101056314Y-81588346D01*
X101056314Y-81588346D02*
X100842028Y-81588346D01*
X100842028Y-81588346D02*
X100556314Y-81659774D01*
X100556314Y-81659774D02*
X100413457Y-81731203D01*
X100413457Y-81731203D02*
X100270600Y-81874060D01*
X100270600Y-81874060D02*
X100199171Y-82088346D01*
X100199171Y-82088346D02*
X100199171Y-82445489D01*
X101699171Y-80659774D02*
X101699171Y-80516917D01*
X101699171Y-80516917D02*
X101627742Y-80374060D01*
X101627742Y-80374060D02*
X101556314Y-80302632D01*
X101556314Y-80302632D02*
X101413457Y-80231203D01*
X101413457Y-80231203D02*
X101127742Y-80159774D01*
X101127742Y-80159774D02*
X100770600Y-80159774D01*
X100770600Y-80159774D02*
X100484885Y-80231203D01*
X100484885Y-80231203D02*
X100342028Y-80302632D01*
X100342028Y-80302632D02*
X100270600Y-80374060D01*
X100270600Y-80374060D02*
X100199171Y-80516917D01*
X100199171Y-80516917D02*
X100199171Y-80659774D01*
X100199171Y-80659774D02*
X100270600Y-80802632D01*
X100270600Y-80802632D02*
X100342028Y-80874060D01*
X100342028Y-80874060D02*
X100484885Y-80945489D01*
X100484885Y-80945489D02*
X100770600Y-81016917D01*
X100770600Y-81016917D02*
X101127742Y-81016917D01*
X101127742Y-81016917D02*
X101413457Y-80945489D01*
X101413457Y-80945489D02*
X101556314Y-80874060D01*
X101556314Y-80874060D02*
X101627742Y-80802632D01*
X101627742Y-80802632D02*
X101699171Y-80659774D01*
X100199171Y-86459774D02*
X100199171Y-87316917D01*
X100199171Y-86888346D02*
X101699171Y-86888346D01*
X101699171Y-86888346D02*
X101484885Y-87031203D01*
X101484885Y-87031203D02*
X101342028Y-87174060D01*
X101342028Y-87174060D02*
X101270600Y-87316917D01*
X101556314Y-85888346D02*
X101627742Y-85816918D01*
X101627742Y-85816918D02*
X101699171Y-85674061D01*
X101699171Y-85674061D02*
X101699171Y-85316918D01*
X101699171Y-85316918D02*
X101627742Y-85174061D01*
X101627742Y-85174061D02*
X101556314Y-85102632D01*
X101556314Y-85102632D02*
X101413457Y-85031203D01*
X101413457Y-85031203D02*
X101270600Y-85031203D01*
X101270600Y-85031203D02*
X101056314Y-85102632D01*
X101056314Y-85102632D02*
X100199171Y-85959775D01*
X100199171Y-85959775D02*
X100199171Y-85031203D01*
X101699171Y-84602632D02*
X100199171Y-84102632D01*
X100199171Y-84102632D02*
X101699171Y-83602632D01*
X101627742Y-78059774D02*
X101699171Y-78202632D01*
X101699171Y-78202632D02*
X101699171Y-78416917D01*
X101699171Y-78416917D02*
X101627742Y-78631203D01*
X101627742Y-78631203D02*
X101484885Y-78774060D01*
X101484885Y-78774060D02*
X101342028Y-78845489D01*
X101342028Y-78845489D02*
X101056314Y-78916917D01*
X101056314Y-78916917D02*
X100842028Y-78916917D01*
X100842028Y-78916917D02*
X100556314Y-78845489D01*
X100556314Y-78845489D02*
X100413457Y-78774060D01*
X100413457Y-78774060D02*
X100270600Y-78631203D01*
X100270600Y-78631203D02*
X100199171Y-78416917D01*
X100199171Y-78416917D02*
X100199171Y-78274060D01*
X100199171Y-78274060D02*
X100270600Y-78059774D01*
X100270600Y-78059774D02*
X100342028Y-77988346D01*
X100342028Y-77988346D02*
X100842028Y-77988346D01*
X100842028Y-77988346D02*
X100842028Y-78274060D01*
X100199171Y-77345489D02*
X101699171Y-77345489D01*
X101699171Y-77345489D02*
X100199171Y-76488346D01*
X100199171Y-76488346D02*
X101699171Y-76488346D01*
X100199171Y-75774060D02*
X101699171Y-75774060D01*
X101699171Y-75774060D02*
X101699171Y-75416917D01*
X101699171Y-75416917D02*
X101627742Y-75202631D01*
X101627742Y-75202631D02*
X101484885Y-75059774D01*
X101484885Y-75059774D02*
X101342028Y-74988345D01*
X101342028Y-74988345D02*
X101056314Y-74916917D01*
X101056314Y-74916917D02*
X100842028Y-74916917D01*
X100842028Y-74916917D02*
X100556314Y-74988345D01*
X100556314Y-74988345D02*
X100413457Y-75059774D01*
X100413457Y-75059774D02*
X100270600Y-75202631D01*
X100270600Y-75202631D02*
X100199171Y-75416917D01*
X100199171Y-75416917D02*
X100199171Y-75774060D01*
D11*
X117680180Y-91761792D02*
X118156371Y-92095125D01*
X117680180Y-92333220D02*
X118680180Y-92333220D01*
X118680180Y-92333220D02*
X118680180Y-91952268D01*
X118680180Y-91952268D02*
X118632561Y-91857030D01*
X118632561Y-91857030D02*
X118584942Y-91809411D01*
X118584942Y-91809411D02*
X118489704Y-91761792D01*
X118489704Y-91761792D02*
X118346847Y-91761792D01*
X118346847Y-91761792D02*
X118251609Y-91809411D01*
X118251609Y-91809411D02*
X118203990Y-91857030D01*
X118203990Y-91857030D02*
X118156371Y-91952268D01*
X118156371Y-91952268D02*
X118156371Y-92333220D01*
X117680180Y-91333220D02*
X118680180Y-91333220D01*
X118680180Y-91333220D02*
X118680180Y-90952268D01*
X118680180Y-90952268D02*
X118632561Y-90857030D01*
X118632561Y-90857030D02*
X118584942Y-90809411D01*
X118584942Y-90809411D02*
X118489704Y-90761792D01*
X118489704Y-90761792D02*
X118346847Y-90761792D01*
X118346847Y-90761792D02*
X118251609Y-90809411D01*
X118251609Y-90809411D02*
X118203990Y-90857030D01*
X118203990Y-90857030D02*
X118156371Y-90952268D01*
X118156371Y-90952268D02*
X118156371Y-91333220D01*
X118584942Y-90380839D02*
X118632561Y-90333220D01*
X118632561Y-90333220D02*
X118680180Y-90237982D01*
X118680180Y-90237982D02*
X118680180Y-89999887D01*
X118680180Y-89999887D02*
X118632561Y-89904649D01*
X118632561Y-89904649D02*
X118584942Y-89857030D01*
X118584942Y-89857030D02*
X118489704Y-89809411D01*
X118489704Y-89809411D02*
X118394466Y-89809411D01*
X118394466Y-89809411D02*
X118251609Y-89857030D01*
X118251609Y-89857030D02*
X117680180Y-90428458D01*
X117680180Y-90428458D02*
X117680180Y-89809411D01*
X118680180Y-89190363D02*
X118680180Y-89095125D01*
X118680180Y-89095125D02*
X118632561Y-88999887D01*
X118632561Y-88999887D02*
X118584942Y-88952268D01*
X118584942Y-88952268D02*
X118489704Y-88904649D01*
X118489704Y-88904649D02*
X118299228Y-88857030D01*
X118299228Y-88857030D02*
X118061133Y-88857030D01*
X118061133Y-88857030D02*
X117870657Y-88904649D01*
X117870657Y-88904649D02*
X117775419Y-88952268D01*
X117775419Y-88952268D02*
X117727800Y-88999887D01*
X117727800Y-88999887D02*
X117680180Y-89095125D01*
X117680180Y-89095125D02*
X117680180Y-89190363D01*
X117680180Y-89190363D02*
X117727800Y-89285601D01*
X117727800Y-89285601D02*
X117775419Y-89333220D01*
X117775419Y-89333220D02*
X117870657Y-89380839D01*
X117870657Y-89380839D02*
X118061133Y-89428458D01*
X118061133Y-89428458D02*
X118299228Y-89428458D01*
X118299228Y-89428458D02*
X118489704Y-89380839D01*
X118489704Y-89380839D02*
X118584942Y-89333220D01*
X118584942Y-89333220D02*
X118632561Y-89285601D01*
X118632561Y-89285601D02*
X118680180Y-89190363D01*
X118346847Y-87999887D02*
X117680180Y-87999887D01*
X118727800Y-88237982D02*
X118013514Y-88476077D01*
X118013514Y-88476077D02*
X118013514Y-87857030D01*
X118680180Y-87285601D02*
X118680180Y-87190363D01*
X118680180Y-87190363D02*
X118632561Y-87095125D01*
X118632561Y-87095125D02*
X118584942Y-87047506D01*
X118584942Y-87047506D02*
X118489704Y-86999887D01*
X118489704Y-86999887D02*
X118299228Y-86952268D01*
X118299228Y-86952268D02*
X118061133Y-86952268D01*
X118061133Y-86952268D02*
X117870657Y-86999887D01*
X117870657Y-86999887D02*
X117775419Y-87047506D01*
X117775419Y-87047506D02*
X117727800Y-87095125D01*
X117727800Y-87095125D02*
X117680180Y-87190363D01*
X117680180Y-87190363D02*
X117680180Y-87285601D01*
X117680180Y-87285601D02*
X117727800Y-87380839D01*
X117727800Y-87380839D02*
X117775419Y-87428458D01*
X117775419Y-87428458D02*
X117870657Y-87476077D01*
X117870657Y-87476077D02*
X118061133Y-87523696D01*
X118061133Y-87523696D02*
X118299228Y-87523696D01*
X118299228Y-87523696D02*
X118489704Y-87476077D01*
X118489704Y-87476077D02*
X118584942Y-87428458D01*
X118584942Y-87428458D02*
X118632561Y-87380839D01*
X118632561Y-87380839D02*
X118680180Y-87285601D01*
X117775419Y-85190363D02*
X117727800Y-85237982D01*
X117727800Y-85237982D02*
X117680180Y-85380839D01*
X117680180Y-85380839D02*
X117680180Y-85476077D01*
X117680180Y-85476077D02*
X117727800Y-85618934D01*
X117727800Y-85618934D02*
X117823038Y-85714172D01*
X117823038Y-85714172D02*
X117918276Y-85761791D01*
X117918276Y-85761791D02*
X118108752Y-85809410D01*
X118108752Y-85809410D02*
X118251609Y-85809410D01*
X118251609Y-85809410D02*
X118442085Y-85761791D01*
X118442085Y-85761791D02*
X118537323Y-85714172D01*
X118537323Y-85714172D02*
X118632561Y-85618934D01*
X118632561Y-85618934D02*
X118680180Y-85476077D01*
X118680180Y-85476077D02*
X118680180Y-85380839D01*
X118680180Y-85380839D02*
X118632561Y-85237982D01*
X118632561Y-85237982D02*
X118584942Y-85190363D01*
X117680180Y-84618934D02*
X117727800Y-84714172D01*
X117727800Y-84714172D02*
X117775419Y-84761791D01*
X117775419Y-84761791D02*
X117870657Y-84809410D01*
X117870657Y-84809410D02*
X118156371Y-84809410D01*
X118156371Y-84809410D02*
X118251609Y-84761791D01*
X118251609Y-84761791D02*
X118299228Y-84714172D01*
X118299228Y-84714172D02*
X118346847Y-84618934D01*
X118346847Y-84618934D02*
X118346847Y-84476077D01*
X118346847Y-84476077D02*
X118299228Y-84380839D01*
X118299228Y-84380839D02*
X118251609Y-84333220D01*
X118251609Y-84333220D02*
X118156371Y-84285601D01*
X118156371Y-84285601D02*
X117870657Y-84285601D01*
X117870657Y-84285601D02*
X117775419Y-84333220D01*
X117775419Y-84333220D02*
X117727800Y-84380839D01*
X117727800Y-84380839D02*
X117680180Y-84476077D01*
X117680180Y-84476077D02*
X117680180Y-84618934D01*
X118346847Y-83428458D02*
X117680180Y-83428458D01*
X118346847Y-83857029D02*
X117823038Y-83857029D01*
X117823038Y-83857029D02*
X117727800Y-83809410D01*
X117727800Y-83809410D02*
X117680180Y-83714172D01*
X117680180Y-83714172D02*
X117680180Y-83571315D01*
X117680180Y-83571315D02*
X117727800Y-83476077D01*
X117727800Y-83476077D02*
X117775419Y-83428458D01*
X118346847Y-82952267D02*
X117680180Y-82952267D01*
X118251609Y-82952267D02*
X118299228Y-82904648D01*
X118299228Y-82904648D02*
X118346847Y-82809410D01*
X118346847Y-82809410D02*
X118346847Y-82666553D01*
X118346847Y-82666553D02*
X118299228Y-82571315D01*
X118299228Y-82571315D02*
X118203990Y-82523696D01*
X118203990Y-82523696D02*
X117680180Y-82523696D01*
X118346847Y-82190362D02*
X118346847Y-81809410D01*
X118680180Y-82047505D02*
X117823038Y-82047505D01*
X117823038Y-82047505D02*
X117727800Y-81999886D01*
X117727800Y-81999886D02*
X117680180Y-81904648D01*
X117680180Y-81904648D02*
X117680180Y-81809410D01*
X117680180Y-80714171D02*
X118680180Y-80714171D01*
X118680180Y-80714171D02*
X118680180Y-80333219D01*
X118680180Y-80333219D02*
X118632561Y-80237981D01*
X118632561Y-80237981D02*
X118584942Y-80190362D01*
X118584942Y-80190362D02*
X118489704Y-80142743D01*
X118489704Y-80142743D02*
X118346847Y-80142743D01*
X118346847Y-80142743D02*
X118251609Y-80190362D01*
X118251609Y-80190362D02*
X118203990Y-80237981D01*
X118203990Y-80237981D02*
X118156371Y-80333219D01*
X118156371Y-80333219D02*
X118156371Y-80714171D01*
X117680180Y-79714171D02*
X118346847Y-79714171D01*
X118156371Y-79714171D02*
X118251609Y-79666552D01*
X118251609Y-79666552D02*
X118299228Y-79618933D01*
X118299228Y-79618933D02*
X118346847Y-79523695D01*
X118346847Y-79523695D02*
X118346847Y-79428457D01*
X117680180Y-78952266D02*
X117727800Y-79047504D01*
X117727800Y-79047504D02*
X117775419Y-79095123D01*
X117775419Y-79095123D02*
X117870657Y-79142742D01*
X117870657Y-79142742D02*
X118156371Y-79142742D01*
X118156371Y-79142742D02*
X118251609Y-79095123D01*
X118251609Y-79095123D02*
X118299228Y-79047504D01*
X118299228Y-79047504D02*
X118346847Y-78952266D01*
X118346847Y-78952266D02*
X118346847Y-78809409D01*
X118346847Y-78809409D02*
X118299228Y-78714171D01*
X118299228Y-78714171D02*
X118251609Y-78666552D01*
X118251609Y-78666552D02*
X118156371Y-78618933D01*
X118156371Y-78618933D02*
X117870657Y-78618933D01*
X117870657Y-78618933D02*
X117775419Y-78666552D01*
X117775419Y-78666552D02*
X117727800Y-78714171D01*
X117727800Y-78714171D02*
X117680180Y-78809409D01*
X117680180Y-78809409D02*
X117680180Y-78952266D01*
X118346847Y-77523694D02*
X117680180Y-77285599D01*
X117680180Y-77285599D02*
X118346847Y-77047504D01*
X117680180Y-76142742D02*
X117680180Y-76714170D01*
X117680180Y-76428456D02*
X118680180Y-76428456D01*
X118680180Y-76428456D02*
X118537323Y-76523694D01*
X118537323Y-76523694D02*
X118442085Y-76618932D01*
X118442085Y-76618932D02*
X118394466Y-76714170D01*
X137094903Y-86018019D02*
X137904426Y-86018019D01*
X137904426Y-86018019D02*
X137999664Y-86065638D01*
X137999664Y-86065638D02*
X138047284Y-86113257D01*
X138047284Y-86113257D02*
X138094903Y-86208495D01*
X138094903Y-86208495D02*
X138094903Y-86398971D01*
X138094903Y-86398971D02*
X138047284Y-86494209D01*
X138047284Y-86494209D02*
X137999664Y-86541828D01*
X137999664Y-86541828D02*
X137904426Y-86589447D01*
X137904426Y-86589447D02*
X137094903Y-86589447D01*
X137094903Y-87541828D02*
X137094903Y-87065638D01*
X137094903Y-87065638D02*
X137571093Y-87018019D01*
X137571093Y-87018019D02*
X137523474Y-87065638D01*
X137523474Y-87065638D02*
X137475855Y-87160876D01*
X137475855Y-87160876D02*
X137475855Y-87398971D01*
X137475855Y-87398971D02*
X137523474Y-87494209D01*
X137523474Y-87494209D02*
X137571093Y-87541828D01*
X137571093Y-87541828D02*
X137666331Y-87589447D01*
X137666331Y-87589447D02*
X137904426Y-87589447D01*
X137904426Y-87589447D02*
X137999664Y-87541828D01*
X137999664Y-87541828D02*
X138047284Y-87494209D01*
X138047284Y-87494209D02*
X138094903Y-87398971D01*
X138094903Y-87398971D02*
X138094903Y-87160876D01*
X138094903Y-87160876D02*
X138047284Y-87065638D01*
X138047284Y-87065638D02*
X137999664Y-87018019D01*
X133467704Y-87936904D02*
X133467704Y-87784523D01*
X133467704Y-87784523D02*
X133429609Y-87708333D01*
X133429609Y-87708333D02*
X133353419Y-87632142D01*
X133353419Y-87632142D02*
X133201038Y-87594047D01*
X133201038Y-87594047D02*
X132934371Y-87594047D01*
X132934371Y-87594047D02*
X132781990Y-87632142D01*
X132781990Y-87632142D02*
X132705800Y-87708333D01*
X132705800Y-87708333D02*
X132667704Y-87784523D01*
X132667704Y-87784523D02*
X132667704Y-87936904D01*
X132667704Y-87936904D02*
X132705800Y-88013095D01*
X132705800Y-88013095D02*
X132781990Y-88089285D01*
X132781990Y-88089285D02*
X132934371Y-88127381D01*
X132934371Y-88127381D02*
X133201038Y-88127381D01*
X133201038Y-88127381D02*
X133353419Y-88089285D01*
X133353419Y-88089285D02*
X133429609Y-88013095D01*
X133429609Y-88013095D02*
X133467704Y-87936904D01*
X132667704Y-86870238D02*
X132667704Y-87251190D01*
X132667704Y-87251190D02*
X133467704Y-87251190D01*
X133086752Y-86603571D02*
X133086752Y-86336905D01*
X132667704Y-86222619D02*
X132667704Y-86603571D01*
X132667704Y-86603571D02*
X133467704Y-86603571D01*
X133467704Y-86603571D02*
X133467704Y-86222619D01*
X132667704Y-85879761D02*
X133467704Y-85879761D01*
X133467704Y-85879761D02*
X133467704Y-85689285D01*
X133467704Y-85689285D02*
X133429609Y-85574999D01*
X133429609Y-85574999D02*
X133353419Y-85498809D01*
X133353419Y-85498809D02*
X133277228Y-85460714D01*
X133277228Y-85460714D02*
X133124847Y-85422618D01*
X133124847Y-85422618D02*
X133010561Y-85422618D01*
X133010561Y-85422618D02*
X132858180Y-85460714D01*
X132858180Y-85460714D02*
X132781990Y-85498809D01*
X132781990Y-85498809D02*
X132705800Y-85574999D01*
X132705800Y-85574999D02*
X132667704Y-85689285D01*
X132667704Y-85689285D02*
X132667704Y-85879761D01*
D12*
X131215104Y-80951666D02*
X130643676Y-80951666D01*
X130643676Y-80951666D02*
X130529390Y-80989761D01*
X130529390Y-80989761D02*
X130453200Y-81065952D01*
X130453200Y-81065952D02*
X130415104Y-81180237D01*
X130415104Y-81180237D02*
X130415104Y-81256428D01*
X131215104Y-80646904D02*
X131215104Y-80151666D01*
X131215104Y-80151666D02*
X130910342Y-80418332D01*
X130910342Y-80418332D02*
X130910342Y-80304047D01*
X130910342Y-80304047D02*
X130872247Y-80227856D01*
X130872247Y-80227856D02*
X130834152Y-80189761D01*
X130834152Y-80189761D02*
X130757961Y-80151666D01*
X130757961Y-80151666D02*
X130567485Y-80151666D01*
X130567485Y-80151666D02*
X130491295Y-80189761D01*
X130491295Y-80189761D02*
X130453200Y-80227856D01*
X130453200Y-80227856D02*
X130415104Y-80304047D01*
X130415104Y-80304047D02*
X130415104Y-80532618D01*
X130415104Y-80532618D02*
X130453200Y-80608809D01*
X130453200Y-80608809D02*
X130491295Y-80646904D01*
D11*
X120142800Y-84933332D02*
X120095180Y-84790475D01*
X120095180Y-84790475D02*
X120095180Y-84552380D01*
X120095180Y-84552380D02*
X120142800Y-84457142D01*
X120142800Y-84457142D02*
X120190419Y-84409523D01*
X120190419Y-84409523D02*
X120285657Y-84361904D01*
X120285657Y-84361904D02*
X120380895Y-84361904D01*
X120380895Y-84361904D02*
X120476133Y-84409523D01*
X120476133Y-84409523D02*
X120523752Y-84457142D01*
X120523752Y-84457142D02*
X120571371Y-84552380D01*
X120571371Y-84552380D02*
X120618990Y-84742856D01*
X120618990Y-84742856D02*
X120666609Y-84838094D01*
X120666609Y-84838094D02*
X120714228Y-84885713D01*
X120714228Y-84885713D02*
X120809466Y-84933332D01*
X120809466Y-84933332D02*
X120904704Y-84933332D01*
X120904704Y-84933332D02*
X120999942Y-84885713D01*
X120999942Y-84885713D02*
X121047561Y-84838094D01*
X121047561Y-84838094D02*
X121095180Y-84742856D01*
X121095180Y-84742856D02*
X121095180Y-84504761D01*
X121095180Y-84504761D02*
X121047561Y-84361904D01*
X121095180Y-84028570D02*
X120095180Y-83790475D01*
X120095180Y-83790475D02*
X120809466Y-83599999D01*
X120809466Y-83599999D02*
X120095180Y-83409523D01*
X120095180Y-83409523D02*
X121095180Y-83171428D01*
X120095180Y-82266666D02*
X120095180Y-82838094D01*
X120095180Y-82552380D02*
X121095180Y-82552380D01*
X121095180Y-82552380D02*
X120952323Y-82647618D01*
X120952323Y-82647618D02*
X120857085Y-82742856D01*
X120857085Y-82742856D02*
X120809466Y-82838094D01*
X120317800Y-94433332D02*
X120270180Y-94290475D01*
X120270180Y-94290475D02*
X120270180Y-94052380D01*
X120270180Y-94052380D02*
X120317800Y-93957142D01*
X120317800Y-93957142D02*
X120365419Y-93909523D01*
X120365419Y-93909523D02*
X120460657Y-93861904D01*
X120460657Y-93861904D02*
X120555895Y-93861904D01*
X120555895Y-93861904D02*
X120651133Y-93909523D01*
X120651133Y-93909523D02*
X120698752Y-93957142D01*
X120698752Y-93957142D02*
X120746371Y-94052380D01*
X120746371Y-94052380D02*
X120793990Y-94242856D01*
X120793990Y-94242856D02*
X120841609Y-94338094D01*
X120841609Y-94338094D02*
X120889228Y-94385713D01*
X120889228Y-94385713D02*
X120984466Y-94433332D01*
X120984466Y-94433332D02*
X121079704Y-94433332D01*
X121079704Y-94433332D02*
X121174942Y-94385713D01*
X121174942Y-94385713D02*
X121222561Y-94338094D01*
X121222561Y-94338094D02*
X121270180Y-94242856D01*
X121270180Y-94242856D02*
X121270180Y-94004761D01*
X121270180Y-94004761D02*
X121222561Y-93861904D01*
X121270180Y-93528570D02*
X120270180Y-93290475D01*
X120270180Y-93290475D02*
X120984466Y-93099999D01*
X120984466Y-93099999D02*
X120270180Y-92909523D01*
X120270180Y-92909523D02*
X121270180Y-92671428D01*
X121174942Y-92338094D02*
X121222561Y-92290475D01*
X121222561Y-92290475D02*
X121270180Y-92195237D01*
X121270180Y-92195237D02*
X121270180Y-91957142D01*
X121270180Y-91957142D02*
X121222561Y-91861904D01*
X121222561Y-91861904D02*
X121174942Y-91814285D01*
X121174942Y-91814285D02*
X121079704Y-91766666D01*
X121079704Y-91766666D02*
X120984466Y-91766666D01*
X120984466Y-91766666D02*
X120841609Y-91814285D01*
X120841609Y-91814285D02*
X120270180Y-92385713D01*
X120270180Y-92385713D02*
X120270180Y-91766666D01*
D13*
%TO.C,U5*%
X139640084Y-90998720D02*
X139640084Y-82561128D01*
X141168760Y-81154930D02*
X143756314Y-81154930D01*
X143756314Y-92404917D02*
X141168760Y-92404917D01*
X145618595Y-81154930D02*
X145635080Y-81154930D01*
X145635080Y-81154930D02*
X145635080Y-92404917D01*
X145635080Y-92404917D02*
X145618595Y-92404917D01*
X146620069Y-91474818D02*
G75*
G02*
X146110035Y-91474818I-255017J0D01*
G01*
X146110035Y-91474818D02*
G75*
G02*
X146620069Y-91474818I255017J0D01*
G01*
D14*
X146667567Y-92404968D02*
G75*
G02*
X146607623Y-92404968I-29972J0D01*
G01*
X146607623Y-92404968D02*
G75*
G02*
X146667567Y-92404968I29972J0D01*
G01*
D15*
%TO.C,J3*%
X129200000Y-74325000D02*
X129200000Y-99325000D01*
X129200000Y-99325000D02*
X156200000Y-99325000D01*
X129340000Y-81635000D02*
X129340000Y-92015000D01*
X129340000Y-81635000D02*
X132060000Y-81635000D01*
X129340000Y-92015000D02*
X132060000Y-92015000D01*
X132060000Y-92015000D02*
X132060000Y-81635000D01*
X156200000Y-74325000D02*
X129200000Y-74325000D01*
X156200000Y-99325000D02*
X156200000Y-74325000D01*
%TO.C,SW1*%
X121500000Y-81250000D02*
X121500000Y-85750000D01*
X124000000Y-87000000D02*
X125500000Y-87000000D01*
X125500000Y-80000000D02*
X124000000Y-80000000D01*
X128000000Y-85750000D02*
X128000000Y-81250000D01*
%TO.C,SW2*%
X121500000Y-90875000D02*
X121500000Y-95375000D01*
X124000000Y-96625000D02*
X125500000Y-96625000D01*
X125500000Y-89625000D02*
X124000000Y-89625000D01*
X128000000Y-95375000D02*
X128000000Y-90875000D01*
%TD*%
%LPC*%
D16*
%TO.C,TB1*%
X105357500Y-92112500D03*
D17*
X105357500Y-95922500D03*
%TD*%
D18*
%TO.C,U2*%
X150100000Y-79260000D03*
D19*
X147560000Y-79260000D03*
X145020000Y-79260000D03*
X142480000Y-79260000D03*
X139940000Y-79260000D03*
X137400000Y-79260000D03*
X134860000Y-79260000D03*
X134860000Y-94500000D03*
X137400000Y-94500000D03*
X139940000Y-94500000D03*
X142480000Y-94500000D03*
X145020000Y-94500000D03*
X147560000Y-94500000D03*
X150100000Y-94500000D03*
%TD*%
D20*
%TO.C,J2*%
X105357500Y-77680000D03*
D17*
X105357500Y-81340000D03*
D21*
X105357500Y-85000000D03*
%TD*%
D22*
%TO.C,U5*%
X146422456Y-90630013D03*
X146422456Y-89529936D03*
X146422456Y-88430114D03*
X146422456Y-87680051D03*
X146422456Y-86229962D03*
X146422456Y-85130140D03*
X146422456Y-84030064D03*
X146422456Y-82929987D03*
X146422456Y-86980025D03*
D23*
X144687379Y-81680051D03*
X140237544Y-81680051D03*
X140237544Y-91879949D03*
X144687379Y-91879949D03*
%TD*%
D24*
%TO.C,J3*%
X130700000Y-90625000D03*
D25*
X130700000Y-88125000D03*
X130700000Y-85525000D03*
X130700000Y-83025000D03*
%TD*%
D26*
%TO.C,SW1*%
X127000000Y-86750000D03*
X127000000Y-80250000D03*
X122500000Y-86750000D03*
X122500000Y-80250000D03*
%TD*%
%TO.C,SW2*%
X127000000Y-96375000D03*
X127000000Y-89875000D03*
X122500000Y-96375000D03*
X122500000Y-89875000D03*
%TD*%
%LPD*%
M02*
