%TF.GenerationSoftware,KiCad,Pcbnew,9.0.7*%
%TF.CreationDate,2026-08-08T18:19:04-04:00*%
%TF.ProjectId,RP2040_Count,52503230-3430-45f4-936f-756e742e6b69,v1*%
%TF.SameCoordinates,Original*%
%TF.FileFunction,Paste,Top*%
%TF.FilePolarity,Positive*%
%FSLAX46Y46*%
G04 Gerber Fmt 4.6, Leading zero omitted, Abs format (unit mm)*
G04 Created by KiCad (PCBNEW 9.0.7) date 2026-08-08 18:19:04*
%MOMM*%
%LPD*%
G01*
G04 APERTURE LIST*
G04 Aperture macros list*
%AMRoundRect*
0 Rectangle with rounded corners*
0 $1 Rounding radius*
0 $2 $3 $4 $5 $6 $7 $8 $9 X,Y pos of 4 corners*
0 Add a 4 corners polygon primitive as box body*
4,1,4,$2,$3,$4,$5,$6,$7,$8,$9,$2,$3,0*
0 Add four circle primitives for the rounded corners*
1,1,$1+$1,$2,$3*
1,1,$1+$1,$4,$5*
1,1,$1+$1,$6,$7*
1,1,$1+$1,$8,$9*
0 Add four rect primitives between the rounded corners*
20,1,$1+$1,$2,$3,$4,$5,0*
20,1,$1+$1,$4,$5,$6,$7,0*
20,1,$1+$1,$6,$7,$8,$9,0*
20,1,$1+$1,$8,$9,$2,$3,0*%
G04 Aperture macros list end*
%ADD10RoundRect,0.237500X0.237500X-0.250000X0.237500X0.250000X-0.237500X0.250000X-0.237500X-0.250000X0*%
%ADD11RoundRect,0.218750X-0.256250X0.218750X-0.256250X-0.218750X0.256250X-0.218750X0.256250X0.218750X0*%
%ADD12RoundRect,0.249999X1.425001X-0.450001X1.425001X0.450001X-1.425001X0.450001X-1.425001X-0.450001X0*%
%ADD13RoundRect,0.150000X-0.512500X-0.150000X0.512500X-0.150000X0.512500X0.150000X-0.512500X0.150000X0*%
%ADD14RoundRect,0.237500X0.250000X0.237500X-0.250000X0.237500X-0.250000X-0.237500X0.250000X-0.237500X0*%
%ADD15RoundRect,0.237500X0.237500X-0.300000X0.237500X0.300000X-0.237500X0.300000X-0.237500X-0.300000X0*%
%ADD16RoundRect,0.237500X-0.300000X-0.237500X0.300000X-0.237500X0.300000X0.237500X-0.300000X0.237500X0*%
%ADD17RoundRect,0.250000X-0.475000X0.337500X-0.475000X-0.337500X0.475000X-0.337500X0.475000X0.337500X0*%
%ADD18RoundRect,0.150000X-0.150000X0.825000X-0.150000X-0.825000X0.150000X-0.825000X0.150000X0.825000X0*%
%ADD19R,0.700000X0.510000*%
%ADD20RoundRect,0.150000X0.150000X-0.825000X0.150000X0.825000X-0.150000X0.825000X-0.150000X-0.825000X0*%
%ADD21RoundRect,0.250000X0.475000X-0.337500X0.475000X0.337500X-0.475000X0.337500X-0.475000X-0.337500X0*%
%ADD22RoundRect,0.237500X-0.250000X-0.237500X0.250000X-0.237500X0.250000X0.237500X-0.250000X0.237500X0*%
%ADD23RoundRect,0.375000X-0.625000X-0.375000X0.625000X-0.375000X0.625000X0.375000X-0.625000X0.375000X0*%
%ADD24RoundRect,0.500000X-0.500000X-1.400000X0.500000X-1.400000X0.500000X1.400000X-0.500000X1.400000X0*%
%ADD25RoundRect,0.237500X0.300000X0.237500X-0.300000X0.237500X-0.300000X-0.237500X0.300000X-0.237500X0*%
G04 APERTURE END LIST*
D10*
%TO.C,R5*%
X142800000Y-78112500D03*
X142800000Y-76287500D03*
%TD*%
D11*
%TO.C,D1*%
X142800000Y-79812500D03*
X142800000Y-81387500D03*
%TD*%
D12*
%TO.C,R2*%
X112200000Y-91800000D03*
X112200000Y-85700000D03*
%TD*%
D13*
%TO.C,U2*%
X132800000Y-76650000D03*
X132800000Y-77600000D03*
X132800000Y-78550000D03*
X135075000Y-78550000D03*
X135075000Y-76650000D03*
%TD*%
D14*
%TO.C,R3*%
X116912500Y-97300000D03*
X115087500Y-97300000D03*
%TD*%
D15*
%TO.C,C6*%
X142800000Y-87062500D03*
X142800000Y-85337500D03*
%TD*%
D16*
%TO.C,C1*%
X116337500Y-86400000D03*
X118062500Y-86400000D03*
%TD*%
D17*
%TO.C,C2*%
X137337500Y-76562500D03*
X137337500Y-78637500D03*
%TD*%
D18*
%TO.C,U6*%
X141010000Y-85525000D03*
X139740000Y-85525000D03*
X138470000Y-85525000D03*
X137200000Y-85525000D03*
X135930000Y-85525000D03*
X134660000Y-85525000D03*
X133390000Y-85525000D03*
X133390000Y-90475000D03*
X134660000Y-90475000D03*
X135930000Y-90475000D03*
X137200000Y-90475000D03*
X138470000Y-90475000D03*
X139740000Y-90475000D03*
X141010000Y-90475000D03*
%TD*%
D19*
%TO.C,U1*%
X118720000Y-84700000D03*
X118720000Y-83750000D03*
X118720000Y-82800000D03*
X116400000Y-82800000D03*
X116400000Y-84700000D03*
%TD*%
D20*
%TO.C,U4*%
X115645000Y-95145000D03*
X116915000Y-95145000D03*
X118185000Y-95145000D03*
X119455000Y-95145000D03*
X119455000Y-90195000D03*
X118185000Y-90195000D03*
X116915000Y-90195000D03*
X115645000Y-90195000D03*
%TD*%
D21*
%TO.C,C4*%
X124600000Y-78237500D03*
X124600000Y-76162500D03*
%TD*%
D22*
%TO.C,R1*%
X111687500Y-82100000D03*
X113512500Y-82100000D03*
%TD*%
D23*
%TO.C,U3*%
X115800000Y-75900000D03*
X115800000Y-78200000D03*
D24*
X122100000Y-78200000D03*
D23*
X115800000Y-80500000D03*
%TD*%
D25*
%TO.C,C5*%
X120185000Y-87990000D03*
X118460000Y-87990000D03*
%TD*%
D21*
%TO.C,C3*%
X113300000Y-78037500D03*
X113300000Y-75962500D03*
%TD*%
D14*
%TO.C,R4*%
X113922500Y-95490000D03*
X112097500Y-95490000D03*
%TD*%
M02*
