M48
; DRILL file {KiCad 9.0.7} date 2026-08-08T18:19:04-0400
; FORMAT={-:-/ absolute / inch / decimal}
; #@! TF.CreationDate,2026-08-08T18:19:04-04:00
; #@! TF.GenerationSoftware,Kicad,Pcbnew,9.0.7
; #@! TF.FileFunction,Plated,1,2,PTH
FMAT,2
INCH
; #@! TA.AperFunction,Plated,PTH,ViaDrill
T1C0.0157
; #@! TA.AperFunction,Plated,PTH,ComponentDrill
T2C0.0394
; #@! TA.AperFunction,Plated,PTH,ComponentDrill
T3C0.0433
; #@! TA.AperFunction,Plated,PTH,ComponentDrill
T4C0.0472
%
G90
G05
T1
X3.9764Y-3.7205
X3.9764Y-3.8976
X4.252Y-3.8976
X4.2953Y-3.0079
X4.3189Y-3.3071
X4.3189Y-3.3465
X4.3189Y-3.3858
X4.3189Y-3.4252
X4.3189Y-3.4646
X4.3189Y-3.5236
X4.3189Y-3.563
X4.3189Y-3.6024
X4.3189Y-3.6417
X4.3189Y-3.6811
X4.3583Y-3.3071
X4.3583Y-3.4252
X4.3583Y-3.4646
X4.3583Y-3.5236
X4.3583Y-3.563
X4.3583Y-3.6811
X4.3583Y-3.7598
X4.3898Y-2.9606
X4.3898Y-3.0079
X4.3976Y-3.3071
X4.3976Y-3.4252
X4.3976Y-3.4646
X4.3976Y-3.5236
X4.3976Y-3.563
X4.3976Y-3.6811
X4.4094Y-2.9213
X4.4126Y-3.8965
X4.4134Y-3.8228
X4.437Y-3.3071
X4.437Y-3.4252
X4.437Y-3.4646
X4.437Y-3.5236
X4.437Y-3.563
X4.437Y-3.6811
X4.4528Y-2.9213
X4.4764Y-3.3071
X4.4764Y-3.4252
X4.4764Y-3.4646
X4.4764Y-3.5236
X4.4764Y-3.563
X4.4764Y-3.6811
X4.4764Y-3.8307
X4.4961Y-2.9213
X4.5157Y-3.3071
X4.5157Y-3.3465
X4.5157Y-3.3858
X4.5157Y-3.4252
X4.5157Y-3.4646
X4.5157Y-3.5236
X4.5157Y-3.563
X4.5157Y-3.6024
X4.5157Y-3.6417
X4.5157Y-3.6811
X4.5433Y-2.9213
X4.563Y-3.8976
X4.5787Y-3.6496
X4.5906Y-2.9213
X4.622Y-3.6496
X4.6457Y-2.9882
X4.6457Y-3.0276
X4.6614Y-3.6496
X4.6772Y-3.1299
X4.6772Y-3.189
X4.689Y-2.9882
X4.689Y-3.0276
X4.7047Y-3.4055
X4.7047Y-3.6457
X4.7165Y-3.1299
X4.7165Y-3.189
X4.7323Y-2.9882
X4.7323Y-3.0276
X4.7638Y-3.8976
X4.7661Y-3.7028
X4.7795Y-3.189
X4.7992Y-3.8268
X4.8307Y-3.189
X4.8583Y-3.374
X4.8626Y-2.9394
X4.8819Y-3.1417
X4.8819Y-3.189
X4.9055Y-2.937
X4.9213Y-3.6417
X4.9449Y-2.937
X4.9803Y-3.1339
X4.9843Y-2.937
X4.9843Y-2.9961
X5.0Y-3.8976
X5.0236Y-3.4685
X5.0248Y-3.7445
X5.0315Y-2.9685
X5.0945Y-3.1339
X5.1024Y-2.9528
X5.1024Y-3.0551
X5.1378Y-3.6614
X5.1378Y-3.7402
X5.1378Y-3.8976
X5.1708Y-3.0551
X5.185Y-3.1339
X5.189Y-2.9528
X5.2047Y-3.3543
X5.2047Y-3.4252
X5.2677Y-3.1496
X5.2913Y-2.9528
X5.2953Y-3.6614
X5.315Y-3.8976
X5.3216Y-3.2047
X5.3307Y-3.4409
X5.3386Y-3.1496
X5.374Y-2.9528
X5.3858Y-3.7303
X5.407Y-3.1654
X5.4488Y-3.4488
X5.4488Y-3.4882
X5.4779Y-3.0551
X5.4779Y-3.0945
X5.4779Y-3.1496
X5.478Y-2.9528
X5.5039Y-3.4488
X5.5039Y-3.4882
X5.5512Y-3.4488
X5.5512Y-3.6417
X5.5512Y-3.8976
X5.5669Y-3.1575
X5.5669Y-3.7303
X5.5709Y-3.063
X5.622Y-2.9291
X5.622Y-3.4803
X5.622Y-3.5591
X5.626Y-3.6417
X5.6693Y-3.4252
X5.685Y-3.2598
X5.7047Y-3.0039
X5.7047Y-3.1614
X5.7205Y-3.8937
X5.7244Y-3.7303
X5.8425Y-3.2756
X5.8425Y-3.4016
X5.8465Y-2.9724
X5.8465Y-3.1496
X5.8819Y-3.5039
X5.8819Y-3.7303
X5.8819Y-3.8898
X5.8858Y-3.6024
T2
X5.1185Y-3.2685
X5.1185Y-3.3669
X5.1185Y-3.4693
X5.1185Y-3.5677
X5.7402Y-3.3543
X5.7402Y-3.4543
X5.7402Y-3.5543
T3
X4.7795Y-3.2913
X4.7795Y-3.5472
X4.9567Y-3.2913
X4.9567Y-3.5472
T4
X4.1479Y-3.2024
X4.1479Y-3.6265
X4.1479Y-3.7765
T4
G00X4.1479Y-3.0533
M15
G01X4.1479Y-3.0632
M16
G05
G00X4.1479Y-3.3415
M15
G01X4.1479Y-3.3514
M16
G05
M30
