%TF.GenerationSoftware,KiCad,Pcbnew,9.0.7*%
%TF.CreationDate,2026-08-08T18:19:04-04:00*%
%TF.ProjectId,RP2040_Count,52503230-3430-45f4-936f-756e742e6b69,v1*%
%TF.SameCoordinates,Original*%
%TF.FileFunction,Copper,L2,Bot*%
%TF.FilePolarity,Positive*%
%FSLAX46Y46*%
G04 Gerber Fmt 4.6, Leading zero omitted, Abs format (unit mm)*
G04 Created by KiCad (PCBNEW 9.0.7) date 2026-08-08 18:19:04*
%MOMM*%
%LPD*%
G01*
G04 APERTURE LIST*
G04 Aperture macros list*
%AMRoundRect*
0 Rectangle with rounded corners*
0 $1 Rounding radius*
0 $2 $3 $4 $5 $6 $7 $8 $9 X,Y pos of 4 corners*
0 Add a 4 corners polygon primitive as box body*
4,1,4,$2,$3,$4,$5,$6,$7,$8,$9,$2,$3,0*
0 Add four circle primitives for the rounded corners*
1,1,$1+$1,$2,$3*
1,1,$1+$1,$4,$5*
1,1,$1+$1,$6,$7*
1,1,$1+$1,$8,$9*
0 Add four rect primitives between the rounded corners*
20,1,$1+$1,$2,$3,$4,$5,0*
20,1,$1+$1,$4,$5,$6,$7,0*
20,1,$1+$1,$6,$7,$8,$9,0*
20,1,$1+$1,$8,$9,$2,$3,0*%
G04 Aperture macros list end*
%TA.AperFunction,ComponentPad*%
%ADD10RoundRect,0.250000X-1.550000X0.650000X-1.550000X-0.650000X1.550000X-0.650000X1.550000X0.650000X0*%
%TD*%
%TA.AperFunction,ComponentPad*%
%ADD11O,3.600000X1.800000*%
%TD*%
%TA.AperFunction,ComponentPad*%
%ADD12R,1.700000X1.700000*%
%TD*%
%TA.AperFunction,ComponentPad*%
%ADD13C,1.700000*%
%TD*%
%TA.AperFunction,ComponentPad*%
%ADD14RoundRect,0.291667X-1.508333X0.758333X-1.508333X-0.758333X1.508333X-0.758333X1.508333X0.758333X0*%
%TD*%
%TA.AperFunction,ComponentPad*%
%ADD15O,3.600000X2.100000*%
%TD*%
%TA.AperFunction,ComponentPad*%
%ADD16R,2.500000X1.700000*%
%TD*%
%TA.AperFunction,ComponentPad*%
%ADD17O,2.500000X1.700000*%
%TD*%
%TA.AperFunction,ComponentPad*%
%ADD18C,2.000000*%
%TD*%
%TA.AperFunction,ViaPad*%
%ADD19C,0.800000*%
%TD*%
%TA.AperFunction,Conductor*%
%ADD20C,0.500000*%
%TD*%
%TA.AperFunction,Conductor*%
%ADD21C,0.400000*%
%TD*%
G04 APERTURE END LIST*
D10*
%TO.P,TB1,1,P1*%
%TO.N,VIN1*%
X105357500Y-92112500D03*
D11*
%TO.P,TB1,2,P2*%
%TO.N,GND*%
X105357500Y-95922500D03*
%TD*%
D12*
%TO.P,J1,1,Pin_1*%
%TO.N,+3.3V*%
X145800000Y-85200000D03*
D13*
%TO.P,J1,2,Pin_2*%
%TO.N,UPDI*%
X145800000Y-87740000D03*
%TO.P,J1,3,Pin_3*%
%TO.N,GND*%
X145800000Y-90280000D03*
%TD*%
D14*
%TO.P,J2,1,Pin_1*%
%TO.N,GND*%
X105357500Y-77680000D03*
D11*
%TO.P,J2,2,Pin_2*%
%TO.N,/DOUT1*%
X105357500Y-81340000D03*
D15*
%TO.P,J2,3,Pin_3*%
%TO.N,VOUT1*%
X105357500Y-85000000D03*
%TD*%
D16*
%TO.P,J3,1,Pin_1*%
%TO.N,I2C_SDA*%
X130010000Y-90620000D03*
D17*
%TO.P,J3,2,Pin_2*%
%TO.N,I2C_SCL*%
X130010000Y-88120000D03*
%TO.P,J3,3,Pin_3*%
%TO.N,+3.3V*%
X130010000Y-85520000D03*
%TO.P,J3,4,Pin_4*%
%TO.N,GND*%
X130010000Y-83020000D03*
%TD*%
D18*
%TO.P,SW1,1,1*%
%TO.N,SW1*%
X125900000Y-90100000D03*
X125900000Y-83600000D03*
%TO.P,SW1,2,2*%
%TO.N,GND*%
X121400000Y-90100000D03*
X121400000Y-83600000D03*
%TD*%
D19*
%TO.N,GND*%
X141500000Y-77800000D03*
X134500000Y-93000000D03*
X131698567Y-79600000D03*
X139137500Y-80000000D03*
X139800000Y-87600000D03*
X142900000Y-92500000D03*
X127600000Y-88100000D03*
X120200000Y-76900000D03*
X119500000Y-86500000D03*
X144900000Y-80300000D03*
X141000000Y-92500000D03*
X117400000Y-92700000D03*
X108000000Y-99000000D03*
X145400000Y-94750000D03*
X125600000Y-74600000D03*
X115900000Y-99000000D03*
X141400000Y-94750000D03*
X125000000Y-92500000D03*
X127800000Y-75400000D03*
X127630000Y-95110000D03*
X133800002Y-80000000D03*
X121400000Y-81000000D03*
X118000000Y-76900000D03*
X138400000Y-88600000D03*
X119100000Y-75900000D03*
X124600000Y-74600000D03*
X149500000Y-91500000D03*
X109100000Y-76400000D03*
X148500000Y-75500000D03*
X135600000Y-80000000D03*
X148400000Y-86400000D03*
X101000000Y-94500000D03*
X123510000Y-74660000D03*
X120200000Y-75900000D03*
X139137500Y-77600000D03*
X119800000Y-79500000D03*
X113700000Y-97300000D03*
X114200000Y-74200000D03*
X129600000Y-77600000D03*
X142800000Y-90400000D03*
X149400000Y-98800000D03*
X129600000Y-75000000D03*
X145300000Y-98900000D03*
X119500000Y-92600000D03*
X116600000Y-74200000D03*
X130500000Y-93000000D03*
X141000000Y-99000000D03*
X121060000Y-94050000D03*
X118000000Y-75900000D03*
X112000000Y-74200000D03*
X130500000Y-99000000D03*
X149400000Y-94750000D03*
X110700000Y-95500000D03*
X139140000Y-75000000D03*
X111500000Y-76400000D03*
X141000000Y-87600000D03*
X142800000Y-74400000D03*
X132200000Y-85200000D03*
X121900000Y-97200000D03*
X112100000Y-97100000D03*
X122700000Y-81000000D03*
X116300000Y-92700000D03*
X121000000Y-99000000D03*
X139137500Y-78600000D03*
X129400000Y-79600000D03*
X126600000Y-76100000D03*
X141400000Y-80200000D03*
X144900000Y-76300000D03*
X136500000Y-75000000D03*
X112080000Y-98970000D03*
X124000000Y-81000000D03*
X113100000Y-74200000D03*
X118800000Y-81000000D03*
X135000000Y-99000000D03*
X148400000Y-83200000D03*
X123400000Y-85700000D03*
X111500000Y-75200000D03*
X134400000Y-75000000D03*
X119800000Y-81000000D03*
X115400000Y-74200000D03*
X101000000Y-99000000D03*
X148500000Y-80000000D03*
X130500000Y-95000000D03*
X124000000Y-79800000D03*
X135400000Y-87400000D03*
X136800000Y-94750000D03*
X131337500Y-77600000D03*
X142800000Y-88400000D03*
X137337500Y-80400000D03*
X139800000Y-88600000D03*
X144000000Y-87000000D03*
X126500000Y-79600000D03*
X144400000Y-82800000D03*
X138400000Y-87600000D03*
X126600000Y-74600000D03*
X127000000Y-99000000D03*
X119100000Y-76900000D03*
X118800000Y-79500000D03*
X131800000Y-75000000D03*
X132200000Y-87000000D03*
X118400000Y-92700000D03*
X149400000Y-89000000D03*
%TO.N,VIN1*%
X112700000Y-90500000D03*
X113700000Y-90500000D03*
X111700000Y-93500000D03*
X114700000Y-92500000D03*
X114700000Y-89500000D03*
X110700000Y-93500000D03*
X112700000Y-89500000D03*
X110700000Y-90500000D03*
X111700000Y-89500000D03*
X112700000Y-93500000D03*
X109700000Y-89500000D03*
X113700000Y-89500000D03*
X113700000Y-93500000D03*
X109700000Y-93500000D03*
X114700000Y-93500000D03*
X110700000Y-89500000D03*
X114700000Y-91500000D03*
X114700000Y-90500000D03*
X109700000Y-91500000D03*
X109700000Y-90500000D03*
X111700000Y-90500000D03*
X109700000Y-92500000D03*
%TO.N,+3.3V*%
X135167768Y-81400000D03*
%TO.N,VOUT1*%
X114700000Y-86000000D03*
X114700000Y-85000000D03*
X111700000Y-84000000D03*
X110700000Y-84000000D03*
X114700000Y-84000000D03*
X114700000Y-87000000D03*
X109700000Y-85000000D03*
X111700000Y-88000000D03*
X113700000Y-84000000D03*
X109700000Y-86000000D03*
X110700000Y-88000000D03*
X112700000Y-88000000D03*
X109700000Y-88000000D03*
X109700000Y-87000000D03*
X110700000Y-87000000D03*
X114700000Y-88000000D03*
X109700000Y-84000000D03*
X113700000Y-87000000D03*
X112700000Y-84000000D03*
X112700000Y-87000000D03*
X111700000Y-87000000D03*
X113700000Y-88000000D03*
%TD*%
D20*
%TO.N,+3.3V*%
X130010000Y-85520000D02*
X134130000Y-81400000D01*
X134130000Y-81400000D02*
X135167768Y-81400000D01*
D21*
%TO.N,I2C_SDA*%
X130111371Y-90620000D02*
X130010000Y-90620000D01*
%TO.N,I2C_SCL*%
X130010000Y-88120000D02*
X130080000Y-88120000D01*
%TO.N,SW1*%
X125900000Y-83600000D02*
X125900000Y-90100000D01*
%TD*%
%TA.AperFunction,Conductor*%
%TO.N,GND*%
G36*
X152942539Y-73620185D02*
G01*
X152988294Y-73672989D01*
X152999500Y-73724500D01*
X152999500Y-99975500D01*
X152979815Y-100042539D01*
X152927011Y-100088294D01*
X152875500Y-100099500D01*
X99624500Y-100099500D01*
X99557461Y-100079815D01*
X99511706Y-100027011D01*
X99500500Y-99975500D01*
X99500500Y-83624000D01*
X102794500Y-83624000D01*
X102794500Y-88376000D01*
X102794501Y-88376009D01*
X102806052Y-88483450D01*
X102806054Y-88483462D01*
X102817260Y-88534972D01*
X102851383Y-88637497D01*
X102851386Y-88637503D01*
X102878964Y-88680414D01*
X102898649Y-88747453D01*
X102887443Y-88798966D01*
X102834664Y-88914534D01*
X102814976Y-88981582D01*
X102809949Y-89016549D01*
X102794500Y-89124000D01*
X102794500Y-93876000D01*
X102794501Y-93876009D01*
X102806052Y-93983450D01*
X102806054Y-93983462D01*
X102817260Y-94034972D01*
X102851383Y-94137497D01*
X102851386Y-94137503D01*
X102929171Y-94258537D01*
X102929179Y-94258548D01*
X102974923Y-94311340D01*
X102974926Y-94311343D01*
X102974930Y-94311347D01*
X103083664Y-94405567D01*
X103083667Y-94405568D01*
X103083668Y-94405569D01*
X103177925Y-94448616D01*
X103214541Y-94465338D01*
X103281580Y-94485023D01*
X103281584Y-94485024D01*
X103424000Y-94505500D01*
X103424003Y-94505500D01*
X103644378Y-94505500D01*
X103711417Y-94525185D01*
X103757172Y-94577989D01*
X103767116Y-94647147D01*
X103738091Y-94710703D01*
X103717264Y-94729818D01*
X103545458Y-94854642D01*
X103389642Y-95010458D01*
X103260113Y-95188739D01*
X103160067Y-95385089D01*
X103099175Y-95572499D01*
X103099175Y-95572500D01*
X104866753Y-95572500D01*
X104798389Y-95690909D01*
X104757500Y-95843509D01*
X104757500Y-96001491D01*
X104798389Y-96154091D01*
X104866753Y-96272500D01*
X103099175Y-96272500D01*
X103160067Y-96459910D01*
X103260113Y-96656260D01*
X103389642Y-96834541D01*
X103545458Y-96990357D01*
X103723739Y-97119886D01*
X103920089Y-97219932D01*
X104129664Y-97288026D01*
X104347319Y-97322500D01*
X105007500Y-97322500D01*
X105007500Y-96413246D01*
X105125909Y-96481611D01*
X105278509Y-96522500D01*
X105436491Y-96522500D01*
X105589091Y-96481611D01*
X105707500Y-96413246D01*
X105707500Y-97322500D01*
X106367681Y-97322500D01*
X106585335Y-97288026D01*
X106794910Y-97219932D01*
X106991260Y-97119886D01*
X107169541Y-96990357D01*
X107325357Y-96834541D01*
X107454886Y-96656260D01*
X107554932Y-96459910D01*
X107615825Y-96272500D01*
X105848247Y-96272500D01*
X105916611Y-96154091D01*
X105957500Y-96001491D01*
X105957500Y-95843509D01*
X105916611Y-95690909D01*
X105848247Y-95572500D01*
X107615825Y-95572500D01*
X107615824Y-95572499D01*
X107554932Y-95385089D01*
X107454886Y-95188739D01*
X107325357Y-95010458D01*
X107169541Y-94854642D01*
X106997736Y-94729818D01*
X106955071Y-94674488D01*
X106949092Y-94604875D01*
X106981698Y-94543080D01*
X107042537Y-94508722D01*
X107070622Y-94505500D01*
X115075990Y-94505500D01*
X115076000Y-94505500D01*
X115183456Y-94493947D01*
X115234967Y-94482741D01*
X115269197Y-94471347D01*
X115337497Y-94448616D01*
X115337501Y-94448613D01*
X115337504Y-94448613D01*
X115458543Y-94370825D01*
X115511347Y-94325070D01*
X115605567Y-94216336D01*
X115665338Y-94085459D01*
X115685023Y-94018420D01*
X115685024Y-94018416D01*
X115705500Y-93876000D01*
X115705500Y-89981947D01*
X119900000Y-89981947D01*
X119900000Y-90218052D01*
X119936934Y-90451247D01*
X120009897Y-90675802D01*
X120117089Y-90886178D01*
X120117827Y-90887195D01*
X120117830Y-90887195D01*
X120850000Y-90155025D01*
X120850000Y-90172409D01*
X120887482Y-90312292D01*
X120959890Y-90437708D01*
X121062292Y-90540110D01*
X121187708Y-90612518D01*
X121327591Y-90650000D01*
X121344974Y-90650000D01*
X120612803Y-91382170D01*
X120613828Y-91382914D01*
X120824197Y-91490102D01*
X121048752Y-91563065D01*
X121048751Y-91563065D01*
X121281948Y-91600000D01*
X121518052Y-91600000D01*
X121751247Y-91563065D01*
X121975802Y-91490102D01*
X122186171Y-91382914D01*
X122186175Y-91382911D01*
X122187195Y-91382170D01*
X122187195Y-91382168D01*
X121455026Y-90650000D01*
X121472409Y-90650000D01*
X121612292Y-90612518D01*
X121737708Y-90540110D01*
X121840110Y-90437708D01*
X121912518Y-90312292D01*
X121950000Y-90172409D01*
X121950000Y-90155026D01*
X122682168Y-90887195D01*
X122682170Y-90887195D01*
X122682911Y-90886175D01*
X122682914Y-90886171D01*
X122790102Y-90675802D01*
X122863065Y-90451247D01*
X122900000Y-90218052D01*
X122900000Y-89981947D01*
X122863065Y-89748752D01*
X122790102Y-89524197D01*
X122682914Y-89313828D01*
X122682170Y-89312803D01*
X121950000Y-90044973D01*
X121950000Y-90027591D01*
X121912518Y-89887708D01*
X121840110Y-89762292D01*
X121737708Y-89659890D01*
X121612292Y-89587482D01*
X121472409Y-89550000D01*
X121455027Y-89550000D01*
X122187195Y-88817830D01*
X122187195Y-88817827D01*
X122186178Y-88817089D01*
X121975802Y-88709897D01*
X121751247Y-88636934D01*
X121751248Y-88636934D01*
X121518052Y-88600000D01*
X121281948Y-88600000D01*
X121048752Y-88636934D01*
X120824197Y-88709897D01*
X120613833Y-88817083D01*
X120613830Y-88817084D01*
X120612803Y-88817829D01*
X121344974Y-89550000D01*
X121327591Y-89550000D01*
X121187708Y-89587482D01*
X121062292Y-89659890D01*
X120959890Y-89762292D01*
X120887482Y-89887708D01*
X120850000Y-90027591D01*
X120850000Y-90044974D01*
X120117829Y-89312803D01*
X120117084Y-89313830D01*
X120117083Y-89313833D01*
X120009897Y-89524197D01*
X119936934Y-89748752D01*
X119900000Y-89981947D01*
X115705500Y-89981947D01*
X115705500Y-89124000D01*
X115693947Y-89016544D01*
X115682741Y-88965033D01*
X115671057Y-88929928D01*
X115665090Y-88911998D01*
X115665086Y-88911991D01*
X115648613Y-88862496D01*
X115617078Y-88813428D01*
X115613871Y-88806843D01*
X115609213Y-88779325D01*
X115601350Y-88752545D01*
X115603223Y-88743933D01*
X115602211Y-88737953D01*
X115606926Y-88726908D01*
X115612555Y-88701034D01*
X115665338Y-88585459D01*
X115685023Y-88518420D01*
X115685024Y-88518416D01*
X115705500Y-88376000D01*
X115705500Y-83624000D01*
X115693947Y-83516544D01*
X115686421Y-83481947D01*
X119900000Y-83481947D01*
X119900000Y-83718052D01*
X119936934Y-83951247D01*
X120009897Y-84175802D01*
X120117089Y-84386178D01*
X120117827Y-84387195D01*
X120117830Y-84387195D01*
X120850000Y-83655025D01*
X120850000Y-83672409D01*
X120887482Y-83812292D01*
X120959890Y-83937708D01*
X121062292Y-84040110D01*
X121187708Y-84112518D01*
X121327591Y-84150000D01*
X121344974Y-84150000D01*
X120612803Y-84882170D01*
X120613828Y-84882914D01*
X120824197Y-84990102D01*
X121048752Y-85063065D01*
X121048751Y-85063065D01*
X121281948Y-85100000D01*
X121518052Y-85100000D01*
X121751247Y-85063065D01*
X121975802Y-84990102D01*
X122186171Y-84882914D01*
X122186175Y-84882911D01*
X122187195Y-84882170D01*
X122187195Y-84882168D01*
X121455026Y-84150000D01*
X121472409Y-84150000D01*
X121612292Y-84112518D01*
X121737708Y-84040110D01*
X121840110Y-83937708D01*
X121912518Y-83812292D01*
X121950000Y-83672409D01*
X121950000Y-83655026D01*
X122682168Y-84387195D01*
X122682170Y-84387195D01*
X122682911Y-84386175D01*
X122682914Y-84386171D01*
X122790102Y-84175802D01*
X122863065Y-83951247D01*
X122900000Y-83718052D01*
X122900000Y-83497648D01*
X124599500Y-83497648D01*
X124599500Y-83702351D01*
X124631522Y-83904534D01*
X124694781Y-84099223D01*
X124734531Y-84177235D01*
X124786897Y-84280009D01*
X124787715Y-84281613D01*
X124908028Y-84447213D01*
X125052786Y-84591971D01*
X125218388Y-84712286D01*
X125331794Y-84770069D01*
X125382591Y-84818043D01*
X125399500Y-84880554D01*
X125399500Y-88819444D01*
X125379815Y-88886483D01*
X125331796Y-88929928D01*
X125218388Y-88987713D01*
X125052786Y-89108028D01*
X124908028Y-89252786D01*
X124787715Y-89418386D01*
X124694781Y-89600776D01*
X124631522Y-89795465D01*
X124603405Y-89972993D01*
X124599500Y-89997648D01*
X124599500Y-90202352D01*
X124601987Y-90218052D01*
X124631522Y-90404534D01*
X124694781Y-90599223D01*
X124787715Y-90781613D01*
X124908028Y-90947213D01*
X125052786Y-91091971D01*
X125207749Y-91204556D01*
X125218390Y-91212287D01*
X125334607Y-91271503D01*
X125400776Y-91305218D01*
X125400778Y-91305218D01*
X125400781Y-91305220D01*
X125505137Y-91339127D01*
X125595465Y-91368477D01*
X125681906Y-91382168D01*
X125797648Y-91400500D01*
X125797649Y-91400500D01*
X126002351Y-91400500D01*
X126002352Y-91400500D01*
X126204534Y-91368477D01*
X126399219Y-91305220D01*
X126581610Y-91212287D01*
X126674590Y-91144732D01*
X126747213Y-91091971D01*
X126747215Y-91091968D01*
X126747219Y-91091966D01*
X126891966Y-90947219D01*
X126891968Y-90947215D01*
X126891971Y-90947213D01*
X126944732Y-90874590D01*
X127012287Y-90781610D01*
X127105220Y-90599219D01*
X127168477Y-90404534D01*
X127200500Y-90202352D01*
X127200500Y-89997648D01*
X127181850Y-89879901D01*
X127168477Y-89795465D01*
X127106599Y-89605026D01*
X127105220Y-89600781D01*
X127105218Y-89600778D01*
X127105218Y-89600776D01*
X127039813Y-89472413D01*
X127012287Y-89418390D01*
X126996754Y-89397011D01*
X126891971Y-89252786D01*
X126747213Y-89108028D01*
X126581611Y-88987713D01*
X126468204Y-88929928D01*
X126417409Y-88881953D01*
X126400500Y-88819444D01*
X126400500Y-88029448D01*
X128459500Y-88029448D01*
X128459500Y-88210551D01*
X128487829Y-88389410D01*
X128543787Y-88561636D01*
X128543788Y-88561639D01*
X128626006Y-88722997D01*
X128732441Y-88869494D01*
X128732445Y-88869499D01*
X128860500Y-88997554D01*
X128860505Y-88997558D01*
X128988287Y-89090396D01*
X129007006Y-89103996D01*
X129112484Y-89157740D01*
X129168360Y-89186211D01*
X129168366Y-89186213D01*
X129295650Y-89227569D01*
X129353326Y-89267006D01*
X129380525Y-89331364D01*
X129368611Y-89400210D01*
X129321367Y-89451687D01*
X129257333Y-89469500D01*
X128715143Y-89469500D01*
X128715117Y-89469502D01*
X128690012Y-89472413D01*
X128690008Y-89472415D01*
X128587235Y-89517793D01*
X128507794Y-89597234D01*
X128462415Y-89700006D01*
X128462415Y-89700008D01*
X128459500Y-89725131D01*
X128459500Y-91514856D01*
X128459502Y-91514882D01*
X128462413Y-91539987D01*
X128462415Y-91539991D01*
X128507793Y-91642764D01*
X128507794Y-91642765D01*
X128587235Y-91722206D01*
X128690009Y-91767585D01*
X128715135Y-91770500D01*
X131304864Y-91770499D01*
X131304879Y-91770497D01*
X131304882Y-91770497D01*
X131329987Y-91767586D01*
X131329988Y-91767585D01*
X131329991Y-91767585D01*
X131432765Y-91722206D01*
X131512206Y-91642765D01*
X131557585Y-91539991D01*
X131560500Y-91514865D01*
X131560499Y-90173753D01*
X144450000Y-90173753D01*
X144450000Y-90386246D01*
X144483242Y-90596127D01*
X144483242Y-90596130D01*
X144548907Y-90798222D01*
X144629206Y-90955817D01*
X145300000Y-90285025D01*
X145300000Y-90345826D01*
X145334075Y-90472993D01*
X145399901Y-90587007D01*
X145492993Y-90680099D01*
X145607007Y-90745925D01*
X145734174Y-90780000D01*
X145794974Y-90780000D01*
X145124180Y-91450791D01*
X145281783Y-91531094D01*
X145483871Y-91596757D01*
X145693754Y-91630000D01*
X145906246Y-91630000D01*
X146116127Y-91596757D01*
X146116130Y-91596757D01*
X146318218Y-91531094D01*
X146318225Y-91531091D01*
X146475818Y-91450791D01*
X145805027Y-90780000D01*
X145865826Y-90780000D01*
X145992993Y-90745925D01*
X146107007Y-90680099D01*
X146200099Y-90587007D01*
X146265925Y-90472993D01*
X146300000Y-90345826D01*
X146300000Y-90285026D01*
X146970791Y-90955818D01*
X147051091Y-90798225D01*
X147051094Y-90798218D01*
X147116757Y-90596130D01*
X147116757Y-90596127D01*
X147150000Y-90386246D01*
X147150000Y-90173753D01*
X147116757Y-89963872D01*
X147116757Y-89963869D01*
X147051094Y-89761781D01*
X146970791Y-89604180D01*
X146300000Y-90274972D01*
X146300000Y-90214174D01*
X146265925Y-90087007D01*
X146200099Y-89972993D01*
X146107007Y-89879901D01*
X145992993Y-89814075D01*
X145865826Y-89780000D01*
X145805027Y-89780000D01*
X146475818Y-89109207D01*
X146318219Y-89028905D01*
X146289289Y-89019505D01*
X146231614Y-88980067D01*
X146204417Y-88915708D01*
X146216333Y-88846861D01*
X146263578Y-88795386D01*
X146271297Y-88791098D01*
X146402994Y-88723996D01*
X146549501Y-88617553D01*
X146677553Y-88489501D01*
X146783996Y-88342994D01*
X146866211Y-88181639D01*
X146922171Y-88009409D01*
X146936765Y-87917259D01*
X146950500Y-87830551D01*
X146950500Y-87649448D01*
X146929522Y-87517006D01*
X146922171Y-87470591D01*
X146866211Y-87298361D01*
X146866211Y-87298360D01*
X146837718Y-87242441D01*
X146783996Y-87137006D01*
X146723535Y-87053788D01*
X146677558Y-86990505D01*
X146677554Y-86990500D01*
X146549499Y-86862445D01*
X146549494Y-86862441D01*
X146402997Y-86756006D01*
X146402996Y-86756005D01*
X146402994Y-86756004D01*
X146351300Y-86729664D01*
X146241639Y-86673788D01*
X146241636Y-86673787D01*
X146069410Y-86617829D01*
X145937728Y-86596972D01*
X145874594Y-86567042D01*
X145837663Y-86507731D01*
X145838661Y-86437868D01*
X145877271Y-86379636D01*
X145941235Y-86351522D01*
X145957120Y-86350499D01*
X146694864Y-86350499D01*
X146694879Y-86350497D01*
X146694882Y-86350497D01*
X146719987Y-86347586D01*
X146719988Y-86347585D01*
X146719991Y-86347585D01*
X146822765Y-86302206D01*
X146902206Y-86222765D01*
X146947585Y-86119991D01*
X146950500Y-86094865D01*
X146950499Y-84305136D01*
X146950497Y-84305117D01*
X146947586Y-84280012D01*
X146947585Y-84280010D01*
X146947585Y-84280009D01*
X146902206Y-84177235D01*
X146822765Y-84097794D01*
X146816378Y-84094974D01*
X146719992Y-84052415D01*
X146694865Y-84049500D01*
X144905143Y-84049500D01*
X144905117Y-84049502D01*
X144880012Y-84052413D01*
X144880008Y-84052415D01*
X144777235Y-84097793D01*
X144697794Y-84177234D01*
X144652415Y-84280006D01*
X144652415Y-84280008D01*
X144649500Y-84305131D01*
X144649500Y-86094856D01*
X144649502Y-86094882D01*
X144652413Y-86119987D01*
X144652415Y-86119991D01*
X144697793Y-86222764D01*
X144697794Y-86222765D01*
X144777235Y-86302206D01*
X144880009Y-86347585D01*
X144905135Y-86350500D01*
X145642873Y-86350499D01*
X145709910Y-86370183D01*
X145755665Y-86422987D01*
X145765609Y-86492146D01*
X145736584Y-86555702D01*
X145677806Y-86593476D01*
X145662270Y-86596972D01*
X145530589Y-86617829D01*
X145358363Y-86673787D01*
X145358360Y-86673788D01*
X145197002Y-86756006D01*
X145050505Y-86862441D01*
X145050500Y-86862445D01*
X144922445Y-86990500D01*
X144922441Y-86990505D01*
X144816006Y-87137002D01*
X144733788Y-87298360D01*
X144733787Y-87298363D01*
X144677829Y-87470589D01*
X144649500Y-87649448D01*
X144649500Y-87830551D01*
X144677829Y-88009410D01*
X144733787Y-88181636D01*
X144733788Y-88181639D01*
X144816006Y-88342997D01*
X144922441Y-88489494D01*
X144922445Y-88489499D01*
X145050500Y-88617554D01*
X145050505Y-88617558D01*
X145077959Y-88637504D01*
X145197006Y-88723996D01*
X145298780Y-88775853D01*
X145328684Y-88791090D01*
X145379480Y-88839065D01*
X145396275Y-88906886D01*
X145373737Y-88973021D01*
X145319022Y-89016472D01*
X145310708Y-89019506D01*
X145281781Y-89028905D01*
X145124181Y-89109207D01*
X145794974Y-89780000D01*
X145734174Y-89780000D01*
X145607007Y-89814075D01*
X145492993Y-89879901D01*
X145399901Y-89972993D01*
X145334075Y-90087007D01*
X145300000Y-90214174D01*
X145300000Y-90274973D01*
X144629207Y-89604181D01*
X144548905Y-89761781D01*
X144483242Y-89963869D01*
X144483242Y-89963872D01*
X144450000Y-90173753D01*
X131560499Y-90173753D01*
X131560499Y-89725136D01*
X131560497Y-89725117D01*
X131557586Y-89700012D01*
X131557585Y-89700010D01*
X131557585Y-89700009D01*
X131512206Y-89597235D01*
X131432765Y-89517794D01*
X131432763Y-89517793D01*
X131329992Y-89472415D01*
X131304868Y-89469500D01*
X130762668Y-89469500D01*
X130695629Y-89449815D01*
X130649874Y-89397011D01*
X130639930Y-89327853D01*
X130668955Y-89264297D01*
X130724351Y-89227569D01*
X130851633Y-89186213D01*
X130851639Y-89186211D01*
X131012994Y-89103996D01*
X131159501Y-88997553D01*
X131287553Y-88869501D01*
X131393996Y-88722994D01*
X131476211Y-88561639D01*
X131532171Y-88389409D01*
X131546765Y-88297259D01*
X131560500Y-88210551D01*
X131560500Y-88029448D01*
X131544019Y-87925397D01*
X131532171Y-87850591D01*
X131476211Y-87678361D01*
X131476211Y-87678360D01*
X131447740Y-87622484D01*
X131393996Y-87517006D01*
X131360272Y-87470589D01*
X131287558Y-87370505D01*
X131287554Y-87370500D01*
X131159499Y-87242445D01*
X131159494Y-87242441D01*
X131012997Y-87136006D01*
X131012996Y-87136005D01*
X131012994Y-87136004D01*
X130961300Y-87109664D01*
X130851639Y-87053788D01*
X130851636Y-87053787D01*
X130679410Y-86997829D01*
X130500551Y-86969500D01*
X130500546Y-86969500D01*
X129519454Y-86969500D01*
X129519449Y-86969500D01*
X129340589Y-86997829D01*
X129168363Y-87053787D01*
X129168360Y-87053788D01*
X129007002Y-87136006D01*
X128860505Y-87242441D01*
X128860500Y-87242445D01*
X128732445Y-87370500D01*
X128732441Y-87370505D01*
X128626006Y-87517002D01*
X128543788Y-87678360D01*
X128543787Y-87678363D01*
X128487829Y-87850589D01*
X128459500Y-88029448D01*
X126400500Y-88029448D01*
X126400500Y-84880554D01*
X126420185Y-84813515D01*
X126468206Y-84770069D01*
X126581610Y-84712287D01*
X126631144Y-84676298D01*
X126747213Y-84591971D01*
X126747215Y-84591968D01*
X126747219Y-84591966D01*
X126891966Y-84447219D01*
X126891968Y-84447215D01*
X126891971Y-84447213D01*
X126995208Y-84305117D01*
X127012287Y-84281610D01*
X127105220Y-84099219D01*
X127168477Y-83904534D01*
X127200500Y-83702352D01*
X127200500Y-83497648D01*
X127168477Y-83295466D01*
X127164642Y-83283664D01*
X127114447Y-83129179D01*
X127105220Y-83100781D01*
X127105218Y-83100778D01*
X127105218Y-83100776D01*
X127012287Y-82918390D01*
X126900594Y-82764656D01*
X126900593Y-82764654D01*
X126893500Y-82754893D01*
X126891966Y-82752781D01*
X126809184Y-82669999D01*
X128304248Y-82669999D01*
X128304248Y-82670000D01*
X129652894Y-82670000D01*
X129609901Y-82712993D01*
X129544075Y-82827007D01*
X129510000Y-82954174D01*
X129510000Y-83085826D01*
X129544075Y-83212993D01*
X129609901Y-83327007D01*
X129652894Y-83370000D01*
X128304248Y-83370000D01*
X128358907Y-83538222D01*
X128455379Y-83727557D01*
X128580272Y-83899459D01*
X128580276Y-83899464D01*
X128730535Y-84049723D01*
X128730540Y-84049727D01*
X128902442Y-84174620D01*
X129092511Y-84271466D01*
X129143307Y-84319441D01*
X129160102Y-84387262D01*
X129137565Y-84453397D01*
X129092512Y-84492435D01*
X129007004Y-84536004D01*
X128860505Y-84642441D01*
X128860500Y-84642445D01*
X128732445Y-84770500D01*
X128732441Y-84770505D01*
X128626006Y-84917002D01*
X128543788Y-85078360D01*
X128543787Y-85078363D01*
X128487829Y-85250589D01*
X128459500Y-85429448D01*
X128459500Y-85610551D01*
X128487829Y-85789410D01*
X128543787Y-85961636D01*
X128543788Y-85961639D01*
X128599664Y-86071300D01*
X128611671Y-86094865D01*
X128626006Y-86122997D01*
X128732441Y-86269494D01*
X128732445Y-86269499D01*
X128860500Y-86397554D01*
X128860505Y-86397558D01*
X128915988Y-86437868D01*
X129007006Y-86503996D01*
X129108484Y-86555702D01*
X129168360Y-86586211D01*
X129168363Y-86586212D01*
X129201480Y-86596972D01*
X129340591Y-86642171D01*
X129423429Y-86655291D01*
X129519449Y-86670500D01*
X129519454Y-86670500D01*
X130500551Y-86670500D01*
X130587259Y-86656765D01*
X130679409Y-86642171D01*
X130851639Y-86586211D01*
X131012994Y-86503996D01*
X131159501Y-86397553D01*
X131287553Y-86269501D01*
X131393996Y-86122994D01*
X131476211Y-85961639D01*
X131532171Y-85789409D01*
X131546765Y-85697259D01*
X131560500Y-85610551D01*
X131560500Y-85429448D01*
X131544019Y-85325397D01*
X131532171Y-85250591D01*
X131476211Y-85078361D01*
X131476206Y-85078350D01*
X131434061Y-84995636D01*
X131421164Y-84926967D01*
X131447440Y-84862227D01*
X131456864Y-84851660D01*
X132094651Y-84213873D01*
X132888426Y-83420099D01*
X134321706Y-81986819D01*
X134383029Y-81953334D01*
X134409387Y-81950500D01*
X134693168Y-81950500D01*
X134760207Y-81970185D01*
X134762059Y-81971398D01*
X134835957Y-82020775D01*
X134835959Y-82020776D01*
X134835963Y-82020778D01*
X134963435Y-82073578D01*
X134963440Y-82073580D01*
X134963444Y-82073580D01*
X134963445Y-82073581D01*
X135098772Y-82100500D01*
X135098775Y-82100500D01*
X135236763Y-82100500D01*
X135327809Y-82082389D01*
X135372096Y-82073580D01*
X135499579Y-82020775D01*
X135614310Y-81944114D01*
X135711882Y-81846542D01*
X135788543Y-81731811D01*
X135841348Y-81604328D01*
X135868268Y-81468993D01*
X135868268Y-81331007D01*
X135868268Y-81331004D01*
X135841349Y-81195677D01*
X135841348Y-81195676D01*
X135841348Y-81195672D01*
X135841346Y-81195667D01*
X135788546Y-81068195D01*
X135788539Y-81068182D01*
X135711882Y-80953458D01*
X135711879Y-80953454D01*
X135614313Y-80855888D01*
X135614309Y-80855885D01*
X135499585Y-80779228D01*
X135499572Y-80779221D01*
X135372100Y-80726421D01*
X135372090Y-80726418D01*
X135236763Y-80699500D01*
X135236761Y-80699500D01*
X135098775Y-80699500D01*
X135098773Y-80699500D01*
X134963445Y-80726418D01*
X134963435Y-80726421D01*
X134835963Y-80779221D01*
X134835951Y-80779228D01*
X134762059Y-80828602D01*
X134695382Y-80849480D01*
X134693168Y-80849500D01*
X134057525Y-80849500D01*
X133946803Y-80879168D01*
X133946802Y-80879167D01*
X133917519Y-80887014D01*
X133917514Y-80887016D01*
X133791986Y-80959489D01*
X133791983Y-80959491D01*
X131942710Y-82808764D01*
X131881387Y-82842249D01*
X131811695Y-82837265D01*
X131755762Y-82795393D01*
X131732556Y-82740481D01*
X131726757Y-82703872D01*
X131726757Y-82703869D01*
X131661095Y-82501782D01*
X131564620Y-82312442D01*
X131439727Y-82140540D01*
X131439723Y-82140535D01*
X131289464Y-81990276D01*
X131289459Y-81990272D01*
X131117557Y-81865379D01*
X130928217Y-81768904D01*
X130726129Y-81703242D01*
X130516246Y-81670000D01*
X130360000Y-81670000D01*
X130360000Y-82662894D01*
X130317007Y-82619901D01*
X130202993Y-82554075D01*
X130075826Y-82520000D01*
X129944174Y-82520000D01*
X129817007Y-82554075D01*
X129702993Y-82619901D01*
X129660000Y-82662894D01*
X129660000Y-81670000D01*
X129503754Y-81670000D01*
X129293872Y-81703242D01*
X129293869Y-81703242D01*
X129091782Y-81768904D01*
X128902442Y-81865379D01*
X128730540Y-81990272D01*
X128730535Y-81990276D01*
X128580276Y-82140535D01*
X128580272Y-82140540D01*
X128455379Y-82312442D01*
X128358907Y-82501777D01*
X128304248Y-82669999D01*
X126809184Y-82669999D01*
X126747219Y-82608034D01*
X126747213Y-82608028D01*
X126581613Y-82487715D01*
X126581612Y-82487714D01*
X126581610Y-82487713D01*
X126512589Y-82452545D01*
X126399223Y-82394781D01*
X126204534Y-82331522D01*
X126029995Y-82303878D01*
X126002352Y-82299500D01*
X125797648Y-82299500D01*
X125773329Y-82303351D01*
X125595465Y-82331522D01*
X125400776Y-82394781D01*
X125218386Y-82487715D01*
X125052786Y-82608028D01*
X124908028Y-82752786D01*
X124787715Y-82918386D01*
X124694781Y-83100776D01*
X124631522Y-83295465D01*
X124599500Y-83497648D01*
X122900000Y-83497648D01*
X122900000Y-83481947D01*
X122863065Y-83248752D01*
X122790102Y-83024197D01*
X122682914Y-82813828D01*
X122682170Y-82812803D01*
X121950000Y-83544973D01*
X121950000Y-83527591D01*
X121912518Y-83387708D01*
X121840110Y-83262292D01*
X121737708Y-83159890D01*
X121612292Y-83087482D01*
X121472409Y-83050000D01*
X121455027Y-83050000D01*
X122187195Y-82317830D01*
X122187195Y-82317827D01*
X122186178Y-82317089D01*
X121975802Y-82209897D01*
X121751247Y-82136934D01*
X121751248Y-82136934D01*
X121518052Y-82100000D01*
X121281948Y-82100000D01*
X121048752Y-82136934D01*
X120824197Y-82209897D01*
X120613833Y-82317083D01*
X120613830Y-82317084D01*
X120612803Y-82317829D01*
X121344974Y-83050000D01*
X121327591Y-83050000D01*
X121187708Y-83087482D01*
X121062292Y-83159890D01*
X120959890Y-83262292D01*
X120887482Y-83387708D01*
X120850000Y-83527591D01*
X120850000Y-83544974D01*
X120117829Y-82812803D01*
X120117084Y-82813830D01*
X120117083Y-82813833D01*
X120009897Y-83024197D01*
X119936934Y-83248752D01*
X119900000Y-83481947D01*
X115686421Y-83481947D01*
X115682741Y-83465033D01*
X115682637Y-83464722D01*
X115648616Y-83362502D01*
X115648613Y-83362496D01*
X115625805Y-83327007D01*
X115570825Y-83241457D01*
X115546161Y-83212993D01*
X115525076Y-83188659D01*
X115525072Y-83188656D01*
X115525070Y-83188653D01*
X115416336Y-83094433D01*
X115416333Y-83094431D01*
X115416331Y-83094430D01*
X115285465Y-83034664D01*
X115285460Y-83034662D01*
X115285459Y-83034662D01*
X115218420Y-83014977D01*
X115218422Y-83014977D01*
X115218417Y-83014976D01*
X115156347Y-83006052D01*
X115076000Y-82994500D01*
X103424000Y-82994500D01*
X103423991Y-82994500D01*
X103423990Y-82994501D01*
X103316549Y-83006052D01*
X103316537Y-83006054D01*
X103265027Y-83017260D01*
X103162502Y-83051383D01*
X103162496Y-83051386D01*
X103041462Y-83129171D01*
X103041451Y-83129179D01*
X102988659Y-83174923D01*
X102894433Y-83283664D01*
X102894430Y-83283668D01*
X102834664Y-83414534D01*
X102814976Y-83481582D01*
X102809949Y-83516549D01*
X102794500Y-83624000D01*
X99500500Y-83624000D01*
X99500500Y-81245513D01*
X103257000Y-81245513D01*
X103257000Y-81434486D01*
X103286559Y-81621118D01*
X103344954Y-81800836D01*
X103421212Y-81950500D01*
X103430740Y-81969199D01*
X103541810Y-82122073D01*
X103675427Y-82255690D01*
X103828301Y-82366760D01*
X103907847Y-82407290D01*
X103996663Y-82452545D01*
X103996665Y-82452545D01*
X103996668Y-82452547D01*
X104092997Y-82483846D01*
X104176381Y-82510940D01*
X104363014Y-82540500D01*
X104363019Y-82540500D01*
X106351986Y-82540500D01*
X106538618Y-82510940D01*
X106566803Y-82501782D01*
X106718332Y-82452547D01*
X106886699Y-82366760D01*
X107039573Y-82255690D01*
X107173190Y-82122073D01*
X107284260Y-81969199D01*
X107370047Y-81800832D01*
X107428440Y-81621118D01*
X107452534Y-81468995D01*
X107458000Y-81434486D01*
X107458000Y-81245513D01*
X107428440Y-81058881D01*
X107370045Y-80879163D01*
X107319122Y-80779221D01*
X107284260Y-80710801D01*
X107173190Y-80557927D01*
X107039573Y-80424310D01*
X106886699Y-80313240D01*
X106718336Y-80227454D01*
X106538618Y-80169059D01*
X106351986Y-80139500D01*
X106351981Y-80139500D01*
X104363019Y-80139500D01*
X104363014Y-80139500D01*
X104176381Y-80169059D01*
X103996663Y-80227454D01*
X103828300Y-80313240D01*
X103741079Y-80376610D01*
X103675427Y-80424310D01*
X103675425Y-80424312D01*
X103675424Y-80424312D01*
X103541812Y-80557924D01*
X103541812Y-80557925D01*
X103541810Y-80557927D01*
X103494110Y-80623579D01*
X103430740Y-80710800D01*
X103344954Y-80879163D01*
X103286559Y-81058881D01*
X103257000Y-81245513D01*
X99500500Y-81245513D01*
X99500500Y-78482796D01*
X103057500Y-78482796D01*
X103072463Y-78615601D01*
X103072465Y-78615612D01*
X103131386Y-78783997D01*
X103131391Y-78784007D01*
X103226296Y-78935046D01*
X103226301Y-78935052D01*
X103352447Y-79061198D01*
X103352453Y-79061203D01*
X103503492Y-79156108D01*
X103503502Y-79156113D01*
X103671887Y-79215034D01*
X103671898Y-79215036D01*
X103804703Y-79229999D01*
X103804707Y-79230000D01*
X104607500Y-79230000D01*
X106107500Y-79230000D01*
X106910293Y-79230000D01*
X106910296Y-79229999D01*
X107043101Y-79215036D01*
X107043112Y-79215034D01*
X107211497Y-79156113D01*
X107211507Y-79156108D01*
X107362546Y-79061203D01*
X107362552Y-79061198D01*
X107488698Y-78935052D01*
X107488703Y-78935046D01*
X107583608Y-78784007D01*
X107583613Y-78783997D01*
X107642534Y-78615612D01*
X107642536Y-78615601D01*
X107657499Y-78482796D01*
X107657500Y-78482792D01*
X107657500Y-78430000D01*
X106107500Y-78430000D01*
X106107500Y-79230000D01*
X104607500Y-79230000D01*
X104607500Y-78430000D01*
X103057500Y-78430000D01*
X103057500Y-78482796D01*
X99500500Y-78482796D01*
X99500500Y-77476009D01*
X104757500Y-77476009D01*
X104757500Y-77883991D01*
X104798389Y-78036591D01*
X104877381Y-78173408D01*
X104989092Y-78285119D01*
X105125909Y-78364111D01*
X105278509Y-78405000D01*
X105436491Y-78405000D01*
X105589091Y-78364111D01*
X105725908Y-78285119D01*
X105837619Y-78173408D01*
X105916611Y-78036591D01*
X105957500Y-77883991D01*
X105957500Y-77476009D01*
X105916611Y-77323409D01*
X105837619Y-77186592D01*
X105725908Y-77074881D01*
X105589091Y-76995889D01*
X105436491Y-76955000D01*
X105278509Y-76955000D01*
X105125909Y-76995889D01*
X104989092Y-77074881D01*
X104877381Y-77186592D01*
X104798389Y-77323409D01*
X104757500Y-77476009D01*
X99500500Y-77476009D01*
X99500500Y-76877203D01*
X103057500Y-76877203D01*
X103057500Y-76930000D01*
X104607500Y-76930000D01*
X106107500Y-76930000D01*
X107657500Y-76930000D01*
X107657500Y-76877207D01*
X107657499Y-76877203D01*
X107642536Y-76744398D01*
X107642534Y-76744387D01*
X107583613Y-76576002D01*
X107583608Y-76575992D01*
X107488703Y-76424953D01*
X107488698Y-76424947D01*
X107362552Y-76298801D01*
X107362546Y-76298796D01*
X107211507Y-76203891D01*
X107211497Y-76203886D01*
X107043112Y-76144965D01*
X107043101Y-76144963D01*
X106910296Y-76130000D01*
X106107500Y-76130000D01*
X106107500Y-76930000D01*
X104607500Y-76930000D01*
X104607500Y-76130000D01*
X103804703Y-76130000D01*
X103671898Y-76144963D01*
X103671887Y-76144965D01*
X103503502Y-76203886D01*
X103503492Y-76203891D01*
X103352453Y-76298796D01*
X103352447Y-76298801D01*
X103226301Y-76424947D01*
X103226296Y-76424953D01*
X103131391Y-76575992D01*
X103131386Y-76576002D01*
X103072465Y-76744387D01*
X103072463Y-76744398D01*
X103057500Y-76877203D01*
X99500500Y-76877203D01*
X99500500Y-73724500D01*
X99520185Y-73657461D01*
X99572989Y-73611706D01*
X99624500Y-73600500D01*
X152875500Y-73600500D01*
X152942539Y-73620185D01*
G37*
%TD.AperFunction*%
%TD*%
%TA.AperFunction,Conductor*%
%TO.N,VOUT1*%
G36*
X115143039Y-83519685D02*
G01*
X115188794Y-83572489D01*
X115200000Y-83624000D01*
X115200000Y-88376000D01*
X115180315Y-88443039D01*
X115127511Y-88488794D01*
X115076000Y-88500000D01*
X103424000Y-88500000D01*
X103356961Y-88480315D01*
X103311206Y-88427511D01*
X103300000Y-88376000D01*
X103300000Y-83624000D01*
X103319685Y-83556961D01*
X103372489Y-83511206D01*
X103424000Y-83500000D01*
X115076000Y-83500000D01*
X115143039Y-83519685D01*
G37*
%TD.AperFunction*%
%TD*%
%TA.AperFunction,Conductor*%
%TO.N,VIN1*%
G36*
X115143039Y-89019685D02*
G01*
X115188794Y-89072489D01*
X115200000Y-89124000D01*
X115200000Y-93876000D01*
X115180315Y-93943039D01*
X115127511Y-93988794D01*
X115076000Y-94000000D01*
X103424000Y-94000000D01*
X103356961Y-93980315D01*
X103311206Y-93927511D01*
X103300000Y-93876000D01*
X103300000Y-89124000D01*
X103319685Y-89056961D01*
X103372489Y-89011206D01*
X103424000Y-89000000D01*
X115076000Y-89000000D01*
X115143039Y-89019685D01*
G37*
%TD.AperFunction*%
%TD*%
M02*
