%TF.GenerationSoftware,KiCad,Pcbnew,9.0.7*%
%TF.CreationDate,2026-08-08T18:19:04-04:00*%
%TF.ProjectId,RP2040_Count,52503230-3430-45f4-936f-756e742e6b69,v1*%
%TF.SameCoordinates,Original*%
%TF.FileFunction,Copper,L1,Top*%
%TF.FilePolarity,Positive*%
%FSLAX46Y46*%
G04 Gerber Fmt 4.6, Leading zero omitted, Abs format (unit mm)*
G04 Created by KiCad (PCBNEW 9.0.7) date 2026-08-08 18:19:04*
%MOMM*%
%LPD*%
G01*
G04 APERTURE LIST*
G04 Aperture macros list*
%AMRoundRect*
0 Rectangle with rounded corners*
0 $1 Rounding radius*
0 $2 $3 $4 $5 $6 $7 $8 $9 X,Y pos of 4 corners*
0 Add a 4 corners polygon primitive as box body*
4,1,4,$2,$3,$4,$5,$6,$7,$8,$9,$2,$3,0*
0 Add four circle primitives for the rounded corners*
1,1,$1+$1,$2,$3*
1,1,$1+$1,$4,$5*
1,1,$1+$1,$6,$7*
1,1,$1+$1,$8,$9*
0 Add four rect primitives between the rounded corners*
20,1,$1+$1,$2,$3,$4,$5,0*
20,1,$1+$1,$4,$5,$6,$7,0*
20,1,$1+$1,$6,$7,$8,$9,0*
20,1,$1+$1,$8,$9,$2,$3,0*%
G04 Aperture macros list end*
%TA.AperFunction,SMDPad,CuDef*%
%ADD10RoundRect,0.237500X0.237500X-0.250000X0.237500X0.250000X-0.237500X0.250000X-0.237500X-0.250000X0*%
%TD*%
%TA.AperFunction,SMDPad,CuDef*%
%ADD11RoundRect,0.218750X-0.256250X0.218750X-0.256250X-0.218750X0.256250X-0.218750X0.256250X0.218750X0*%
%TD*%
%TA.AperFunction,SMDPad,CuDef*%
%ADD12RoundRect,0.249999X1.425001X-0.450001X1.425001X0.450001X-1.425001X0.450001X-1.425001X-0.450001X0*%
%TD*%
%TA.AperFunction,SMDPad,CuDef*%
%ADD13RoundRect,0.150000X-0.512500X-0.150000X0.512500X-0.150000X0.512500X0.150000X-0.512500X0.150000X0*%
%TD*%
%TA.AperFunction,ComponentPad*%
%ADD14RoundRect,0.250000X-1.550000X0.650000X-1.550000X-0.650000X1.550000X-0.650000X1.550000X0.650000X0*%
%TD*%
%TA.AperFunction,ComponentPad*%
%ADD15O,3.600000X1.800000*%
%TD*%
%TA.AperFunction,SMDPad,CuDef*%
%ADD16RoundRect,0.237500X0.250000X0.237500X-0.250000X0.237500X-0.250000X-0.237500X0.250000X-0.237500X0*%
%TD*%
%TA.AperFunction,SMDPad,CuDef*%
%ADD17RoundRect,0.237500X0.237500X-0.300000X0.237500X0.300000X-0.237500X0.300000X-0.237500X-0.300000X0*%
%TD*%
%TA.AperFunction,SMDPad,CuDef*%
%ADD18RoundRect,0.237500X-0.300000X-0.237500X0.300000X-0.237500X0.300000X0.237500X-0.300000X0.237500X0*%
%TD*%
%TA.AperFunction,SMDPad,CuDef*%
%ADD19RoundRect,0.250000X-0.475000X0.337500X-0.475000X-0.337500X0.475000X-0.337500X0.475000X0.337500X0*%
%TD*%
%TA.AperFunction,SMDPad,CuDef*%
%ADD20RoundRect,0.150000X-0.150000X0.825000X-0.150000X-0.825000X0.150000X-0.825000X0.150000X0.825000X0*%
%TD*%
%TA.AperFunction,SMDPad,CuDef*%
%ADD21R,0.700000X0.510000*%
%TD*%
%TA.AperFunction,SMDPad,CuDef*%
%ADD22RoundRect,0.150000X0.150000X-0.825000X0.150000X0.825000X-0.150000X0.825000X-0.150000X-0.825000X0*%
%TD*%
%TA.AperFunction,SMDPad,CuDef*%
%ADD23RoundRect,0.250000X0.475000X-0.337500X0.475000X0.337500X-0.475000X0.337500X-0.475000X-0.337500X0*%
%TD*%
%TA.AperFunction,SMDPad,CuDef*%
%ADD24RoundRect,0.237500X-0.250000X-0.237500X0.250000X-0.237500X0.250000X0.237500X-0.250000X0.237500X0*%
%TD*%
%TA.AperFunction,SMDPad,CuDef*%
%ADD25RoundRect,0.375000X-0.625000X-0.375000X0.625000X-0.375000X0.625000X0.375000X-0.625000X0.375000X0*%
%TD*%
%TA.AperFunction,SMDPad,CuDef*%
%ADD26RoundRect,0.500000X-0.500000X-1.400000X0.500000X-1.400000X0.500000X1.400000X-0.500000X1.400000X0*%
%TD*%
%TA.AperFunction,SMDPad,CuDef*%
%ADD27RoundRect,0.237500X0.300000X0.237500X-0.300000X0.237500X-0.300000X-0.237500X0.300000X-0.237500X0*%
%TD*%
%TA.AperFunction,ComponentPad*%
%ADD28R,1.700000X1.700000*%
%TD*%
%TA.AperFunction,ComponentPad*%
%ADD29C,1.700000*%
%TD*%
%TA.AperFunction,ComponentPad*%
%ADD30RoundRect,0.291667X-1.508333X0.758333X-1.508333X-0.758333X1.508333X-0.758333X1.508333X0.758333X0*%
%TD*%
%TA.AperFunction,ComponentPad*%
%ADD31O,3.600000X2.100000*%
%TD*%
%TA.AperFunction,ComponentPad*%
%ADD32R,2.500000X1.700000*%
%TD*%
%TA.AperFunction,ComponentPad*%
%ADD33O,2.500000X1.700000*%
%TD*%
%TA.AperFunction,ComponentPad*%
%ADD34C,2.000000*%
%TD*%
%TA.AperFunction,ViaPad*%
%ADD35C,0.800000*%
%TD*%
%TA.AperFunction,Conductor*%
%ADD36C,0.500000*%
%TD*%
%TA.AperFunction,Conductor*%
%ADD37C,0.600000*%
%TD*%
%TA.AperFunction,Conductor*%
%ADD38C,1.000000*%
%TD*%
%TA.AperFunction,Conductor*%
%ADD39C,0.400000*%
%TD*%
G04 APERTURE END LIST*
D10*
%TO.P,R5,1*%
%TO.N,Net-(D1-K)*%
X142800000Y-78112500D03*
%TO.P,R5,2*%
%TO.N,GND*%
X142800000Y-76287500D03*
%TD*%
D11*
%TO.P,D1,1,K*%
%TO.N,Net-(D1-K)*%
X142800000Y-79812500D03*
%TO.P,D1,2,A*%
%TO.N,+3.3V*%
X142800000Y-81387500D03*
%TD*%
D12*
%TO.P,R2,1*%
%TO.N,VIN1*%
X112200000Y-91800000D03*
%TO.P,R2,2*%
%TO.N,VOUT1*%
X112200000Y-85700000D03*
%TD*%
D13*
%TO.P,U2,1,VIN*%
%TO.N,+5V*%
X132800000Y-76650000D03*
%TO.P,U2,2,GND*%
%TO.N,GND*%
X132800000Y-77600000D03*
%TO.P,U2,3,EN*%
%TO.N,+5V*%
X132800000Y-78550000D03*
%TO.P,U2,4,NC*%
%TO.N,unconnected-(U2-NC-Pad4)*%
X135075000Y-78550000D03*
%TO.P,U2,5,VOUT*%
%TO.N,+3.3V*%
X135075000Y-76650000D03*
%TD*%
D14*
%TO.P,TB1,1,P1*%
%TO.N,VIN1*%
X105357500Y-92112500D03*
D15*
%TO.P,TB1,2,P2*%
%TO.N,GND*%
X105357500Y-95922500D03*
%TD*%
D16*
%TO.P,R3,1*%
%TO.N,Net-(U4-A0)*%
X116912500Y-97300000D03*
%TO.P,R3,2*%
%TO.N,GND*%
X115087500Y-97300000D03*
%TD*%
D17*
%TO.P,C6,1*%
%TO.N,GND*%
X142800000Y-87062500D03*
%TO.P,C6,2*%
%TO.N,+3.3V*%
X142800000Y-85337500D03*
%TD*%
D18*
%TO.P,C1,1*%
%TO.N,+5V*%
X116337500Y-86400000D03*
%TO.P,C1,2*%
%TO.N,GND*%
X118062500Y-86400000D03*
%TD*%
D19*
%TO.P,C2,1*%
%TO.N,+3.3V*%
X137337500Y-76562500D03*
%TO.P,C2,2*%
%TO.N,GND*%
X137337500Y-78637500D03*
%TD*%
D20*
%TO.P,U6,1,VCC*%
%TO.N,+3.3V*%
X141010000Y-85525000D03*
%TO.P,U6,2,PA4*%
%TO.N,OUT1*%
X139740000Y-85525000D03*
%TO.P,U6,3,PA5*%
%TO.N,SW1*%
X138470000Y-85525000D03*
%TO.P,U6,4,PA6*%
%TO.N,unconnected-(U6-PA6-Pad4)*%
X137200000Y-85525000D03*
%TO.P,U6,5,PA7*%
%TO.N,unconnected-(U6-PA7-Pad5)*%
X135930000Y-85525000D03*
%TO.P,U6,6,PB3*%
%TO.N,unconnected-(U6-PB3-Pad6)*%
X134660000Y-85525000D03*
%TO.P,U6,7,PB2*%
%TO.N,unconnected-(U6-PB2-Pad7)*%
X133390000Y-85525000D03*
%TO.P,U6,8,PB1*%
%TO.N,I2C_SDA*%
X133390000Y-90475000D03*
%TO.P,U6,9,PB0*%
%TO.N,I2C_SCL*%
X134660000Y-90475000D03*
%TO.P,U6,10,~{RESET}/PA0*%
%TO.N,UPDI*%
X135930000Y-90475000D03*
%TO.P,U6,11,PA1*%
%TO.N,unconnected-(U6-PA1-Pad11)*%
X137200000Y-90475000D03*
%TO.P,U6,12,PA2*%
%TO.N,unconnected-(U6-PA2-Pad12)*%
X138470000Y-90475000D03*
%TO.P,U6,13,PA3*%
%TO.N,unconnected-(U6-PA3-Pad13)*%
X139740000Y-90475000D03*
%TO.P,U6,14,GND*%
%TO.N,GND*%
X141010000Y-90475000D03*
%TD*%
D21*
%TO.P,U1,1*%
%TO.N,GND*%
X118720000Y-84700000D03*
%TO.P,U1,2*%
%TO.N,OUT1*%
X118720000Y-83750000D03*
%TO.P,U1,3,GND*%
%TO.N,GND*%
X118720000Y-82800000D03*
%TO.P,U1,4*%
%TO.N,Net-(R1-Pad2)*%
X116400000Y-82800000D03*
%TO.P,U1,5,VCC*%
%TO.N,+5V*%
X116400000Y-84700000D03*
%TD*%
D22*
%TO.P,U4,1,A1*%
%TO.N,Net-(U4-A1)*%
X115645000Y-95145000D03*
%TO.P,U4,2,A0*%
%TO.N,Net-(U4-A0)*%
X116915000Y-95145000D03*
%TO.P,U4,3,SDA*%
%TO.N,I2C_SDA*%
X118185000Y-95145000D03*
%TO.P,U4,4,SCL*%
%TO.N,I2C_SCL*%
X119455000Y-95145000D03*
%TO.P,U4,5,VS*%
%TO.N,+3.3V*%
X119455000Y-90195000D03*
%TO.P,U4,6,GND*%
%TO.N,GND*%
X118185000Y-90195000D03*
%TO.P,U4,7,IN-*%
%TO.N,VOUT1*%
X116915000Y-90195000D03*
%TO.P,U4,8,IN+*%
%TO.N,VIN1*%
X115645000Y-90195000D03*
%TD*%
D23*
%TO.P,C4,1*%
%TO.N,+5V*%
X124600000Y-78237500D03*
%TO.P,C4,2*%
%TO.N,GND*%
X124600000Y-76162500D03*
%TD*%
D24*
%TO.P,R1,1*%
%TO.N,/DOUT1*%
X111687500Y-82100000D03*
%TO.P,R1,2*%
%TO.N,Net-(R1-Pad2)*%
X113512500Y-82100000D03*
%TD*%
D25*
%TO.P,U3,1,GND*%
%TO.N,GND*%
X115800000Y-75900000D03*
%TO.P,U3,2,VO*%
%TO.N,+5V*%
X115800000Y-78200000D03*
D26*
X122100000Y-78200000D03*
D25*
%TO.P,U3,3,VI*%
%TO.N,VIN1*%
X115800000Y-80500000D03*
%TD*%
D27*
%TO.P,C5,1*%
%TO.N,+3.3V*%
X120185000Y-87990000D03*
%TO.P,C5,2*%
%TO.N,GND*%
X118460000Y-87990000D03*
%TD*%
D23*
%TO.P,C3,1*%
%TO.N,VIN1*%
X113300000Y-78037500D03*
%TO.P,C3,2*%
%TO.N,GND*%
X113300000Y-75962500D03*
%TD*%
D16*
%TO.P,R4,1*%
%TO.N,Net-(U4-A1)*%
X113922500Y-95490000D03*
%TO.P,R4,2*%
%TO.N,GND*%
X112097500Y-95490000D03*
%TD*%
D28*
%TO.P,J1,1,Pin_1*%
%TO.N,+3.3V*%
X145800000Y-85200000D03*
D29*
%TO.P,J1,2,Pin_2*%
%TO.N,UPDI*%
X145800000Y-87740000D03*
%TO.P,J1,3,Pin_3*%
%TO.N,GND*%
X145800000Y-90280000D03*
%TD*%
D30*
%TO.P,J2,1,Pin_1*%
%TO.N,GND*%
X105357500Y-77680000D03*
D15*
%TO.P,J2,2,Pin_2*%
%TO.N,/DOUT1*%
X105357500Y-81340000D03*
D31*
%TO.P,J2,3,Pin_3*%
%TO.N,VOUT1*%
X105357500Y-85000000D03*
%TD*%
D32*
%TO.P,J3,1,Pin_1*%
%TO.N,I2C_SDA*%
X130010000Y-90620000D03*
D33*
%TO.P,J3,2,Pin_2*%
%TO.N,I2C_SCL*%
X130010000Y-88120000D03*
%TO.P,J3,3,Pin_3*%
%TO.N,+3.3V*%
X130010000Y-85520000D03*
%TO.P,J3,4,Pin_4*%
%TO.N,GND*%
X130010000Y-83020000D03*
%TD*%
D34*
%TO.P,SW1,1,1*%
%TO.N,SW1*%
X125900000Y-90100000D03*
X125900000Y-83600000D03*
%TO.P,SW1,2,2*%
%TO.N,GND*%
X121400000Y-90100000D03*
X121400000Y-83600000D03*
%TD*%
D35*
%TO.N,GND*%
X141500000Y-77800000D03*
X134500000Y-93000000D03*
X131698567Y-79600000D03*
X139137500Y-80000000D03*
X139800000Y-87600000D03*
X142900000Y-92500000D03*
X127600000Y-88100000D03*
X120200000Y-76900000D03*
X119500000Y-86500000D03*
X144900000Y-80300000D03*
X141000000Y-92500000D03*
X117400000Y-92700000D03*
X108000000Y-99000000D03*
X145400000Y-94750000D03*
X125600000Y-74600000D03*
X115900000Y-99000000D03*
X141400000Y-94750000D03*
X125000000Y-92500000D03*
X127800000Y-75400000D03*
X127630000Y-95110000D03*
X133800002Y-80000000D03*
X121400000Y-81000000D03*
X118000000Y-76900000D03*
X138400000Y-88600000D03*
X119100000Y-75900000D03*
X124600000Y-74600000D03*
X149500000Y-91500000D03*
X109100000Y-76400000D03*
X148500000Y-75500000D03*
X135600000Y-80000000D03*
X148400000Y-86400000D03*
X101000000Y-94500000D03*
X123510000Y-74660000D03*
X120200000Y-75900000D03*
X139137500Y-77600000D03*
X119800000Y-79500000D03*
X113700000Y-97300000D03*
X114200000Y-74200000D03*
X129600000Y-77600000D03*
X142800000Y-90400000D03*
X149400000Y-98800000D03*
X129600000Y-75000000D03*
X145300000Y-98900000D03*
X119500000Y-92600000D03*
X116600000Y-74200000D03*
X130500000Y-93000000D03*
X141000000Y-99000000D03*
X121060000Y-94050000D03*
X118000000Y-75900000D03*
X112000000Y-74200000D03*
X130500000Y-99000000D03*
X149400000Y-94750000D03*
X110700000Y-95500000D03*
X139140000Y-75000000D03*
X111500000Y-76400000D03*
X141000000Y-87600000D03*
X142800000Y-74400000D03*
X132200000Y-85200000D03*
X121900000Y-97200000D03*
X112100000Y-97100000D03*
X122700000Y-81000000D03*
X116300000Y-92700000D03*
X121000000Y-99000000D03*
X139137500Y-78600000D03*
X129400000Y-79600000D03*
X126600000Y-76100000D03*
X141400000Y-80200000D03*
X144900000Y-76300000D03*
X136500000Y-75000000D03*
X112080000Y-98970000D03*
X124000000Y-81000000D03*
X113100000Y-74200000D03*
X118800000Y-81000000D03*
X135000000Y-99000000D03*
X148400000Y-83200000D03*
X123400000Y-85700000D03*
X111500000Y-75200000D03*
X134400000Y-75000000D03*
X119800000Y-81000000D03*
X115400000Y-74200000D03*
X101000000Y-99000000D03*
X148500000Y-80000000D03*
X130500000Y-95000000D03*
X124000000Y-79800000D03*
X135400000Y-87400000D03*
X136800000Y-94750000D03*
X131337500Y-77600000D03*
X142800000Y-88400000D03*
X137337500Y-80400000D03*
X139800000Y-88600000D03*
X144000000Y-87000000D03*
X126500000Y-79600000D03*
X144400000Y-82800000D03*
X138400000Y-87600000D03*
X126600000Y-74600000D03*
X127000000Y-99000000D03*
X119100000Y-76900000D03*
X118800000Y-79500000D03*
X131800000Y-75000000D03*
X132200000Y-87000000D03*
X118400000Y-92700000D03*
X149400000Y-89000000D03*
%TO.N,VIN1*%
X112700000Y-90500000D03*
X113700000Y-90500000D03*
X111700000Y-93500000D03*
X114700000Y-92500000D03*
X114700000Y-89500000D03*
X110700000Y-93500000D03*
X112700000Y-89500000D03*
X110700000Y-90500000D03*
X111700000Y-89500000D03*
X112700000Y-93500000D03*
X109700000Y-89500000D03*
X113700000Y-89500000D03*
X113700000Y-93500000D03*
X109700000Y-93500000D03*
X114700000Y-93500000D03*
X110700000Y-89500000D03*
X114700000Y-91500000D03*
X114700000Y-90500000D03*
X109700000Y-91500000D03*
X109700000Y-90500000D03*
X111700000Y-90500000D03*
X109700000Y-92500000D03*
%TO.N,+3.3V*%
X135167768Y-81400000D03*
%TO.N,VOUT1*%
X114700000Y-86000000D03*
X114700000Y-85000000D03*
X111700000Y-84000000D03*
X110700000Y-84000000D03*
X114700000Y-84000000D03*
X114700000Y-87000000D03*
X109700000Y-85000000D03*
X111700000Y-88000000D03*
X113700000Y-84000000D03*
X109700000Y-86000000D03*
X110700000Y-88000000D03*
X112700000Y-88000000D03*
X109700000Y-88000000D03*
X109700000Y-87000000D03*
X110700000Y-87000000D03*
X114700000Y-88000000D03*
X109700000Y-84000000D03*
X113700000Y-87000000D03*
X112700000Y-84000000D03*
X112700000Y-87000000D03*
X111700000Y-87000000D03*
X113700000Y-88000000D03*
%TD*%
D36*
%TO.N,Net-(D1-K)*%
X142800000Y-78112500D02*
X142800000Y-79812500D01*
%TO.N,+3.3V*%
X142800000Y-81400000D02*
X135167768Y-81400000D01*
X142800000Y-85337500D02*
X142800000Y-81400000D01*
D37*
%TO.N,+5V*%
X132800000Y-78550000D02*
X128750000Y-78550000D01*
X128750000Y-78550000D02*
X128437500Y-78237500D01*
D36*
X116400000Y-84700000D02*
X117400000Y-83700000D01*
D38*
X117400000Y-78200000D02*
X115800000Y-78200000D01*
D37*
X128750000Y-76650000D02*
X128400000Y-77000000D01*
D38*
X124562500Y-78200000D02*
X122100000Y-78200000D01*
D37*
X132800000Y-76650000D02*
X128750000Y-76650000D01*
X128400000Y-77000000D02*
X128400000Y-78200000D01*
X128400000Y-78200000D02*
X128437500Y-78237500D01*
X128437500Y-78237500D02*
X124600000Y-78237500D01*
D36*
X116337500Y-84762500D02*
X116400000Y-84700000D01*
D38*
X122100000Y-78200000D02*
X117400000Y-78200000D01*
D36*
X116337500Y-86400000D02*
X116337500Y-84762500D01*
X117400000Y-83700000D02*
X117400000Y-78200000D01*
D39*
%TO.N,GND*%
X118720000Y-82080000D02*
X119800000Y-81000000D01*
X119500000Y-86500000D02*
X118162500Y-86500000D01*
X118185000Y-92485000D02*
X118400000Y-92700000D01*
X118720000Y-84700000D02*
X118720000Y-85240000D01*
D36*
X118185000Y-90195000D02*
X118185000Y-92485000D01*
X137337500Y-80400000D02*
X137337500Y-80200000D01*
X132800000Y-77600000D02*
X133900000Y-77600000D01*
X133900000Y-77600000D02*
X133913500Y-77613500D01*
D39*
X133913500Y-77613500D02*
X133913500Y-79886500D01*
X118200000Y-86537500D02*
X118062500Y-86400000D01*
X118110000Y-86352500D02*
X118062500Y-86400000D01*
X133913500Y-77586500D02*
X133913500Y-75486500D01*
D36*
X137137500Y-78637500D02*
X137337500Y-78637500D01*
D39*
X118720000Y-82800000D02*
X118720000Y-82080000D01*
X118162500Y-86500000D02*
X118062500Y-86400000D01*
D36*
X136100000Y-77600000D02*
X137137500Y-78637500D01*
X143475000Y-90400000D02*
X142800000Y-90400000D01*
X143475000Y-90400000D02*
X145680000Y-90400000D01*
X141085000Y-90400000D02*
X143475000Y-90400000D01*
D39*
X133913500Y-75486500D02*
X134400000Y-75000000D01*
X118110000Y-85850000D02*
X118110000Y-86352500D01*
D36*
X118185000Y-90195000D02*
X118185000Y-88352500D01*
X139100000Y-78637500D02*
X139137500Y-78600000D01*
X133900000Y-77600000D02*
X133913500Y-77586500D01*
X131337500Y-77600000D02*
X129600000Y-77600000D01*
D39*
X133913500Y-79886500D02*
X133800000Y-80000000D01*
D36*
X142800000Y-90400000D02*
X142800000Y-87062500D01*
X137337500Y-80200000D02*
X137337500Y-78637500D01*
X132800000Y-77600000D02*
X131337500Y-77600000D01*
X141010000Y-90475000D02*
X141085000Y-90400000D01*
D39*
X118720000Y-85240000D02*
X118110000Y-85850000D01*
D36*
X133900000Y-77600000D02*
X136100000Y-77600000D01*
X118200000Y-87662500D02*
X118200000Y-86537500D01*
X118185000Y-88352500D02*
X118537500Y-88000000D01*
D39*
X118720000Y-84700000D02*
X119800000Y-84700000D01*
D36*
X137337500Y-78637500D02*
X139100000Y-78637500D01*
X145680000Y-90400000D02*
X145800000Y-90280000D01*
X118537500Y-88000000D02*
X118200000Y-87662500D01*
D38*
%TO.N,VIN1*%
X115800000Y-80500000D02*
X113800000Y-80500000D01*
X110150000Y-79600000D02*
X111590000Y-78160000D01*
D36*
X115005000Y-90195000D02*
X114700000Y-90500000D01*
D38*
X105357500Y-91857500D02*
X102400000Y-88900000D01*
X113177500Y-78160000D02*
X113300000Y-78037500D01*
X111590000Y-78160000D02*
X113177500Y-78160000D01*
X103268406Y-79600000D02*
X110150000Y-79600000D01*
X105357500Y-92112500D02*
X105357500Y-91857500D01*
X102400000Y-88900000D02*
X102400000Y-80468406D01*
X102400000Y-80468406D02*
X103268406Y-79600000D01*
D36*
X115645000Y-90195000D02*
X115005000Y-90195000D01*
D38*
X113800000Y-80500000D02*
X113300000Y-80000000D01*
X113300000Y-80000000D02*
X113300000Y-78037500D01*
%TO.N,+3.3V*%
X130010000Y-85520000D02*
X130030000Y-85500000D01*
D36*
X141197500Y-85337500D02*
X141010000Y-85525000D01*
D38*
X130010000Y-85520000D02*
X128080000Y-85520000D01*
D36*
X135075000Y-76650000D02*
X137250000Y-76650000D01*
D38*
X120185000Y-88652500D02*
X119455000Y-89382500D01*
X120185000Y-87990000D02*
X120185000Y-88652500D01*
D36*
X137337500Y-76562500D02*
X140337500Y-76562500D01*
X145600000Y-85400000D02*
X145800000Y-85200000D01*
X140337500Y-76562500D02*
X140337500Y-81400000D01*
X142800000Y-85337500D02*
X142862500Y-85400000D01*
X142800000Y-85337500D02*
X141197500Y-85337500D01*
X137250000Y-76650000D02*
X137337500Y-76562500D01*
D38*
X120195000Y-88000000D02*
X120185000Y-87990000D01*
X126500000Y-87100000D02*
X124500000Y-87100000D01*
X123600000Y-88000000D02*
X120195000Y-88000000D01*
D36*
X142862500Y-85400000D02*
X145600000Y-85400000D01*
D38*
X124500000Y-87100000D02*
X123600000Y-88000000D01*
X128080000Y-85520000D02*
X126500000Y-87100000D01*
X119455000Y-89382500D02*
X119455000Y-90195000D01*
D39*
%TO.N,/DOUT1*%
X110927500Y-81340000D02*
X105357500Y-81340000D01*
X111687500Y-82100000D02*
X110927500Y-81340000D01*
D36*
%TO.N,VOUT1*%
X116800000Y-88300000D02*
X116915000Y-88415000D01*
X116800000Y-88000000D02*
X116800000Y-88300000D01*
X116915000Y-88415000D02*
X116915000Y-90195000D01*
X114700000Y-88000000D02*
X116800000Y-88000000D01*
D39*
%TO.N,I2C_SDA*%
X121200000Y-96000000D02*
X120400000Y-96800000D01*
X119000000Y-96800000D02*
X118185000Y-95985000D01*
D36*
X133390000Y-90475000D02*
X133245000Y-90620000D01*
D39*
X118185000Y-95985000D02*
X118185000Y-95145000D01*
D36*
X133245000Y-90620000D02*
X130010000Y-90620000D01*
D39*
X124700000Y-96000000D02*
X121200000Y-96000000D01*
X130010000Y-90690000D02*
X124700000Y-96000000D01*
X120400000Y-96800000D02*
X119000000Y-96800000D01*
X130010000Y-90620000D02*
X130010000Y-90690000D01*
%TO.N,I2C_SCL*%
X129380000Y-88120000D02*
X128000000Y-89500000D01*
X128000000Y-91700000D02*
X124525000Y-95175000D01*
X130010000Y-88120000D02*
X130860000Y-88120000D01*
D36*
X134660000Y-88860000D02*
X134000000Y-88200000D01*
D39*
X119485000Y-95175000D02*
X119455000Y-95145000D01*
D36*
X134000000Y-88200000D02*
X130090000Y-88200000D01*
D39*
X128000000Y-89500000D02*
X128000000Y-91700000D01*
X124525000Y-95175000D02*
X119485000Y-95175000D01*
X130010000Y-88120000D02*
X129380000Y-88120000D01*
D36*
X130090000Y-88200000D02*
X130010000Y-88120000D01*
X134660000Y-90475000D02*
X134660000Y-88860000D01*
D39*
%TO.N,Net-(R1-Pad2)*%
X116400000Y-82800000D02*
X115700000Y-82100000D01*
X115700000Y-82100000D02*
X113512500Y-82100000D01*
%TO.N,Net-(U4-A0)*%
X116915000Y-95145000D02*
X116915000Y-97297500D01*
X116915000Y-97297500D02*
X116912500Y-97300000D01*
%TO.N,Net-(U4-A1)*%
X115300000Y-95490000D02*
X115645000Y-95145000D01*
X113922500Y-95490000D02*
X115300000Y-95490000D01*
%TO.N,SW1*%
X133900000Y-83600000D02*
X138200000Y-83600000D01*
X138470000Y-83870000D02*
X138470000Y-85525000D01*
X128000000Y-81400000D02*
X131700000Y-81400000D01*
X138200000Y-83600000D02*
X138470000Y-83870000D01*
X125900000Y-83600000D02*
X125900000Y-83500000D01*
X131700000Y-81400000D02*
X133900000Y-83600000D01*
X125900000Y-83500000D02*
X128000000Y-81400000D01*
%TO.N,OUT1*%
X134300000Y-82600000D02*
X132200000Y-80500000D01*
X139740000Y-83740000D02*
X138600000Y-82600000D01*
X132200000Y-80500000D02*
X126400000Y-80500000D01*
X119060000Y-83750000D02*
X118720000Y-83750000D01*
X126400000Y-80500000D02*
X124870000Y-82030000D01*
X139740000Y-85525000D02*
X139740000Y-83740000D01*
X124870000Y-82030000D02*
X120780000Y-82030000D01*
X120780000Y-82030000D02*
X119060000Y-83750000D01*
X138600000Y-82600000D02*
X134300000Y-82600000D01*
%TO.N,UPDI*%
X147340000Y-87740000D02*
X145800000Y-87740000D01*
X148000000Y-88400000D02*
X147340000Y-87740000D01*
X135930000Y-90475000D02*
X135930000Y-93600000D01*
X135930000Y-93600000D02*
X148000000Y-93600000D01*
X148000000Y-93600000D02*
X148000000Y-88400000D01*
%TD*%
%TA.AperFunction,Conductor*%
%TO.N,VOUT1*%
G36*
X115143039Y-83519685D02*
G01*
X115188794Y-83572489D01*
X115200000Y-83624000D01*
X115200000Y-87600000D01*
X117298000Y-87600000D01*
X117365039Y-87619685D01*
X117410794Y-87672489D01*
X117422000Y-87724000D01*
X117422000Y-88276669D01*
X117422001Y-88276687D01*
X117433014Y-88384489D01*
X117432751Y-88384515D01*
X117434500Y-88401032D01*
X117434500Y-89087670D01*
X117429576Y-89122265D01*
X117387402Y-89267426D01*
X117387401Y-89267432D01*
X117384500Y-89304298D01*
X117384500Y-91085701D01*
X117387401Y-91122567D01*
X117387402Y-91122573D01*
X117421927Y-91241405D01*
X117421728Y-91311274D01*
X117383786Y-91369944D01*
X117320148Y-91398788D01*
X117302851Y-91400000D01*
X116781331Y-91400000D01*
X116714292Y-91380315D01*
X116668537Y-91327511D01*
X116657332Y-91275647D01*
X116657425Y-91243022D01*
X116657425Y-91242851D01*
X116657424Y-91242850D01*
X116657425Y-91242845D01*
X116657425Y-91242844D01*
X116637354Y-91100371D01*
X116624924Y-91057587D01*
X116620000Y-91022991D01*
X116620000Y-89367009D01*
X116624924Y-89332414D01*
X116633090Y-89304306D01*
X116634450Y-89299626D01*
X116643126Y-89265328D01*
X116646787Y-89248380D01*
X116653038Y-89213583D01*
X116653037Y-89069703D01*
X116643093Y-89000545D01*
X116602558Y-88862496D01*
X116524770Y-88741457D01*
X116524765Y-88741451D01*
X116479021Y-88688659D01*
X116479017Y-88688656D01*
X116479015Y-88688653D01*
X116442795Y-88657268D01*
X116405023Y-88598491D01*
X116400000Y-88563557D01*
X116400000Y-88500000D01*
X116077068Y-88500000D01*
X116059422Y-88498738D01*
X116029946Y-88494500D01*
X116029945Y-88494500D01*
X103524500Y-88494500D01*
X103457461Y-88474815D01*
X103411706Y-88422011D01*
X103400500Y-88370500D01*
X103400500Y-83624000D01*
X103420185Y-83556961D01*
X103472989Y-83511206D01*
X103524500Y-83500000D01*
X115076000Y-83500000D01*
X115143039Y-83519685D01*
G37*
%TD.AperFunction*%
%TD*%
%TA.AperFunction,Conductor*%
%TO.N,GND*%
G36*
X131765004Y-82172818D02*
G01*
X133592686Y-84000500D01*
X133623193Y-84018113D01*
X133671408Y-84068681D01*
X133684630Y-84137288D01*
X133658662Y-84202152D01*
X133601748Y-84242680D01*
X133561192Y-84249500D01*
X133185730Y-84249500D01*
X133155300Y-84252353D01*
X133155298Y-84252353D01*
X133027119Y-84297206D01*
X133027117Y-84297207D01*
X132917850Y-84377850D01*
X132837207Y-84487117D01*
X132837206Y-84487119D01*
X132792353Y-84615298D01*
X132792353Y-84615300D01*
X132789500Y-84645730D01*
X132789500Y-86404269D01*
X132792353Y-86434699D01*
X132792353Y-86434701D01*
X132837206Y-86562880D01*
X132837207Y-86562882D01*
X132917850Y-86672150D01*
X133027118Y-86752793D01*
X133065082Y-86766077D01*
X133155299Y-86797646D01*
X133185730Y-86800500D01*
X133185734Y-86800500D01*
X133594270Y-86800500D01*
X133624699Y-86797646D01*
X133624701Y-86797646D01*
X133714918Y-86766077D01*
X133752882Y-86752793D01*
X133862150Y-86672150D01*
X133925231Y-86586677D01*
X133980877Y-86544428D01*
X134050533Y-86538969D01*
X134112083Y-86572036D01*
X134124763Y-86586670D01*
X134187850Y-86672150D01*
X134297118Y-86752793D01*
X134335082Y-86766077D01*
X134425299Y-86797646D01*
X134455730Y-86800500D01*
X134455734Y-86800500D01*
X134864270Y-86800500D01*
X134894699Y-86797646D01*
X134894701Y-86797646D01*
X134984918Y-86766077D01*
X135022882Y-86752793D01*
X135132150Y-86672150D01*
X135195231Y-86586677D01*
X135250877Y-86544428D01*
X135320533Y-86538969D01*
X135382083Y-86572036D01*
X135394763Y-86586670D01*
X135457850Y-86672150D01*
X135567118Y-86752793D01*
X135605082Y-86766077D01*
X135695299Y-86797646D01*
X135725730Y-86800500D01*
X135725734Y-86800500D01*
X136134270Y-86800500D01*
X136164699Y-86797646D01*
X136164701Y-86797646D01*
X136254918Y-86766077D01*
X136292882Y-86752793D01*
X136402150Y-86672150D01*
X136465231Y-86586677D01*
X136520877Y-86544428D01*
X136590533Y-86538969D01*
X136652083Y-86572036D01*
X136664763Y-86586670D01*
X136727850Y-86672150D01*
X136837118Y-86752793D01*
X136875082Y-86766077D01*
X136965299Y-86797646D01*
X136995730Y-86800500D01*
X136995734Y-86800500D01*
X137404270Y-86800500D01*
X137434699Y-86797646D01*
X137434701Y-86797646D01*
X137524918Y-86766077D01*
X137562882Y-86752793D01*
X137672150Y-86672150D01*
X137735231Y-86586677D01*
X137790877Y-86544428D01*
X137860533Y-86538969D01*
X137922083Y-86572036D01*
X137934763Y-86586670D01*
X137997850Y-86672150D01*
X138107118Y-86752793D01*
X138145082Y-86766077D01*
X138235299Y-86797646D01*
X138265730Y-86800500D01*
X138265734Y-86800500D01*
X138674270Y-86800500D01*
X138704699Y-86797646D01*
X138704701Y-86797646D01*
X138794918Y-86766077D01*
X138832882Y-86752793D01*
X138942150Y-86672150D01*
X139005231Y-86586677D01*
X139060877Y-86544428D01*
X139130533Y-86538969D01*
X139192083Y-86572036D01*
X139204763Y-86586670D01*
X139267850Y-86672150D01*
X139377118Y-86752793D01*
X139415082Y-86766077D01*
X139505299Y-86797646D01*
X139535730Y-86800500D01*
X139535734Y-86800500D01*
X139944270Y-86800500D01*
X139974699Y-86797646D01*
X139974701Y-86797646D01*
X140064918Y-86766077D01*
X140102882Y-86752793D01*
X140212150Y-86672150D01*
X140275231Y-86586677D01*
X140330877Y-86544428D01*
X140400533Y-86538969D01*
X140462083Y-86572036D01*
X140474763Y-86586670D01*
X140537850Y-86672150D01*
X140647118Y-86752793D01*
X140685082Y-86766077D01*
X140775299Y-86797646D01*
X140805730Y-86800500D01*
X140805734Y-86800500D01*
X141214270Y-86800500D01*
X141244699Y-86797646D01*
X141244701Y-86797646D01*
X141334918Y-86766077D01*
X141372882Y-86752793D01*
X141482150Y-86672150D01*
X141562793Y-86562882D01*
X141594428Y-86472474D01*
X141607646Y-86434701D01*
X141607646Y-86434699D01*
X141610500Y-86404269D01*
X141610500Y-86012000D01*
X141630185Y-85944961D01*
X141682989Y-85899206D01*
X141734500Y-85888000D01*
X142015674Y-85888000D01*
X142019677Y-85889175D01*
X142023751Y-85888263D01*
X142052921Y-85898937D01*
X142082713Y-85907685D01*
X142086563Y-85911247D01*
X142089366Y-85912273D01*
X142114477Y-85937074D01*
X142153530Y-85988572D01*
X142178354Y-86053883D01*
X142163927Y-86122247D01*
X142119827Y-86169034D01*
X142101967Y-86180050D01*
X142101961Y-86180055D01*
X141980055Y-86301961D01*
X141980052Y-86301965D01*
X141889551Y-86448688D01*
X141889546Y-86448699D01*
X141835319Y-86612347D01*
X141825087Y-86712500D01*
X143774912Y-86712500D01*
X143774912Y-86712499D01*
X143764680Y-86612347D01*
X143710453Y-86448699D01*
X143710448Y-86448688D01*
X143619947Y-86301965D01*
X143619944Y-86301961D01*
X143498039Y-86180056D01*
X143498013Y-86180040D01*
X143497998Y-86180023D01*
X143492371Y-86175574D01*
X143493131Y-86174612D01*
X143451288Y-86128093D01*
X143440064Y-86059130D01*
X143467906Y-85995048D01*
X143525974Y-85956191D01*
X143563108Y-85950500D01*
X144525501Y-85950500D01*
X144592540Y-85970185D01*
X144638295Y-86022989D01*
X144649501Y-86074500D01*
X144649501Y-86094856D01*
X144649502Y-86094882D01*
X144652413Y-86119987D01*
X144652415Y-86119991D01*
X144697793Y-86222764D01*
X144697794Y-86222765D01*
X144777235Y-86302206D01*
X144880009Y-86347585D01*
X144905135Y-86350500D01*
X145642873Y-86350499D01*
X145709910Y-86370183D01*
X145755665Y-86422987D01*
X145765609Y-86492146D01*
X145736584Y-86555702D01*
X145677806Y-86593476D01*
X145662270Y-86596972D01*
X145530589Y-86617829D01*
X145358363Y-86673787D01*
X145358360Y-86673788D01*
X145197002Y-86756006D01*
X145050505Y-86862441D01*
X145050500Y-86862445D01*
X144922445Y-86990500D01*
X144922441Y-86990505D01*
X144816006Y-87137002D01*
X144733788Y-87298360D01*
X144733787Y-87298363D01*
X144677829Y-87470589D01*
X144649500Y-87649448D01*
X144649500Y-87830551D01*
X144677829Y-88009410D01*
X144733787Y-88181636D01*
X144733788Y-88181639D01*
X144772396Y-88257409D01*
X144811879Y-88334899D01*
X144816006Y-88342997D01*
X144922441Y-88489494D01*
X144922445Y-88489499D01*
X145050500Y-88617554D01*
X145050505Y-88617558D01*
X145091734Y-88647512D01*
X145197006Y-88723996D01*
X145298780Y-88775853D01*
X145328684Y-88791090D01*
X145379480Y-88839065D01*
X145396275Y-88906886D01*
X145373737Y-88973021D01*
X145319022Y-89016472D01*
X145310708Y-89019506D01*
X145281781Y-89028905D01*
X145124181Y-89109207D01*
X145794974Y-89780000D01*
X145734174Y-89780000D01*
X145607007Y-89814075D01*
X145492993Y-89879901D01*
X145399901Y-89972993D01*
X145334075Y-90087007D01*
X145300000Y-90214174D01*
X145300000Y-90274973D01*
X144629207Y-89604181D01*
X144548905Y-89761781D01*
X144483242Y-89963869D01*
X144483242Y-89963872D01*
X144450000Y-90173753D01*
X144450000Y-90386246D01*
X144483242Y-90596127D01*
X144483242Y-90596130D01*
X144548907Y-90798222D01*
X144629206Y-90955817D01*
X145300000Y-90285025D01*
X145300000Y-90345826D01*
X145334075Y-90472993D01*
X145399901Y-90587007D01*
X145492993Y-90680099D01*
X145607007Y-90745925D01*
X145734174Y-90780000D01*
X145794974Y-90780000D01*
X145124180Y-91450791D01*
X145281783Y-91531094D01*
X145483871Y-91596757D01*
X145693754Y-91630000D01*
X145906246Y-91630000D01*
X146116127Y-91596757D01*
X146116130Y-91596757D01*
X146318218Y-91531094D01*
X146318225Y-91531091D01*
X146475818Y-91450791D01*
X145805027Y-90780000D01*
X145865826Y-90780000D01*
X145992993Y-90745925D01*
X146107007Y-90680099D01*
X146200099Y-90587007D01*
X146265925Y-90472993D01*
X146300000Y-90345826D01*
X146300000Y-90285026D01*
X146970791Y-90955818D01*
X147051091Y-90798225D01*
X147051094Y-90798218D01*
X147116757Y-90596130D01*
X147116757Y-90596127D01*
X147150000Y-90386246D01*
X147150000Y-90173753D01*
X147116757Y-89963872D01*
X147116757Y-89963869D01*
X147051094Y-89761781D01*
X146970791Y-89604180D01*
X146300000Y-90274972D01*
X146300000Y-90214174D01*
X146265925Y-90087007D01*
X146200099Y-89972993D01*
X146107007Y-89879901D01*
X145992993Y-89814075D01*
X145865826Y-89780000D01*
X145805027Y-89780000D01*
X146475818Y-89109207D01*
X146318219Y-89028905D01*
X146289289Y-89019505D01*
X146231614Y-88980067D01*
X146204417Y-88915708D01*
X146216333Y-88846861D01*
X146263578Y-88795386D01*
X146271297Y-88791098D01*
X146402994Y-88723996D01*
X146549501Y-88617553D01*
X146677553Y-88489501D01*
X146783996Y-88342994D01*
X146801722Y-88308204D01*
X146812171Y-88297140D01*
X146818494Y-88283297D01*
X146835674Y-88272255D01*
X146849697Y-88257409D01*
X146865376Y-88253167D01*
X146877272Y-88245523D01*
X146912207Y-88240500D01*
X147081324Y-88240500D01*
X147148363Y-88260185D01*
X147169005Y-88276819D01*
X147463181Y-88570995D01*
X147496666Y-88632318D01*
X147499500Y-88658676D01*
X147499500Y-92975500D01*
X147479815Y-93042539D01*
X147427011Y-93088294D01*
X147375500Y-93099500D01*
X140424000Y-93099500D01*
X140356961Y-93079815D01*
X140311206Y-93027011D01*
X140300000Y-92975500D01*
X140300000Y-91941374D01*
X140319685Y-91874335D01*
X140372489Y-91828580D01*
X140441647Y-91818636D01*
X140487121Y-91834642D01*
X140599801Y-91901281D01*
X140710000Y-91933296D01*
X140710000Y-91933295D01*
X141310000Y-91933295D01*
X141420198Y-91901281D01*
X141561552Y-91817685D01*
X141561561Y-91817678D01*
X141677678Y-91701561D01*
X141677685Y-91701552D01*
X141761282Y-91560196D01*
X141761283Y-91560193D01*
X141807099Y-91402495D01*
X141807100Y-91402489D01*
X141807449Y-91398058D01*
X141809999Y-91365649D01*
X141810000Y-91365634D01*
X141810000Y-90775000D01*
X141310000Y-90775000D01*
X141310000Y-91933295D01*
X140710000Y-91933295D01*
X140710000Y-89016702D01*
X141310000Y-89016702D01*
X141310000Y-90175000D01*
X141810000Y-90175000D01*
X141810000Y-89584365D01*
X141809999Y-89584350D01*
X141807100Y-89547510D01*
X141807099Y-89547504D01*
X141761283Y-89389806D01*
X141761282Y-89389803D01*
X141677685Y-89248447D01*
X141677678Y-89248438D01*
X141561561Y-89132321D01*
X141561552Y-89132314D01*
X141420196Y-89048717D01*
X141420193Y-89048715D01*
X141310001Y-89016701D01*
X141310000Y-89016702D01*
X140710000Y-89016702D01*
X140709998Y-89016701D01*
X140599806Y-89048715D01*
X140599803Y-89048717D01*
X140458447Y-89132314D01*
X140458438Y-89132321D01*
X140342321Y-89248438D01*
X140342315Y-89248446D01*
X140339964Y-89252422D01*
X140288893Y-89300104D01*
X140220150Y-89312605D01*
X140159601Y-89289067D01*
X140102882Y-89247207D01*
X140102880Y-89247206D01*
X139974700Y-89202353D01*
X139944270Y-89199500D01*
X139944266Y-89199500D01*
X139535734Y-89199500D01*
X139535730Y-89199500D01*
X139505300Y-89202353D01*
X139505298Y-89202353D01*
X139377119Y-89247206D01*
X139377117Y-89247207D01*
X139296353Y-89306814D01*
X139267850Y-89327850D01*
X139213088Y-89402051D01*
X139204770Y-89413321D01*
X139149123Y-89455571D01*
X139079466Y-89461030D01*
X139017917Y-89427962D01*
X139005230Y-89413321D01*
X138942150Y-89327850D01*
X138832882Y-89247207D01*
X138832880Y-89247206D01*
X138704700Y-89202353D01*
X138674270Y-89199500D01*
X138674266Y-89199500D01*
X138265734Y-89199500D01*
X138265730Y-89199500D01*
X138235300Y-89202353D01*
X138235298Y-89202353D01*
X138107119Y-89247206D01*
X138107117Y-89247207D01*
X138026353Y-89306814D01*
X137997850Y-89327850D01*
X137943088Y-89402051D01*
X137934770Y-89413321D01*
X137879123Y-89455571D01*
X137809466Y-89461030D01*
X137747917Y-89427962D01*
X137735230Y-89413321D01*
X137672150Y-89327850D01*
X137562882Y-89247207D01*
X137562880Y-89247206D01*
X137434700Y-89202353D01*
X137404270Y-89199500D01*
X137404266Y-89199500D01*
X136995734Y-89199500D01*
X136995730Y-89199500D01*
X136965300Y-89202353D01*
X136965298Y-89202353D01*
X136837119Y-89247206D01*
X136837117Y-89247207D01*
X136756353Y-89306814D01*
X136727850Y-89327850D01*
X136673088Y-89402051D01*
X136664770Y-89413321D01*
X136609123Y-89455571D01*
X136539466Y-89461030D01*
X136477917Y-89427962D01*
X136465230Y-89413321D01*
X136402150Y-89327850D01*
X136292882Y-89247207D01*
X136292880Y-89247206D01*
X136164700Y-89202353D01*
X136134270Y-89199500D01*
X136134266Y-89199500D01*
X135725734Y-89199500D01*
X135725730Y-89199500D01*
X135695300Y-89202353D01*
X135695298Y-89202353D01*
X135567119Y-89247206D01*
X135567117Y-89247207D01*
X135457850Y-89327850D01*
X135434270Y-89359800D01*
X135378622Y-89402051D01*
X135308966Y-89407509D01*
X135247417Y-89374441D01*
X135213516Y-89313347D01*
X135210500Y-89286166D01*
X135210500Y-88787527D01*
X135210500Y-88787525D01*
X135172984Y-88647515D01*
X135163039Y-88630289D01*
X135163039Y-88630288D01*
X135100512Y-88521988D01*
X135100508Y-88521983D01*
X134338016Y-87759491D01*
X134338015Y-87759490D01*
X134212485Y-87687016D01*
X134212480Y-87687014D01*
X134164313Y-87674107D01*
X134164313Y-87674108D01*
X134118393Y-87661804D01*
X134072475Y-87649500D01*
X134072474Y-87649500D01*
X131537493Y-87649500D01*
X131528003Y-87646713D01*
X131518195Y-87647989D01*
X131495034Y-87637032D01*
X131470454Y-87629815D01*
X131462293Y-87621544D01*
X131455036Y-87618111D01*
X131441138Y-87600102D01*
X131432284Y-87591129D01*
X131429442Y-87586574D01*
X131393996Y-87517006D01*
X131337774Y-87439622D01*
X131318069Y-87412500D01*
X141825088Y-87412500D01*
X141835319Y-87512652D01*
X141889546Y-87676300D01*
X141889551Y-87676311D01*
X141980052Y-87823034D01*
X141980055Y-87823038D01*
X142101961Y-87944944D01*
X142101965Y-87944947D01*
X142248688Y-88035448D01*
X142248699Y-88035453D01*
X142412347Y-88089680D01*
X142449999Y-88093526D01*
X142450000Y-88093526D01*
X143150000Y-88093526D01*
X143187651Y-88089680D01*
X143187653Y-88089680D01*
X143351300Y-88035453D01*
X143351311Y-88035448D01*
X143498034Y-87944947D01*
X143498038Y-87944944D01*
X143619944Y-87823038D01*
X143619947Y-87823034D01*
X143710448Y-87676311D01*
X143710453Y-87676300D01*
X143764680Y-87512652D01*
X143774913Y-87412500D01*
X143150000Y-87412500D01*
X143150000Y-88093526D01*
X142450000Y-88093526D01*
X142450000Y-87412500D01*
X141825088Y-87412500D01*
X131318069Y-87412500D01*
X131287558Y-87370505D01*
X131287554Y-87370500D01*
X131159499Y-87242445D01*
X131159494Y-87242441D01*
X131012997Y-87136006D01*
X131012996Y-87136005D01*
X131012994Y-87136004D01*
X130961300Y-87109664D01*
X130851639Y-87053788D01*
X130851636Y-87053787D01*
X130679410Y-86997829D01*
X130500551Y-86969500D01*
X130500546Y-86969500D01*
X129519454Y-86969500D01*
X129519449Y-86969500D01*
X129340589Y-86997829D01*
X129168363Y-87053787D01*
X129168360Y-87053788D01*
X129007002Y-87136006D01*
X128860505Y-87242441D01*
X128860500Y-87242445D01*
X128732445Y-87370500D01*
X128732441Y-87370505D01*
X128626006Y-87517002D01*
X128543788Y-87678360D01*
X128543787Y-87678363D01*
X128487829Y-87850589D01*
X128459500Y-88029448D01*
X128459500Y-88029454D01*
X128459500Y-88210546D01*
X128465894Y-88250920D01*
X128466316Y-88253583D01*
X128457360Y-88322877D01*
X128431523Y-88360661D01*
X127692686Y-89099500D01*
X127599502Y-89192683D01*
X127599500Y-89192686D01*
X127533608Y-89306812D01*
X127499500Y-89434108D01*
X127499500Y-91441324D01*
X127479815Y-91508363D01*
X127463181Y-91529005D01*
X124354005Y-94638181D01*
X124292682Y-94671666D01*
X124266324Y-94674500D01*
X120179500Y-94674500D01*
X120112461Y-94654815D01*
X120066706Y-94602011D01*
X120055500Y-94550500D01*
X120055500Y-94265730D01*
X120052646Y-94235300D01*
X120052646Y-94235298D01*
X120007793Y-94107119D01*
X120007792Y-94107117D01*
X119927150Y-93997850D01*
X119817882Y-93917207D01*
X119817880Y-93917206D01*
X119689700Y-93872353D01*
X119659270Y-93869500D01*
X119659266Y-93869500D01*
X119250734Y-93869500D01*
X119250730Y-93869500D01*
X119220300Y-93872353D01*
X119220298Y-93872353D01*
X119092119Y-93917206D01*
X119092117Y-93917207D01*
X118982850Y-93997850D01*
X118919770Y-94083321D01*
X118864123Y-94125571D01*
X118794466Y-94131030D01*
X118732917Y-94097962D01*
X118720230Y-94083321D01*
X118684543Y-94034967D01*
X118657150Y-93997850D01*
X118547882Y-93917207D01*
X118547880Y-93917206D01*
X118419700Y-93872353D01*
X118389270Y-93869500D01*
X118389266Y-93869500D01*
X117980734Y-93869500D01*
X117980730Y-93869500D01*
X117950300Y-93872353D01*
X117950298Y-93872353D01*
X117822119Y-93917206D01*
X117822117Y-93917207D01*
X117712850Y-93997850D01*
X117649770Y-94083321D01*
X117594123Y-94125571D01*
X117524466Y-94131030D01*
X117462917Y-94097962D01*
X117450230Y-94083321D01*
X117414543Y-94034967D01*
X117387150Y-93997850D01*
X117277882Y-93917207D01*
X117277880Y-93917206D01*
X117149700Y-93872353D01*
X117119270Y-93869500D01*
X117119266Y-93869500D01*
X116710734Y-93869500D01*
X116710730Y-93869500D01*
X116680300Y-93872353D01*
X116680298Y-93872353D01*
X116552119Y-93917206D01*
X116552117Y-93917207D01*
X116442850Y-93997850D01*
X116379770Y-94083321D01*
X116324123Y-94125571D01*
X116254466Y-94131030D01*
X116192917Y-94097962D01*
X116180230Y-94083321D01*
X116144543Y-94034967D01*
X116117150Y-93997850D01*
X116007882Y-93917207D01*
X116007880Y-93917206D01*
X115879700Y-93872353D01*
X115849270Y-93869500D01*
X115849266Y-93869500D01*
X115819631Y-93869500D01*
X115752592Y-93849815D01*
X115706837Y-93797011D01*
X115696893Y-93727854D01*
X115696938Y-93727539D01*
X115705500Y-93667990D01*
X115705500Y-92029500D01*
X115725185Y-91962461D01*
X115777989Y-91916706D01*
X115829500Y-91905500D01*
X116032855Y-91905500D01*
X116044629Y-91905088D01*
X116068185Y-91904264D01*
X116085482Y-91903052D01*
X116120665Y-91899345D01*
X116258831Y-91859202D01*
X116322469Y-91830358D01*
X116337644Y-91820666D01*
X116404736Y-91801169D01*
X116455901Y-91812374D01*
X116571872Y-91865338D01*
X116638911Y-91885023D01*
X116638915Y-91885024D01*
X116781331Y-91905500D01*
X116781334Y-91905500D01*
X117302855Y-91905500D01*
X117314629Y-91905088D01*
X117338185Y-91904264D01*
X117355482Y-91903052D01*
X117390665Y-91899345D01*
X117528831Y-91859202D01*
X117592469Y-91830358D01*
X117612324Y-91817678D01*
X117713724Y-91752921D01*
X117713726Y-91752919D01*
X117765581Y-91693418D01*
X117824466Y-91655812D01*
X117881651Y-91655811D01*
X117885000Y-91653296D01*
X117885000Y-91528616D01*
X117896351Y-91476786D01*
X117906344Y-91455071D01*
X117927226Y-91312714D01*
X117927278Y-91294500D01*
X117927425Y-91243022D01*
X117927425Y-91242851D01*
X117927424Y-91242850D01*
X117927425Y-91242845D01*
X117927425Y-91242844D01*
X117907354Y-91100371D01*
X117904913Y-91091971D01*
X117894924Y-91057587D01*
X117890000Y-91022991D01*
X117890000Y-89367008D01*
X117894924Y-89332412D01*
X117910392Y-89279172D01*
X117915004Y-89263298D01*
X117930032Y-89193496D01*
X117934956Y-89158901D01*
X117940000Y-89087670D01*
X117940000Y-88714000D01*
X117959685Y-88646961D01*
X118012489Y-88601206D01*
X118064000Y-88590000D01*
X118110000Y-88590000D01*
X118110000Y-88114000D01*
X118129685Y-88046961D01*
X118182489Y-88001206D01*
X118234000Y-87990000D01*
X118686000Y-87990000D01*
X118753039Y-88009685D01*
X118798794Y-88062489D01*
X118810000Y-88114000D01*
X118810000Y-88869333D01*
X118805500Y-88885527D01*
X118805946Y-88900782D01*
X118793696Y-88928011D01*
X118792227Y-88933301D01*
X118790722Y-88935799D01*
X118745606Y-89003321D01*
X118735786Y-89027028D01*
X118731005Y-89034968D01*
X118711834Y-89052584D01*
X118695501Y-89072854D01*
X118686525Y-89075841D01*
X118679558Y-89082244D01*
X118653907Y-89086698D01*
X118629207Y-89094921D01*
X118624778Y-89095000D01*
X118485000Y-89095000D01*
X118485000Y-91653295D01*
X118595198Y-91621281D01*
X118736552Y-91537685D01*
X118736561Y-91537678D01*
X118852678Y-91421561D01*
X118852681Y-91421557D01*
X118855028Y-91417589D01*
X118906094Y-91369901D01*
X118974835Y-91357393D01*
X119035396Y-91380931D01*
X119092118Y-91422793D01*
X119134845Y-91437744D01*
X119220299Y-91467646D01*
X119250730Y-91470500D01*
X119250734Y-91470500D01*
X119659270Y-91470500D01*
X119689699Y-91467646D01*
X119689701Y-91467646D01*
X119764923Y-91441324D01*
X119817882Y-91422793D01*
X119927150Y-91342150D01*
X120007793Y-91232882D01*
X120030219Y-91168790D01*
X120052646Y-91104701D01*
X120052646Y-91104699D01*
X120055500Y-91074269D01*
X120055500Y-91000888D01*
X120075185Y-90933849D01*
X120091819Y-90913207D01*
X120850000Y-90155026D01*
X120850000Y-90172409D01*
X120887482Y-90312292D01*
X120959890Y-90437708D01*
X121062292Y-90540110D01*
X121187708Y-90612518D01*
X121327591Y-90650000D01*
X121344974Y-90650000D01*
X120612803Y-91382170D01*
X120613828Y-91382914D01*
X120824197Y-91490102D01*
X121048752Y-91563065D01*
X121048751Y-91563065D01*
X121281948Y-91600000D01*
X121518052Y-91600000D01*
X121751247Y-91563065D01*
X121975802Y-91490102D01*
X122186171Y-91382914D01*
X122186175Y-91382911D01*
X122187195Y-91382170D01*
X122187195Y-91382168D01*
X121455026Y-90650000D01*
X121472409Y-90650000D01*
X121612292Y-90612518D01*
X121737708Y-90540110D01*
X121840110Y-90437708D01*
X121912518Y-90312292D01*
X121950000Y-90172409D01*
X121950000Y-90155026D01*
X122682168Y-90887195D01*
X122682170Y-90887195D01*
X122682911Y-90886175D01*
X122682914Y-90886171D01*
X122790102Y-90675802D01*
X122863065Y-90451247D01*
X122900000Y-90218052D01*
X122900000Y-89997648D01*
X124599500Y-89997648D01*
X124599500Y-90202352D01*
X124601987Y-90218052D01*
X124631522Y-90404534D01*
X124694781Y-90599223D01*
X124787715Y-90781613D01*
X124908028Y-90947213D01*
X125052786Y-91091971D01*
X125187969Y-91190185D01*
X125218390Y-91212287D01*
X125314552Y-91261284D01*
X125400776Y-91305218D01*
X125400778Y-91305218D01*
X125400781Y-91305220D01*
X125505137Y-91339127D01*
X125595465Y-91368477D01*
X125681906Y-91382168D01*
X125797648Y-91400500D01*
X125797649Y-91400500D01*
X126002351Y-91400500D01*
X126002352Y-91400500D01*
X126204534Y-91368477D01*
X126399219Y-91305220D01*
X126581610Y-91212287D01*
X126729691Y-91104701D01*
X126747213Y-91091971D01*
X126747215Y-91091968D01*
X126747219Y-91091966D01*
X126891966Y-90947219D01*
X126891968Y-90947215D01*
X126891971Y-90947213D01*
X126944732Y-90874590D01*
X127012287Y-90781610D01*
X127105220Y-90599219D01*
X127168477Y-90404534D01*
X127200500Y-90202352D01*
X127200500Y-89997648D01*
X127181850Y-89879901D01*
X127168477Y-89795465D01*
X127124426Y-89659890D01*
X127105220Y-89600781D01*
X127105218Y-89600778D01*
X127105218Y-89600776D01*
X127039814Y-89472415D01*
X127012287Y-89418390D01*
X126991520Y-89389806D01*
X126891971Y-89252786D01*
X126747213Y-89108028D01*
X126581613Y-88987715D01*
X126581612Y-88987714D01*
X126581610Y-88987713D01*
X126474821Y-88933301D01*
X126399223Y-88894781D01*
X126204534Y-88831522D01*
X126029995Y-88803878D01*
X126002352Y-88799500D01*
X125797648Y-88799500D01*
X125773441Y-88803334D01*
X125595465Y-88831522D01*
X125400776Y-88894781D01*
X125218386Y-88987715D01*
X125052786Y-89108028D01*
X124908028Y-89252786D01*
X124787715Y-89418386D01*
X124694781Y-89600776D01*
X124631522Y-89795465D01*
X124603405Y-89972993D01*
X124599500Y-89997648D01*
X122900000Y-89997648D01*
X122900000Y-89981947D01*
X122863065Y-89748752D01*
X122790102Y-89524197D01*
X122682914Y-89313828D01*
X122682170Y-89312803D01*
X121950000Y-90044973D01*
X121950000Y-90027591D01*
X121912518Y-89887708D01*
X121840110Y-89762292D01*
X121737708Y-89659890D01*
X121612292Y-89587482D01*
X121472409Y-89550000D01*
X121455026Y-89550000D01*
X122168207Y-88836819D01*
X122229530Y-88803334D01*
X122255888Y-88800500D01*
X123678844Y-88800500D01*
X123678845Y-88800499D01*
X123833497Y-88769737D01*
X123979179Y-88709394D01*
X124110289Y-88621789D01*
X124795259Y-87936819D01*
X124856582Y-87903334D01*
X124882940Y-87900500D01*
X126578844Y-87900500D01*
X126578845Y-87900499D01*
X126733497Y-87869737D01*
X126879179Y-87809394D01*
X127010289Y-87721789D01*
X128375259Y-86356819D01*
X128436582Y-86323334D01*
X128462940Y-86320500D01*
X128732084Y-86320500D01*
X128799123Y-86340185D01*
X128819765Y-86356819D01*
X128860500Y-86397554D01*
X128860505Y-86397558D01*
X128963618Y-86472473D01*
X129007006Y-86503996D01*
X129086358Y-86544428D01*
X129168360Y-86586211D01*
X129168363Y-86586212D01*
X129201480Y-86596972D01*
X129340591Y-86642171D01*
X129423429Y-86655291D01*
X129519449Y-86670500D01*
X129519454Y-86670500D01*
X130500551Y-86670500D01*
X130587259Y-86656765D01*
X130679409Y-86642171D01*
X130851639Y-86586211D01*
X131012994Y-86503996D01*
X131159501Y-86397553D01*
X131287553Y-86269501D01*
X131393996Y-86122994D01*
X131476211Y-85961639D01*
X131532171Y-85789409D01*
X131552939Y-85658284D01*
X131560500Y-85610551D01*
X131560500Y-85429448D01*
X131541927Y-85312187D01*
X131532171Y-85250591D01*
X131476211Y-85078361D01*
X131476211Y-85078360D01*
X131437724Y-85002827D01*
X131393996Y-84917006D01*
X131358738Y-84868477D01*
X131287558Y-84770505D01*
X131287554Y-84770500D01*
X131159499Y-84642445D01*
X131159494Y-84642441D01*
X131012993Y-84536003D01*
X131012992Y-84536002D01*
X130927488Y-84492435D01*
X130876692Y-84444461D01*
X130859897Y-84376640D01*
X130882435Y-84310505D01*
X130927488Y-84271466D01*
X131117558Y-84174620D01*
X131289459Y-84049727D01*
X131289464Y-84049723D01*
X131439723Y-83899464D01*
X131439727Y-83899459D01*
X131564620Y-83727557D01*
X131661092Y-83538222D01*
X131715752Y-83370000D01*
X130367106Y-83370000D01*
X130410099Y-83327007D01*
X130475925Y-83212993D01*
X130510000Y-83085826D01*
X130510000Y-82954174D01*
X130475925Y-82827007D01*
X130410099Y-82712993D01*
X130367106Y-82670000D01*
X131715752Y-82670000D01*
X131715751Y-82669999D01*
X131661092Y-82501777D01*
X131566838Y-82316794D01*
X131553942Y-82248125D01*
X131580218Y-82183385D01*
X131637324Y-82143127D01*
X131707130Y-82140135D01*
X131765004Y-82172818D01*
G37*
%TD.AperFunction*%
%TA.AperFunction,Conductor*%
G36*
X128542195Y-81906738D02*
G01*
X128564284Y-81908318D01*
X128575067Y-81916390D01*
X128587989Y-81920185D01*
X128602488Y-81936918D01*
X128620217Y-81950190D01*
X128624924Y-81962810D01*
X128633744Y-81972989D01*
X128636895Y-81994906D01*
X128644634Y-82015654D01*
X128641771Y-82028814D01*
X128643688Y-82042147D01*
X128634488Y-82062290D01*
X128629782Y-82083927D01*
X128616513Y-82101652D01*
X128614663Y-82105703D01*
X128608631Y-82112181D01*
X128580276Y-82140535D01*
X128580272Y-82140540D01*
X128455379Y-82312442D01*
X128358907Y-82501777D01*
X128304248Y-82669999D01*
X128304248Y-82670000D01*
X129652894Y-82670000D01*
X129609901Y-82712993D01*
X129544075Y-82827007D01*
X129510000Y-82954174D01*
X129510000Y-83085826D01*
X129544075Y-83212993D01*
X129609901Y-83327007D01*
X129652894Y-83370000D01*
X128304248Y-83370000D01*
X128358907Y-83538222D01*
X128455379Y-83727557D01*
X128580272Y-83899459D01*
X128580276Y-83899464D01*
X128730535Y-84049723D01*
X128730540Y-84049727D01*
X128902442Y-84174620D01*
X129092511Y-84271466D01*
X129143307Y-84319441D01*
X129160102Y-84387262D01*
X129137565Y-84453397D01*
X129092512Y-84492435D01*
X129007004Y-84536004D01*
X128860505Y-84642441D01*
X128860500Y-84642445D01*
X128819765Y-84683181D01*
X128758442Y-84716666D01*
X128732084Y-84719500D01*
X128001154Y-84719500D01*
X127846508Y-84750261D01*
X127846498Y-84750264D01*
X127809381Y-84765639D01*
X127700823Y-84810604D01*
X127700815Y-84810609D01*
X127571538Y-84896989D01*
X127571537Y-84896991D01*
X127571170Y-84897236D01*
X127569711Y-84898210D01*
X127569701Y-84898219D01*
X126204741Y-86263181D01*
X126143418Y-86296666D01*
X126117060Y-86299500D01*
X124421155Y-86299500D01*
X124315584Y-86320500D01*
X124285823Y-86326420D01*
X124274187Y-86328734D01*
X124266501Y-86330263D01*
X124266498Y-86330264D01*
X124120827Y-86390602D01*
X124120815Y-86390609D01*
X123998299Y-86472473D01*
X123998297Y-86472474D01*
X123989713Y-86478208D01*
X123989709Y-86478212D01*
X123304741Y-87163181D01*
X123243418Y-87196666D01*
X123217060Y-87199500D01*
X120326327Y-87199500D01*
X120302135Y-87197117D01*
X120283539Y-87193418D01*
X120263843Y-87189500D01*
X120263842Y-87189500D01*
X120106158Y-87189500D01*
X120106156Y-87189500D01*
X120027645Y-87205117D01*
X119992454Y-87212117D01*
X119968264Y-87214500D01*
X119842881Y-87214500D01*
X119756425Y-87224882D01*
X119756424Y-87224882D01*
X119618839Y-87279139D01*
X119533926Y-87343531D01*
X119468614Y-87368354D01*
X119400251Y-87353926D01*
X119353463Y-87309824D01*
X119342447Y-87291965D01*
X119342444Y-87291961D01*
X119220538Y-87170055D01*
X119220534Y-87170052D01*
X119090125Y-87089614D01*
X119043400Y-87037666D01*
X119032179Y-86968704D01*
X119037516Y-86945072D01*
X119089681Y-86787648D01*
X119089681Y-86787645D01*
X119093528Y-86750000D01*
X118186500Y-86750000D01*
X118119461Y-86730315D01*
X118073706Y-86677511D01*
X118062500Y-86626000D01*
X118062500Y-86174000D01*
X118082185Y-86106961D01*
X118134989Y-86061206D01*
X118186500Y-86050000D01*
X119093526Y-86050000D01*
X119093526Y-86049999D01*
X119089680Y-86012348D01*
X119089680Y-86012346D01*
X119035453Y-85848699D01*
X119035448Y-85848688D01*
X118944947Y-85701965D01*
X118944944Y-85701961D01*
X118909664Y-85666681D01*
X118876179Y-85605358D01*
X118881163Y-85535666D01*
X118923035Y-85479733D01*
X118988499Y-85455316D01*
X118997345Y-85455000D01*
X119117828Y-85455000D01*
X119117844Y-85454999D01*
X119177372Y-85448598D01*
X119177379Y-85448596D01*
X119312086Y-85398354D01*
X119312093Y-85398350D01*
X119427187Y-85312190D01*
X119427190Y-85312187D01*
X119513350Y-85197093D01*
X119513354Y-85197086D01*
X119563596Y-85062379D01*
X119563598Y-85062372D01*
X119569999Y-85002844D01*
X119570000Y-85002827D01*
X119570000Y-84955000D01*
X117870000Y-84955000D01*
X117870000Y-85002844D01*
X117876401Y-85062372D01*
X117876403Y-85062379D01*
X117926645Y-85197086D01*
X117926647Y-85197089D01*
X117948805Y-85226688D01*
X117973223Y-85292152D01*
X117958372Y-85360425D01*
X117908967Y-85409831D01*
X117849540Y-85425000D01*
X117713361Y-85425000D01*
X117713344Y-85425001D01*
X117612347Y-85435319D01*
X117448699Y-85489546D01*
X117448688Y-85489551D01*
X117301965Y-85580052D01*
X117301961Y-85580055D01*
X117180055Y-85701961D01*
X117180050Y-85701967D01*
X117169034Y-85719827D01*
X117157894Y-85729845D01*
X117150632Y-85742952D01*
X117132441Y-85752738D01*
X117117085Y-85766550D01*
X117102297Y-85768955D01*
X117089102Y-85776055D01*
X117068508Y-85774453D01*
X117048122Y-85777770D01*
X117033233Y-85771709D01*
X117019443Y-85770637D01*
X116988572Y-85753530D01*
X116937074Y-85714477D01*
X116895551Y-85658284D01*
X116888000Y-85615674D01*
X116888000Y-85293333D01*
X116907685Y-85226294D01*
X116924319Y-85205652D01*
X116932885Y-85197086D01*
X117002206Y-85127765D01*
X117047585Y-85024991D01*
X117050500Y-84999865D01*
X117050499Y-84879385D01*
X117070183Y-84812347D01*
X117086813Y-84791710D01*
X117672912Y-84205611D01*
X117734233Y-84172128D01*
X117803925Y-84177112D01*
X117859858Y-84218984D01*
X117884275Y-84284448D01*
X117877732Y-84329962D01*
X117878187Y-84330070D01*
X117876987Y-84335146D01*
X117876776Y-84336619D01*
X117876404Y-84337616D01*
X117876401Y-84337627D01*
X117870000Y-84397155D01*
X117870000Y-84445000D01*
X119570000Y-84445000D01*
X119570000Y-84397172D01*
X119569999Y-84397155D01*
X119563598Y-84337627D01*
X119563597Y-84337623D01*
X119513352Y-84202911D01*
X119513351Y-84202910D01*
X119492784Y-84175436D01*
X119468366Y-84109972D01*
X119483217Y-84041699D01*
X119504363Y-84013450D01*
X119714213Y-83803599D01*
X119775533Y-83770117D01*
X119845225Y-83775101D01*
X119901158Y-83816973D01*
X119924364Y-83871884D01*
X119936934Y-83951248D01*
X120009897Y-84175802D01*
X120117089Y-84386178D01*
X120117827Y-84387195D01*
X120117830Y-84387195D01*
X120850000Y-83655025D01*
X120850000Y-83672409D01*
X120887482Y-83812292D01*
X120959890Y-83937708D01*
X121062292Y-84040110D01*
X121187708Y-84112518D01*
X121327591Y-84150000D01*
X121344974Y-84150000D01*
X120612803Y-84882170D01*
X120613828Y-84882914D01*
X120824197Y-84990102D01*
X121048752Y-85063065D01*
X121048751Y-85063065D01*
X121281948Y-85100000D01*
X121518052Y-85100000D01*
X121751247Y-85063065D01*
X121975802Y-84990102D01*
X122186171Y-84882914D01*
X122186175Y-84882911D01*
X122187195Y-84882170D01*
X122187195Y-84882168D01*
X121455026Y-84150000D01*
X121472409Y-84150000D01*
X121612292Y-84112518D01*
X121737708Y-84040110D01*
X121840110Y-83937708D01*
X121912518Y-83812292D01*
X121950000Y-83672409D01*
X121950000Y-83655027D01*
X122682168Y-84387195D01*
X122682170Y-84387195D01*
X122682911Y-84386175D01*
X122682914Y-84386171D01*
X122790102Y-84175802D01*
X122863065Y-83951247D01*
X122900000Y-83718052D01*
X122900000Y-83481947D01*
X122863065Y-83248752D01*
X122790102Y-83024197D01*
X122682914Y-82813828D01*
X122620110Y-82727386D01*
X122596630Y-82661579D01*
X122612455Y-82593525D01*
X122662561Y-82544831D01*
X122720428Y-82530500D01*
X124830953Y-82530500D01*
X124897992Y-82550185D01*
X124943747Y-82602989D01*
X124953691Y-82672147D01*
X124924666Y-82735703D01*
X124918634Y-82742181D01*
X124908032Y-82752782D01*
X124908028Y-82752786D01*
X124787715Y-82918386D01*
X124694781Y-83100776D01*
X124631522Y-83295465D01*
X124599500Y-83497648D01*
X124599500Y-83702351D01*
X124631522Y-83904534D01*
X124694781Y-84099223D01*
X124753457Y-84214379D01*
X124786897Y-84280009D01*
X124787715Y-84281613D01*
X124908028Y-84447213D01*
X125052786Y-84591971D01*
X125207749Y-84704556D01*
X125218390Y-84712287D01*
X125323099Y-84765639D01*
X125400776Y-84805218D01*
X125400778Y-84805218D01*
X125400781Y-84805220D01*
X125470968Y-84828025D01*
X125595465Y-84868477D01*
X125664348Y-84879387D01*
X125797648Y-84900500D01*
X125797649Y-84900500D01*
X126002351Y-84900500D01*
X126002352Y-84900500D01*
X126204534Y-84868477D01*
X126399219Y-84805220D01*
X126581610Y-84712287D01*
X126677746Y-84642441D01*
X126747213Y-84591971D01*
X126747215Y-84591968D01*
X126747219Y-84591966D01*
X126891966Y-84447219D01*
X126891968Y-84447215D01*
X126891971Y-84447213D01*
X126948432Y-84369500D01*
X127012287Y-84281610D01*
X127105220Y-84099219D01*
X127168477Y-83904534D01*
X127200500Y-83702352D01*
X127200500Y-83497648D01*
X127186886Y-83411693D01*
X127168477Y-83295465D01*
X127146876Y-83228986D01*
X127105220Y-83100781D01*
X127105216Y-83100774D01*
X127104621Y-83098941D01*
X127102626Y-83029100D01*
X127134869Y-82972943D01*
X128170995Y-81936819D01*
X128232318Y-81903334D01*
X128258676Y-81900500D01*
X128520950Y-81900500D01*
X128542195Y-81906738D01*
G37*
%TD.AperFunction*%
%TA.AperFunction,Conductor*%
G36*
X152942539Y-73620185D02*
G01*
X152988294Y-73672989D01*
X152999500Y-73724500D01*
X152999500Y-99975500D01*
X152979815Y-100042539D01*
X152927011Y-100088294D01*
X152875500Y-100099500D01*
X99624500Y-100099500D01*
X99557461Y-100079815D01*
X99511706Y-100027011D01*
X99500500Y-99975500D01*
X99500500Y-97650000D01*
X114106473Y-97650000D01*
X114110319Y-97687651D01*
X114110319Y-97687653D01*
X114164546Y-97851300D01*
X114164551Y-97851311D01*
X114255052Y-97998034D01*
X114255055Y-97998038D01*
X114376961Y-98119944D01*
X114376965Y-98119947D01*
X114523688Y-98210448D01*
X114523699Y-98210453D01*
X114687347Y-98264680D01*
X114737500Y-98269803D01*
X114737500Y-97650000D01*
X114106473Y-97650000D01*
X99500500Y-97650000D01*
X99500500Y-80389559D01*
X101599500Y-80389559D01*
X101599500Y-88978846D01*
X101630261Y-89133489D01*
X101630264Y-89133501D01*
X101690602Y-89279172D01*
X101690609Y-89279185D01*
X101778210Y-89410288D01*
X101778213Y-89410292D01*
X102558181Y-90190259D01*
X102591666Y-90251582D01*
X102594500Y-90277940D01*
X102594500Y-93876000D01*
X102594501Y-93876009D01*
X102606052Y-93983450D01*
X102606054Y-93983462D01*
X102617260Y-94034972D01*
X102651383Y-94137497D01*
X102651386Y-94137503D01*
X102729171Y-94258537D01*
X102729179Y-94258548D01*
X102774923Y-94311340D01*
X102774926Y-94311343D01*
X102774930Y-94311347D01*
X102883664Y-94405567D01*
X103014541Y-94465338D01*
X103081580Y-94485023D01*
X103081584Y-94485024D01*
X103224000Y-94505500D01*
X103224003Y-94505500D01*
X103644378Y-94505500D01*
X103711417Y-94525185D01*
X103757172Y-94577989D01*
X103767116Y-94647147D01*
X103738091Y-94710703D01*
X103717264Y-94729818D01*
X103545458Y-94854642D01*
X103389642Y-95010458D01*
X103260113Y-95188739D01*
X103160067Y-95385089D01*
X103099175Y-95572499D01*
X103099175Y-95572500D01*
X104866753Y-95572500D01*
X104798389Y-95690909D01*
X104757500Y-95843509D01*
X104757500Y-96001491D01*
X104798389Y-96154091D01*
X104866753Y-96272500D01*
X103099175Y-96272500D01*
X103160067Y-96459910D01*
X103260113Y-96656260D01*
X103389642Y-96834541D01*
X103545458Y-96990357D01*
X103723739Y-97119886D01*
X103920089Y-97219932D01*
X104129664Y-97288026D01*
X104347319Y-97322500D01*
X105007500Y-97322500D01*
X105007500Y-96413246D01*
X105125909Y-96481611D01*
X105278509Y-96522500D01*
X105436491Y-96522500D01*
X105589091Y-96481611D01*
X105707500Y-96413246D01*
X105707500Y-97322500D01*
X106367681Y-97322500D01*
X106585335Y-97288026D01*
X106794910Y-97219932D01*
X106991260Y-97119886D01*
X107169541Y-96990357D01*
X107325357Y-96834541D01*
X107454886Y-96656260D01*
X107554932Y-96459910D01*
X107615825Y-96272500D01*
X105848247Y-96272500D01*
X105916611Y-96154091D01*
X105957500Y-96001491D01*
X105957500Y-95843509D01*
X105956560Y-95840000D01*
X111116473Y-95840000D01*
X111120319Y-95877651D01*
X111120319Y-95877653D01*
X111174546Y-96041300D01*
X111174551Y-96041311D01*
X111265052Y-96188034D01*
X111265055Y-96188038D01*
X111386961Y-96309944D01*
X111386965Y-96309947D01*
X111533688Y-96400448D01*
X111533699Y-96400453D01*
X111697347Y-96454680D01*
X111747500Y-96459803D01*
X111747500Y-95840000D01*
X111116473Y-95840000D01*
X105956560Y-95840000D01*
X105916611Y-95690909D01*
X105848247Y-95572500D01*
X107615825Y-95572500D01*
X107615824Y-95572499D01*
X107554932Y-95385089D01*
X107454886Y-95188739D01*
X107325357Y-95010458D01*
X107169541Y-94854642D01*
X106997736Y-94729818D01*
X106955071Y-94674488D01*
X106949092Y-94604875D01*
X106981698Y-94543080D01*
X107042537Y-94508722D01*
X107070622Y-94505500D01*
X111252155Y-94505500D01*
X111319194Y-94525185D01*
X111364949Y-94577989D01*
X111374893Y-94647147D01*
X111345868Y-94710703D01*
X111339836Y-94717181D01*
X111265055Y-94791961D01*
X111265052Y-94791965D01*
X111174551Y-94938688D01*
X111174545Y-94938701D01*
X111120319Y-95102348D01*
X111120318Y-95102354D01*
X111116471Y-95139999D01*
X111116472Y-95140000D01*
X111973500Y-95140000D01*
X112040539Y-95159685D01*
X112086294Y-95212489D01*
X112097500Y-95264000D01*
X112097500Y-95490000D01*
X112323500Y-95490000D01*
X112390539Y-95509685D01*
X112436294Y-95562489D01*
X112447500Y-95614000D01*
X112447500Y-96459802D01*
X112497650Y-96454680D01*
X112497653Y-96454680D01*
X112661300Y-96400453D01*
X112661311Y-96400448D01*
X112808034Y-96309947D01*
X112808038Y-96309944D01*
X112929943Y-96188039D01*
X113021806Y-96039107D01*
X113073754Y-95992383D01*
X113142717Y-95981160D01*
X113206799Y-96009004D01*
X113226149Y-96029278D01*
X113288501Y-96111501D01*
X113389425Y-96188034D01*
X113406342Y-96200862D01*
X113543923Y-96255117D01*
X113601562Y-96262039D01*
X113630381Y-96265500D01*
X113630382Y-96265500D01*
X114214616Y-96265500D01*
X114214618Y-96265500D01*
X114289230Y-96256539D01*
X114358136Y-96268089D01*
X114409861Y-96315060D01*
X114427980Y-96382539D01*
X114406741Y-96449102D01*
X114380934Y-96476913D01*
X114376965Y-96480051D01*
X114255055Y-96601961D01*
X114255052Y-96601965D01*
X114164551Y-96748688D01*
X114164545Y-96748701D01*
X114110319Y-96912348D01*
X114110318Y-96912354D01*
X114106471Y-96949999D01*
X114106472Y-96950000D01*
X114737500Y-96950000D01*
X114737500Y-96330195D01*
X114737499Y-96330195D01*
X114687350Y-96335318D01*
X114640177Y-96350950D01*
X114570348Y-96353351D01*
X114510307Y-96317619D01*
X114479115Y-96255098D01*
X114486676Y-96185639D01*
X114509699Y-96149528D01*
X114517289Y-96141234D01*
X114556500Y-96111500D01*
X114614506Y-96035006D01*
X114618371Y-96030784D01*
X114643559Y-96015546D01*
X114667234Y-95998052D01*
X114674651Y-95996737D01*
X114678153Y-95994619D01*
X114685482Y-95994817D01*
X114709846Y-95990500D01*
X114936907Y-95990500D01*
X115003946Y-96010185D01*
X115049701Y-96062989D01*
X115053948Y-96073545D01*
X115085750Y-96164430D01*
X115092207Y-96182882D01*
X115172850Y-96292150D01*
X115282118Y-96372793D01*
X115354457Y-96398105D01*
X115411230Y-96438825D01*
X115436978Y-96503777D01*
X115437500Y-96515145D01*
X115437500Y-98269802D01*
X115487650Y-98264680D01*
X115487653Y-98264680D01*
X115651300Y-98210453D01*
X115651311Y-98210448D01*
X115798034Y-98119947D01*
X115798038Y-98119944D01*
X115919943Y-97998039D01*
X116011806Y-97849107D01*
X116063754Y-97802383D01*
X116132717Y-97791160D01*
X116196799Y-97819004D01*
X116216149Y-97839278D01*
X116278501Y-97921501D01*
X116379425Y-97998034D01*
X116396342Y-98010862D01*
X116533923Y-98065117D01*
X116591562Y-98072039D01*
X116620381Y-98075500D01*
X116620382Y-98075500D01*
X117204619Y-98075500D01*
X117226232Y-98072904D01*
X117291077Y-98065117D01*
X117428658Y-98010862D01*
X117546500Y-97921500D01*
X117635862Y-97803658D01*
X117690117Y-97666077D01*
X117700500Y-97579618D01*
X117700500Y-97020382D01*
X117690117Y-96933923D01*
X117635862Y-96796342D01*
X117632833Y-96792347D01*
X117546500Y-96678499D01*
X117464575Y-96616374D01*
X117462094Y-96613017D01*
X117458297Y-96611283D01*
X117441508Y-96585160D01*
X117423051Y-96560182D01*
X117422135Y-96555013D01*
X117420523Y-96552505D01*
X117415500Y-96517570D01*
X117415500Y-96294539D01*
X117435185Y-96227500D01*
X117439727Y-96220910D01*
X117441079Y-96219076D01*
X117450228Y-96206681D01*
X117505871Y-96164430D01*
X117575527Y-96158968D01*
X117637078Y-96192033D01*
X117649769Y-96206678D01*
X117712850Y-96292150D01*
X117792522Y-96350950D01*
X117822118Y-96372793D01*
X117822120Y-96372794D01*
X117861334Y-96386515D01*
X117908062Y-96415876D01*
X118599500Y-97107314D01*
X118692686Y-97200500D01*
X118806814Y-97266392D01*
X118934108Y-97300500D01*
X118934110Y-97300500D01*
X120465890Y-97300500D01*
X120465892Y-97300500D01*
X120593186Y-97266392D01*
X120707314Y-97200500D01*
X121370995Y-96536819D01*
X121432318Y-96503334D01*
X121458676Y-96500500D01*
X124765890Y-96500500D01*
X124765892Y-96500500D01*
X124893186Y-96466392D01*
X125007314Y-96400500D01*
X129600995Y-91806817D01*
X129662318Y-91773333D01*
X129688676Y-91770499D01*
X131304856Y-91770499D01*
X131304864Y-91770499D01*
X131304879Y-91770497D01*
X131304882Y-91770497D01*
X131329987Y-91767586D01*
X131329988Y-91767585D01*
X131329991Y-91767585D01*
X131432765Y-91722206D01*
X131512206Y-91642765D01*
X131557585Y-91539991D01*
X131560500Y-91514865D01*
X131560500Y-91294500D01*
X131580185Y-91227461D01*
X131632989Y-91181706D01*
X131684500Y-91170500D01*
X132665500Y-91170500D01*
X132732539Y-91190185D01*
X132778294Y-91242989D01*
X132789500Y-91294500D01*
X132789500Y-91354269D01*
X132792353Y-91384699D01*
X132792353Y-91384701D01*
X132836742Y-91511553D01*
X132837207Y-91512882D01*
X132917850Y-91622150D01*
X133027118Y-91702793D01*
X133069845Y-91717744D01*
X133155299Y-91747646D01*
X133185730Y-91750500D01*
X133185734Y-91750500D01*
X133594270Y-91750500D01*
X133624699Y-91747646D01*
X133624701Y-91747646D01*
X133688790Y-91725219D01*
X133752882Y-91702793D01*
X133862150Y-91622150D01*
X133925231Y-91536677D01*
X133980877Y-91494428D01*
X134050533Y-91488969D01*
X134112083Y-91522036D01*
X134124763Y-91536670D01*
X134187850Y-91622150D01*
X134297118Y-91702793D01*
X134339845Y-91717744D01*
X134425299Y-91747646D01*
X134455730Y-91750500D01*
X134455734Y-91750500D01*
X134864270Y-91750500D01*
X134894699Y-91747646D01*
X134894701Y-91747646D01*
X134958790Y-91725219D01*
X135022882Y-91702793D01*
X135132150Y-91622150D01*
X135195231Y-91536677D01*
X135216922Y-91520208D01*
X135236315Y-91501078D01*
X135244343Y-91499388D01*
X135250877Y-91494428D01*
X135278031Y-91492299D01*
X135304687Y-91486691D01*
X135312353Y-91489610D01*
X135320533Y-91488969D01*
X135344531Y-91501861D01*
X135369984Y-91511553D01*
X135378343Y-91520027D01*
X135382083Y-91522036D01*
X135394765Y-91536673D01*
X135405270Y-91550906D01*
X135429241Y-91616534D01*
X135429500Y-91624539D01*
X135429500Y-93534108D01*
X135429500Y-93665892D01*
X135430062Y-93667990D01*
X135463608Y-93793187D01*
X135465816Y-93797011D01*
X135529500Y-93907314D01*
X135622686Y-94000500D01*
X135736814Y-94066392D01*
X135864108Y-94100500D01*
X135864110Y-94100500D01*
X148065890Y-94100500D01*
X148065892Y-94100500D01*
X148193186Y-94066392D01*
X148307314Y-94000500D01*
X148400500Y-93907314D01*
X148466392Y-93793186D01*
X148500500Y-93665892D01*
X148500500Y-88334108D01*
X148466392Y-88206814D01*
X148400500Y-88092686D01*
X148307314Y-87999500D01*
X147647314Y-87339500D01*
X147576063Y-87298363D01*
X147533187Y-87273608D01*
X147416890Y-87242447D01*
X147405892Y-87239500D01*
X147405891Y-87239500D01*
X146912207Y-87239500D01*
X146845168Y-87219815D01*
X146801722Y-87171795D01*
X146783996Y-87137006D01*
X146749564Y-87089614D01*
X146677558Y-86990505D01*
X146677554Y-86990500D01*
X146549499Y-86862445D01*
X146549494Y-86862441D01*
X146402997Y-86756006D01*
X146402996Y-86756005D01*
X146402994Y-86756004D01*
X146351300Y-86729664D01*
X146241639Y-86673788D01*
X146241636Y-86673787D01*
X146069410Y-86617829D01*
X145937728Y-86596972D01*
X145874594Y-86567042D01*
X145837663Y-86507731D01*
X145838661Y-86437868D01*
X145877271Y-86379636D01*
X145941235Y-86351522D01*
X145957120Y-86350499D01*
X146694864Y-86350499D01*
X146694879Y-86350497D01*
X146694882Y-86350497D01*
X146719987Y-86347586D01*
X146719988Y-86347585D01*
X146719991Y-86347585D01*
X146822765Y-86302206D01*
X146902206Y-86222765D01*
X146947585Y-86119991D01*
X146950500Y-86094865D01*
X146950499Y-84305136D01*
X146950123Y-84301890D01*
X146947586Y-84280012D01*
X146947585Y-84280010D01*
X146947585Y-84280009D01*
X146902206Y-84177235D01*
X146822765Y-84097794D01*
X146771121Y-84074991D01*
X146719992Y-84052415D01*
X146694865Y-84049500D01*
X144905143Y-84049500D01*
X144905117Y-84049502D01*
X144880012Y-84052413D01*
X144880008Y-84052415D01*
X144777235Y-84097793D01*
X144697794Y-84177234D01*
X144652415Y-84280006D01*
X144652415Y-84280008D01*
X144649500Y-84305131D01*
X144649500Y-84725500D01*
X144629815Y-84792539D01*
X144577011Y-84838294D01*
X144525500Y-84849500D01*
X143626078Y-84849500D01*
X143559039Y-84829815D01*
X143529661Y-84803473D01*
X143517700Y-84788683D01*
X143510862Y-84771342D01*
X143421500Y-84653500D01*
X143387563Y-84627765D01*
X143378083Y-84616042D01*
X143370216Y-84597143D01*
X143358051Y-84580680D01*
X143354112Y-84558452D01*
X143351234Y-84551538D01*
X143352063Y-84546893D01*
X143350500Y-84538069D01*
X143350500Y-82096366D01*
X143370185Y-82029327D01*
X143399572Y-81997564D01*
X143426867Y-81976867D01*
X143513115Y-81863132D01*
X143565479Y-81730346D01*
X143575500Y-81646902D01*
X143575500Y-81128098D01*
X143565479Y-81044654D01*
X143513115Y-80911868D01*
X143484102Y-80873608D01*
X143426867Y-80798132D01*
X143313134Y-80711886D01*
X143306378Y-80708088D01*
X143257589Y-80658075D01*
X143243583Y-80589624D01*
X143268808Y-80524466D01*
X143306378Y-80491912D01*
X143313126Y-80488117D01*
X143313132Y-80488115D01*
X143426867Y-80401867D01*
X143513115Y-80288132D01*
X143565479Y-80155346D01*
X143575500Y-80071902D01*
X143575500Y-79553098D01*
X143565479Y-79469654D01*
X143513115Y-79336868D01*
X143511227Y-79334378D01*
X143426866Y-79223131D01*
X143399574Y-79202435D01*
X143397094Y-79199079D01*
X143393297Y-79197345D01*
X143376507Y-79171219D01*
X143358051Y-79146243D01*
X143357135Y-79141075D01*
X143355523Y-79138567D01*
X143350500Y-79103632D01*
X143350500Y-78861929D01*
X143370185Y-78794890D01*
X143399572Y-78763127D01*
X143421500Y-78746500D01*
X143510862Y-78628658D01*
X143565117Y-78491077D01*
X143575500Y-78404618D01*
X143575500Y-77820382D01*
X143565117Y-77733923D01*
X143510862Y-77596342D01*
X143491284Y-77570525D01*
X143421501Y-77478501D01*
X143339278Y-77416149D01*
X143297755Y-77359956D01*
X143293204Y-77290235D01*
X143327069Y-77229121D01*
X143349107Y-77211806D01*
X143498039Y-77119943D01*
X143619944Y-76998038D01*
X143619947Y-76998034D01*
X143710448Y-76851311D01*
X143710454Y-76851298D01*
X143764681Y-76687649D01*
X143769805Y-76637500D01*
X141830196Y-76637500D01*
X141835319Y-76687650D01*
X141835319Y-76687653D01*
X141889546Y-76851300D01*
X141889551Y-76851311D01*
X141980052Y-76998034D01*
X141980055Y-76998038D01*
X142101961Y-77119944D01*
X142101965Y-77119947D01*
X142250892Y-77211807D01*
X142297617Y-77263755D01*
X142308838Y-77332717D01*
X142280995Y-77396799D01*
X142260721Y-77416148D01*
X142178500Y-77478498D01*
X142089139Y-77596339D01*
X142034882Y-77733924D01*
X142034882Y-77733925D01*
X142024500Y-77820381D01*
X142024500Y-78404618D01*
X142034882Y-78491074D01*
X142034882Y-78491075D01*
X142089139Y-78628660D01*
X142163721Y-78727011D01*
X142178500Y-78746500D01*
X142200425Y-78763126D01*
X142202904Y-78766481D01*
X142206703Y-78768216D01*
X142223490Y-78794338D01*
X142241948Y-78819315D01*
X142242864Y-78824484D01*
X142244477Y-78826994D01*
X142249500Y-78861929D01*
X142249500Y-79103632D01*
X142229815Y-79170671D01*
X142200426Y-79202435D01*
X142173133Y-79223131D01*
X142086886Y-79336865D01*
X142034520Y-79469655D01*
X142034520Y-79469656D01*
X142024500Y-79553097D01*
X142024500Y-80071902D01*
X142034520Y-80155343D01*
X142034520Y-80155344D01*
X142086886Y-80288134D01*
X142173132Y-80401867D01*
X142286868Y-80488115D01*
X142293624Y-80491914D01*
X142342412Y-80541928D01*
X142356416Y-80610380D01*
X142331188Y-80675537D01*
X142309303Y-80697627D01*
X142295384Y-80708526D01*
X142286868Y-80711885D01*
X142173133Y-80798133D01*
X142161690Y-80813221D01*
X142149042Y-80823127D01*
X142130902Y-80830345D01*
X142115198Y-80841950D01*
X142090944Y-80846247D01*
X142084124Y-80848962D01*
X142080076Y-80848173D01*
X142072590Y-80849500D01*
X141012000Y-80849500D01*
X140944961Y-80829815D01*
X140899206Y-80777011D01*
X140888000Y-80725500D01*
X140888000Y-76490027D01*
X140888000Y-76490025D01*
X140850484Y-76350015D01*
X140850467Y-76349986D01*
X140778011Y-76224488D01*
X140778006Y-76224482D01*
X140675517Y-76121993D01*
X140675515Y-76121991D01*
X140615079Y-76087098D01*
X140615078Y-76087097D01*
X140549988Y-76049517D01*
X140549989Y-76049517D01*
X140538506Y-76046440D01*
X140409975Y-76012000D01*
X140409972Y-76012000D01*
X138402763Y-76012000D01*
X138335724Y-75992315D01*
X138303574Y-75958211D01*
X138301986Y-75959416D01*
X138285366Y-75937499D01*
X141830195Y-75937499D01*
X141830196Y-75937500D01*
X142450000Y-75937500D01*
X143150000Y-75937500D01*
X143769803Y-75937500D01*
X143764680Y-75887349D01*
X143764680Y-75887346D01*
X143710453Y-75723699D01*
X143710448Y-75723688D01*
X143619947Y-75576965D01*
X143619944Y-75576961D01*
X143498038Y-75455055D01*
X143498034Y-75455052D01*
X143351311Y-75364551D01*
X143351298Y-75364545D01*
X143187651Y-75310319D01*
X143187645Y-75310318D01*
X143150000Y-75306471D01*
X143150000Y-75937500D01*
X142450000Y-75937500D01*
X142450000Y-75306472D01*
X142449999Y-75306471D01*
X142412354Y-75310318D01*
X142412348Y-75310319D01*
X142248701Y-75364545D01*
X142248688Y-75364551D01*
X142101965Y-75455052D01*
X142101961Y-75455055D01*
X141980055Y-75576961D01*
X141980052Y-75576965D01*
X141889551Y-75723688D01*
X141889545Y-75723701D01*
X141835318Y-75887350D01*
X141830195Y-75937499D01*
X138285366Y-75937499D01*
X138205422Y-75832077D01*
X138084843Y-75740639D01*
X137944061Y-75685122D01*
X137898426Y-75679642D01*
X137855602Y-75674500D01*
X136819398Y-75674500D01*
X136780353Y-75679188D01*
X136730938Y-75685122D01*
X136590156Y-75740639D01*
X136469577Y-75832077D01*
X136378138Y-75952657D01*
X136362500Y-75992315D01*
X136353700Y-76014632D01*
X136351193Y-76020989D01*
X136308287Y-76076134D01*
X136242380Y-76099327D01*
X136235838Y-76099500D01*
X135828004Y-76099500D01*
X135787049Y-76092541D01*
X135672201Y-76052354D01*
X135672199Y-76052353D01*
X135641770Y-76049500D01*
X135641766Y-76049500D01*
X134508234Y-76049500D01*
X134508230Y-76049500D01*
X134477800Y-76052353D01*
X134477798Y-76052353D01*
X134349619Y-76097206D01*
X134349617Y-76097207D01*
X134240350Y-76177850D01*
X134159707Y-76287117D01*
X134159706Y-76287119D01*
X134114853Y-76415298D01*
X134114853Y-76415300D01*
X134112000Y-76445730D01*
X134112000Y-76854269D01*
X134114853Y-76884699D01*
X134114853Y-76884701D01*
X134158422Y-77009211D01*
X134159707Y-77012882D01*
X134240350Y-77122150D01*
X134349618Y-77202793D01*
X134375376Y-77211806D01*
X134477799Y-77247646D01*
X134508230Y-77250500D01*
X134508234Y-77250500D01*
X135641770Y-77250500D01*
X135672199Y-77247646D01*
X135725141Y-77229121D01*
X135787049Y-77207459D01*
X135828004Y-77200500D01*
X136337903Y-77200500D01*
X136404942Y-77220185D01*
X136436707Y-77249575D01*
X136469577Y-77292922D01*
X136596916Y-77389486D01*
X136595528Y-77391315D01*
X136635815Y-77432618D01*
X136649816Y-77501071D01*
X136624587Y-77566226D01*
X136568136Y-77607398D01*
X136565259Y-77608391D01*
X136543382Y-77615640D01*
X136543375Y-77615643D01*
X136394154Y-77707684D01*
X136270184Y-77831654D01*
X136178143Y-77980875D01*
X136178141Y-77980880D01*
X136148077Y-78071608D01*
X136108304Y-78129053D01*
X136043788Y-78155876D01*
X135975012Y-78143561D01*
X135930601Y-78106238D01*
X135909650Y-78077850D01*
X135800382Y-77997207D01*
X135800380Y-77997206D01*
X135672200Y-77952353D01*
X135641770Y-77949500D01*
X135641766Y-77949500D01*
X134508234Y-77949500D01*
X134508230Y-77949500D01*
X134477800Y-77952353D01*
X134477798Y-77952353D01*
X134349619Y-77997206D01*
X134349617Y-77997207D01*
X134240350Y-78077850D01*
X134159707Y-78187117D01*
X134159706Y-78187119D01*
X134114853Y-78315298D01*
X134114853Y-78315300D01*
X134112000Y-78345730D01*
X134112000Y-78754269D01*
X134114853Y-78784699D01*
X134114853Y-78784701D01*
X134151912Y-78890606D01*
X134159707Y-78912882D01*
X134240350Y-79022150D01*
X134349618Y-79102793D01*
X134372075Y-79110651D01*
X134477799Y-79147646D01*
X134508230Y-79150500D01*
X134508234Y-79150500D01*
X135641770Y-79150500D01*
X135672199Y-79147646D01*
X135672201Y-79147646D01*
X135738347Y-79124500D01*
X135800382Y-79102793D01*
X135909650Y-79022150D01*
X135909650Y-79022148D01*
X135917126Y-79016632D01*
X135918056Y-79017893D01*
X135970230Y-78989399D01*
X136039922Y-78994378D01*
X136095859Y-79036244D01*
X136119956Y-79097960D01*
X136122994Y-79127697D01*
X136178141Y-79294119D01*
X136178143Y-79294124D01*
X136270184Y-79443345D01*
X136394154Y-79567315D01*
X136543375Y-79659356D01*
X136543380Y-79659358D01*
X136709802Y-79714505D01*
X136709809Y-79714506D01*
X136812519Y-79724999D01*
X136987499Y-79724999D01*
X137687500Y-79724999D01*
X137862472Y-79724999D01*
X137862486Y-79724998D01*
X137965197Y-79714505D01*
X138131619Y-79659358D01*
X138131624Y-79659356D01*
X138280845Y-79567315D01*
X138404815Y-79443345D01*
X138496856Y-79294124D01*
X138496858Y-79294119D01*
X138552005Y-79127697D01*
X138552006Y-79127690D01*
X138562499Y-79024986D01*
X138562500Y-79024973D01*
X138562500Y-78987500D01*
X137687500Y-78987500D01*
X137687500Y-79724999D01*
X136987499Y-79724999D01*
X136987500Y-79724998D01*
X136987500Y-78761500D01*
X137007185Y-78694461D01*
X137059989Y-78648706D01*
X137111500Y-78637500D01*
X137337500Y-78637500D01*
X137337500Y-78411500D01*
X137357185Y-78344461D01*
X137409989Y-78298706D01*
X137461500Y-78287500D01*
X138562499Y-78287500D01*
X138562499Y-78250028D01*
X138562498Y-78250013D01*
X138552005Y-78147302D01*
X138496858Y-77980880D01*
X138496856Y-77980875D01*
X138404815Y-77831654D01*
X138280845Y-77707684D01*
X138131624Y-77615643D01*
X138131621Y-77615642D01*
X138109741Y-77608392D01*
X138052297Y-77568619D01*
X138025474Y-77504103D01*
X138037789Y-77435327D01*
X138079105Y-77390832D01*
X138078084Y-77389486D01*
X138205422Y-77292922D01*
X138301986Y-77165584D01*
X138304012Y-77167120D01*
X138344692Y-77127438D01*
X138402763Y-77113000D01*
X139663000Y-77113000D01*
X139730039Y-77132685D01*
X139775794Y-77185489D01*
X139787000Y-77237000D01*
X139787000Y-80725500D01*
X139767315Y-80792539D01*
X139714511Y-80838294D01*
X139663000Y-80849500D01*
X135642368Y-80849500D01*
X135575329Y-80829815D01*
X135573477Y-80828602D01*
X135499584Y-80779228D01*
X135499572Y-80779221D01*
X135372100Y-80726421D01*
X135372090Y-80726418D01*
X135236763Y-80699500D01*
X135236761Y-80699500D01*
X135098775Y-80699500D01*
X135098773Y-80699500D01*
X134963445Y-80726418D01*
X134963435Y-80726421D01*
X134835963Y-80779221D01*
X134835950Y-80779228D01*
X134721226Y-80855885D01*
X134721222Y-80855888D01*
X134623656Y-80953454D01*
X134623653Y-80953458D01*
X134546996Y-81068182D01*
X134546989Y-81068195D01*
X134494189Y-81195667D01*
X134494186Y-81195677D01*
X134467268Y-81331004D01*
X134467268Y-81331007D01*
X134467268Y-81468993D01*
X134467268Y-81468995D01*
X134467267Y-81468995D01*
X134494186Y-81604322D01*
X134494189Y-81604332D01*
X134546989Y-81731804D01*
X134546996Y-81731817D01*
X134623653Y-81846541D01*
X134623656Y-81846545D01*
X134664930Y-81887819D01*
X134675542Y-81907255D01*
X134690043Y-81923989D01*
X134691959Y-81937320D01*
X134698415Y-81949142D01*
X134696835Y-81971228D01*
X134699987Y-81993147D01*
X134694391Y-82005398D01*
X134693431Y-82018834D01*
X134680160Y-82036560D01*
X134670962Y-82056703D01*
X134659630Y-82063985D01*
X134651559Y-82074767D01*
X134630813Y-82082504D01*
X134612184Y-82094477D01*
X134590265Y-82097628D01*
X134586095Y-82099184D01*
X134577249Y-82099500D01*
X134558676Y-82099500D01*
X134491637Y-82079815D01*
X134470995Y-82063181D01*
X132507316Y-80099502D01*
X132507314Y-80099500D01*
X132450250Y-80066554D01*
X132393187Y-80033608D01*
X132329539Y-80016554D01*
X132265892Y-79999500D01*
X126465893Y-79999500D01*
X126334108Y-79999500D01*
X126206812Y-80033608D01*
X126092686Y-80099500D01*
X126092683Y-80099502D01*
X124699005Y-81493181D01*
X124637682Y-81526666D01*
X124611324Y-81529500D01*
X120714107Y-81529500D01*
X120658816Y-81544314D01*
X120658817Y-81544315D01*
X120586814Y-81563608D01*
X120586812Y-81563608D01*
X120586812Y-81563609D01*
X120472686Y-81629500D01*
X120472683Y-81629502D01*
X120379498Y-81722688D01*
X119727460Y-82374724D01*
X119666137Y-82408209D01*
X119596445Y-82403225D01*
X119540512Y-82361353D01*
X119523597Y-82330375D01*
X119513355Y-82302915D01*
X119513350Y-82302906D01*
X119427190Y-82187812D01*
X119427187Y-82187809D01*
X119312093Y-82101649D01*
X119312086Y-82101645D01*
X119177379Y-82051403D01*
X119177372Y-82051401D01*
X119117844Y-82045000D01*
X118975000Y-82045000D01*
X118975000Y-82676000D01*
X118955315Y-82743039D01*
X118902511Y-82788794D01*
X118851000Y-82800000D01*
X118589000Y-82800000D01*
X118521961Y-82780315D01*
X118476206Y-82727511D01*
X118465000Y-82676000D01*
X118465000Y-82045000D01*
X118322155Y-82045000D01*
X118262627Y-82051401D01*
X118262620Y-82051403D01*
X118119601Y-82104746D01*
X118118474Y-82101726D01*
X118065632Y-82113212D01*
X118000172Y-82088783D01*
X117958311Y-82032842D01*
X117950500Y-81989529D01*
X117950500Y-79124500D01*
X117970185Y-79057461D01*
X118022989Y-79011706D01*
X118074500Y-79000500D01*
X120675500Y-79000500D01*
X120742539Y-79020185D01*
X120788294Y-79072989D01*
X120799500Y-79124500D01*
X120799500Y-79644960D01*
X120814630Y-79779249D01*
X120814631Y-79779254D01*
X120874211Y-79949523D01*
X120955468Y-80078842D01*
X120970184Y-80102262D01*
X121097738Y-80229816D01*
X121105855Y-80234916D01*
X121224385Y-80309394D01*
X121250478Y-80325789D01*
X121376074Y-80369737D01*
X121420745Y-80385368D01*
X121420750Y-80385369D01*
X121511246Y-80395565D01*
X121555040Y-80400499D01*
X121555043Y-80400500D01*
X121555046Y-80400500D01*
X122644957Y-80400500D01*
X122644958Y-80400499D01*
X122712104Y-80392934D01*
X122779249Y-80385369D01*
X122779252Y-80385368D01*
X122779255Y-80385368D01*
X122949522Y-80325789D01*
X123102262Y-80229816D01*
X123229816Y-80102262D01*
X123325789Y-79949522D01*
X123385368Y-79779255D01*
X123400500Y-79644954D01*
X123400500Y-79124500D01*
X123403050Y-79115814D01*
X123401762Y-79106853D01*
X123412740Y-79082812D01*
X123420185Y-79057461D01*
X123427025Y-79051533D01*
X123430787Y-79043297D01*
X123453021Y-79029007D01*
X123472989Y-79011706D01*
X123483503Y-79009418D01*
X123489565Y-79005523D01*
X123524500Y-79000500D01*
X123733339Y-79000500D01*
X123800378Y-79020185D01*
X123808251Y-79025686D01*
X123852658Y-79059361D01*
X123993436Y-79114877D01*
X124081898Y-79125500D01*
X124081903Y-79125500D01*
X125118097Y-79125500D01*
X125118102Y-79125500D01*
X125206564Y-79114877D01*
X125347342Y-79059361D01*
X125467922Y-78967922D01*
X125529231Y-78887073D01*
X125585424Y-78845551D01*
X125628035Y-78838000D01*
X128137402Y-78838000D01*
X128204441Y-78857685D01*
X128225083Y-78874319D01*
X128381284Y-79030520D01*
X128381286Y-79030521D01*
X128381290Y-79030524D01*
X128506464Y-79102792D01*
X128518216Y-79109577D01*
X128670943Y-79150501D01*
X128670945Y-79150501D01*
X128836654Y-79150501D01*
X128836670Y-79150500D01*
X133366770Y-79150500D01*
X133397199Y-79147646D01*
X133397201Y-79147646D01*
X133463347Y-79124500D01*
X133525382Y-79102793D01*
X133634650Y-79022150D01*
X133715293Y-78912882D01*
X133744203Y-78830262D01*
X133760146Y-78784701D01*
X133760146Y-78784699D01*
X133763000Y-78754269D01*
X133763000Y-78345730D01*
X133760147Y-78315306D01*
X133758536Y-78307932D01*
X133760976Y-78307398D01*
X133758024Y-78249657D01*
X133790950Y-78190788D01*
X133830180Y-78151558D01*
X133830186Y-78151550D01*
X133913781Y-78010198D01*
X133945796Y-77900000D01*
X131654175Y-77900000D01*
X131598248Y-77941743D01*
X131555079Y-77949500D01*
X129124500Y-77949500D01*
X129057461Y-77929815D01*
X129011706Y-77877011D01*
X129000500Y-77825500D01*
X129000500Y-77374500D01*
X129020185Y-77307461D01*
X129072989Y-77261706D01*
X129124500Y-77250500D01*
X131555079Y-77250500D01*
X131622118Y-77270185D01*
X131654188Y-77300000D01*
X133945796Y-77300000D01*
X133913781Y-77189801D01*
X133830185Y-77048447D01*
X133830178Y-77048438D01*
X133790950Y-77009211D01*
X133757464Y-76947888D01*
X133760858Y-76892575D01*
X133758536Y-76892068D01*
X133760147Y-76884693D01*
X133763000Y-76854269D01*
X133763000Y-76445730D01*
X133760146Y-76415300D01*
X133760146Y-76415298D01*
X133726506Y-76319163D01*
X133715293Y-76287118D01*
X133634650Y-76177850D01*
X133525382Y-76097207D01*
X133525380Y-76097206D01*
X133397200Y-76052353D01*
X133366770Y-76049500D01*
X133366766Y-76049500D01*
X132879057Y-76049500D01*
X128836670Y-76049500D01*
X128836654Y-76049499D01*
X128829058Y-76049499D01*
X128670943Y-76049499D01*
X128594579Y-76069961D01*
X128518214Y-76090423D01*
X128518209Y-76090426D01*
X128381290Y-76169475D01*
X128381282Y-76169481D01*
X128024217Y-76526546D01*
X128024214Y-76526548D01*
X128024215Y-76526549D01*
X127919478Y-76631286D01*
X127869361Y-76718094D01*
X127869359Y-76718096D01*
X127840425Y-76768209D01*
X127840424Y-76768210D01*
X127840423Y-76768215D01*
X127799499Y-76920943D01*
X127799499Y-76920945D01*
X127799499Y-77089046D01*
X127799500Y-77089059D01*
X127799500Y-77513000D01*
X127779815Y-77580039D01*
X127727011Y-77625794D01*
X127675500Y-77637000D01*
X125628035Y-77637000D01*
X125560996Y-77617315D01*
X125529231Y-77587926D01*
X125523250Y-77580039D01*
X125467922Y-77507078D01*
X125467920Y-77507077D01*
X125467920Y-77507076D01*
X125340584Y-77410514D01*
X125341970Y-77408685D01*
X125301679Y-77367372D01*
X125287683Y-77298919D01*
X125312918Y-77233765D01*
X125369372Y-77192598D01*
X125372245Y-77191606D01*
X125394122Y-77184356D01*
X125394124Y-77184356D01*
X125543345Y-77092315D01*
X125667315Y-76968345D01*
X125759356Y-76819124D01*
X125759358Y-76819119D01*
X125814505Y-76652697D01*
X125814506Y-76652690D01*
X125824999Y-76549986D01*
X125825000Y-76549973D01*
X125825000Y-76512500D01*
X123433293Y-76512500D01*
X123366254Y-76492815D01*
X123328299Y-76454472D01*
X123262646Y-76349986D01*
X123229816Y-76297738D01*
X123102262Y-76170184D01*
X123025567Y-76121993D01*
X122949523Y-76074211D01*
X122779254Y-76014631D01*
X122779249Y-76014630D01*
X122644960Y-75999500D01*
X122644954Y-75999500D01*
X121555046Y-75999500D01*
X121555039Y-75999500D01*
X121420750Y-76014630D01*
X121420745Y-76014631D01*
X121250476Y-76074211D01*
X121097737Y-76170184D01*
X120970184Y-76297737D01*
X120874211Y-76450476D01*
X120814631Y-76620745D01*
X120814630Y-76620750D01*
X120799500Y-76755039D01*
X120799500Y-77275500D01*
X120779815Y-77342539D01*
X120727011Y-77388294D01*
X120675500Y-77399500D01*
X117006163Y-77399500D01*
X116980799Y-77392052D01*
X116954636Y-77388287D01*
X116944862Y-77381499D01*
X116939124Y-77379815D01*
X116924947Y-77369202D01*
X116921614Y-77366313D01*
X116844653Y-77289352D01*
X116805545Y-77265710D01*
X116797541Y-77258773D01*
X116784150Y-77237930D01*
X116767419Y-77219660D01*
X116765594Y-77209047D01*
X116759775Y-77199989D01*
X116759778Y-77175216D01*
X116755581Y-77150800D01*
X116759783Y-77140886D01*
X116759785Y-77130120D01*
X116773180Y-77109281D01*
X116782850Y-77086472D01*
X116793078Y-77078329D01*
X116797567Y-77071347D01*
X116807608Y-77066762D01*
X116823664Y-77053982D01*
X116899025Y-77016607D01*
X117047366Y-76897367D01*
X117047367Y-76897366D01*
X117166607Y-76749025D01*
X117166609Y-76749022D01*
X117251168Y-76578523D01*
X117297102Y-76393824D01*
X117300000Y-76351096D01*
X117300000Y-76250000D01*
X114655000Y-76250000D01*
X114628819Y-76276181D01*
X114567496Y-76309666D01*
X114541138Y-76312500D01*
X112075001Y-76312500D01*
X112075001Y-76349986D01*
X112085494Y-76452697D01*
X112140641Y-76619119D01*
X112140643Y-76619124D01*
X112232684Y-76768345D01*
X112356654Y-76892315D01*
X112505876Y-76984356D01*
X112527755Y-76991606D01*
X112585201Y-77031378D01*
X112612025Y-77095893D01*
X112599711Y-77164669D01*
X112566130Y-77206209D01*
X112555943Y-77214343D01*
X112552658Y-77215639D01*
X112432078Y-77307078D01*
X112420196Y-77322745D01*
X112408112Y-77332396D01*
X112389510Y-77340004D01*
X112373344Y-77351950D01*
X112350339Y-77356026D01*
X112343443Y-77358847D01*
X112339028Y-77358030D01*
X112330735Y-77359500D01*
X111511153Y-77359500D01*
X111356510Y-77390260D01*
X111356502Y-77390262D01*
X111210824Y-77450604D01*
X111210814Y-77450609D01*
X111079711Y-77538210D01*
X111079707Y-77538213D01*
X109854741Y-78763181D01*
X109793418Y-78796666D01*
X109767060Y-78799500D01*
X107752950Y-78799500D01*
X107685911Y-78779815D01*
X107640156Y-78727011D01*
X107630212Y-78657853D01*
X107635909Y-78634544D01*
X107642535Y-78615608D01*
X107642536Y-78615601D01*
X107657499Y-78482796D01*
X107657500Y-78482792D01*
X107657500Y-78430000D01*
X103057500Y-78430000D01*
X103057500Y-78482796D01*
X103072463Y-78615601D01*
X103072465Y-78615612D01*
X103094593Y-78678848D01*
X103098155Y-78748627D01*
X103063427Y-78809254D01*
X103025005Y-78834364D01*
X102889230Y-78890604D01*
X102889220Y-78890609D01*
X102758117Y-78978210D01*
X102758113Y-78978213D01*
X102091374Y-79644954D01*
X101889711Y-79846617D01*
X101833960Y-79902368D01*
X101778209Y-79958118D01*
X101690609Y-80089220D01*
X101690602Y-80089233D01*
X101630264Y-80234904D01*
X101630261Y-80234916D01*
X101599500Y-80389559D01*
X99500500Y-80389559D01*
X99500500Y-77476009D01*
X104757500Y-77476009D01*
X104757500Y-77883991D01*
X104798389Y-78036591D01*
X104877381Y-78173408D01*
X104989092Y-78285119D01*
X105125909Y-78364111D01*
X105278509Y-78405000D01*
X105436491Y-78405000D01*
X105589091Y-78364111D01*
X105725908Y-78285119D01*
X105837619Y-78173408D01*
X105916611Y-78036591D01*
X105957500Y-77883991D01*
X105957500Y-77476009D01*
X105916611Y-77323409D01*
X105837619Y-77186592D01*
X105725908Y-77074881D01*
X105589091Y-76995889D01*
X105436491Y-76955000D01*
X105278509Y-76955000D01*
X105125909Y-76995889D01*
X104989092Y-77074881D01*
X104877381Y-77186592D01*
X104798389Y-77323409D01*
X104757500Y-77476009D01*
X99500500Y-77476009D01*
X99500500Y-76877203D01*
X103057500Y-76877203D01*
X103057500Y-76930000D01*
X104607500Y-76930000D01*
X106107500Y-76930000D01*
X107657500Y-76930000D01*
X107657500Y-76877207D01*
X107657499Y-76877203D01*
X107642536Y-76744398D01*
X107642534Y-76744387D01*
X107583613Y-76576002D01*
X107583608Y-76575992D01*
X107488703Y-76424953D01*
X107488698Y-76424947D01*
X107362552Y-76298801D01*
X107362546Y-76298796D01*
X107211507Y-76203891D01*
X107211497Y-76203886D01*
X107043112Y-76144965D01*
X107043101Y-76144963D01*
X106910296Y-76130000D01*
X106107500Y-76130000D01*
X106107500Y-76930000D01*
X104607500Y-76930000D01*
X104607500Y-76130000D01*
X103804703Y-76130000D01*
X103671898Y-76144963D01*
X103671887Y-76144965D01*
X103503502Y-76203886D01*
X103503492Y-76203891D01*
X103352453Y-76298796D01*
X103352447Y-76298801D01*
X103226301Y-76424947D01*
X103226296Y-76424953D01*
X103131391Y-76575992D01*
X103131386Y-76576002D01*
X103072465Y-76744387D01*
X103072463Y-76744398D01*
X103057500Y-76877203D01*
X99500500Y-76877203D01*
X99500500Y-75775013D01*
X123375000Y-75775013D01*
X123375000Y-75812500D01*
X124250000Y-75812500D01*
X124950000Y-75812500D01*
X125824999Y-75812500D01*
X125824999Y-75775028D01*
X125824998Y-75775013D01*
X125814505Y-75672302D01*
X125759358Y-75505880D01*
X125759356Y-75505875D01*
X125667315Y-75356654D01*
X125543345Y-75232684D01*
X125394124Y-75140643D01*
X125394119Y-75140641D01*
X125227697Y-75085494D01*
X125227690Y-75085493D01*
X125124986Y-75075000D01*
X124950000Y-75075000D01*
X124950000Y-75812500D01*
X124250000Y-75812500D01*
X124250000Y-75075000D01*
X124075029Y-75075000D01*
X124075012Y-75075001D01*
X123972302Y-75085494D01*
X123805880Y-75140641D01*
X123805875Y-75140643D01*
X123656654Y-75232684D01*
X123532684Y-75356654D01*
X123440643Y-75505875D01*
X123440641Y-75505880D01*
X123385494Y-75672302D01*
X123385493Y-75672309D01*
X123375000Y-75775013D01*
X99500500Y-75775013D01*
X99500500Y-75575013D01*
X112075000Y-75575013D01*
X112075000Y-75612500D01*
X112950000Y-75612500D01*
X112950000Y-74875000D01*
X113650000Y-74875000D01*
X113650000Y-75612500D01*
X114170000Y-75612500D01*
X114196181Y-75586319D01*
X114257504Y-75552834D01*
X114283862Y-75550000D01*
X115450000Y-75550000D01*
X116150000Y-75550000D01*
X117300000Y-75550000D01*
X117300000Y-75448903D01*
X117297102Y-75406175D01*
X117251168Y-75221476D01*
X117166609Y-75050977D01*
X117166607Y-75050974D01*
X117047367Y-74902633D01*
X117047366Y-74902632D01*
X116899025Y-74783392D01*
X116899022Y-74783390D01*
X116728523Y-74698831D01*
X116543824Y-74652897D01*
X116501097Y-74650000D01*
X116150000Y-74650000D01*
X116150000Y-75550000D01*
X115450000Y-75550000D01*
X115450000Y-74650000D01*
X115098903Y-74650000D01*
X115056175Y-74652897D01*
X114871476Y-74698831D01*
X114700977Y-74783390D01*
X114700974Y-74783392D01*
X114552633Y-74902632D01*
X114552632Y-74902633D01*
X114443448Y-75038465D01*
X114386105Y-75078384D01*
X114316283Y-75080964D01*
X114259120Y-75048459D01*
X114243345Y-75032684D01*
X114094124Y-74940643D01*
X114094119Y-74940641D01*
X113927697Y-74885494D01*
X113927690Y-74885493D01*
X113824986Y-74875000D01*
X113650000Y-74875000D01*
X112950000Y-74875000D01*
X112775029Y-74875000D01*
X112775012Y-74875001D01*
X112672302Y-74885494D01*
X112505880Y-74940641D01*
X112505875Y-74940643D01*
X112356654Y-75032684D01*
X112232684Y-75156654D01*
X112140643Y-75305875D01*
X112140641Y-75305880D01*
X112085494Y-75472302D01*
X112085493Y-75472309D01*
X112075000Y-75575013D01*
X99500500Y-75575013D01*
X99500500Y-73724500D01*
X99520185Y-73657461D01*
X99572989Y-73611706D01*
X99624500Y-73600500D01*
X152875500Y-73600500D01*
X152942539Y-73620185D01*
G37*
%TD.AperFunction*%
%TD*%
%TA.AperFunction,Conductor*%
%TO.N,VIN1*%
G36*
X116096984Y-89019685D02*
G01*
X116142739Y-89072489D01*
X116152683Y-89141647D01*
X116149022Y-89158595D01*
X116117401Y-89267434D01*
X116114500Y-89304298D01*
X116114500Y-91085701D01*
X116117401Y-91122567D01*
X116117402Y-91122573D01*
X116151927Y-91241405D01*
X116151728Y-91311274D01*
X116113786Y-91369944D01*
X116050148Y-91398788D01*
X116032851Y-91400000D01*
X115200000Y-91400000D01*
X115200000Y-93667990D01*
X115180315Y-93735029D01*
X115139122Y-93774721D01*
X115093140Y-93801914D01*
X115093129Y-93801923D01*
X114976923Y-93918129D01*
X114976918Y-93918135D01*
X114964509Y-93939120D01*
X114913440Y-93986804D01*
X114857776Y-94000000D01*
X103224000Y-94000000D01*
X103156961Y-93980315D01*
X103111206Y-93927511D01*
X103100000Y-93876000D01*
X103100000Y-89124000D01*
X103119685Y-89056961D01*
X103172489Y-89011206D01*
X103224000Y-89000000D01*
X116029945Y-89000000D01*
X116096984Y-89019685D01*
G37*
%TD.AperFunction*%
%TD*%
M02*
