%TF.GenerationSoftware,KiCad,Pcbnew,9.0.7*%
%TF.CreationDate,2026-08-08T19:34:49-04:00*%
%TF.ProjectId,SB_Pixel_Count,53425f50-6978-4656-9c5f-436f756e742e,v1*%
%TF.SameCoordinates,Original*%
%TF.FileFunction,Legend,Bot*%
%TF.FilePolarity,Positive*%
%FSLAX46Y46*%
G04 Gerber Fmt 4.6, Leading zero omitted, Abs format (unit mm)*
G04 Created by KiCad (PCBNEW 9.0.7) date 2026-08-08 19:34:49*
%MOMM*%
%LPD*%
G01*
G04 APERTURE LIST*
G04 Aperture macros list*
%AMRoundRect*
0 Rectangle with rounded corners*
0 $1 Rounding radius*
0 $2 $3 $4 $5 $6 $7 $8 $9 X,Y pos of 4 corners*
0 Add a 4 corners polygon primitive as box body*
4,1,4,$2,$3,$4,$5,$6,$7,$8,$9,$2,$3,0*
0 Add four circle primitives for the rounded corners*
1,1,$1+$1,$2,$3*
1,1,$1+$1,$4,$5*
1,1,$1+$1,$6,$7*
1,1,$1+$1,$8,$9*
0 Add four rect primitives between the rounded corners*
20,1,$1+$1,$2,$3,$4,$5,0*
20,1,$1+$1,$4,$5,$6,$7,0*
20,1,$1+$1,$6,$7,$8,$9,0*
20,1,$1+$1,$8,$9,$2,$3,0*%
G04 Aperture macros list end*
%ADD10C,0.300000*%
%ADD11C,0.150000*%
%ADD12C,0.120000*%
%ADD13C,1.524000*%
%ADD14RoundRect,0.250000X-1.550000X0.650000X-1.550000X-0.650000X1.550000X-0.650000X1.550000X0.650000X0*%
%ADD15O,3.600000X1.800000*%
%ADD16RoundRect,0.291667X-1.508333X0.758333X-1.508333X-0.758333X1.508333X-0.758333X1.508333X0.758333X0*%
%ADD17O,3.600000X2.100000*%
%ADD18R,2.500000X1.700000*%
%ADD19O,2.500000X1.700000*%
%ADD20R,1.300000X1.550000*%
G04 APERTURE END LIST*
D10*
X101627742Y-97959774D02*
X101699171Y-98102632D01*
X101699171Y-98102632D02*
X101699171Y-98316917D01*
X101699171Y-98316917D02*
X101627742Y-98531203D01*
X101627742Y-98531203D02*
X101484885Y-98674060D01*
X101484885Y-98674060D02*
X101342028Y-98745489D01*
X101342028Y-98745489D02*
X101056314Y-98816917D01*
X101056314Y-98816917D02*
X100842028Y-98816917D01*
X100842028Y-98816917D02*
X100556314Y-98745489D01*
X100556314Y-98745489D02*
X100413457Y-98674060D01*
X100413457Y-98674060D02*
X100270600Y-98531203D01*
X100270600Y-98531203D02*
X100199171Y-98316917D01*
X100199171Y-98316917D02*
X100199171Y-98174060D01*
X100199171Y-98174060D02*
X100270600Y-97959774D01*
X100270600Y-97959774D02*
X100342028Y-97888346D01*
X100342028Y-97888346D02*
X100842028Y-97888346D01*
X100842028Y-97888346D02*
X100842028Y-98174060D01*
X100199171Y-97245489D02*
X101699171Y-97245489D01*
X101699171Y-97245489D02*
X100199171Y-96388346D01*
X100199171Y-96388346D02*
X101699171Y-96388346D01*
X100199171Y-95674060D02*
X101699171Y-95674060D01*
X101699171Y-95674060D02*
X101699171Y-95316917D01*
X101699171Y-95316917D02*
X101627742Y-95102631D01*
X101627742Y-95102631D02*
X101484885Y-94959774D01*
X101484885Y-94959774D02*
X101342028Y-94888345D01*
X101342028Y-94888345D02*
X101056314Y-94816917D01*
X101056314Y-94816917D02*
X100842028Y-94816917D01*
X100842028Y-94816917D02*
X100556314Y-94888345D01*
X100556314Y-94888345D02*
X100413457Y-94959774D01*
X100413457Y-94959774D02*
X100270600Y-95102631D01*
X100270600Y-95102631D02*
X100199171Y-95316917D01*
X100199171Y-95316917D02*
X100199171Y-95674060D01*
X100199171Y-93059774D02*
X100199171Y-93916917D01*
X100199171Y-93488346D02*
X101699171Y-93488346D01*
X101699171Y-93488346D02*
X101484885Y-93631203D01*
X101484885Y-93631203D02*
X101342028Y-93774060D01*
X101342028Y-93774060D02*
X101270600Y-93916917D01*
X101556314Y-92488346D02*
X101627742Y-92416918D01*
X101627742Y-92416918D02*
X101699171Y-92274061D01*
X101699171Y-92274061D02*
X101699171Y-91916918D01*
X101699171Y-91916918D02*
X101627742Y-91774061D01*
X101627742Y-91774061D02*
X101556314Y-91702632D01*
X101556314Y-91702632D02*
X101413457Y-91631203D01*
X101413457Y-91631203D02*
X101270600Y-91631203D01*
X101270600Y-91631203D02*
X101056314Y-91702632D01*
X101056314Y-91702632D02*
X100199171Y-92559775D01*
X100199171Y-92559775D02*
X100199171Y-91631203D01*
X101699171Y-91202632D02*
X100199171Y-90702632D01*
X100199171Y-90702632D02*
X101699171Y-90202632D01*
X100199171Y-82445489D02*
X101699171Y-82445489D01*
X101699171Y-82445489D02*
X101699171Y-82088346D01*
X101699171Y-82088346D02*
X101627742Y-81874060D01*
X101627742Y-81874060D02*
X101484885Y-81731203D01*
X101484885Y-81731203D02*
X101342028Y-81659774D01*
X101342028Y-81659774D02*
X101056314Y-81588346D01*
X101056314Y-81588346D02*
X100842028Y-81588346D01*
X100842028Y-81588346D02*
X100556314Y-81659774D01*
X100556314Y-81659774D02*
X100413457Y-81731203D01*
X100413457Y-81731203D02*
X100270600Y-81874060D01*
X100270600Y-81874060D02*
X100199171Y-82088346D01*
X100199171Y-82088346D02*
X100199171Y-82445489D01*
X101699171Y-80659774D02*
X101699171Y-80516917D01*
X101699171Y-80516917D02*
X101627742Y-80374060D01*
X101627742Y-80374060D02*
X101556314Y-80302632D01*
X101556314Y-80302632D02*
X101413457Y-80231203D01*
X101413457Y-80231203D02*
X101127742Y-80159774D01*
X101127742Y-80159774D02*
X100770600Y-80159774D01*
X100770600Y-80159774D02*
X100484885Y-80231203D01*
X100484885Y-80231203D02*
X100342028Y-80302632D01*
X100342028Y-80302632D02*
X100270600Y-80374060D01*
X100270600Y-80374060D02*
X100199171Y-80516917D01*
X100199171Y-80516917D02*
X100199171Y-80659774D01*
X100199171Y-80659774D02*
X100270600Y-80802632D01*
X100270600Y-80802632D02*
X100342028Y-80874060D01*
X100342028Y-80874060D02*
X100484885Y-80945489D01*
X100484885Y-80945489D02*
X100770600Y-81016917D01*
X100770600Y-81016917D02*
X101127742Y-81016917D01*
X101127742Y-81016917D02*
X101413457Y-80945489D01*
X101413457Y-80945489D02*
X101556314Y-80874060D01*
X101556314Y-80874060D02*
X101627742Y-80802632D01*
X101627742Y-80802632D02*
X101699171Y-80659774D01*
X100199171Y-86459774D02*
X100199171Y-87316917D01*
X100199171Y-86888346D02*
X101699171Y-86888346D01*
X101699171Y-86888346D02*
X101484885Y-87031203D01*
X101484885Y-87031203D02*
X101342028Y-87174060D01*
X101342028Y-87174060D02*
X101270600Y-87316917D01*
X101556314Y-85888346D02*
X101627742Y-85816918D01*
X101627742Y-85816918D02*
X101699171Y-85674061D01*
X101699171Y-85674061D02*
X101699171Y-85316918D01*
X101699171Y-85316918D02*
X101627742Y-85174061D01*
X101627742Y-85174061D02*
X101556314Y-85102632D01*
X101556314Y-85102632D02*
X101413457Y-85031203D01*
X101413457Y-85031203D02*
X101270600Y-85031203D01*
X101270600Y-85031203D02*
X101056314Y-85102632D01*
X101056314Y-85102632D02*
X100199171Y-85959775D01*
X100199171Y-85959775D02*
X100199171Y-85031203D01*
X101699171Y-84602632D02*
X100199171Y-84102632D01*
X100199171Y-84102632D02*
X101699171Y-83602632D01*
X101627742Y-78059774D02*
X101699171Y-78202632D01*
X101699171Y-78202632D02*
X101699171Y-78416917D01*
X101699171Y-78416917D02*
X101627742Y-78631203D01*
X101627742Y-78631203D02*
X101484885Y-78774060D01*
X101484885Y-78774060D02*
X101342028Y-78845489D01*
X101342028Y-78845489D02*
X101056314Y-78916917D01*
X101056314Y-78916917D02*
X100842028Y-78916917D01*
X100842028Y-78916917D02*
X100556314Y-78845489D01*
X100556314Y-78845489D02*
X100413457Y-78774060D01*
X100413457Y-78774060D02*
X100270600Y-78631203D01*
X100270600Y-78631203D02*
X100199171Y-78416917D01*
X100199171Y-78416917D02*
X100199171Y-78274060D01*
X100199171Y-78274060D02*
X100270600Y-78059774D01*
X100270600Y-78059774D02*
X100342028Y-77988346D01*
X100342028Y-77988346D02*
X100842028Y-77988346D01*
X100842028Y-77988346D02*
X100842028Y-78274060D01*
X100199171Y-77345489D02*
X101699171Y-77345489D01*
X101699171Y-77345489D02*
X100199171Y-76488346D01*
X100199171Y-76488346D02*
X101699171Y-76488346D01*
X100199171Y-75774060D02*
X101699171Y-75774060D01*
X101699171Y-75774060D02*
X101699171Y-75416917D01*
X101699171Y-75416917D02*
X101627742Y-75202631D01*
X101627742Y-75202631D02*
X101484885Y-75059774D01*
X101484885Y-75059774D02*
X101342028Y-74988345D01*
X101342028Y-74988345D02*
X101056314Y-74916917D01*
X101056314Y-74916917D02*
X100842028Y-74916917D01*
X100842028Y-74916917D02*
X100556314Y-74988345D01*
X100556314Y-74988345D02*
X100413457Y-75059774D01*
X100413457Y-75059774D02*
X100270600Y-75202631D01*
X100270600Y-75202631D02*
X100199171Y-75416917D01*
X100199171Y-75416917D02*
X100199171Y-75774060D01*
D11*
X156677800Y-93910839D02*
X156630180Y-93767982D01*
X156630180Y-93767982D02*
X156630180Y-93529887D01*
X156630180Y-93529887D02*
X156677800Y-93434649D01*
X156677800Y-93434649D02*
X156725419Y-93387030D01*
X156725419Y-93387030D02*
X156820657Y-93339411D01*
X156820657Y-93339411D02*
X156915895Y-93339411D01*
X156915895Y-93339411D02*
X157011133Y-93387030D01*
X157011133Y-93387030D02*
X157058752Y-93434649D01*
X157058752Y-93434649D02*
X157106371Y-93529887D01*
X157106371Y-93529887D02*
X157153990Y-93720363D01*
X157153990Y-93720363D02*
X157201609Y-93815601D01*
X157201609Y-93815601D02*
X157249228Y-93863220D01*
X157249228Y-93863220D02*
X157344466Y-93910839D01*
X157344466Y-93910839D02*
X157439704Y-93910839D01*
X157439704Y-93910839D02*
X157534942Y-93863220D01*
X157534942Y-93863220D02*
X157582561Y-93815601D01*
X157582561Y-93815601D02*
X157630180Y-93720363D01*
X157630180Y-93720363D02*
X157630180Y-93482268D01*
X157630180Y-93482268D02*
X157582561Y-93339411D01*
X157153990Y-92577506D02*
X157106371Y-92434649D01*
X157106371Y-92434649D02*
X157058752Y-92387030D01*
X157058752Y-92387030D02*
X156963514Y-92339411D01*
X156963514Y-92339411D02*
X156820657Y-92339411D01*
X156820657Y-92339411D02*
X156725419Y-92387030D01*
X156725419Y-92387030D02*
X156677800Y-92434649D01*
X156677800Y-92434649D02*
X156630180Y-92529887D01*
X156630180Y-92529887D02*
X156630180Y-92910839D01*
X156630180Y-92910839D02*
X157630180Y-92910839D01*
X157630180Y-92910839D02*
X157630180Y-92577506D01*
X157630180Y-92577506D02*
X157582561Y-92482268D01*
X157582561Y-92482268D02*
X157534942Y-92434649D01*
X157534942Y-92434649D02*
X157439704Y-92387030D01*
X157439704Y-92387030D02*
X157344466Y-92387030D01*
X157344466Y-92387030D02*
X157249228Y-92434649D01*
X157249228Y-92434649D02*
X157201609Y-92482268D01*
X157201609Y-92482268D02*
X157153990Y-92577506D01*
X157153990Y-92577506D02*
X157153990Y-92910839D01*
X156630180Y-91148934D02*
X157630180Y-91148934D01*
X157630180Y-91148934D02*
X157630180Y-90767982D01*
X157630180Y-90767982D02*
X157582561Y-90672744D01*
X157582561Y-90672744D02*
X157534942Y-90625125D01*
X157534942Y-90625125D02*
X157439704Y-90577506D01*
X157439704Y-90577506D02*
X157296847Y-90577506D01*
X157296847Y-90577506D02*
X157201609Y-90625125D01*
X157201609Y-90625125D02*
X157153990Y-90672744D01*
X157153990Y-90672744D02*
X157106371Y-90767982D01*
X157106371Y-90767982D02*
X157106371Y-91148934D01*
X156630180Y-90148934D02*
X157296847Y-90148934D01*
X157630180Y-90148934D02*
X157582561Y-90196553D01*
X157582561Y-90196553D02*
X157534942Y-90148934D01*
X157534942Y-90148934D02*
X157582561Y-90101315D01*
X157582561Y-90101315D02*
X157630180Y-90148934D01*
X157630180Y-90148934D02*
X157534942Y-90148934D01*
X156630180Y-89767982D02*
X157296847Y-89244173D01*
X157296847Y-89767982D02*
X156630180Y-89244173D01*
X156677800Y-88482268D02*
X156630180Y-88577506D01*
X156630180Y-88577506D02*
X156630180Y-88767982D01*
X156630180Y-88767982D02*
X156677800Y-88863220D01*
X156677800Y-88863220D02*
X156773038Y-88910839D01*
X156773038Y-88910839D02*
X157153990Y-88910839D01*
X157153990Y-88910839D02*
X157249228Y-88863220D01*
X157249228Y-88863220D02*
X157296847Y-88767982D01*
X157296847Y-88767982D02*
X157296847Y-88577506D01*
X157296847Y-88577506D02*
X157249228Y-88482268D01*
X157249228Y-88482268D02*
X157153990Y-88434649D01*
X157153990Y-88434649D02*
X157058752Y-88434649D01*
X157058752Y-88434649D02*
X156963514Y-88910839D01*
X156630180Y-87863220D02*
X156677800Y-87958458D01*
X156677800Y-87958458D02*
X156773038Y-88006077D01*
X156773038Y-88006077D02*
X157630180Y-88006077D01*
X156725419Y-86148934D02*
X156677800Y-86196553D01*
X156677800Y-86196553D02*
X156630180Y-86339410D01*
X156630180Y-86339410D02*
X156630180Y-86434648D01*
X156630180Y-86434648D02*
X156677800Y-86577505D01*
X156677800Y-86577505D02*
X156773038Y-86672743D01*
X156773038Y-86672743D02*
X156868276Y-86720362D01*
X156868276Y-86720362D02*
X157058752Y-86767981D01*
X157058752Y-86767981D02*
X157201609Y-86767981D01*
X157201609Y-86767981D02*
X157392085Y-86720362D01*
X157392085Y-86720362D02*
X157487323Y-86672743D01*
X157487323Y-86672743D02*
X157582561Y-86577505D01*
X157582561Y-86577505D02*
X157630180Y-86434648D01*
X157630180Y-86434648D02*
X157630180Y-86339410D01*
X157630180Y-86339410D02*
X157582561Y-86196553D01*
X157582561Y-86196553D02*
X157534942Y-86148934D01*
X156630180Y-85577505D02*
X156677800Y-85672743D01*
X156677800Y-85672743D02*
X156725419Y-85720362D01*
X156725419Y-85720362D02*
X156820657Y-85767981D01*
X156820657Y-85767981D02*
X157106371Y-85767981D01*
X157106371Y-85767981D02*
X157201609Y-85720362D01*
X157201609Y-85720362D02*
X157249228Y-85672743D01*
X157249228Y-85672743D02*
X157296847Y-85577505D01*
X157296847Y-85577505D02*
X157296847Y-85434648D01*
X157296847Y-85434648D02*
X157249228Y-85339410D01*
X157249228Y-85339410D02*
X157201609Y-85291791D01*
X157201609Y-85291791D02*
X157106371Y-85244172D01*
X157106371Y-85244172D02*
X156820657Y-85244172D01*
X156820657Y-85244172D02*
X156725419Y-85291791D01*
X156725419Y-85291791D02*
X156677800Y-85339410D01*
X156677800Y-85339410D02*
X156630180Y-85434648D01*
X156630180Y-85434648D02*
X156630180Y-85577505D01*
X157296847Y-84387029D02*
X156630180Y-84387029D01*
X157296847Y-84815600D02*
X156773038Y-84815600D01*
X156773038Y-84815600D02*
X156677800Y-84767981D01*
X156677800Y-84767981D02*
X156630180Y-84672743D01*
X156630180Y-84672743D02*
X156630180Y-84529886D01*
X156630180Y-84529886D02*
X156677800Y-84434648D01*
X156677800Y-84434648D02*
X156725419Y-84387029D01*
X157296847Y-83910838D02*
X156630180Y-83910838D01*
X157201609Y-83910838D02*
X157249228Y-83863219D01*
X157249228Y-83863219D02*
X157296847Y-83767981D01*
X157296847Y-83767981D02*
X157296847Y-83625124D01*
X157296847Y-83625124D02*
X157249228Y-83529886D01*
X157249228Y-83529886D02*
X157153990Y-83482267D01*
X157153990Y-83482267D02*
X156630180Y-83482267D01*
X157296847Y-83148933D02*
X157296847Y-82767981D01*
X157630180Y-83006076D02*
X156773038Y-83006076D01*
X156773038Y-83006076D02*
X156677800Y-82958457D01*
X156677800Y-82958457D02*
X156630180Y-82863219D01*
X156630180Y-82863219D02*
X156630180Y-82767981D01*
X157296847Y-81767980D02*
X156630180Y-81529885D01*
X156630180Y-81529885D02*
X157296847Y-81291790D01*
X156630180Y-80387028D02*
X156630180Y-80958456D01*
X156630180Y-80672742D02*
X157630180Y-80672742D01*
X157630180Y-80672742D02*
X157487323Y-80767980D01*
X157487323Y-80767980D02*
X157392085Y-80863218D01*
X157392085Y-80863218D02*
X157344466Y-80958456D01*
X127937704Y-88361904D02*
X127937704Y-88209523D01*
X127937704Y-88209523D02*
X127899609Y-88133333D01*
X127899609Y-88133333D02*
X127823419Y-88057142D01*
X127823419Y-88057142D02*
X127671038Y-88019047D01*
X127671038Y-88019047D02*
X127404371Y-88019047D01*
X127404371Y-88019047D02*
X127251990Y-88057142D01*
X127251990Y-88057142D02*
X127175800Y-88133333D01*
X127175800Y-88133333D02*
X127137704Y-88209523D01*
X127137704Y-88209523D02*
X127137704Y-88361904D01*
X127137704Y-88361904D02*
X127175800Y-88438095D01*
X127175800Y-88438095D02*
X127251990Y-88514285D01*
X127251990Y-88514285D02*
X127404371Y-88552381D01*
X127404371Y-88552381D02*
X127671038Y-88552381D01*
X127671038Y-88552381D02*
X127823419Y-88514285D01*
X127823419Y-88514285D02*
X127899609Y-88438095D01*
X127899609Y-88438095D02*
X127937704Y-88361904D01*
X127137704Y-87295238D02*
X127137704Y-87676190D01*
X127137704Y-87676190D02*
X127937704Y-87676190D01*
X127556752Y-87028571D02*
X127556752Y-86761905D01*
X127137704Y-86647619D02*
X127137704Y-87028571D01*
X127137704Y-87028571D02*
X127937704Y-87028571D01*
X127937704Y-87028571D02*
X127937704Y-86647619D01*
X127137704Y-86304761D02*
X127937704Y-86304761D01*
X127937704Y-86304761D02*
X127937704Y-86114285D01*
X127937704Y-86114285D02*
X127899609Y-85999999D01*
X127899609Y-85999999D02*
X127823419Y-85923809D01*
X127823419Y-85923809D02*
X127747228Y-85885714D01*
X127747228Y-85885714D02*
X127594847Y-85847618D01*
X127594847Y-85847618D02*
X127480561Y-85847618D01*
X127480561Y-85847618D02*
X127328180Y-85885714D01*
X127328180Y-85885714D02*
X127251990Y-85923809D01*
X127251990Y-85923809D02*
X127175800Y-85999999D01*
X127175800Y-85999999D02*
X127137704Y-86114285D01*
X127137704Y-86114285D02*
X127137704Y-86304761D01*
X116745180Y-88704761D02*
X116745180Y-88133333D01*
X115745180Y-88419047D02*
X116745180Y-88419047D01*
X115792800Y-87419047D02*
X115745180Y-87514285D01*
X115745180Y-87514285D02*
X115745180Y-87704761D01*
X115745180Y-87704761D02*
X115792800Y-87799999D01*
X115792800Y-87799999D02*
X115888038Y-87847618D01*
X115888038Y-87847618D02*
X116268990Y-87847618D01*
X116268990Y-87847618D02*
X116364228Y-87799999D01*
X116364228Y-87799999D02*
X116411847Y-87704761D01*
X116411847Y-87704761D02*
X116411847Y-87514285D01*
X116411847Y-87514285D02*
X116364228Y-87419047D01*
X116364228Y-87419047D02*
X116268990Y-87371428D01*
X116268990Y-87371428D02*
X116173752Y-87371428D01*
X116173752Y-87371428D02*
X116078514Y-87847618D01*
X115792800Y-86990475D02*
X115745180Y-86895237D01*
X115745180Y-86895237D02*
X115745180Y-86704761D01*
X115745180Y-86704761D02*
X115792800Y-86609523D01*
X115792800Y-86609523D02*
X115888038Y-86561904D01*
X115888038Y-86561904D02*
X115935657Y-86561904D01*
X115935657Y-86561904D02*
X116030895Y-86609523D01*
X116030895Y-86609523D02*
X116078514Y-86704761D01*
X116078514Y-86704761D02*
X116078514Y-86847618D01*
X116078514Y-86847618D02*
X116126133Y-86942856D01*
X116126133Y-86942856D02*
X116221371Y-86990475D01*
X116221371Y-86990475D02*
X116268990Y-86990475D01*
X116268990Y-86990475D02*
X116364228Y-86942856D01*
X116364228Y-86942856D02*
X116411847Y-86847618D01*
X116411847Y-86847618D02*
X116411847Y-86704761D01*
X116411847Y-86704761D02*
X116364228Y-86609523D01*
X116411847Y-86276189D02*
X116411847Y-85895237D01*
X116745180Y-86133332D02*
X115888038Y-86133332D01*
X115888038Y-86133332D02*
X115792800Y-86085713D01*
X115792800Y-86085713D02*
X115745180Y-85990475D01*
X115745180Y-85990475D02*
X115745180Y-85895237D01*
X117092800Y-88708332D02*
X117045180Y-88565475D01*
X117045180Y-88565475D02*
X117045180Y-88327380D01*
X117045180Y-88327380D02*
X117092800Y-88232142D01*
X117092800Y-88232142D02*
X117140419Y-88184523D01*
X117140419Y-88184523D02*
X117235657Y-88136904D01*
X117235657Y-88136904D02*
X117330895Y-88136904D01*
X117330895Y-88136904D02*
X117426133Y-88184523D01*
X117426133Y-88184523D02*
X117473752Y-88232142D01*
X117473752Y-88232142D02*
X117521371Y-88327380D01*
X117521371Y-88327380D02*
X117568990Y-88517856D01*
X117568990Y-88517856D02*
X117616609Y-88613094D01*
X117616609Y-88613094D02*
X117664228Y-88660713D01*
X117664228Y-88660713D02*
X117759466Y-88708332D01*
X117759466Y-88708332D02*
X117854704Y-88708332D01*
X117854704Y-88708332D02*
X117949942Y-88660713D01*
X117949942Y-88660713D02*
X117997561Y-88613094D01*
X117997561Y-88613094D02*
X118045180Y-88517856D01*
X118045180Y-88517856D02*
X118045180Y-88279761D01*
X118045180Y-88279761D02*
X117997561Y-88136904D01*
X118045180Y-87803570D02*
X117045180Y-87565475D01*
X117045180Y-87565475D02*
X117759466Y-87374999D01*
X117759466Y-87374999D02*
X117045180Y-87184523D01*
X117045180Y-87184523D02*
X118045180Y-86946428D01*
X117045180Y-86041666D02*
X117045180Y-86613094D01*
X117045180Y-86327380D02*
X118045180Y-86327380D01*
X118045180Y-86327380D02*
X117902323Y-86422618D01*
X117902323Y-86422618D02*
X117807085Y-86517856D01*
X117807085Y-86517856D02*
X117759466Y-86613094D01*
D12*
%TO.C,J3*%
X128500000Y-74700000D02*
X128500000Y-99700000D01*
X128500000Y-99700000D02*
X155500000Y-99700000D01*
X128640000Y-82010000D02*
X128640000Y-92390000D01*
X128640000Y-82010000D02*
X131360000Y-82010000D01*
X128640000Y-92390000D02*
X131360000Y-92390000D01*
X131360000Y-92390000D02*
X131360000Y-82010000D01*
X155500000Y-74700000D02*
X128500000Y-74700000D01*
X155500000Y-99700000D02*
X155500000Y-74700000D01*
%TO.C,SW1*%
X118520000Y-84145000D02*
X118550000Y-84145000D01*
X118520000Y-90605000D02*
X118520000Y-84145000D01*
X118520000Y-90605000D02*
X118550000Y-90605000D01*
X123050000Y-84145000D02*
X120450000Y-84145000D01*
X123050000Y-90605000D02*
X120450000Y-90605000D01*
X124950000Y-90605000D02*
X124980000Y-90605000D01*
X124980000Y-84145000D02*
X124950000Y-84145000D01*
X124980000Y-90605000D02*
X124980000Y-84145000D01*
%TD*%
%LPC*%
D13*
%TO.C,U5*%
X155910000Y-79760000D03*
X153370000Y-79760000D03*
X150830000Y-79760000D03*
X148290000Y-79760000D03*
X145750000Y-79760000D03*
X143210000Y-79760000D03*
X140670000Y-79760000D03*
X138130000Y-79760000D03*
X135590000Y-79760000D03*
X135600000Y-82300000D03*
X135600000Y-84840000D03*
X135600000Y-87380000D03*
X135600000Y-89920000D03*
X135600000Y-92460000D03*
X135590000Y-95000000D03*
X138130000Y-95000000D03*
X140670000Y-95000000D03*
X143210000Y-95000000D03*
X145750000Y-95000000D03*
X148290000Y-95000000D03*
X150830000Y-95000000D03*
X153370000Y-95000000D03*
X155910000Y-95000000D03*
%TD*%
D14*
%TO.C,TB1*%
X105357500Y-92112500D03*
D15*
X105357500Y-95922500D03*
%TD*%
D16*
%TO.C,J2*%
X105357500Y-77680000D03*
D15*
X105357500Y-81340000D03*
D17*
X105357500Y-85000000D03*
%TD*%
D18*
%TO.C,J3*%
X130000000Y-91000000D03*
D19*
X130000000Y-88500000D03*
X130000000Y-85900000D03*
X130000000Y-83400000D03*
%TD*%
D20*
%TO.C,SW1*%
X124000000Y-83400000D03*
X119500000Y-83400000D03*
X124000000Y-91350000D03*
X119500000Y-91350000D03*
%TD*%
%LPD*%
M02*
