M48
; DRILL file {KiCad 8.0.3} date 2024-06-15T12:10:25-0400
; FORMAT={-:-/ absolute / inch / decimal}
; #@! TF.CreationDate,2024-06-15T12:10:25-04:00
; #@! TF.GenerationSoftware,Kicad,Pcbnew,8.0.3
; #@! TF.FileFunction,Plated,1,2,PTH
FMAT,2
INCH
; #@! TA.AperFunction,Plated,PTH,ViaDrill
T1C0.0157
; #@! TA.AperFunction,Plated,PTH,ComponentDrill
T2C0.0394
; #@! TA.AperFunction,Plated,PTH,ComponentDrill
T3C0.0433
; #@! TA.AperFunction,Plated,PTH,ComponentDrill
T4C0.0472
%
G90
G05
T1
X3.9764Y-3.7205
X3.9764Y-3.8976
X4.252Y-3.8976
X4.2953Y-3.0079
X4.3189Y-3.3071
X4.3189Y-3.3465
X4.3189Y-3.3858
X4.3189Y-3.4252
X4.3189Y-3.4646
X4.3189Y-3.5236
X4.3189Y-3.563
X4.3189Y-3.6024
X4.3189Y-3.6417
X4.3189Y-3.6811
X4.3583Y-3.3071
X4.3583Y-3.4252
X4.3583Y-3.4646
X4.3583Y-3.5236
X4.3583Y-3.563
X4.3583Y-3.6811
X4.3583Y-3.7598
X4.3898Y-2.9606
X4.3898Y-3.0079
X4.3976Y-3.3071
X4.3976Y-3.4252
X4.3976Y-3.4646
X4.3976Y-3.5236
X4.3976Y-3.563
X4.3976Y-3.6811
X4.4094Y-2.9213
X4.4126Y-3.8965
X4.4134Y-3.8228
X4.437Y-3.3071
X4.437Y-3.4252
X4.437Y-3.4646
X4.437Y-3.5236
X4.437Y-3.563
X4.437Y-3.6811
X4.4528Y-2.9213
X4.4764Y-3.3071
X4.4764Y-3.4252
X4.4764Y-3.4646
X4.4764Y-3.5236
X4.4764Y-3.563
X4.4764Y-3.6811
X4.4764Y-3.8307
X4.4961Y-2.9213
X4.5157Y-3.3071
X4.5157Y-3.3465
X4.5157Y-3.3858
X4.5157Y-3.4252
X4.5157Y-3.4646
X4.5157Y-3.5236
X4.5157Y-3.563
X4.5157Y-3.6024
X4.5157Y-3.6417
X4.5157Y-3.6811
X4.5433Y-2.9213
X4.563Y-3.8976
X4.5787Y-3.6496
X4.5906Y-2.9213
X4.622Y-3.6496
X4.6457Y-2.9882
X4.6457Y-3.0276
X4.6614Y-3.6496
X4.6772Y-3.1299
X4.6772Y-3.189
X4.689Y-2.9882
X4.689Y-3.0276
X4.7047Y-3.4055
X4.7047Y-3.6457
X4.7165Y-3.1299
X4.7165Y-3.189
X4.7323Y-2.9882
X4.7323Y-3.0276
X4.7638Y-3.8976
X4.7661Y-3.7028
X4.7795Y-3.189
X4.7992Y-3.8268
X4.8307Y-3.189
X4.8626Y-2.9394
X4.8969Y-3.1591
X4.9055Y-2.937
X4.9146Y-3.4059
X4.9413Y-3.6441
X4.9449Y-2.937
X4.9843Y-2.937
X4.9843Y-2.9961
X5.0Y-3.8976
X5.0031Y-3.1598
X5.0248Y-3.7445
X5.1228Y-3.7768
X5.1244Y-3.6665
X5.1697Y-2.9256
X5.1772Y-3.0669
X5.2126Y-3.5512
X5.2146Y-3.772
X5.2205Y-3.4213
X5.315Y-3.8976
X5.3307Y-3.1929
X5.3465Y-3.2992
X5.3622Y-3.437
X5.4409Y-3.3346
X5.478Y-2.9256
X5.5512Y-3.8976
X5.5827Y-3.6535
X5.6152Y-3.2244
X5.7205Y-3.8937
X5.752Y-3.6417
X5.7594Y-2.926
X5.7874Y-3.8543
X5.7894Y-3.2244
X5.8425Y-3.9016
X5.9291Y-3.6457
X5.9331Y-3.2244
X5.9331Y-3.4094
X5.9803Y-3.9055
X5.9921Y-2.9291
T2
X5.1185Y-3.2685
X5.1185Y-3.3669
X5.1185Y-3.4693
X5.1185Y-3.5677
X5.3094Y-3.1205
X5.3094Y-3.7205
X5.4094Y-3.1205
X5.4094Y-3.7205
X5.5094Y-3.1205
X5.5094Y-3.7205
X5.6094Y-3.1205
X5.6094Y-3.7205
X5.7094Y-3.1205
X5.7094Y-3.7205
X5.8094Y-3.1205
X5.8094Y-3.7205
X5.9094Y-3.1205
X5.9094Y-3.7205
T3
X4.7795Y-3.2913
X4.7795Y-3.5472
X4.9567Y-3.2913
X4.9567Y-3.5472
T4
X4.1479Y-3.2024
X4.1479Y-3.6265
X4.1479Y-3.7765
T4
G00X4.1479Y-3.0533
M15
G01X4.1479Y-3.0632
M16
G05
G00X4.1479Y-3.3415
M15
G01X4.1479Y-3.3514
M16
G05
M30
