%TF.GenerationSoftware,KiCad,Pcbnew,8.0.3*%
%TF.CreationDate,2024-06-15T12:10:25-04:00*%
%TF.ProjectId,RP2040_Count,52503230-3430-45f4-936f-756e742e6b69,v2*%
%TF.SameCoordinates,Original*%
%TF.FileFunction,Legend,Bot*%
%TF.FilePolarity,Positive*%
%FSLAX46Y46*%
G04 Gerber Fmt 4.6, Leading zero omitted, Abs format (unit mm)*
G04 Created by KiCad (PCBNEW 8.0.3) date 2024-06-15 12:10:25*
%MOMM*%
%LPD*%
G01*
G04 APERTURE LIST*
G04 Aperture macros list*
%AMRoundRect*
0 Rectangle with rounded corners*
0 $1 Rounding radius*
0 $2 $3 $4 $5 $6 $7 $8 $9 X,Y pos of 4 corners*
0 Add a 4 corners polygon primitive as box body*
4,1,4,$2,$3,$4,$5,$6,$7,$8,$9,$2,$3,0*
0 Add four circle primitives for the rounded corners*
1,1,$1+$1,$2,$3*
1,1,$1+$1,$4,$5*
1,1,$1+$1,$6,$7*
1,1,$1+$1,$8,$9*
0 Add four rect primitives between the rounded corners*
20,1,$1+$1,$2,$3,$4,$5,0*
20,1,$1+$1,$4,$5,$6,$7,0*
20,1,$1+$1,$6,$7,$8,$9,0*
20,1,$1+$1,$8,$9,$2,$3,0*%
G04 Aperture macros list end*
%ADD10C,0.300000*%
%ADD11C,0.150000*%
%ADD12C,0.120000*%
%ADD13RoundRect,0.250000X-1.550000X0.650000X-1.550000X-0.650000X1.550000X-0.650000X1.550000X0.650000X0*%
%ADD14O,3.600000X1.800000*%
%ADD15R,1.600000X1.600000*%
%ADD16C,1.600000*%
%ADD17RoundRect,0.291667X-1.508333X0.758333X-1.508333X-0.758333X1.508333X-0.758333X1.508333X0.758333X0*%
%ADD18O,3.600000X2.100000*%
%ADD19R,2.500000X1.700000*%
%ADD20O,2.500000X1.700000*%
%ADD21C,2.000000*%
G04 APERTURE END LIST*
D10*
X101627742Y-97959774D02*
X101699171Y-98102632D01*
X101699171Y-98102632D02*
X101699171Y-98316917D01*
X101699171Y-98316917D02*
X101627742Y-98531203D01*
X101627742Y-98531203D02*
X101484885Y-98674060D01*
X101484885Y-98674060D02*
X101342028Y-98745489D01*
X101342028Y-98745489D02*
X101056314Y-98816917D01*
X101056314Y-98816917D02*
X100842028Y-98816917D01*
X100842028Y-98816917D02*
X100556314Y-98745489D01*
X100556314Y-98745489D02*
X100413457Y-98674060D01*
X100413457Y-98674060D02*
X100270600Y-98531203D01*
X100270600Y-98531203D02*
X100199171Y-98316917D01*
X100199171Y-98316917D02*
X100199171Y-98174060D01*
X100199171Y-98174060D02*
X100270600Y-97959774D01*
X100270600Y-97959774D02*
X100342028Y-97888346D01*
X100342028Y-97888346D02*
X100842028Y-97888346D01*
X100842028Y-97888346D02*
X100842028Y-98174060D01*
X100199171Y-97245489D02*
X101699171Y-97245489D01*
X101699171Y-97245489D02*
X100199171Y-96388346D01*
X100199171Y-96388346D02*
X101699171Y-96388346D01*
X100199171Y-95674060D02*
X101699171Y-95674060D01*
X101699171Y-95674060D02*
X101699171Y-95316917D01*
X101699171Y-95316917D02*
X101627742Y-95102631D01*
X101627742Y-95102631D02*
X101484885Y-94959774D01*
X101484885Y-94959774D02*
X101342028Y-94888345D01*
X101342028Y-94888345D02*
X101056314Y-94816917D01*
X101056314Y-94816917D02*
X100842028Y-94816917D01*
X100842028Y-94816917D02*
X100556314Y-94888345D01*
X100556314Y-94888345D02*
X100413457Y-94959774D01*
X100413457Y-94959774D02*
X100270600Y-95102631D01*
X100270600Y-95102631D02*
X100199171Y-95316917D01*
X100199171Y-95316917D02*
X100199171Y-95674060D01*
X100199171Y-93059774D02*
X100199171Y-93916917D01*
X100199171Y-93488346D02*
X101699171Y-93488346D01*
X101699171Y-93488346D02*
X101484885Y-93631203D01*
X101484885Y-93631203D02*
X101342028Y-93774060D01*
X101342028Y-93774060D02*
X101270600Y-93916917D01*
X101556314Y-92488346D02*
X101627742Y-92416918D01*
X101627742Y-92416918D02*
X101699171Y-92274061D01*
X101699171Y-92274061D02*
X101699171Y-91916918D01*
X101699171Y-91916918D02*
X101627742Y-91774061D01*
X101627742Y-91774061D02*
X101556314Y-91702632D01*
X101556314Y-91702632D02*
X101413457Y-91631203D01*
X101413457Y-91631203D02*
X101270600Y-91631203D01*
X101270600Y-91631203D02*
X101056314Y-91702632D01*
X101056314Y-91702632D02*
X100199171Y-92559775D01*
X100199171Y-92559775D02*
X100199171Y-91631203D01*
X101699171Y-91202632D02*
X100199171Y-90702632D01*
X100199171Y-90702632D02*
X101699171Y-90202632D01*
X100199171Y-82445489D02*
X101699171Y-82445489D01*
X101699171Y-82445489D02*
X101699171Y-82088346D01*
X101699171Y-82088346D02*
X101627742Y-81874060D01*
X101627742Y-81874060D02*
X101484885Y-81731203D01*
X101484885Y-81731203D02*
X101342028Y-81659774D01*
X101342028Y-81659774D02*
X101056314Y-81588346D01*
X101056314Y-81588346D02*
X100842028Y-81588346D01*
X100842028Y-81588346D02*
X100556314Y-81659774D01*
X100556314Y-81659774D02*
X100413457Y-81731203D01*
X100413457Y-81731203D02*
X100270600Y-81874060D01*
X100270600Y-81874060D02*
X100199171Y-82088346D01*
X100199171Y-82088346D02*
X100199171Y-82445489D01*
X101699171Y-80659774D02*
X101699171Y-80516917D01*
X101699171Y-80516917D02*
X101627742Y-80374060D01*
X101627742Y-80374060D02*
X101556314Y-80302632D01*
X101556314Y-80302632D02*
X101413457Y-80231203D01*
X101413457Y-80231203D02*
X101127742Y-80159774D01*
X101127742Y-80159774D02*
X100770600Y-80159774D01*
X100770600Y-80159774D02*
X100484885Y-80231203D01*
X100484885Y-80231203D02*
X100342028Y-80302632D01*
X100342028Y-80302632D02*
X100270600Y-80374060D01*
X100270600Y-80374060D02*
X100199171Y-80516917D01*
X100199171Y-80516917D02*
X100199171Y-80659774D01*
X100199171Y-80659774D02*
X100270600Y-80802632D01*
X100270600Y-80802632D02*
X100342028Y-80874060D01*
X100342028Y-80874060D02*
X100484885Y-80945489D01*
X100484885Y-80945489D02*
X100770600Y-81016917D01*
X100770600Y-81016917D02*
X101127742Y-81016917D01*
X101127742Y-81016917D02*
X101413457Y-80945489D01*
X101413457Y-80945489D02*
X101556314Y-80874060D01*
X101556314Y-80874060D02*
X101627742Y-80802632D01*
X101627742Y-80802632D02*
X101699171Y-80659774D01*
X100199171Y-86459774D02*
X100199171Y-87316917D01*
X100199171Y-86888346D02*
X101699171Y-86888346D01*
X101699171Y-86888346D02*
X101484885Y-87031203D01*
X101484885Y-87031203D02*
X101342028Y-87174060D01*
X101342028Y-87174060D02*
X101270600Y-87316917D01*
X101556314Y-85888346D02*
X101627742Y-85816918D01*
X101627742Y-85816918D02*
X101699171Y-85674061D01*
X101699171Y-85674061D02*
X101699171Y-85316918D01*
X101699171Y-85316918D02*
X101627742Y-85174061D01*
X101627742Y-85174061D02*
X101556314Y-85102632D01*
X101556314Y-85102632D02*
X101413457Y-85031203D01*
X101413457Y-85031203D02*
X101270600Y-85031203D01*
X101270600Y-85031203D02*
X101056314Y-85102632D01*
X101056314Y-85102632D02*
X100199171Y-85959775D01*
X100199171Y-85959775D02*
X100199171Y-85031203D01*
X101699171Y-84602632D02*
X100199171Y-84102632D01*
X100199171Y-84102632D02*
X101699171Y-83602632D01*
X101627742Y-78059774D02*
X101699171Y-78202632D01*
X101699171Y-78202632D02*
X101699171Y-78416917D01*
X101699171Y-78416917D02*
X101627742Y-78631203D01*
X101627742Y-78631203D02*
X101484885Y-78774060D01*
X101484885Y-78774060D02*
X101342028Y-78845489D01*
X101342028Y-78845489D02*
X101056314Y-78916917D01*
X101056314Y-78916917D02*
X100842028Y-78916917D01*
X100842028Y-78916917D02*
X100556314Y-78845489D01*
X100556314Y-78845489D02*
X100413457Y-78774060D01*
X100413457Y-78774060D02*
X100270600Y-78631203D01*
X100270600Y-78631203D02*
X100199171Y-78416917D01*
X100199171Y-78416917D02*
X100199171Y-78274060D01*
X100199171Y-78274060D02*
X100270600Y-78059774D01*
X100270600Y-78059774D02*
X100342028Y-77988346D01*
X100342028Y-77988346D02*
X100842028Y-77988346D01*
X100842028Y-77988346D02*
X100842028Y-78274060D01*
X100199171Y-77345489D02*
X101699171Y-77345489D01*
X101699171Y-77345489D02*
X100199171Y-76488346D01*
X100199171Y-76488346D02*
X101699171Y-76488346D01*
X100199171Y-75774060D02*
X101699171Y-75774060D01*
X101699171Y-75774060D02*
X101699171Y-75416917D01*
X101699171Y-75416917D02*
X101627742Y-75202631D01*
X101627742Y-75202631D02*
X101484885Y-75059774D01*
X101484885Y-75059774D02*
X101342028Y-74988345D01*
X101342028Y-74988345D02*
X101056314Y-74916917D01*
X101056314Y-74916917D02*
X100842028Y-74916917D01*
X100842028Y-74916917D02*
X100556314Y-74988345D01*
X100556314Y-74988345D02*
X100413457Y-75059774D01*
X100413457Y-75059774D02*
X100270600Y-75202631D01*
X100270600Y-75202631D02*
X100199171Y-75416917D01*
X100199171Y-75416917D02*
X100199171Y-75774060D01*
D11*
X117680180Y-91761792D02*
X118156371Y-92095125D01*
X117680180Y-92333220D02*
X118680180Y-92333220D01*
X118680180Y-92333220D02*
X118680180Y-91952268D01*
X118680180Y-91952268D02*
X118632561Y-91857030D01*
X118632561Y-91857030D02*
X118584942Y-91809411D01*
X118584942Y-91809411D02*
X118489704Y-91761792D01*
X118489704Y-91761792D02*
X118346847Y-91761792D01*
X118346847Y-91761792D02*
X118251609Y-91809411D01*
X118251609Y-91809411D02*
X118203990Y-91857030D01*
X118203990Y-91857030D02*
X118156371Y-91952268D01*
X118156371Y-91952268D02*
X118156371Y-92333220D01*
X117680180Y-91333220D02*
X118680180Y-91333220D01*
X118680180Y-91333220D02*
X118680180Y-90952268D01*
X118680180Y-90952268D02*
X118632561Y-90857030D01*
X118632561Y-90857030D02*
X118584942Y-90809411D01*
X118584942Y-90809411D02*
X118489704Y-90761792D01*
X118489704Y-90761792D02*
X118346847Y-90761792D01*
X118346847Y-90761792D02*
X118251609Y-90809411D01*
X118251609Y-90809411D02*
X118203990Y-90857030D01*
X118203990Y-90857030D02*
X118156371Y-90952268D01*
X118156371Y-90952268D02*
X118156371Y-91333220D01*
X118584942Y-90380839D02*
X118632561Y-90333220D01*
X118632561Y-90333220D02*
X118680180Y-90237982D01*
X118680180Y-90237982D02*
X118680180Y-89999887D01*
X118680180Y-89999887D02*
X118632561Y-89904649D01*
X118632561Y-89904649D02*
X118584942Y-89857030D01*
X118584942Y-89857030D02*
X118489704Y-89809411D01*
X118489704Y-89809411D02*
X118394466Y-89809411D01*
X118394466Y-89809411D02*
X118251609Y-89857030D01*
X118251609Y-89857030D02*
X117680180Y-90428458D01*
X117680180Y-90428458D02*
X117680180Y-89809411D01*
X118680180Y-89190363D02*
X118680180Y-89095125D01*
X118680180Y-89095125D02*
X118632561Y-88999887D01*
X118632561Y-88999887D02*
X118584942Y-88952268D01*
X118584942Y-88952268D02*
X118489704Y-88904649D01*
X118489704Y-88904649D02*
X118299228Y-88857030D01*
X118299228Y-88857030D02*
X118061133Y-88857030D01*
X118061133Y-88857030D02*
X117870657Y-88904649D01*
X117870657Y-88904649D02*
X117775419Y-88952268D01*
X117775419Y-88952268D02*
X117727800Y-88999887D01*
X117727800Y-88999887D02*
X117680180Y-89095125D01*
X117680180Y-89095125D02*
X117680180Y-89190363D01*
X117680180Y-89190363D02*
X117727800Y-89285601D01*
X117727800Y-89285601D02*
X117775419Y-89333220D01*
X117775419Y-89333220D02*
X117870657Y-89380839D01*
X117870657Y-89380839D02*
X118061133Y-89428458D01*
X118061133Y-89428458D02*
X118299228Y-89428458D01*
X118299228Y-89428458D02*
X118489704Y-89380839D01*
X118489704Y-89380839D02*
X118584942Y-89333220D01*
X118584942Y-89333220D02*
X118632561Y-89285601D01*
X118632561Y-89285601D02*
X118680180Y-89190363D01*
X118346847Y-87999887D02*
X117680180Y-87999887D01*
X118727800Y-88237982D02*
X118013514Y-88476077D01*
X118013514Y-88476077D02*
X118013514Y-87857030D01*
X118680180Y-87285601D02*
X118680180Y-87190363D01*
X118680180Y-87190363D02*
X118632561Y-87095125D01*
X118632561Y-87095125D02*
X118584942Y-87047506D01*
X118584942Y-87047506D02*
X118489704Y-86999887D01*
X118489704Y-86999887D02*
X118299228Y-86952268D01*
X118299228Y-86952268D02*
X118061133Y-86952268D01*
X118061133Y-86952268D02*
X117870657Y-86999887D01*
X117870657Y-86999887D02*
X117775419Y-87047506D01*
X117775419Y-87047506D02*
X117727800Y-87095125D01*
X117727800Y-87095125D02*
X117680180Y-87190363D01*
X117680180Y-87190363D02*
X117680180Y-87285601D01*
X117680180Y-87285601D02*
X117727800Y-87380839D01*
X117727800Y-87380839D02*
X117775419Y-87428458D01*
X117775419Y-87428458D02*
X117870657Y-87476077D01*
X117870657Y-87476077D02*
X118061133Y-87523696D01*
X118061133Y-87523696D02*
X118299228Y-87523696D01*
X118299228Y-87523696D02*
X118489704Y-87476077D01*
X118489704Y-87476077D02*
X118584942Y-87428458D01*
X118584942Y-87428458D02*
X118632561Y-87380839D01*
X118632561Y-87380839D02*
X118680180Y-87285601D01*
X117775419Y-85190363D02*
X117727800Y-85237982D01*
X117727800Y-85237982D02*
X117680180Y-85380839D01*
X117680180Y-85380839D02*
X117680180Y-85476077D01*
X117680180Y-85476077D02*
X117727800Y-85618934D01*
X117727800Y-85618934D02*
X117823038Y-85714172D01*
X117823038Y-85714172D02*
X117918276Y-85761791D01*
X117918276Y-85761791D02*
X118108752Y-85809410D01*
X118108752Y-85809410D02*
X118251609Y-85809410D01*
X118251609Y-85809410D02*
X118442085Y-85761791D01*
X118442085Y-85761791D02*
X118537323Y-85714172D01*
X118537323Y-85714172D02*
X118632561Y-85618934D01*
X118632561Y-85618934D02*
X118680180Y-85476077D01*
X118680180Y-85476077D02*
X118680180Y-85380839D01*
X118680180Y-85380839D02*
X118632561Y-85237982D01*
X118632561Y-85237982D02*
X118584942Y-85190363D01*
X117680180Y-84618934D02*
X117727800Y-84714172D01*
X117727800Y-84714172D02*
X117775419Y-84761791D01*
X117775419Y-84761791D02*
X117870657Y-84809410D01*
X117870657Y-84809410D02*
X118156371Y-84809410D01*
X118156371Y-84809410D02*
X118251609Y-84761791D01*
X118251609Y-84761791D02*
X118299228Y-84714172D01*
X118299228Y-84714172D02*
X118346847Y-84618934D01*
X118346847Y-84618934D02*
X118346847Y-84476077D01*
X118346847Y-84476077D02*
X118299228Y-84380839D01*
X118299228Y-84380839D02*
X118251609Y-84333220D01*
X118251609Y-84333220D02*
X118156371Y-84285601D01*
X118156371Y-84285601D02*
X117870657Y-84285601D01*
X117870657Y-84285601D02*
X117775419Y-84333220D01*
X117775419Y-84333220D02*
X117727800Y-84380839D01*
X117727800Y-84380839D02*
X117680180Y-84476077D01*
X117680180Y-84476077D02*
X117680180Y-84618934D01*
X118346847Y-83428458D02*
X117680180Y-83428458D01*
X118346847Y-83857029D02*
X117823038Y-83857029D01*
X117823038Y-83857029D02*
X117727800Y-83809410D01*
X117727800Y-83809410D02*
X117680180Y-83714172D01*
X117680180Y-83714172D02*
X117680180Y-83571315D01*
X117680180Y-83571315D02*
X117727800Y-83476077D01*
X117727800Y-83476077D02*
X117775419Y-83428458D01*
X118346847Y-82952267D02*
X117680180Y-82952267D01*
X118251609Y-82952267D02*
X118299228Y-82904648D01*
X118299228Y-82904648D02*
X118346847Y-82809410D01*
X118346847Y-82809410D02*
X118346847Y-82666553D01*
X118346847Y-82666553D02*
X118299228Y-82571315D01*
X118299228Y-82571315D02*
X118203990Y-82523696D01*
X118203990Y-82523696D02*
X117680180Y-82523696D01*
X118346847Y-82190362D02*
X118346847Y-81809410D01*
X118680180Y-82047505D02*
X117823038Y-82047505D01*
X117823038Y-82047505D02*
X117727800Y-81999886D01*
X117727800Y-81999886D02*
X117680180Y-81904648D01*
X117680180Y-81904648D02*
X117680180Y-81809410D01*
X118346847Y-80809409D02*
X117680180Y-80571314D01*
X117680180Y-80571314D02*
X118346847Y-80333219D01*
X118584942Y-79999885D02*
X118632561Y-79952266D01*
X118632561Y-79952266D02*
X118680180Y-79857028D01*
X118680180Y-79857028D02*
X118680180Y-79618933D01*
X118680180Y-79618933D02*
X118632561Y-79523695D01*
X118632561Y-79523695D02*
X118584942Y-79476076D01*
X118584942Y-79476076D02*
X118489704Y-79428457D01*
X118489704Y-79428457D02*
X118394466Y-79428457D01*
X118394466Y-79428457D02*
X118251609Y-79476076D01*
X118251609Y-79476076D02*
X117680180Y-80047504D01*
X117680180Y-80047504D02*
X117680180Y-79428457D01*
X132777704Y-87931904D02*
X132777704Y-87779523D01*
X132777704Y-87779523D02*
X132739609Y-87703333D01*
X132739609Y-87703333D02*
X132663419Y-87627142D01*
X132663419Y-87627142D02*
X132511038Y-87589047D01*
X132511038Y-87589047D02*
X132244371Y-87589047D01*
X132244371Y-87589047D02*
X132091990Y-87627142D01*
X132091990Y-87627142D02*
X132015800Y-87703333D01*
X132015800Y-87703333D02*
X131977704Y-87779523D01*
X131977704Y-87779523D02*
X131977704Y-87931904D01*
X131977704Y-87931904D02*
X132015800Y-88008095D01*
X132015800Y-88008095D02*
X132091990Y-88084285D01*
X132091990Y-88084285D02*
X132244371Y-88122381D01*
X132244371Y-88122381D02*
X132511038Y-88122381D01*
X132511038Y-88122381D02*
X132663419Y-88084285D01*
X132663419Y-88084285D02*
X132739609Y-88008095D01*
X132739609Y-88008095D02*
X132777704Y-87931904D01*
X131977704Y-86865238D02*
X131977704Y-87246190D01*
X131977704Y-87246190D02*
X132777704Y-87246190D01*
X132396752Y-86598571D02*
X132396752Y-86331905D01*
X131977704Y-86217619D02*
X131977704Y-86598571D01*
X131977704Y-86598571D02*
X132777704Y-86598571D01*
X132777704Y-86598571D02*
X132777704Y-86217619D01*
X131977704Y-85874761D02*
X132777704Y-85874761D01*
X132777704Y-85874761D02*
X132777704Y-85684285D01*
X132777704Y-85684285D02*
X132739609Y-85569999D01*
X132739609Y-85569999D02*
X132663419Y-85493809D01*
X132663419Y-85493809D02*
X132587228Y-85455714D01*
X132587228Y-85455714D02*
X132434847Y-85417618D01*
X132434847Y-85417618D02*
X132320561Y-85417618D01*
X132320561Y-85417618D02*
X132168180Y-85455714D01*
X132168180Y-85455714D02*
X132091990Y-85493809D01*
X132091990Y-85493809D02*
X132015800Y-85569999D01*
X132015800Y-85569999D02*
X131977704Y-85684285D01*
X131977704Y-85684285D02*
X131977704Y-85874761D01*
X130527704Y-80946666D02*
X129956276Y-80946666D01*
X129956276Y-80946666D02*
X129841990Y-80984761D01*
X129841990Y-80984761D02*
X129765800Y-81060952D01*
X129765800Y-81060952D02*
X129727704Y-81175237D01*
X129727704Y-81175237D02*
X129727704Y-81251428D01*
X130527704Y-80641904D02*
X130527704Y-80146666D01*
X130527704Y-80146666D02*
X130222942Y-80413332D01*
X130222942Y-80413332D02*
X130222942Y-80299047D01*
X130222942Y-80299047D02*
X130184847Y-80222856D01*
X130184847Y-80222856D02*
X130146752Y-80184761D01*
X130146752Y-80184761D02*
X130070561Y-80146666D01*
X130070561Y-80146666D02*
X129880085Y-80146666D01*
X129880085Y-80146666D02*
X129803895Y-80184761D01*
X129803895Y-80184761D02*
X129765800Y-80222856D01*
X129765800Y-80222856D02*
X129727704Y-80299047D01*
X129727704Y-80299047D02*
X129727704Y-80527618D01*
X129727704Y-80527618D02*
X129765800Y-80603809D01*
X129765800Y-80603809D02*
X129803895Y-80641904D01*
X127192800Y-88133332D02*
X127145180Y-87990475D01*
X127145180Y-87990475D02*
X127145180Y-87752380D01*
X127145180Y-87752380D02*
X127192800Y-87657142D01*
X127192800Y-87657142D02*
X127240419Y-87609523D01*
X127240419Y-87609523D02*
X127335657Y-87561904D01*
X127335657Y-87561904D02*
X127430895Y-87561904D01*
X127430895Y-87561904D02*
X127526133Y-87609523D01*
X127526133Y-87609523D02*
X127573752Y-87657142D01*
X127573752Y-87657142D02*
X127621371Y-87752380D01*
X127621371Y-87752380D02*
X127668990Y-87942856D01*
X127668990Y-87942856D02*
X127716609Y-88038094D01*
X127716609Y-88038094D02*
X127764228Y-88085713D01*
X127764228Y-88085713D02*
X127859466Y-88133332D01*
X127859466Y-88133332D02*
X127954704Y-88133332D01*
X127954704Y-88133332D02*
X128049942Y-88085713D01*
X128049942Y-88085713D02*
X128097561Y-88038094D01*
X128097561Y-88038094D02*
X128145180Y-87942856D01*
X128145180Y-87942856D02*
X128145180Y-87704761D01*
X128145180Y-87704761D02*
X128097561Y-87561904D01*
X128145180Y-87228570D02*
X127145180Y-86990475D01*
X127145180Y-86990475D02*
X127859466Y-86799999D01*
X127859466Y-86799999D02*
X127145180Y-86609523D01*
X127145180Y-86609523D02*
X128145180Y-86371428D01*
X127145180Y-85466666D02*
X127145180Y-86038094D01*
X127145180Y-85752380D02*
X128145180Y-85752380D01*
X128145180Y-85752380D02*
X128002323Y-85847618D01*
X128002323Y-85847618D02*
X127907085Y-85942856D01*
X127907085Y-85942856D02*
X127859466Y-86038094D01*
D12*
%TO.C,J3*%
X128510000Y-74320000D02*
X128510000Y-99320000D01*
X128510000Y-99320000D02*
X155510000Y-99320000D01*
X128650000Y-81630000D02*
X128650000Y-92010000D01*
X128650000Y-81630000D02*
X131370000Y-81630000D01*
X128650000Y-92010000D02*
X131370000Y-92010000D01*
X131370000Y-92010000D02*
X131370000Y-81630000D01*
X155510000Y-74320000D02*
X128510000Y-74320000D01*
X155510000Y-99320000D02*
X155510000Y-74320000D01*
%TO.C,SW1*%
X120400000Y-84600000D02*
X120400000Y-89100000D01*
X122900000Y-90350000D02*
X124400000Y-90350000D01*
X124400000Y-83350000D02*
X122900000Y-83350000D01*
X126900000Y-89100000D02*
X126900000Y-84600000D01*
%TD*%
%LPC*%
D13*
%TO.C,TB1*%
X105357500Y-92112500D03*
D14*
X105357500Y-95922500D03*
%TD*%
D15*
%TO.C,U2*%
X150100000Y-79260000D03*
D16*
X147560000Y-79260000D03*
X145020000Y-79260000D03*
X142480000Y-79260000D03*
X139940000Y-79260000D03*
X137400000Y-79260000D03*
X134860000Y-79260000D03*
X134860000Y-94500000D03*
X137400000Y-94500000D03*
X139940000Y-94500000D03*
X142480000Y-94500000D03*
X145020000Y-94500000D03*
X147560000Y-94500000D03*
X150100000Y-94500000D03*
%TD*%
D17*
%TO.C,J2*%
X105357500Y-77680000D03*
D14*
X105357500Y-81340000D03*
D18*
X105357500Y-85000000D03*
%TD*%
D19*
%TO.C,J3*%
X130010000Y-90620000D03*
D20*
X130010000Y-88120000D03*
X130010000Y-85520000D03*
X130010000Y-83020000D03*
%TD*%
D21*
%TO.C,SW1*%
X125900000Y-90100000D03*
X125900000Y-83600000D03*
X121400000Y-90100000D03*
X121400000Y-83600000D03*
%TD*%
%LPD*%
M02*
