%TF.GenerationSoftware,KiCad,Pcbnew,8.0.3*%
%TF.CreationDate,2024-06-15T12:10:25-04:00*%
%TF.ProjectId,RP2040_Count,52503230-3430-45f4-936f-756e742e6b69,v2*%
%TF.SameCoordinates,Original*%
%TF.FileFunction,Soldermask,Top*%
%TF.FilePolarity,Negative*%
%FSLAX46Y46*%
G04 Gerber Fmt 4.6, Leading zero omitted, Abs format (unit mm)*
G04 Created by KiCad (PCBNEW 8.0.3) date 2024-06-15 12:10:25*
%MOMM*%
%LPD*%
G01*
G04 APERTURE LIST*
G04 Aperture macros list*
%AMRoundRect*
0 Rectangle with rounded corners*
0 $1 Rounding radius*
0 $2 $3 $4 $5 $6 $7 $8 $9 X,Y pos of 4 corners*
0 Add a 4 corners polygon primitive as box body*
4,1,4,$2,$3,$4,$5,$6,$7,$8,$9,$2,$3,0*
0 Add four circle primitives for the rounded corners*
1,1,$1+$1,$2,$3*
1,1,$1+$1,$4,$5*
1,1,$1+$1,$6,$7*
1,1,$1+$1,$8,$9*
0 Add four rect primitives between the rounded corners*
20,1,$1+$1,$2,$3,$4,$5,0*
20,1,$1+$1,$4,$5,$6,$7,0*
20,1,$1+$1,$6,$7,$8,$9,0*
20,1,$1+$1,$8,$9,$2,$3,0*%
G04 Aperture macros list end*
%ADD10RoundRect,0.249999X1.425001X-0.450001X1.425001X0.450001X-1.425001X0.450001X-1.425001X-0.450001X0*%
%ADD11RoundRect,0.250000X-1.550000X0.650000X-1.550000X-0.650000X1.550000X-0.650000X1.550000X0.650000X0*%
%ADD12O,3.600000X1.800000*%
%ADD13RoundRect,0.237500X0.250000X0.237500X-0.250000X0.237500X-0.250000X-0.237500X0.250000X-0.237500X0*%
%ADD14RoundRect,0.237500X-0.300000X-0.237500X0.300000X-0.237500X0.300000X0.237500X-0.300000X0.237500X0*%
%ADD15R,0.700000X0.510000*%
%ADD16RoundRect,0.150000X0.150000X-0.825000X0.150000X0.825000X-0.150000X0.825000X-0.150000X-0.825000X0*%
%ADD17RoundRect,0.250000X0.475000X-0.337500X0.475000X0.337500X-0.475000X0.337500X-0.475000X-0.337500X0*%
%ADD18R,1.600000X1.600000*%
%ADD19R,1.700000X3.030000*%
%ADD20C,1.600000*%
%ADD21RoundRect,0.237500X-0.250000X-0.237500X0.250000X-0.237500X0.250000X0.237500X-0.250000X0.237500X0*%
%ADD22R,2.000000X1.500000*%
%ADD23R,2.000000X3.800000*%
%ADD24RoundRect,0.237500X0.300000X0.237500X-0.300000X0.237500X-0.300000X-0.237500X0.300000X-0.237500X0*%
%ADD25RoundRect,0.291667X-1.508333X0.758333X-1.508333X-0.758333X1.508333X-0.758333X1.508333X0.758333X0*%
%ADD26O,3.600000X2.100000*%
%ADD27R,2.500000X1.700000*%
%ADD28O,2.500000X1.700000*%
%ADD29C,2.000000*%
G04 APERTURE END LIST*
D10*
%TO.C,R2*%
X112200000Y-91800000D03*
X112200000Y-85700000D03*
%TD*%
D11*
%TO.C,TB1*%
X105357500Y-92112500D03*
D12*
X105357500Y-95922500D03*
%TD*%
D13*
%TO.C,R3*%
X116912500Y-97300000D03*
X115087500Y-97300000D03*
%TD*%
D14*
%TO.C,C6*%
X148375000Y-97800000D03*
X150100000Y-97800000D03*
%TD*%
%TO.C,C1*%
X116337500Y-86400000D03*
X118062500Y-86400000D03*
%TD*%
D15*
%TO.C,U1*%
X118720000Y-84700000D03*
X118720000Y-83750000D03*
X118720000Y-82800000D03*
X116400000Y-82800000D03*
X116400000Y-84700000D03*
%TD*%
D16*
%TO.C,U4*%
X115645000Y-95145000D03*
X116915000Y-95145000D03*
X118185000Y-95145000D03*
X119455000Y-95145000D03*
X119455000Y-90195000D03*
X118185000Y-90195000D03*
X116915000Y-90195000D03*
X115645000Y-90195000D03*
%TD*%
D17*
%TO.C,C4*%
X124600000Y-78237500D03*
X124600000Y-76162500D03*
%TD*%
D18*
%TO.C,U2*%
X150100000Y-79260000D03*
D19*
X150100001Y-78595000D03*
D20*
X147560000Y-79260000D03*
D19*
X147560000Y-78595000D03*
D20*
X145020000Y-79260000D03*
D19*
X145020000Y-78595000D03*
D20*
X142480000Y-79260000D03*
D19*
X142480000Y-78595000D03*
D20*
X139940000Y-79260000D03*
D19*
X139940000Y-78595000D03*
D20*
X137400000Y-79260000D03*
D19*
X137400000Y-78595000D03*
D20*
X134860000Y-79260000D03*
D19*
X134860000Y-78595000D03*
X134860000Y-95165000D03*
D20*
X134860000Y-94500000D03*
D19*
X137400000Y-95165000D03*
D20*
X137400000Y-94500000D03*
D19*
X139940000Y-95165000D03*
D20*
X139940000Y-94500000D03*
D19*
X142480000Y-95165000D03*
D20*
X142480000Y-94500000D03*
D19*
X145020000Y-95165000D03*
D20*
X145020000Y-94500000D03*
D19*
X147560000Y-95165000D03*
D20*
X147560000Y-94500000D03*
X150100000Y-94500000D03*
D19*
X150100000Y-95165000D03*
%TD*%
D21*
%TO.C,R1*%
X111687500Y-82100000D03*
X113512500Y-82100000D03*
%TD*%
D22*
%TO.C,U3*%
X115800000Y-75900000D03*
X115800000Y-78200000D03*
D23*
X122100000Y-78200000D03*
D22*
X115800000Y-80500000D03*
%TD*%
D24*
%TO.C,C5*%
X120185000Y-87990000D03*
X118460000Y-87990000D03*
%TD*%
D17*
%TO.C,C3*%
X113300000Y-78037500D03*
X113300000Y-75962500D03*
%TD*%
D13*
%TO.C,R4*%
X113922500Y-95490000D03*
X112097500Y-95490000D03*
%TD*%
D25*
%TO.C,J2*%
X105357500Y-77680000D03*
D12*
X105357500Y-81340000D03*
D26*
X105357500Y-85000000D03*
%TD*%
D27*
%TO.C,J3*%
X130010000Y-90620000D03*
D28*
X130010000Y-88120000D03*
X130010000Y-85520000D03*
X130010000Y-83020000D03*
%TD*%
D29*
%TO.C,SW1*%
X125900000Y-90100000D03*
X125900000Y-83600000D03*
X121400000Y-90100000D03*
X121400000Y-83600000D03*
%TD*%
M02*
